G75*
%MOIN*%
%OFA0B0*%
%FSLAX25Y25*%
%IPPOS*%
%LPD*%
%AMOC8*
5,1,8,0,0,1.08239X$1,22.5*
%
%ADD10C,0.00600*%
%ADD11C,0.00100*%
%ADD12C,0.01000*%
D10*
X0083621Y0231933D02*
X0087176Y0231933D01*
X0084154Y0235489D01*
X0085221Y0238334D02*
X0085310Y0238332D01*
X0085399Y0238326D01*
X0085488Y0238317D01*
X0085576Y0238303D01*
X0085663Y0238286D01*
X0085750Y0238265D01*
X0085836Y0238240D01*
X0085920Y0238212D01*
X0086003Y0238179D01*
X0086085Y0238144D01*
X0086165Y0238104D01*
X0086243Y0238062D01*
X0086320Y0238016D01*
X0086394Y0237967D01*
X0086466Y0237914D01*
X0086536Y0237859D01*
X0086603Y0237800D01*
X0086668Y0237739D01*
X0086730Y0237675D01*
X0086789Y0237608D01*
X0086845Y0237539D01*
X0086898Y0237467D01*
X0086948Y0237393D01*
X0086995Y0237317D01*
X0087038Y0237240D01*
X0087078Y0237160D01*
X0087115Y0237078D01*
X0087148Y0236996D01*
X0087177Y0236911D01*
X0084153Y0235488D02*
X0084096Y0235546D01*
X0084040Y0235607D01*
X0083988Y0235670D01*
X0083939Y0235735D01*
X0083893Y0235803D01*
X0083851Y0235873D01*
X0083811Y0235945D01*
X0083776Y0236018D01*
X0083743Y0236094D01*
X0083715Y0236170D01*
X0083690Y0236248D01*
X0083669Y0236327D01*
X0083651Y0236407D01*
X0083638Y0236488D01*
X0083628Y0236569D01*
X0083622Y0236651D01*
X0083620Y0236733D01*
X0083621Y0236733D02*
X0083623Y0236812D01*
X0083629Y0236890D01*
X0083638Y0236968D01*
X0083652Y0237045D01*
X0083669Y0237122D01*
X0083690Y0237197D01*
X0083715Y0237272D01*
X0083743Y0237345D01*
X0083775Y0237417D01*
X0083810Y0237487D01*
X0083849Y0237556D01*
X0083891Y0237622D01*
X0083936Y0237686D01*
X0083984Y0237748D01*
X0084035Y0237807D01*
X0084090Y0237864D01*
X0084147Y0237919D01*
X0084206Y0237970D01*
X0084268Y0238018D01*
X0084332Y0238063D01*
X0084398Y0238105D01*
X0084467Y0238144D01*
X0084537Y0238179D01*
X0084609Y0238211D01*
X0084682Y0238239D01*
X0084757Y0238264D01*
X0084832Y0238285D01*
X0084909Y0238302D01*
X0084986Y0238316D01*
X0085064Y0238325D01*
X0085142Y0238331D01*
X0085221Y0238333D01*
X0084962Y0242733D02*
X0086385Y0242733D01*
X0085674Y0242733D02*
X0085674Y0249133D01*
X0086385Y0249133D02*
X0084962Y0249133D01*
X0084775Y0253233D02*
X0084775Y0259633D01*
X0082642Y0256078D01*
X0080509Y0259633D01*
X0080509Y0253233D01*
X0078006Y0253233D02*
X0075873Y0259633D01*
X0073739Y0253233D01*
X0074273Y0254833D02*
X0077473Y0254833D01*
X0076496Y0249133D02*
X0074718Y0249133D01*
X0074635Y0249131D01*
X0074552Y0249125D01*
X0074469Y0249115D01*
X0074386Y0249102D01*
X0074305Y0249084D01*
X0074224Y0249063D01*
X0074145Y0249038D01*
X0074067Y0249009D01*
X0073990Y0248977D01*
X0073915Y0248941D01*
X0073841Y0248902D01*
X0073770Y0248859D01*
X0073700Y0248813D01*
X0073633Y0248763D01*
X0073568Y0248711D01*
X0073506Y0248656D01*
X0073446Y0248597D01*
X0073389Y0248536D01*
X0073335Y0248473D01*
X0073284Y0248407D01*
X0073237Y0248338D01*
X0073192Y0248268D01*
X0073151Y0248195D01*
X0073114Y0248121D01*
X0073079Y0248045D01*
X0073049Y0247967D01*
X0073022Y0247889D01*
X0072999Y0247808D01*
X0072979Y0247727D01*
X0072964Y0247645D01*
X0072952Y0247563D01*
X0072944Y0247480D01*
X0072940Y0247397D01*
X0072940Y0247313D01*
X0072944Y0247230D01*
X0072952Y0247147D01*
X0072964Y0247065D01*
X0072979Y0246983D01*
X0072999Y0246902D01*
X0073022Y0246821D01*
X0073049Y0246743D01*
X0073079Y0246665D01*
X0073114Y0246589D01*
X0073151Y0246515D01*
X0073192Y0246442D01*
X0073237Y0246372D01*
X0073284Y0246303D01*
X0073335Y0246237D01*
X0073389Y0246174D01*
X0073446Y0246113D01*
X0073506Y0246054D01*
X0073568Y0245999D01*
X0073633Y0245947D01*
X0073700Y0245897D01*
X0073770Y0245851D01*
X0073841Y0245808D01*
X0073915Y0245769D01*
X0073990Y0245733D01*
X0074067Y0245701D01*
X0074145Y0245672D01*
X0074224Y0245647D01*
X0074305Y0245626D01*
X0074386Y0245608D01*
X0074469Y0245595D01*
X0074552Y0245585D01*
X0074635Y0245579D01*
X0074718Y0245577D01*
X0074718Y0245578D02*
X0076496Y0245578D01*
X0076496Y0242733D02*
X0076496Y0249133D01*
X0081844Y0246467D02*
X0081908Y0246507D01*
X0081969Y0246550D01*
X0082028Y0246596D01*
X0082085Y0246645D01*
X0082139Y0246697D01*
X0082190Y0246751D01*
X0082238Y0246809D01*
X0082284Y0246868D01*
X0082326Y0246930D01*
X0082365Y0246995D01*
X0082400Y0247061D01*
X0082432Y0247128D01*
X0082461Y0247198D01*
X0082486Y0247268D01*
X0082507Y0247340D01*
X0082524Y0247413D01*
X0082538Y0247487D01*
X0082547Y0247561D01*
X0082553Y0247636D01*
X0082555Y0247711D01*
X0082553Y0247785D01*
X0082547Y0247860D01*
X0082537Y0247933D01*
X0082524Y0248007D01*
X0082507Y0248079D01*
X0082485Y0248150D01*
X0082461Y0248221D01*
X0082432Y0248289D01*
X0082400Y0248357D01*
X0082364Y0248422D01*
X0082326Y0248485D01*
X0082283Y0248547D01*
X0082238Y0248606D01*
X0082190Y0248663D01*
X0082139Y0248717D01*
X0082085Y0248768D01*
X0082028Y0248816D01*
X0081969Y0248861D01*
X0081907Y0248904D01*
X0081844Y0248942D01*
X0081779Y0248978D01*
X0081711Y0249010D01*
X0081643Y0249039D01*
X0081572Y0249063D01*
X0081501Y0249085D01*
X0081429Y0249102D01*
X0081355Y0249115D01*
X0081282Y0249125D01*
X0081207Y0249131D01*
X0081133Y0249133D01*
X0081032Y0249131D01*
X0080931Y0249125D01*
X0080831Y0249116D01*
X0080731Y0249102D01*
X0080631Y0249085D01*
X0080532Y0249065D01*
X0080435Y0249040D01*
X0080338Y0249012D01*
X0080242Y0248980D01*
X0080147Y0248944D01*
X0080054Y0248905D01*
X0079963Y0248863D01*
X0079873Y0248817D01*
X0079785Y0248767D01*
X0079699Y0248715D01*
X0079615Y0248659D01*
X0079533Y0248600D01*
X0082733Y0243623D02*
X0082656Y0243548D01*
X0082576Y0243475D01*
X0082493Y0243406D01*
X0082408Y0243339D01*
X0082321Y0243276D01*
X0082232Y0243216D01*
X0082140Y0243159D01*
X0082047Y0243105D01*
X0081951Y0243055D01*
X0081854Y0243008D01*
X0081755Y0242965D01*
X0081655Y0242925D01*
X0081554Y0242889D01*
X0081451Y0242857D01*
X0081347Y0242828D01*
X0081242Y0242803D01*
X0081136Y0242782D01*
X0081030Y0242765D01*
X0080923Y0242751D01*
X0080815Y0242742D01*
X0080708Y0242736D01*
X0080600Y0242734D01*
X0080600Y0242733D02*
X0080526Y0242735D01*
X0080451Y0242741D01*
X0080378Y0242751D01*
X0080304Y0242764D01*
X0080232Y0242781D01*
X0080161Y0242803D01*
X0080090Y0242827D01*
X0080022Y0242856D01*
X0079954Y0242888D01*
X0079889Y0242924D01*
X0079826Y0242962D01*
X0079764Y0243005D01*
X0079705Y0243050D01*
X0079648Y0243098D01*
X0079594Y0243149D01*
X0079543Y0243203D01*
X0079495Y0243260D01*
X0079450Y0243319D01*
X0079407Y0243381D01*
X0079369Y0243444D01*
X0079333Y0243509D01*
X0079301Y0243577D01*
X0079272Y0243645D01*
X0079248Y0243716D01*
X0079226Y0243787D01*
X0079209Y0243859D01*
X0079196Y0243933D01*
X0079186Y0244006D01*
X0079180Y0244081D01*
X0079178Y0244155D01*
X0079889Y0245400D02*
X0081844Y0246466D01*
X0079889Y0245399D02*
X0079825Y0245359D01*
X0079764Y0245316D01*
X0079705Y0245270D01*
X0079648Y0245221D01*
X0079594Y0245169D01*
X0079543Y0245115D01*
X0079495Y0245057D01*
X0079449Y0244998D01*
X0079407Y0244936D01*
X0079368Y0244871D01*
X0079333Y0244805D01*
X0079301Y0244738D01*
X0079272Y0244668D01*
X0079247Y0244598D01*
X0079226Y0244526D01*
X0079209Y0244453D01*
X0079195Y0244379D01*
X0079186Y0244305D01*
X0079180Y0244230D01*
X0079178Y0244155D01*
X0071208Y0253233D02*
X0071208Y0259633D01*
X0069786Y0257144D02*
X0067652Y0253233D01*
X0065125Y0253233D02*
X0065125Y0259633D01*
X0062281Y0259633D01*
X0059768Y0259633D02*
X0057990Y0259633D01*
X0059768Y0259633D02*
X0059768Y0253233D01*
X0062281Y0253233D02*
X0065125Y0253233D01*
X0065125Y0256789D02*
X0062992Y0256789D01*
X0059768Y0256078D02*
X0057990Y0256078D01*
X0057634Y0256078D02*
X0056212Y0253233D01*
X0055232Y0249133D02*
X0057365Y0246111D01*
X0057365Y0242733D01*
X0057365Y0246111D02*
X0059498Y0249133D01*
X0063519Y0249133D02*
X0061386Y0242733D01*
X0061919Y0244333D02*
X0065119Y0244333D01*
X0065652Y0242733D02*
X0063519Y0249133D01*
X0067569Y0242733D02*
X0070413Y0242733D01*
X0070413Y0249133D01*
X0071208Y0255722D02*
X0067652Y0259633D01*
X0065766Y0265155D02*
X0065768Y0265230D01*
X0065774Y0265305D01*
X0065783Y0265379D01*
X0065797Y0265453D01*
X0065814Y0265526D01*
X0065835Y0265598D01*
X0065860Y0265668D01*
X0065889Y0265738D01*
X0065921Y0265805D01*
X0065956Y0265871D01*
X0065995Y0265936D01*
X0066037Y0265998D01*
X0066083Y0266057D01*
X0066131Y0266115D01*
X0066182Y0266169D01*
X0066236Y0266221D01*
X0066293Y0266270D01*
X0066352Y0266316D01*
X0066413Y0266359D01*
X0066477Y0266399D01*
X0066477Y0266400D02*
X0068432Y0267466D01*
X0067721Y0270133D02*
X0067620Y0270131D01*
X0067519Y0270125D01*
X0067419Y0270116D01*
X0067319Y0270102D01*
X0067219Y0270085D01*
X0067120Y0270065D01*
X0067023Y0270040D01*
X0066926Y0270012D01*
X0066830Y0269980D01*
X0066735Y0269944D01*
X0066642Y0269905D01*
X0066551Y0269863D01*
X0066461Y0269817D01*
X0066373Y0269767D01*
X0066287Y0269715D01*
X0066203Y0269659D01*
X0066121Y0269600D01*
X0068432Y0267467D02*
X0068496Y0267507D01*
X0068557Y0267550D01*
X0068616Y0267596D01*
X0068673Y0267645D01*
X0068727Y0267697D01*
X0068778Y0267751D01*
X0068826Y0267809D01*
X0068872Y0267868D01*
X0068914Y0267930D01*
X0068953Y0267995D01*
X0068988Y0268061D01*
X0069020Y0268128D01*
X0069049Y0268198D01*
X0069074Y0268268D01*
X0069095Y0268340D01*
X0069112Y0268413D01*
X0069126Y0268487D01*
X0069135Y0268561D01*
X0069141Y0268636D01*
X0069143Y0268711D01*
X0069141Y0268785D01*
X0069135Y0268860D01*
X0069125Y0268933D01*
X0069112Y0269007D01*
X0069095Y0269079D01*
X0069073Y0269150D01*
X0069049Y0269221D01*
X0069020Y0269289D01*
X0068988Y0269357D01*
X0068952Y0269422D01*
X0068914Y0269485D01*
X0068871Y0269547D01*
X0068826Y0269606D01*
X0068778Y0269663D01*
X0068727Y0269717D01*
X0068673Y0269768D01*
X0068616Y0269816D01*
X0068557Y0269861D01*
X0068495Y0269904D01*
X0068432Y0269942D01*
X0068367Y0269978D01*
X0068299Y0270010D01*
X0068231Y0270039D01*
X0068160Y0270063D01*
X0068089Y0270085D01*
X0068017Y0270102D01*
X0067943Y0270115D01*
X0067870Y0270125D01*
X0067795Y0270131D01*
X0067721Y0270133D01*
X0069321Y0264623D02*
X0069244Y0264548D01*
X0069164Y0264475D01*
X0069081Y0264406D01*
X0068996Y0264339D01*
X0068909Y0264276D01*
X0068820Y0264216D01*
X0068728Y0264159D01*
X0068635Y0264105D01*
X0068539Y0264055D01*
X0068442Y0264008D01*
X0068343Y0263965D01*
X0068243Y0263925D01*
X0068142Y0263889D01*
X0068039Y0263857D01*
X0067935Y0263828D01*
X0067830Y0263803D01*
X0067724Y0263782D01*
X0067618Y0263765D01*
X0067511Y0263751D01*
X0067403Y0263742D01*
X0067296Y0263736D01*
X0067188Y0263734D01*
X0067188Y0263733D02*
X0067114Y0263735D01*
X0067039Y0263741D01*
X0066966Y0263751D01*
X0066892Y0263764D01*
X0066820Y0263781D01*
X0066749Y0263803D01*
X0066678Y0263827D01*
X0066610Y0263856D01*
X0066542Y0263888D01*
X0066477Y0263924D01*
X0066414Y0263962D01*
X0066352Y0264005D01*
X0066293Y0264050D01*
X0066236Y0264098D01*
X0066182Y0264149D01*
X0066131Y0264203D01*
X0066083Y0264260D01*
X0066038Y0264319D01*
X0065995Y0264381D01*
X0065957Y0264444D01*
X0065921Y0264509D01*
X0065889Y0264577D01*
X0065860Y0264645D01*
X0065836Y0264716D01*
X0065814Y0264787D01*
X0065797Y0264859D01*
X0065784Y0264933D01*
X0065774Y0265006D01*
X0065768Y0265081D01*
X0065766Y0265155D01*
X0059809Y0265333D02*
X0057676Y0268533D01*
X0057644Y0268588D01*
X0057616Y0268645D01*
X0057590Y0268703D01*
X0057569Y0268763D01*
X0057551Y0268824D01*
X0057537Y0268886D01*
X0057527Y0268949D01*
X0057521Y0269012D01*
X0057518Y0269076D01*
X0057519Y0269140D01*
X0057525Y0269203D01*
X0057534Y0269266D01*
X0057546Y0269328D01*
X0057563Y0269390D01*
X0057583Y0269450D01*
X0057607Y0269509D01*
X0057635Y0269566D01*
X0057666Y0269622D01*
X0057700Y0269676D01*
X0057737Y0269727D01*
X0057778Y0269776D01*
X0057821Y0269823D01*
X0057867Y0269867D01*
X0057916Y0269908D01*
X0057967Y0269945D01*
X0058020Y0269980D01*
X0058076Y0270012D01*
X0058133Y0270040D01*
X0058192Y0270064D01*
X0058252Y0270085D01*
X0058313Y0270102D01*
X0058375Y0270116D01*
X0058438Y0270125D01*
X0058501Y0270131D01*
X0058565Y0270133D01*
X0058629Y0270131D01*
X0058692Y0270125D01*
X0058755Y0270116D01*
X0058817Y0270102D01*
X0058878Y0270085D01*
X0058938Y0270064D01*
X0058997Y0270040D01*
X0059054Y0270012D01*
X0059110Y0269980D01*
X0059163Y0269945D01*
X0059214Y0269908D01*
X0059263Y0269867D01*
X0059309Y0269823D01*
X0059352Y0269776D01*
X0059393Y0269727D01*
X0059430Y0269676D01*
X0059464Y0269622D01*
X0059495Y0269566D01*
X0059523Y0269509D01*
X0059547Y0269450D01*
X0059567Y0269390D01*
X0059584Y0269328D01*
X0059596Y0269266D01*
X0059605Y0269203D01*
X0059611Y0269140D01*
X0059612Y0269076D01*
X0059609Y0269012D01*
X0059603Y0268949D01*
X0059593Y0268886D01*
X0059579Y0268824D01*
X0059561Y0268763D01*
X0059540Y0268703D01*
X0059514Y0268645D01*
X0059486Y0268588D01*
X0059454Y0268533D01*
X0056431Y0263733D01*
X0058387Y0263911D02*
X0055720Y0265866D01*
X0058920Y0263733D02*
X0058984Y0263735D01*
X0059049Y0263741D01*
X0059112Y0263750D01*
X0059175Y0263764D01*
X0059237Y0263781D01*
X0059298Y0263802D01*
X0059358Y0263827D01*
X0059416Y0263855D01*
X0059472Y0263887D01*
X0059526Y0263922D01*
X0059578Y0263960D01*
X0059628Y0264001D01*
X0059674Y0264046D01*
X0059719Y0264092D01*
X0059760Y0264142D01*
X0059798Y0264194D01*
X0059833Y0264248D01*
X0059865Y0264304D01*
X0059893Y0264362D01*
X0059918Y0264422D01*
X0059939Y0264483D01*
X0059956Y0264545D01*
X0059970Y0264608D01*
X0059979Y0264671D01*
X0059985Y0264736D01*
X0059987Y0264800D01*
X0059985Y0264857D01*
X0059980Y0264914D01*
X0059970Y0264971D01*
X0059958Y0265026D01*
X0059941Y0265081D01*
X0059922Y0265135D01*
X0059898Y0265187D01*
X0059872Y0265238D01*
X0059842Y0265287D01*
X0059809Y0265333D01*
X0058920Y0263733D02*
X0058863Y0263735D01*
X0058806Y0263740D01*
X0058749Y0263750D01*
X0058694Y0263762D01*
X0058639Y0263779D01*
X0058585Y0263798D01*
X0058533Y0263822D01*
X0058482Y0263848D01*
X0058433Y0263878D01*
X0058387Y0263911D01*
X0057990Y0259633D02*
X0057907Y0259631D01*
X0057824Y0259625D01*
X0057741Y0259615D01*
X0057658Y0259602D01*
X0057577Y0259584D01*
X0057496Y0259563D01*
X0057417Y0259538D01*
X0057339Y0259509D01*
X0057262Y0259477D01*
X0057187Y0259441D01*
X0057113Y0259402D01*
X0057042Y0259359D01*
X0056972Y0259313D01*
X0056905Y0259263D01*
X0056840Y0259211D01*
X0056778Y0259156D01*
X0056718Y0259097D01*
X0056661Y0259036D01*
X0056607Y0258973D01*
X0056556Y0258907D01*
X0056509Y0258838D01*
X0056464Y0258768D01*
X0056423Y0258695D01*
X0056386Y0258621D01*
X0056351Y0258545D01*
X0056321Y0258467D01*
X0056294Y0258389D01*
X0056271Y0258308D01*
X0056251Y0258227D01*
X0056236Y0258145D01*
X0056224Y0258063D01*
X0056216Y0257980D01*
X0056212Y0257897D01*
X0056212Y0257813D01*
X0056216Y0257730D01*
X0056224Y0257647D01*
X0056236Y0257565D01*
X0056251Y0257483D01*
X0056271Y0257402D01*
X0056294Y0257321D01*
X0056321Y0257243D01*
X0056351Y0257165D01*
X0056386Y0257089D01*
X0056423Y0257015D01*
X0056464Y0256942D01*
X0056509Y0256872D01*
X0056556Y0256803D01*
X0056607Y0256737D01*
X0056661Y0256674D01*
X0056718Y0256613D01*
X0056778Y0256554D01*
X0056840Y0256499D01*
X0056905Y0256447D01*
X0056972Y0256397D01*
X0057042Y0256351D01*
X0057113Y0256308D01*
X0057187Y0256269D01*
X0057262Y0256233D01*
X0057339Y0256201D01*
X0057417Y0256172D01*
X0057496Y0256147D01*
X0057577Y0256126D01*
X0057658Y0256108D01*
X0057741Y0256095D01*
X0057824Y0256085D01*
X0057907Y0256079D01*
X0057990Y0256077D01*
X0071304Y0270133D02*
X0074860Y0270133D01*
X0076638Y0270133D02*
X0080193Y0270133D01*
X0078416Y0270133D02*
X0078416Y0263733D01*
X0082026Y0263733D02*
X0084159Y0270133D01*
X0086293Y0263733D01*
X0085759Y0265333D02*
X0082559Y0265333D01*
X0089712Y0263733D02*
X0088290Y0270133D01*
X0091134Y0268000D02*
X0089712Y0263733D01*
X0092556Y0263733D02*
X0091134Y0268000D01*
X0093978Y0270133D02*
X0092556Y0263733D01*
X0092899Y0259633D02*
X0094676Y0259633D01*
X0094676Y0253233D01*
X0092899Y0253233D01*
X0092817Y0253235D01*
X0092735Y0253241D01*
X0092653Y0253250D01*
X0092572Y0253263D01*
X0092492Y0253280D01*
X0092412Y0253301D01*
X0092334Y0253325D01*
X0092257Y0253353D01*
X0092181Y0253384D01*
X0092106Y0253419D01*
X0092034Y0253458D01*
X0091963Y0253499D01*
X0091894Y0253544D01*
X0091828Y0253592D01*
X0091763Y0253643D01*
X0091701Y0253697D01*
X0091642Y0253754D01*
X0091585Y0253813D01*
X0091531Y0253875D01*
X0091480Y0253940D01*
X0091432Y0254006D01*
X0091387Y0254075D01*
X0091346Y0254146D01*
X0091307Y0254218D01*
X0091272Y0254293D01*
X0091241Y0254369D01*
X0091213Y0254446D01*
X0091189Y0254524D01*
X0091168Y0254604D01*
X0091151Y0254684D01*
X0091138Y0254765D01*
X0091129Y0254847D01*
X0091123Y0254929D01*
X0091121Y0255011D01*
X0091121Y0257855D01*
X0091123Y0257937D01*
X0091129Y0258019D01*
X0091138Y0258101D01*
X0091151Y0258182D01*
X0091168Y0258262D01*
X0091189Y0258342D01*
X0091213Y0258420D01*
X0091241Y0258497D01*
X0091272Y0258573D01*
X0091307Y0258648D01*
X0091346Y0258720D01*
X0091387Y0258791D01*
X0091432Y0258860D01*
X0091480Y0258926D01*
X0091531Y0258991D01*
X0091585Y0259053D01*
X0091642Y0259112D01*
X0091701Y0259169D01*
X0091763Y0259223D01*
X0091828Y0259274D01*
X0091894Y0259322D01*
X0091963Y0259367D01*
X0092034Y0259408D01*
X0092106Y0259447D01*
X0092181Y0259482D01*
X0092257Y0259513D01*
X0092334Y0259541D01*
X0092412Y0259565D01*
X0092492Y0259586D01*
X0092572Y0259603D01*
X0092653Y0259616D01*
X0092735Y0259625D01*
X0092817Y0259631D01*
X0092899Y0259633D01*
X0097154Y0259633D02*
X0099998Y0259633D01*
X0099998Y0253233D01*
X0097154Y0253233D01*
X0097865Y0256789D02*
X0099998Y0256789D01*
X0102403Y0259633D02*
X0105959Y0259633D01*
X0104181Y0259633D02*
X0104181Y0253233D01*
X0104204Y0249133D02*
X0104204Y0242733D01*
X0107760Y0249133D01*
X0107760Y0242733D01*
X0110237Y0242733D02*
X0113081Y0242733D01*
X0113081Y0249133D01*
X0110237Y0249133D01*
X0110948Y0246289D02*
X0113081Y0246289D01*
X0116157Y0249133D02*
X0116157Y0242733D01*
X0118290Y0245578D02*
X0116157Y0249133D01*
X0115794Y0253233D02*
X0112949Y0253233D01*
X0110692Y0254655D02*
X0110692Y0258211D01*
X0110690Y0258285D01*
X0110684Y0258360D01*
X0110674Y0258433D01*
X0110661Y0258507D01*
X0110644Y0258579D01*
X0110622Y0258650D01*
X0110598Y0258721D01*
X0110569Y0258789D01*
X0110537Y0258857D01*
X0110501Y0258922D01*
X0110463Y0258985D01*
X0110420Y0259047D01*
X0110375Y0259106D01*
X0110327Y0259163D01*
X0110276Y0259217D01*
X0110222Y0259268D01*
X0110165Y0259316D01*
X0110106Y0259361D01*
X0110044Y0259404D01*
X0109981Y0259442D01*
X0109916Y0259478D01*
X0109848Y0259510D01*
X0109780Y0259539D01*
X0109709Y0259563D01*
X0109638Y0259585D01*
X0109566Y0259602D01*
X0109492Y0259615D01*
X0109419Y0259625D01*
X0109344Y0259631D01*
X0109270Y0259633D01*
X0107848Y0259633D01*
X0107435Y0263733D02*
X0106013Y0263733D01*
X0106724Y0263733D02*
X0106724Y0270133D01*
X0107435Y0270133D02*
X0106013Y0270133D01*
X0103374Y0270133D02*
X0103374Y0263733D01*
X0101596Y0263733D01*
X0101514Y0263735D01*
X0101432Y0263741D01*
X0101350Y0263750D01*
X0101269Y0263763D01*
X0101189Y0263780D01*
X0101109Y0263801D01*
X0101031Y0263825D01*
X0100954Y0263853D01*
X0100878Y0263884D01*
X0100803Y0263919D01*
X0100731Y0263958D01*
X0100660Y0263999D01*
X0100591Y0264044D01*
X0100525Y0264092D01*
X0100460Y0264143D01*
X0100398Y0264197D01*
X0100339Y0264254D01*
X0100282Y0264313D01*
X0100228Y0264375D01*
X0100177Y0264440D01*
X0100129Y0264506D01*
X0100084Y0264575D01*
X0100043Y0264646D01*
X0100004Y0264718D01*
X0099969Y0264793D01*
X0099938Y0264869D01*
X0099910Y0264946D01*
X0099886Y0265024D01*
X0099865Y0265104D01*
X0099848Y0265184D01*
X0099835Y0265265D01*
X0099826Y0265347D01*
X0099820Y0265429D01*
X0099818Y0265511D01*
X0099818Y0268355D01*
X0099820Y0268437D01*
X0099826Y0268519D01*
X0099835Y0268601D01*
X0099848Y0268682D01*
X0099865Y0268762D01*
X0099886Y0268842D01*
X0099910Y0268920D01*
X0099938Y0268997D01*
X0099969Y0269073D01*
X0100004Y0269148D01*
X0100043Y0269220D01*
X0100084Y0269291D01*
X0100129Y0269360D01*
X0100177Y0269426D01*
X0100228Y0269491D01*
X0100282Y0269553D01*
X0100339Y0269612D01*
X0100398Y0269669D01*
X0100460Y0269723D01*
X0100525Y0269774D01*
X0100591Y0269822D01*
X0100660Y0269867D01*
X0100731Y0269908D01*
X0100803Y0269947D01*
X0100878Y0269982D01*
X0100954Y0270013D01*
X0101031Y0270041D01*
X0101109Y0270065D01*
X0101189Y0270086D01*
X0101269Y0270103D01*
X0101350Y0270116D01*
X0101432Y0270125D01*
X0101514Y0270131D01*
X0101596Y0270133D01*
X0103374Y0270133D01*
X0109514Y0270133D02*
X0111647Y0263733D01*
X0113781Y0270133D01*
X0117801Y0270133D02*
X0115668Y0263733D01*
X0116201Y0265333D02*
X0119401Y0265333D01*
X0119935Y0263733D02*
X0117801Y0270133D01*
X0122383Y0268355D02*
X0122383Y0265511D01*
X0122385Y0265429D01*
X0122391Y0265347D01*
X0122400Y0265265D01*
X0122413Y0265184D01*
X0122430Y0265104D01*
X0122451Y0265024D01*
X0122475Y0264946D01*
X0122503Y0264869D01*
X0122534Y0264793D01*
X0122569Y0264718D01*
X0122608Y0264646D01*
X0122649Y0264575D01*
X0122694Y0264506D01*
X0122742Y0264440D01*
X0122793Y0264375D01*
X0122847Y0264313D01*
X0122904Y0264254D01*
X0122963Y0264197D01*
X0123025Y0264143D01*
X0123090Y0264092D01*
X0123156Y0264044D01*
X0123225Y0263999D01*
X0123296Y0263958D01*
X0123368Y0263919D01*
X0123443Y0263884D01*
X0123519Y0263853D01*
X0123596Y0263825D01*
X0123674Y0263801D01*
X0123754Y0263780D01*
X0123834Y0263763D01*
X0123915Y0263750D01*
X0123997Y0263741D01*
X0124079Y0263735D01*
X0124161Y0263733D01*
X0125938Y0263733D01*
X0125938Y0270133D01*
X0124161Y0270133D01*
X0124079Y0270131D01*
X0123997Y0270125D01*
X0123915Y0270116D01*
X0123834Y0270103D01*
X0123754Y0270086D01*
X0123674Y0270065D01*
X0123596Y0270041D01*
X0123519Y0270013D01*
X0123443Y0269982D01*
X0123368Y0269947D01*
X0123296Y0269908D01*
X0123225Y0269867D01*
X0123156Y0269822D01*
X0123090Y0269774D01*
X0123025Y0269723D01*
X0122963Y0269669D01*
X0122904Y0269612D01*
X0122847Y0269553D01*
X0122793Y0269491D01*
X0122742Y0269426D01*
X0122694Y0269360D01*
X0122649Y0269291D01*
X0122608Y0269220D01*
X0122569Y0269148D01*
X0122534Y0269073D01*
X0122503Y0268997D01*
X0122475Y0268920D01*
X0122451Y0268842D01*
X0122430Y0268762D01*
X0122413Y0268682D01*
X0122400Y0268601D01*
X0122391Y0268519D01*
X0122385Y0268437D01*
X0122383Y0268355D01*
X0121876Y0259633D02*
X0120098Y0259633D01*
X0120015Y0259631D01*
X0119932Y0259625D01*
X0119849Y0259615D01*
X0119766Y0259602D01*
X0119685Y0259584D01*
X0119604Y0259563D01*
X0119525Y0259538D01*
X0119447Y0259509D01*
X0119370Y0259477D01*
X0119295Y0259441D01*
X0119221Y0259402D01*
X0119150Y0259359D01*
X0119080Y0259313D01*
X0119013Y0259263D01*
X0118948Y0259211D01*
X0118886Y0259156D01*
X0118826Y0259097D01*
X0118769Y0259036D01*
X0118715Y0258973D01*
X0118664Y0258907D01*
X0118617Y0258838D01*
X0118572Y0258768D01*
X0118531Y0258695D01*
X0118494Y0258621D01*
X0118459Y0258545D01*
X0118429Y0258467D01*
X0118402Y0258389D01*
X0118379Y0258308D01*
X0118359Y0258227D01*
X0118344Y0258145D01*
X0118332Y0258063D01*
X0118324Y0257980D01*
X0118320Y0257897D01*
X0118320Y0257813D01*
X0118324Y0257730D01*
X0118332Y0257647D01*
X0118344Y0257565D01*
X0118359Y0257483D01*
X0118379Y0257402D01*
X0118402Y0257321D01*
X0118429Y0257243D01*
X0118459Y0257165D01*
X0118494Y0257089D01*
X0118531Y0257015D01*
X0118572Y0256942D01*
X0118617Y0256872D01*
X0118664Y0256803D01*
X0118715Y0256737D01*
X0118769Y0256674D01*
X0118826Y0256613D01*
X0118886Y0256554D01*
X0118948Y0256499D01*
X0119013Y0256447D01*
X0119080Y0256397D01*
X0119150Y0256351D01*
X0119221Y0256308D01*
X0119295Y0256269D01*
X0119370Y0256233D01*
X0119447Y0256201D01*
X0119525Y0256172D01*
X0119604Y0256147D01*
X0119685Y0256126D01*
X0119766Y0256108D01*
X0119849Y0256095D01*
X0119932Y0256085D01*
X0120015Y0256079D01*
X0120098Y0256077D01*
X0120098Y0256078D02*
X0121876Y0256078D01*
X0121876Y0253233D02*
X0121876Y0259633D01*
X0124407Y0259633D02*
X0128674Y0253233D01*
X0130591Y0253233D02*
X0133435Y0253233D01*
X0133435Y0259633D01*
X0130591Y0259633D01*
X0128674Y0259633D02*
X0124407Y0253233D01*
X0124540Y0249133D02*
X0123117Y0249133D01*
X0123829Y0249133D02*
X0123829Y0242733D01*
X0124540Y0242733D02*
X0123117Y0242733D01*
X0126648Y0242733D02*
X0129492Y0242733D01*
X0129492Y0249133D01*
X0132513Y0249133D02*
X0134646Y0249133D01*
X0134720Y0249131D01*
X0134795Y0249125D01*
X0134868Y0249115D01*
X0134942Y0249102D01*
X0135014Y0249085D01*
X0135085Y0249063D01*
X0135156Y0249039D01*
X0135224Y0249010D01*
X0135292Y0248978D01*
X0135357Y0248942D01*
X0135420Y0248904D01*
X0135482Y0248861D01*
X0135541Y0248816D01*
X0135598Y0248768D01*
X0135652Y0248717D01*
X0135703Y0248663D01*
X0135751Y0248606D01*
X0135796Y0248547D01*
X0135839Y0248485D01*
X0135877Y0248422D01*
X0135913Y0248357D01*
X0135945Y0248289D01*
X0135974Y0248221D01*
X0135998Y0248150D01*
X0136020Y0248079D01*
X0136037Y0248007D01*
X0136050Y0247933D01*
X0136060Y0247860D01*
X0136066Y0247785D01*
X0136068Y0247711D01*
X0136068Y0244155D01*
X0136066Y0244081D01*
X0136060Y0244006D01*
X0136050Y0243933D01*
X0136037Y0243859D01*
X0136020Y0243787D01*
X0135998Y0243716D01*
X0135974Y0243645D01*
X0135945Y0243577D01*
X0135913Y0243509D01*
X0135877Y0243444D01*
X0135839Y0243381D01*
X0135796Y0243319D01*
X0135751Y0243260D01*
X0135703Y0243203D01*
X0135652Y0243149D01*
X0135598Y0243098D01*
X0135541Y0243050D01*
X0135482Y0243005D01*
X0135420Y0242962D01*
X0135357Y0242924D01*
X0135292Y0242888D01*
X0135224Y0242856D01*
X0135156Y0242827D01*
X0135085Y0242803D01*
X0135014Y0242781D01*
X0134942Y0242764D01*
X0134868Y0242751D01*
X0134795Y0242741D01*
X0134720Y0242735D01*
X0134646Y0242733D01*
X0132513Y0242733D01*
X0132513Y0246289D01*
X0133579Y0246289D01*
X0138545Y0249133D02*
X0141390Y0249133D01*
X0141390Y0242733D01*
X0138545Y0242733D01*
X0139257Y0246289D02*
X0141390Y0246289D01*
X0144711Y0245400D02*
X0146667Y0246466D01*
X0145956Y0249133D02*
X0145855Y0249131D01*
X0145754Y0249125D01*
X0145654Y0249116D01*
X0145554Y0249102D01*
X0145454Y0249085D01*
X0145355Y0249065D01*
X0145258Y0249040D01*
X0145161Y0249012D01*
X0145065Y0248980D01*
X0144970Y0248944D01*
X0144877Y0248905D01*
X0144786Y0248863D01*
X0144696Y0248817D01*
X0144608Y0248767D01*
X0144522Y0248715D01*
X0144438Y0248659D01*
X0144356Y0248600D01*
X0146666Y0246467D02*
X0146730Y0246507D01*
X0146791Y0246550D01*
X0146850Y0246596D01*
X0146907Y0246645D01*
X0146961Y0246697D01*
X0147012Y0246751D01*
X0147060Y0246809D01*
X0147106Y0246868D01*
X0147148Y0246930D01*
X0147187Y0246995D01*
X0147222Y0247061D01*
X0147254Y0247128D01*
X0147283Y0247198D01*
X0147308Y0247268D01*
X0147329Y0247340D01*
X0147346Y0247413D01*
X0147360Y0247487D01*
X0147369Y0247561D01*
X0147375Y0247636D01*
X0147377Y0247711D01*
X0147378Y0247711D02*
X0147376Y0247785D01*
X0147370Y0247860D01*
X0147360Y0247933D01*
X0147347Y0248007D01*
X0147330Y0248079D01*
X0147308Y0248150D01*
X0147284Y0248221D01*
X0147255Y0248289D01*
X0147223Y0248357D01*
X0147187Y0248422D01*
X0147149Y0248485D01*
X0147106Y0248547D01*
X0147061Y0248606D01*
X0147013Y0248663D01*
X0146962Y0248717D01*
X0146908Y0248768D01*
X0146851Y0248816D01*
X0146792Y0248861D01*
X0146730Y0248904D01*
X0146667Y0248942D01*
X0146602Y0248978D01*
X0146534Y0249010D01*
X0146466Y0249039D01*
X0146395Y0249063D01*
X0146324Y0249085D01*
X0146252Y0249102D01*
X0146178Y0249115D01*
X0146105Y0249125D01*
X0146030Y0249131D01*
X0145956Y0249133D01*
X0147555Y0243623D02*
X0147478Y0243548D01*
X0147398Y0243475D01*
X0147315Y0243406D01*
X0147230Y0243339D01*
X0147143Y0243276D01*
X0147054Y0243216D01*
X0146962Y0243159D01*
X0146869Y0243105D01*
X0146773Y0243055D01*
X0146676Y0243008D01*
X0146577Y0242965D01*
X0146477Y0242925D01*
X0146376Y0242889D01*
X0146273Y0242857D01*
X0146169Y0242828D01*
X0146064Y0242803D01*
X0145958Y0242782D01*
X0145852Y0242765D01*
X0145745Y0242751D01*
X0145637Y0242742D01*
X0145530Y0242736D01*
X0145422Y0242734D01*
X0145422Y0242733D02*
X0145348Y0242735D01*
X0145273Y0242741D01*
X0145200Y0242751D01*
X0145126Y0242764D01*
X0145054Y0242781D01*
X0144983Y0242803D01*
X0144912Y0242827D01*
X0144844Y0242856D01*
X0144776Y0242888D01*
X0144711Y0242924D01*
X0144648Y0242962D01*
X0144586Y0243005D01*
X0144527Y0243050D01*
X0144470Y0243098D01*
X0144416Y0243149D01*
X0144365Y0243203D01*
X0144317Y0243260D01*
X0144272Y0243319D01*
X0144229Y0243381D01*
X0144191Y0243444D01*
X0144155Y0243509D01*
X0144123Y0243577D01*
X0144094Y0243645D01*
X0144070Y0243716D01*
X0144048Y0243787D01*
X0144031Y0243859D01*
X0144018Y0243933D01*
X0144008Y0244006D01*
X0144002Y0244081D01*
X0144000Y0244155D01*
X0144001Y0244155D02*
X0144003Y0244230D01*
X0144009Y0244305D01*
X0144018Y0244379D01*
X0144032Y0244453D01*
X0144049Y0244526D01*
X0144070Y0244598D01*
X0144095Y0244668D01*
X0144124Y0244738D01*
X0144156Y0244805D01*
X0144191Y0244871D01*
X0144230Y0244936D01*
X0144272Y0244998D01*
X0144318Y0245057D01*
X0144366Y0245115D01*
X0144417Y0245169D01*
X0144471Y0245221D01*
X0144528Y0245270D01*
X0144587Y0245316D01*
X0144648Y0245359D01*
X0144712Y0245399D01*
X0140011Y0253233D02*
X0140011Y0259633D01*
X0136456Y0253233D01*
X0136456Y0259633D01*
X0133435Y0256789D02*
X0131302Y0256789D01*
X0131698Y0263733D02*
X0134542Y0263733D01*
X0134542Y0270133D01*
X0131698Y0270133D01*
X0132409Y0267289D02*
X0134542Y0267289D01*
X0137563Y0267289D02*
X0141118Y0267289D01*
X0141118Y0270133D02*
X0141118Y0263733D01*
X0137563Y0263733D02*
X0137563Y0270133D01*
X0143512Y0270133D02*
X0147067Y0270133D01*
X0145289Y0270133D02*
X0145289Y0263733D01*
X0146575Y0259633D02*
X0146575Y0255011D01*
X0146576Y0255011D02*
X0146574Y0254928D01*
X0146568Y0254845D01*
X0146558Y0254762D01*
X0146545Y0254679D01*
X0146527Y0254598D01*
X0146506Y0254517D01*
X0146481Y0254438D01*
X0146452Y0254360D01*
X0146420Y0254283D01*
X0146384Y0254208D01*
X0146345Y0254134D01*
X0146302Y0254063D01*
X0146256Y0253993D01*
X0146206Y0253926D01*
X0146154Y0253861D01*
X0146099Y0253799D01*
X0146040Y0253739D01*
X0145979Y0253682D01*
X0145916Y0253628D01*
X0145850Y0253577D01*
X0145781Y0253530D01*
X0145711Y0253485D01*
X0145638Y0253444D01*
X0145564Y0253407D01*
X0145488Y0253372D01*
X0145410Y0253342D01*
X0145332Y0253315D01*
X0145251Y0253292D01*
X0145170Y0253272D01*
X0145088Y0253257D01*
X0145006Y0253245D01*
X0144923Y0253237D01*
X0144840Y0253233D01*
X0144756Y0253233D01*
X0144673Y0253237D01*
X0144590Y0253245D01*
X0144508Y0253257D01*
X0144426Y0253272D01*
X0144345Y0253292D01*
X0144264Y0253315D01*
X0144186Y0253342D01*
X0144108Y0253372D01*
X0144032Y0253407D01*
X0143958Y0253444D01*
X0143885Y0253485D01*
X0143815Y0253530D01*
X0143746Y0253577D01*
X0143680Y0253628D01*
X0143617Y0253682D01*
X0143556Y0253739D01*
X0143497Y0253799D01*
X0143442Y0253861D01*
X0143390Y0253926D01*
X0143340Y0253993D01*
X0143294Y0254063D01*
X0143251Y0254134D01*
X0143212Y0254208D01*
X0143176Y0254283D01*
X0143144Y0254360D01*
X0143115Y0254438D01*
X0143090Y0254517D01*
X0143069Y0254598D01*
X0143051Y0254679D01*
X0143038Y0254762D01*
X0143028Y0254845D01*
X0143022Y0254928D01*
X0143020Y0255011D01*
X0143020Y0259633D01*
X0129121Y0284761D02*
X0129121Y0289383D01*
X0125565Y0289383D02*
X0125565Y0284761D01*
X0125567Y0284678D01*
X0125573Y0284595D01*
X0125583Y0284512D01*
X0125596Y0284429D01*
X0125614Y0284348D01*
X0125635Y0284267D01*
X0125660Y0284188D01*
X0125689Y0284110D01*
X0125721Y0284033D01*
X0125757Y0283958D01*
X0125796Y0283884D01*
X0125839Y0283813D01*
X0125885Y0283743D01*
X0125935Y0283676D01*
X0125987Y0283611D01*
X0126042Y0283549D01*
X0126101Y0283489D01*
X0126162Y0283432D01*
X0126225Y0283378D01*
X0126291Y0283327D01*
X0126360Y0283280D01*
X0126430Y0283235D01*
X0126503Y0283194D01*
X0126577Y0283157D01*
X0126653Y0283122D01*
X0126731Y0283092D01*
X0126809Y0283065D01*
X0126890Y0283042D01*
X0126971Y0283022D01*
X0127053Y0283007D01*
X0127135Y0282995D01*
X0127218Y0282987D01*
X0127301Y0282983D01*
X0127385Y0282983D01*
X0127468Y0282987D01*
X0127551Y0282995D01*
X0127633Y0283007D01*
X0127715Y0283022D01*
X0127796Y0283042D01*
X0127877Y0283065D01*
X0127955Y0283092D01*
X0128033Y0283122D01*
X0128109Y0283157D01*
X0128183Y0283194D01*
X0128256Y0283235D01*
X0128326Y0283280D01*
X0128395Y0283327D01*
X0128461Y0283378D01*
X0128524Y0283432D01*
X0128585Y0283489D01*
X0128644Y0283549D01*
X0128699Y0283611D01*
X0128751Y0283676D01*
X0128801Y0283743D01*
X0128847Y0283813D01*
X0128890Y0283884D01*
X0128929Y0283958D01*
X0128965Y0284033D01*
X0128997Y0284110D01*
X0129026Y0284188D01*
X0129051Y0284267D01*
X0129072Y0284348D01*
X0129090Y0284429D01*
X0129103Y0284512D01*
X0129113Y0284595D01*
X0129119Y0284678D01*
X0129121Y0284761D01*
X0122557Y0282983D02*
X0122557Y0289383D01*
X0119001Y0282983D01*
X0119001Y0289383D01*
X0118189Y0293483D02*
X0121034Y0293483D01*
X0121034Y0299883D01*
X0118189Y0299883D01*
X0118900Y0297039D02*
X0121034Y0297039D01*
X0123561Y0299883D02*
X0127116Y0295972D01*
X0125694Y0297394D02*
X0123561Y0293483D01*
X0127116Y0293483D02*
X0127116Y0299883D01*
X0131781Y0299883D02*
X0129648Y0293483D01*
X0130181Y0295083D02*
X0133381Y0295083D01*
X0133914Y0293483D02*
X0131781Y0299883D01*
X0136417Y0299883D02*
X0136417Y0293483D01*
X0138550Y0296328D02*
X0136417Y0299883D01*
X0138550Y0296328D02*
X0140684Y0299883D01*
X0140684Y0293483D01*
X0115981Y0289383D02*
X0115981Y0282983D01*
X0113136Y0282983D01*
X0111220Y0282983D02*
X0106953Y0289383D01*
X0104422Y0289383D02*
X0102644Y0289383D01*
X0102561Y0289381D01*
X0102478Y0289375D01*
X0102395Y0289365D01*
X0102312Y0289352D01*
X0102231Y0289334D01*
X0102150Y0289313D01*
X0102071Y0289288D01*
X0101993Y0289259D01*
X0101916Y0289227D01*
X0101841Y0289191D01*
X0101767Y0289152D01*
X0101696Y0289109D01*
X0101626Y0289063D01*
X0101559Y0289013D01*
X0101494Y0288961D01*
X0101432Y0288906D01*
X0101372Y0288847D01*
X0101315Y0288786D01*
X0101261Y0288723D01*
X0101210Y0288657D01*
X0101163Y0288588D01*
X0101118Y0288518D01*
X0101077Y0288445D01*
X0101040Y0288371D01*
X0101005Y0288295D01*
X0100975Y0288217D01*
X0100948Y0288139D01*
X0100925Y0288058D01*
X0100905Y0287977D01*
X0100890Y0287895D01*
X0100878Y0287813D01*
X0100870Y0287730D01*
X0100866Y0287647D01*
X0100866Y0287563D01*
X0100870Y0287480D01*
X0100878Y0287397D01*
X0100890Y0287315D01*
X0100905Y0287233D01*
X0100925Y0287152D01*
X0100948Y0287071D01*
X0100975Y0286993D01*
X0101005Y0286915D01*
X0101040Y0286839D01*
X0101077Y0286765D01*
X0101118Y0286692D01*
X0101163Y0286622D01*
X0101210Y0286553D01*
X0101261Y0286487D01*
X0101315Y0286424D01*
X0101372Y0286363D01*
X0101432Y0286304D01*
X0101494Y0286249D01*
X0101559Y0286197D01*
X0101626Y0286147D01*
X0101696Y0286101D01*
X0101767Y0286058D01*
X0101841Y0286019D01*
X0101916Y0285983D01*
X0101993Y0285951D01*
X0102071Y0285922D01*
X0102150Y0285897D01*
X0102231Y0285876D01*
X0102312Y0285858D01*
X0102395Y0285845D01*
X0102478Y0285835D01*
X0102561Y0285829D01*
X0102644Y0285827D01*
X0102644Y0285828D02*
X0104422Y0285828D01*
X0104422Y0282983D02*
X0104422Y0289383D01*
X0100477Y0293483D02*
X0100477Y0299883D01*
X0098344Y0296328D01*
X0096211Y0299883D01*
X0096211Y0293483D01*
X0095495Y0289383D02*
X0098339Y0289383D01*
X0098339Y0282983D01*
X0095495Y0282983D01*
X0093238Y0284405D02*
X0093238Y0287961D01*
X0093236Y0288035D01*
X0093230Y0288110D01*
X0093220Y0288183D01*
X0093207Y0288257D01*
X0093190Y0288329D01*
X0093168Y0288400D01*
X0093144Y0288471D01*
X0093115Y0288539D01*
X0093083Y0288607D01*
X0093047Y0288672D01*
X0093009Y0288735D01*
X0092966Y0288797D01*
X0092921Y0288856D01*
X0092873Y0288913D01*
X0092822Y0288967D01*
X0092768Y0289018D01*
X0092711Y0289066D01*
X0092652Y0289111D01*
X0092590Y0289154D01*
X0092527Y0289192D01*
X0092462Y0289228D01*
X0092394Y0289260D01*
X0092326Y0289289D01*
X0092255Y0289313D01*
X0092184Y0289335D01*
X0092112Y0289352D01*
X0092038Y0289365D01*
X0091965Y0289375D01*
X0091890Y0289381D01*
X0091816Y0289383D01*
X0090394Y0289383D01*
X0088504Y0289383D02*
X0084949Y0289383D01*
X0086727Y0289383D02*
X0086727Y0282983D01*
X0090394Y0282983D02*
X0091816Y0282983D01*
X0091890Y0282985D01*
X0091965Y0282991D01*
X0092038Y0283001D01*
X0092112Y0283014D01*
X0092184Y0283031D01*
X0092255Y0283053D01*
X0092326Y0283077D01*
X0092394Y0283106D01*
X0092462Y0283138D01*
X0092527Y0283174D01*
X0092590Y0283212D01*
X0092652Y0283255D01*
X0092711Y0283300D01*
X0092768Y0283348D01*
X0092822Y0283399D01*
X0092873Y0283453D01*
X0092921Y0283510D01*
X0092966Y0283569D01*
X0093009Y0283631D01*
X0093047Y0283694D01*
X0093083Y0283759D01*
X0093115Y0283827D01*
X0093144Y0283895D01*
X0093168Y0283966D01*
X0093190Y0284037D01*
X0093207Y0284109D01*
X0093220Y0284183D01*
X0093230Y0284256D01*
X0093236Y0284331D01*
X0093238Y0284405D01*
X0096206Y0286539D02*
X0098339Y0286539D01*
X0103336Y0295261D02*
X0103336Y0298105D01*
X0103335Y0298105D02*
X0103337Y0298188D01*
X0103343Y0298271D01*
X0103353Y0298354D01*
X0103366Y0298437D01*
X0103384Y0298518D01*
X0103405Y0298599D01*
X0103430Y0298678D01*
X0103459Y0298756D01*
X0103491Y0298833D01*
X0103527Y0298908D01*
X0103566Y0298982D01*
X0103609Y0299053D01*
X0103655Y0299123D01*
X0103705Y0299190D01*
X0103757Y0299255D01*
X0103812Y0299317D01*
X0103871Y0299377D01*
X0103932Y0299434D01*
X0103995Y0299488D01*
X0104061Y0299539D01*
X0104130Y0299586D01*
X0104200Y0299631D01*
X0104273Y0299672D01*
X0104347Y0299709D01*
X0104423Y0299744D01*
X0104501Y0299774D01*
X0104579Y0299801D01*
X0104660Y0299824D01*
X0104741Y0299844D01*
X0104823Y0299859D01*
X0104905Y0299871D01*
X0104988Y0299879D01*
X0105071Y0299883D01*
X0105155Y0299883D01*
X0105238Y0299879D01*
X0105321Y0299871D01*
X0105403Y0299859D01*
X0105485Y0299844D01*
X0105566Y0299824D01*
X0105647Y0299801D01*
X0105725Y0299774D01*
X0105803Y0299744D01*
X0105879Y0299709D01*
X0105953Y0299672D01*
X0106026Y0299631D01*
X0106096Y0299586D01*
X0106165Y0299539D01*
X0106231Y0299488D01*
X0106294Y0299434D01*
X0106355Y0299377D01*
X0106414Y0299317D01*
X0106469Y0299255D01*
X0106521Y0299190D01*
X0106571Y0299123D01*
X0106617Y0299053D01*
X0106660Y0298982D01*
X0106699Y0298908D01*
X0106735Y0298833D01*
X0106767Y0298756D01*
X0106796Y0298678D01*
X0106821Y0298599D01*
X0106842Y0298518D01*
X0106860Y0298437D01*
X0106873Y0298354D01*
X0106883Y0298271D01*
X0106889Y0298188D01*
X0106891Y0298105D01*
X0106891Y0295261D01*
X0106889Y0295178D01*
X0106883Y0295095D01*
X0106873Y0295012D01*
X0106860Y0294929D01*
X0106842Y0294848D01*
X0106821Y0294767D01*
X0106796Y0294688D01*
X0106767Y0294610D01*
X0106735Y0294533D01*
X0106699Y0294458D01*
X0106660Y0294384D01*
X0106617Y0294313D01*
X0106571Y0294243D01*
X0106521Y0294176D01*
X0106469Y0294111D01*
X0106414Y0294049D01*
X0106355Y0293989D01*
X0106294Y0293932D01*
X0106231Y0293878D01*
X0106165Y0293827D01*
X0106096Y0293780D01*
X0106026Y0293735D01*
X0105953Y0293694D01*
X0105879Y0293657D01*
X0105803Y0293622D01*
X0105725Y0293592D01*
X0105647Y0293565D01*
X0105566Y0293542D01*
X0105485Y0293522D01*
X0105403Y0293507D01*
X0105321Y0293495D01*
X0105238Y0293487D01*
X0105155Y0293483D01*
X0105071Y0293483D01*
X0104988Y0293487D01*
X0104905Y0293495D01*
X0104823Y0293507D01*
X0104741Y0293522D01*
X0104660Y0293542D01*
X0104579Y0293565D01*
X0104501Y0293592D01*
X0104423Y0293622D01*
X0104347Y0293657D01*
X0104273Y0293694D01*
X0104200Y0293735D01*
X0104130Y0293780D01*
X0104061Y0293827D01*
X0103995Y0293878D01*
X0103932Y0293932D01*
X0103871Y0293989D01*
X0103812Y0294049D01*
X0103757Y0294111D01*
X0103705Y0294176D01*
X0103655Y0294243D01*
X0103609Y0294313D01*
X0103566Y0294384D01*
X0103527Y0294458D01*
X0103491Y0294533D01*
X0103459Y0294610D01*
X0103430Y0294688D01*
X0103405Y0294767D01*
X0103384Y0294848D01*
X0103366Y0294929D01*
X0103353Y0295012D01*
X0103343Y0295095D01*
X0103337Y0295178D01*
X0103335Y0295261D01*
X0109996Y0296150D02*
X0111951Y0297216D01*
X0111240Y0299883D02*
X0111139Y0299881D01*
X0111038Y0299875D01*
X0110938Y0299866D01*
X0110838Y0299852D01*
X0110738Y0299835D01*
X0110639Y0299815D01*
X0110542Y0299790D01*
X0110445Y0299762D01*
X0110349Y0299730D01*
X0110254Y0299694D01*
X0110161Y0299655D01*
X0110070Y0299613D01*
X0109980Y0299567D01*
X0109892Y0299517D01*
X0109806Y0299465D01*
X0109722Y0299409D01*
X0109640Y0299350D01*
X0111951Y0297217D02*
X0112015Y0297257D01*
X0112076Y0297300D01*
X0112135Y0297346D01*
X0112192Y0297395D01*
X0112246Y0297447D01*
X0112297Y0297501D01*
X0112345Y0297559D01*
X0112391Y0297618D01*
X0112433Y0297680D01*
X0112472Y0297745D01*
X0112507Y0297811D01*
X0112539Y0297878D01*
X0112568Y0297948D01*
X0112593Y0298018D01*
X0112614Y0298090D01*
X0112631Y0298163D01*
X0112645Y0298237D01*
X0112654Y0298311D01*
X0112660Y0298386D01*
X0112662Y0298461D01*
X0112660Y0298535D01*
X0112654Y0298610D01*
X0112644Y0298683D01*
X0112631Y0298757D01*
X0112614Y0298829D01*
X0112592Y0298900D01*
X0112568Y0298971D01*
X0112539Y0299039D01*
X0112507Y0299107D01*
X0112471Y0299172D01*
X0112433Y0299235D01*
X0112390Y0299297D01*
X0112345Y0299356D01*
X0112297Y0299413D01*
X0112246Y0299467D01*
X0112192Y0299518D01*
X0112135Y0299566D01*
X0112076Y0299611D01*
X0112014Y0299654D01*
X0111951Y0299692D01*
X0111886Y0299728D01*
X0111818Y0299760D01*
X0111750Y0299789D01*
X0111679Y0299813D01*
X0111608Y0299835D01*
X0111536Y0299852D01*
X0111462Y0299865D01*
X0111389Y0299875D01*
X0111314Y0299881D01*
X0111240Y0299883D01*
X0112840Y0294373D02*
X0112763Y0294298D01*
X0112683Y0294225D01*
X0112600Y0294156D01*
X0112515Y0294089D01*
X0112428Y0294026D01*
X0112339Y0293966D01*
X0112247Y0293909D01*
X0112154Y0293855D01*
X0112058Y0293805D01*
X0111961Y0293758D01*
X0111862Y0293715D01*
X0111762Y0293675D01*
X0111661Y0293639D01*
X0111558Y0293607D01*
X0111454Y0293578D01*
X0111349Y0293553D01*
X0111243Y0293532D01*
X0111137Y0293515D01*
X0111030Y0293501D01*
X0110922Y0293492D01*
X0110815Y0293486D01*
X0110707Y0293484D01*
X0110707Y0293483D02*
X0110633Y0293485D01*
X0110558Y0293491D01*
X0110485Y0293501D01*
X0110411Y0293514D01*
X0110339Y0293531D01*
X0110268Y0293553D01*
X0110197Y0293577D01*
X0110129Y0293606D01*
X0110061Y0293638D01*
X0109996Y0293674D01*
X0109933Y0293712D01*
X0109871Y0293755D01*
X0109812Y0293800D01*
X0109755Y0293848D01*
X0109701Y0293899D01*
X0109650Y0293953D01*
X0109602Y0294010D01*
X0109557Y0294069D01*
X0109514Y0294131D01*
X0109476Y0294194D01*
X0109440Y0294259D01*
X0109408Y0294327D01*
X0109379Y0294395D01*
X0109355Y0294466D01*
X0109333Y0294537D01*
X0109316Y0294609D01*
X0109303Y0294683D01*
X0109293Y0294756D01*
X0109287Y0294831D01*
X0109285Y0294905D01*
X0109287Y0294980D01*
X0109293Y0295055D01*
X0109302Y0295129D01*
X0109316Y0295203D01*
X0109333Y0295276D01*
X0109354Y0295348D01*
X0109379Y0295418D01*
X0109408Y0295488D01*
X0109440Y0295555D01*
X0109475Y0295621D01*
X0109514Y0295686D01*
X0109556Y0295748D01*
X0109602Y0295807D01*
X0109650Y0295865D01*
X0109701Y0295919D01*
X0109755Y0295971D01*
X0109812Y0296020D01*
X0109871Y0296066D01*
X0109932Y0296109D01*
X0109996Y0296149D01*
X0111220Y0289383D02*
X0106953Y0282983D01*
X0113847Y0286539D02*
X0115981Y0286539D01*
X0115981Y0289383D02*
X0113136Y0289383D01*
X0112949Y0259633D02*
X0115794Y0259633D01*
X0115794Y0253233D01*
X0115794Y0256789D02*
X0113660Y0256789D01*
X0110692Y0254655D02*
X0110690Y0254581D01*
X0110684Y0254506D01*
X0110674Y0254433D01*
X0110661Y0254359D01*
X0110644Y0254287D01*
X0110622Y0254216D01*
X0110598Y0254145D01*
X0110569Y0254077D01*
X0110537Y0254009D01*
X0110501Y0253944D01*
X0110463Y0253881D01*
X0110420Y0253819D01*
X0110375Y0253760D01*
X0110327Y0253703D01*
X0110276Y0253649D01*
X0110222Y0253598D01*
X0110165Y0253550D01*
X0110106Y0253505D01*
X0110044Y0253462D01*
X0109981Y0253424D01*
X0109916Y0253388D01*
X0109848Y0253356D01*
X0109780Y0253327D01*
X0109709Y0253303D01*
X0109638Y0253281D01*
X0109566Y0253264D01*
X0109492Y0253251D01*
X0109419Y0253241D01*
X0109344Y0253235D01*
X0109270Y0253233D01*
X0107848Y0253233D01*
X0101811Y0249133D02*
X0098255Y0249133D01*
X0100033Y0249133D02*
X0100033Y0242733D01*
X0099949Y0236911D02*
X0099947Y0236837D01*
X0099941Y0236762D01*
X0099931Y0236689D01*
X0099918Y0236615D01*
X0099901Y0236543D01*
X0099879Y0236472D01*
X0099855Y0236401D01*
X0099826Y0236333D01*
X0099794Y0236265D01*
X0099758Y0236200D01*
X0099720Y0236137D01*
X0099677Y0236075D01*
X0099632Y0236016D01*
X0099584Y0235959D01*
X0099533Y0235905D01*
X0099479Y0235854D01*
X0099422Y0235806D01*
X0099363Y0235761D01*
X0099301Y0235718D01*
X0099238Y0235680D01*
X0099173Y0235644D01*
X0099105Y0235612D01*
X0099037Y0235583D01*
X0098966Y0235559D01*
X0098895Y0235537D01*
X0098823Y0235520D01*
X0098749Y0235507D01*
X0098676Y0235497D01*
X0098601Y0235491D01*
X0098527Y0235489D01*
X0098453Y0235491D01*
X0098378Y0235497D01*
X0098305Y0235507D01*
X0098231Y0235520D01*
X0098159Y0235537D01*
X0098088Y0235559D01*
X0098017Y0235583D01*
X0097949Y0235612D01*
X0097881Y0235644D01*
X0097816Y0235680D01*
X0097753Y0235718D01*
X0097691Y0235761D01*
X0097632Y0235806D01*
X0097575Y0235854D01*
X0097521Y0235905D01*
X0097470Y0235959D01*
X0097422Y0236016D01*
X0097377Y0236075D01*
X0097334Y0236137D01*
X0097296Y0236200D01*
X0097260Y0236265D01*
X0097228Y0236333D01*
X0097199Y0236401D01*
X0097175Y0236472D01*
X0097153Y0236543D01*
X0097136Y0236615D01*
X0097123Y0236689D01*
X0097113Y0236762D01*
X0097107Y0236837D01*
X0097105Y0236911D01*
X0097107Y0236985D01*
X0097113Y0237060D01*
X0097123Y0237133D01*
X0097136Y0237207D01*
X0097153Y0237279D01*
X0097175Y0237350D01*
X0097199Y0237421D01*
X0097228Y0237489D01*
X0097260Y0237557D01*
X0097296Y0237622D01*
X0097334Y0237685D01*
X0097377Y0237747D01*
X0097422Y0237806D01*
X0097470Y0237863D01*
X0097521Y0237917D01*
X0097575Y0237968D01*
X0097632Y0238016D01*
X0097691Y0238061D01*
X0097753Y0238104D01*
X0097816Y0238142D01*
X0097881Y0238178D01*
X0097949Y0238210D01*
X0098017Y0238239D01*
X0098088Y0238263D01*
X0098159Y0238285D01*
X0098231Y0238302D01*
X0098305Y0238315D01*
X0098378Y0238325D01*
X0098453Y0238331D01*
X0098527Y0238333D01*
X0098601Y0238331D01*
X0098676Y0238325D01*
X0098749Y0238315D01*
X0098823Y0238302D01*
X0098895Y0238285D01*
X0098966Y0238263D01*
X0099037Y0238239D01*
X0099105Y0238210D01*
X0099173Y0238178D01*
X0099238Y0238142D01*
X0099301Y0238104D01*
X0099363Y0238061D01*
X0099422Y0238016D01*
X0099479Y0237968D01*
X0099533Y0237917D01*
X0099584Y0237863D01*
X0099632Y0237806D01*
X0099677Y0237747D01*
X0099720Y0237685D01*
X0099758Y0237622D01*
X0099794Y0237557D01*
X0099826Y0237489D01*
X0099855Y0237421D01*
X0099879Y0237350D01*
X0099901Y0237279D01*
X0099918Y0237207D01*
X0099931Y0237133D01*
X0099941Y0237060D01*
X0099947Y0236985D01*
X0099949Y0236911D01*
X0100305Y0233711D02*
X0100303Y0233628D01*
X0100297Y0233545D01*
X0100287Y0233462D01*
X0100274Y0233379D01*
X0100256Y0233298D01*
X0100235Y0233217D01*
X0100210Y0233138D01*
X0100181Y0233060D01*
X0100149Y0232983D01*
X0100113Y0232908D01*
X0100074Y0232834D01*
X0100031Y0232763D01*
X0099985Y0232693D01*
X0099935Y0232626D01*
X0099883Y0232561D01*
X0099828Y0232499D01*
X0099769Y0232439D01*
X0099708Y0232382D01*
X0099645Y0232328D01*
X0099579Y0232277D01*
X0099510Y0232230D01*
X0099440Y0232185D01*
X0099367Y0232144D01*
X0099293Y0232107D01*
X0099217Y0232072D01*
X0099139Y0232042D01*
X0099061Y0232015D01*
X0098980Y0231992D01*
X0098899Y0231972D01*
X0098817Y0231957D01*
X0098735Y0231945D01*
X0098652Y0231937D01*
X0098569Y0231933D01*
X0098485Y0231933D01*
X0098402Y0231937D01*
X0098319Y0231945D01*
X0098237Y0231957D01*
X0098155Y0231972D01*
X0098074Y0231992D01*
X0097993Y0232015D01*
X0097915Y0232042D01*
X0097837Y0232072D01*
X0097761Y0232107D01*
X0097687Y0232144D01*
X0097614Y0232185D01*
X0097544Y0232230D01*
X0097475Y0232277D01*
X0097409Y0232328D01*
X0097346Y0232382D01*
X0097285Y0232439D01*
X0097226Y0232499D01*
X0097171Y0232561D01*
X0097119Y0232626D01*
X0097069Y0232693D01*
X0097023Y0232763D01*
X0096980Y0232834D01*
X0096941Y0232908D01*
X0096905Y0232983D01*
X0096873Y0233060D01*
X0096844Y0233138D01*
X0096819Y0233217D01*
X0096798Y0233298D01*
X0096780Y0233379D01*
X0096767Y0233462D01*
X0096757Y0233545D01*
X0096751Y0233628D01*
X0096749Y0233711D01*
X0096751Y0233794D01*
X0096757Y0233877D01*
X0096767Y0233960D01*
X0096780Y0234043D01*
X0096798Y0234124D01*
X0096819Y0234205D01*
X0096844Y0234284D01*
X0096873Y0234362D01*
X0096905Y0234439D01*
X0096941Y0234514D01*
X0096980Y0234588D01*
X0097023Y0234659D01*
X0097069Y0234729D01*
X0097119Y0234796D01*
X0097171Y0234861D01*
X0097226Y0234923D01*
X0097285Y0234983D01*
X0097346Y0235040D01*
X0097409Y0235094D01*
X0097475Y0235145D01*
X0097544Y0235192D01*
X0097614Y0235237D01*
X0097687Y0235278D01*
X0097761Y0235315D01*
X0097837Y0235350D01*
X0097915Y0235380D01*
X0097993Y0235407D01*
X0098074Y0235430D01*
X0098155Y0235450D01*
X0098237Y0235465D01*
X0098319Y0235477D01*
X0098402Y0235485D01*
X0098485Y0235489D01*
X0098569Y0235489D01*
X0098652Y0235485D01*
X0098735Y0235477D01*
X0098817Y0235465D01*
X0098899Y0235450D01*
X0098980Y0235430D01*
X0099061Y0235407D01*
X0099139Y0235380D01*
X0099217Y0235350D01*
X0099293Y0235315D01*
X0099367Y0235278D01*
X0099440Y0235237D01*
X0099510Y0235192D01*
X0099579Y0235145D01*
X0099645Y0235094D01*
X0099708Y0235040D01*
X0099769Y0234983D01*
X0099828Y0234923D01*
X0099883Y0234861D01*
X0099935Y0234796D01*
X0099985Y0234729D01*
X0100031Y0234659D01*
X0100074Y0234588D01*
X0100113Y0234514D01*
X0100149Y0234439D01*
X0100181Y0234362D01*
X0100210Y0234284D01*
X0100235Y0234205D01*
X0100256Y0234124D01*
X0100274Y0234043D01*
X0100287Y0233960D01*
X0100297Y0233877D01*
X0100303Y0233794D01*
X0100305Y0233711D01*
X0102903Y0231933D02*
X0106459Y0231933D01*
X0104681Y0231933D02*
X0104681Y0238333D01*
X0106459Y0236911D01*
X0112613Y0235133D02*
X0112611Y0234992D01*
X0112605Y0234852D01*
X0112596Y0234711D01*
X0112583Y0234571D01*
X0112566Y0234431D01*
X0112546Y0234292D01*
X0112521Y0234154D01*
X0112493Y0234016D01*
X0112462Y0233879D01*
X0112426Y0233742D01*
X0112387Y0233607D01*
X0112345Y0233473D01*
X0112299Y0233340D01*
X0112249Y0233208D01*
X0112196Y0233078D01*
X0112140Y0232949D01*
X0112080Y0232822D01*
X0112257Y0233355D02*
X0109413Y0236911D01*
X0109590Y0237444D02*
X0109615Y0237510D01*
X0109643Y0237575D01*
X0109675Y0237639D01*
X0109710Y0237700D01*
X0109749Y0237760D01*
X0109790Y0237818D01*
X0109835Y0237873D01*
X0109883Y0237925D01*
X0109933Y0237975D01*
X0109986Y0238023D01*
X0110042Y0238067D01*
X0110099Y0238108D01*
X0110159Y0238146D01*
X0110221Y0238181D01*
X0110285Y0238212D01*
X0110350Y0238240D01*
X0110417Y0238265D01*
X0110484Y0238285D01*
X0110553Y0238302D01*
X0110623Y0238316D01*
X0110693Y0238325D01*
X0110764Y0238331D01*
X0110835Y0238333D01*
X0110835Y0238334D02*
X0110906Y0238332D01*
X0110977Y0238326D01*
X0111047Y0238317D01*
X0111117Y0238303D01*
X0111186Y0238286D01*
X0111253Y0238266D01*
X0111320Y0238241D01*
X0111385Y0238213D01*
X0111449Y0238182D01*
X0111511Y0238147D01*
X0111571Y0238109D01*
X0111629Y0238068D01*
X0111684Y0238024D01*
X0111737Y0237976D01*
X0111787Y0237926D01*
X0111835Y0237874D01*
X0111880Y0237819D01*
X0111921Y0237761D01*
X0111960Y0237701D01*
X0111995Y0237640D01*
X0112027Y0237576D01*
X0112055Y0237511D01*
X0112080Y0237445D01*
X0109590Y0237444D02*
X0109530Y0237317D01*
X0109474Y0237188D01*
X0109421Y0237058D01*
X0109371Y0236926D01*
X0109325Y0236793D01*
X0109283Y0236659D01*
X0109244Y0236524D01*
X0109208Y0236387D01*
X0109177Y0236250D01*
X0109149Y0236112D01*
X0109124Y0235974D01*
X0109104Y0235835D01*
X0109087Y0235695D01*
X0109074Y0235555D01*
X0109065Y0235414D01*
X0109059Y0235274D01*
X0109057Y0235133D01*
X0112613Y0235133D02*
X0112611Y0235274D01*
X0112605Y0235414D01*
X0112596Y0235555D01*
X0112583Y0235695D01*
X0112566Y0235835D01*
X0112546Y0235974D01*
X0112521Y0236112D01*
X0112493Y0236250D01*
X0112462Y0236387D01*
X0112426Y0236524D01*
X0112387Y0236659D01*
X0112345Y0236793D01*
X0112299Y0236926D01*
X0112249Y0237058D01*
X0112196Y0237188D01*
X0112140Y0237317D01*
X0112080Y0237444D01*
X0109057Y0235133D02*
X0109059Y0234992D01*
X0109065Y0234852D01*
X0109074Y0234711D01*
X0109087Y0234571D01*
X0109104Y0234431D01*
X0109124Y0234292D01*
X0109149Y0234154D01*
X0109177Y0234016D01*
X0109208Y0233879D01*
X0109244Y0233742D01*
X0109283Y0233607D01*
X0109325Y0233473D01*
X0109371Y0233340D01*
X0109421Y0233208D01*
X0109474Y0233078D01*
X0109530Y0232949D01*
X0109590Y0232822D01*
X0109615Y0232756D01*
X0109643Y0232691D01*
X0109675Y0232627D01*
X0109710Y0232566D01*
X0109749Y0232506D01*
X0109790Y0232448D01*
X0109835Y0232393D01*
X0109883Y0232341D01*
X0109933Y0232291D01*
X0109986Y0232243D01*
X0110042Y0232199D01*
X0110099Y0232158D01*
X0110159Y0232120D01*
X0110221Y0232085D01*
X0110285Y0232054D01*
X0110350Y0232026D01*
X0110417Y0232001D01*
X0110484Y0231981D01*
X0110553Y0231964D01*
X0110623Y0231950D01*
X0110693Y0231941D01*
X0110764Y0231935D01*
X0110835Y0231933D01*
X0110906Y0231935D01*
X0110977Y0231941D01*
X0111047Y0231950D01*
X0111117Y0231964D01*
X0111186Y0231981D01*
X0111253Y0232001D01*
X0111320Y0232026D01*
X0111385Y0232054D01*
X0111449Y0232085D01*
X0111511Y0232120D01*
X0111571Y0232158D01*
X0111629Y0232199D01*
X0111684Y0232243D01*
X0111737Y0232291D01*
X0111787Y0232341D01*
X0111835Y0232393D01*
X0111880Y0232448D01*
X0111921Y0232506D01*
X0111960Y0232566D01*
X0111995Y0232627D01*
X0112027Y0232691D01*
X0112055Y0232756D01*
X0112080Y0232822D01*
X0115211Y0231933D02*
X0118767Y0231933D01*
X0115745Y0235489D01*
X0116811Y0238334D02*
X0116900Y0238332D01*
X0116989Y0238326D01*
X0117078Y0238317D01*
X0117166Y0238303D01*
X0117253Y0238286D01*
X0117340Y0238265D01*
X0117426Y0238240D01*
X0117510Y0238212D01*
X0117593Y0238179D01*
X0117675Y0238144D01*
X0117755Y0238104D01*
X0117833Y0238062D01*
X0117910Y0238016D01*
X0117984Y0237967D01*
X0118056Y0237914D01*
X0118126Y0237859D01*
X0118193Y0237800D01*
X0118258Y0237739D01*
X0118320Y0237675D01*
X0118379Y0237608D01*
X0118435Y0237539D01*
X0118488Y0237467D01*
X0118538Y0237393D01*
X0118585Y0237317D01*
X0118628Y0237240D01*
X0118668Y0237160D01*
X0118705Y0237078D01*
X0118738Y0236996D01*
X0118767Y0236911D01*
X0115744Y0235488D02*
X0115687Y0235546D01*
X0115631Y0235607D01*
X0115579Y0235670D01*
X0115530Y0235735D01*
X0115484Y0235803D01*
X0115442Y0235873D01*
X0115402Y0235945D01*
X0115367Y0236018D01*
X0115334Y0236094D01*
X0115306Y0236170D01*
X0115281Y0236248D01*
X0115260Y0236327D01*
X0115242Y0236407D01*
X0115229Y0236488D01*
X0115219Y0236569D01*
X0115213Y0236651D01*
X0115211Y0236733D01*
X0115213Y0236812D01*
X0115219Y0236890D01*
X0115228Y0236968D01*
X0115242Y0237045D01*
X0115259Y0237122D01*
X0115280Y0237197D01*
X0115305Y0237272D01*
X0115333Y0237345D01*
X0115365Y0237417D01*
X0115400Y0237487D01*
X0115439Y0237556D01*
X0115481Y0237622D01*
X0115526Y0237686D01*
X0115574Y0237748D01*
X0115625Y0237807D01*
X0115680Y0237864D01*
X0115737Y0237919D01*
X0115796Y0237970D01*
X0115858Y0238018D01*
X0115922Y0238063D01*
X0115988Y0238105D01*
X0116057Y0238144D01*
X0116127Y0238179D01*
X0116199Y0238211D01*
X0116272Y0238239D01*
X0116347Y0238264D01*
X0116422Y0238285D01*
X0116499Y0238302D01*
X0116576Y0238316D01*
X0116654Y0238325D01*
X0116732Y0238331D01*
X0116811Y0238333D01*
X0120423Y0242733D02*
X0120423Y0249133D01*
X0118290Y0245578D01*
X0094096Y0234422D02*
X0089829Y0234422D01*
X0090802Y0242733D02*
X0092580Y0242733D01*
X0092580Y0249133D01*
X0090802Y0249133D01*
X0090720Y0249131D01*
X0090638Y0249125D01*
X0090556Y0249116D01*
X0090475Y0249103D01*
X0090395Y0249086D01*
X0090315Y0249065D01*
X0090237Y0249041D01*
X0090160Y0249013D01*
X0090084Y0248982D01*
X0090009Y0248947D01*
X0089937Y0248908D01*
X0089866Y0248867D01*
X0089797Y0248822D01*
X0089731Y0248774D01*
X0089666Y0248723D01*
X0089604Y0248669D01*
X0089545Y0248612D01*
X0089488Y0248553D01*
X0089434Y0248491D01*
X0089383Y0248426D01*
X0089335Y0248360D01*
X0089290Y0248291D01*
X0089249Y0248220D01*
X0089210Y0248148D01*
X0089175Y0248073D01*
X0089144Y0247997D01*
X0089116Y0247920D01*
X0089092Y0247842D01*
X0089071Y0247762D01*
X0089054Y0247682D01*
X0089041Y0247601D01*
X0089032Y0247519D01*
X0089026Y0247437D01*
X0089024Y0247355D01*
X0089024Y0244511D01*
X0089026Y0244429D01*
X0089032Y0244347D01*
X0089041Y0244265D01*
X0089054Y0244184D01*
X0089071Y0244104D01*
X0089092Y0244024D01*
X0089116Y0243946D01*
X0089144Y0243869D01*
X0089175Y0243793D01*
X0089210Y0243718D01*
X0089249Y0243646D01*
X0089290Y0243575D01*
X0089335Y0243506D01*
X0089383Y0243440D01*
X0089434Y0243375D01*
X0089488Y0243313D01*
X0089545Y0243254D01*
X0089604Y0243197D01*
X0089666Y0243143D01*
X0089731Y0243092D01*
X0089797Y0243044D01*
X0089866Y0242999D01*
X0089937Y0242958D01*
X0090009Y0242919D01*
X0090084Y0242884D01*
X0090160Y0242853D01*
X0090237Y0242825D01*
X0090315Y0242801D01*
X0090395Y0242780D01*
X0090475Y0242763D01*
X0090556Y0242750D01*
X0090638Y0242741D01*
X0090720Y0242735D01*
X0090802Y0242733D01*
X0073082Y0263733D02*
X0073082Y0270133D01*
X0075444Y0282983D02*
X0077222Y0282983D01*
X0077222Y0289383D01*
X0075444Y0289383D01*
X0075362Y0289381D01*
X0075280Y0289375D01*
X0075198Y0289366D01*
X0075117Y0289353D01*
X0075037Y0289336D01*
X0074957Y0289315D01*
X0074879Y0289291D01*
X0074802Y0289263D01*
X0074726Y0289232D01*
X0074651Y0289197D01*
X0074579Y0289158D01*
X0074508Y0289117D01*
X0074439Y0289072D01*
X0074373Y0289024D01*
X0074308Y0288973D01*
X0074246Y0288919D01*
X0074187Y0288862D01*
X0074130Y0288803D01*
X0074076Y0288741D01*
X0074025Y0288676D01*
X0073977Y0288610D01*
X0073932Y0288541D01*
X0073891Y0288470D01*
X0073852Y0288398D01*
X0073817Y0288323D01*
X0073786Y0288247D01*
X0073758Y0288170D01*
X0073734Y0288092D01*
X0073713Y0288012D01*
X0073696Y0287932D01*
X0073683Y0287851D01*
X0073674Y0287769D01*
X0073668Y0287687D01*
X0073666Y0287605D01*
X0073666Y0284761D01*
X0073668Y0284679D01*
X0073674Y0284597D01*
X0073683Y0284515D01*
X0073696Y0284434D01*
X0073713Y0284354D01*
X0073734Y0284274D01*
X0073758Y0284196D01*
X0073786Y0284119D01*
X0073817Y0284043D01*
X0073852Y0283968D01*
X0073891Y0283896D01*
X0073932Y0283825D01*
X0073977Y0283756D01*
X0074025Y0283690D01*
X0074076Y0283625D01*
X0074130Y0283563D01*
X0074187Y0283504D01*
X0074246Y0283447D01*
X0074308Y0283393D01*
X0074373Y0283342D01*
X0074439Y0283294D01*
X0074508Y0283249D01*
X0074579Y0283208D01*
X0074651Y0283169D01*
X0074726Y0283134D01*
X0074802Y0283103D01*
X0074879Y0283075D01*
X0074957Y0283051D01*
X0075037Y0283030D01*
X0075117Y0283013D01*
X0075198Y0283000D01*
X0075280Y0282991D01*
X0075362Y0282985D01*
X0075444Y0282983D01*
X0079699Y0282983D02*
X0082544Y0282983D01*
X0082544Y0289383D01*
X0079699Y0289383D01*
X0080410Y0286539D02*
X0082544Y0286539D01*
X0082480Y0293483D02*
X0082480Y0299883D01*
X0084874Y0299883D02*
X0088429Y0299883D01*
X0086651Y0299883D02*
X0086651Y0293483D01*
X0090291Y0293483D02*
X0093136Y0293483D01*
X0093136Y0299883D01*
X0090291Y0299883D01*
X0091002Y0297039D02*
X0093136Y0297039D01*
X0082480Y0297039D02*
X0078925Y0297039D01*
X0078925Y0299883D02*
X0078925Y0293483D01*
X0076285Y0293483D02*
X0074863Y0293483D01*
X0075574Y0293483D02*
X0075574Y0299883D01*
X0076285Y0299883D02*
X0074863Y0299883D01*
X0072224Y0299883D02*
X0068668Y0293483D01*
X0068668Y0299883D01*
X0072224Y0299883D02*
X0072224Y0293483D01*
X0065659Y0294905D02*
X0065659Y0298461D01*
X0065657Y0298535D01*
X0065651Y0298610D01*
X0065641Y0298683D01*
X0065628Y0298757D01*
X0065611Y0298829D01*
X0065589Y0298900D01*
X0065565Y0298971D01*
X0065536Y0299039D01*
X0065504Y0299107D01*
X0065468Y0299172D01*
X0065430Y0299235D01*
X0065387Y0299297D01*
X0065342Y0299356D01*
X0065294Y0299413D01*
X0065243Y0299467D01*
X0065189Y0299518D01*
X0065132Y0299566D01*
X0065073Y0299611D01*
X0065011Y0299654D01*
X0064948Y0299692D01*
X0064883Y0299728D01*
X0064815Y0299760D01*
X0064747Y0299789D01*
X0064676Y0299813D01*
X0064605Y0299835D01*
X0064533Y0299852D01*
X0064459Y0299865D01*
X0064386Y0299875D01*
X0064311Y0299881D01*
X0064237Y0299883D01*
X0062104Y0299883D01*
X0062104Y0297039D02*
X0062104Y0293483D01*
X0064237Y0293483D01*
X0064311Y0293485D01*
X0064386Y0293491D01*
X0064459Y0293501D01*
X0064533Y0293514D01*
X0064605Y0293531D01*
X0064676Y0293553D01*
X0064747Y0293577D01*
X0064815Y0293606D01*
X0064883Y0293638D01*
X0064948Y0293674D01*
X0065011Y0293712D01*
X0065073Y0293755D01*
X0065132Y0293800D01*
X0065189Y0293848D01*
X0065243Y0293899D01*
X0065294Y0293953D01*
X0065342Y0294010D01*
X0065387Y0294069D01*
X0065430Y0294131D01*
X0065468Y0294194D01*
X0065504Y0294259D01*
X0065536Y0294327D01*
X0065565Y0294395D01*
X0065589Y0294466D01*
X0065611Y0294537D01*
X0065628Y0294609D01*
X0065641Y0294683D01*
X0065651Y0294756D01*
X0065657Y0294831D01*
X0065659Y0294905D01*
X0063170Y0297039D02*
X0062104Y0297039D01*
D11*
X0161582Y0089698D02*
X0162363Y0090144D01*
X0162456Y0089987D01*
X0162553Y0089833D01*
X0162654Y0089681D01*
X0162759Y0089532D01*
X0162867Y0089385D01*
X0162978Y0089240D01*
X0163093Y0089099D01*
X0163212Y0088960D01*
X0163334Y0088825D01*
X0163459Y0088692D01*
X0163587Y0088562D01*
X0163718Y0088436D01*
X0163852Y0088312D01*
X0163989Y0088192D01*
X0164129Y0088075D01*
X0164272Y0087962D01*
X0164418Y0087852D01*
X0164566Y0087746D01*
X0164717Y0087643D01*
X0164870Y0087544D01*
X0165025Y0087449D01*
X0165183Y0087358D01*
X0165343Y0087270D01*
X0165505Y0087186D01*
X0165668Y0087106D01*
X0165834Y0087030D01*
X0166002Y0086959D01*
X0166171Y0086891D01*
X0166342Y0086827D01*
X0166514Y0086768D01*
X0166688Y0086712D01*
X0166863Y0086661D01*
X0167039Y0086614D01*
X0167216Y0086572D01*
X0167395Y0086533D01*
X0167574Y0086499D01*
X0167754Y0086469D01*
X0167934Y0086444D01*
X0168115Y0086423D01*
X0168297Y0086407D01*
X0168479Y0086394D01*
X0168661Y0086387D01*
X0168843Y0086383D01*
X0168844Y0085484D01*
X0168843Y0085483D01*
X0168639Y0085487D01*
X0168435Y0085495D01*
X0168231Y0085509D01*
X0168027Y0085527D01*
X0167824Y0085551D01*
X0167622Y0085579D01*
X0167420Y0085612D01*
X0167220Y0085650D01*
X0167020Y0085693D01*
X0166821Y0085741D01*
X0166624Y0085793D01*
X0166428Y0085851D01*
X0166233Y0085913D01*
X0166040Y0085979D01*
X0165848Y0086051D01*
X0165659Y0086127D01*
X0165471Y0086207D01*
X0165285Y0086292D01*
X0165101Y0086382D01*
X0164920Y0086475D01*
X0164741Y0086574D01*
X0164564Y0086676D01*
X0164390Y0086783D01*
X0164218Y0086894D01*
X0164049Y0087009D01*
X0163883Y0087128D01*
X0163720Y0087251D01*
X0163560Y0087378D01*
X0163403Y0087509D01*
X0163249Y0087644D01*
X0163099Y0087782D01*
X0162952Y0087924D01*
X0162808Y0088069D01*
X0162668Y0088218D01*
X0162532Y0088370D01*
X0162399Y0088526D01*
X0162271Y0088684D01*
X0162146Y0088846D01*
X0162025Y0089011D01*
X0161908Y0089178D01*
X0161795Y0089349D01*
X0161686Y0089522D01*
X0161581Y0089697D01*
X0161663Y0089744D01*
X0161766Y0089570D01*
X0161874Y0089399D01*
X0161986Y0089231D01*
X0162101Y0089065D01*
X0162221Y0088902D01*
X0162345Y0088743D01*
X0162472Y0088586D01*
X0162603Y0088432D01*
X0162738Y0088282D01*
X0162876Y0088134D01*
X0163018Y0087991D01*
X0163164Y0087850D01*
X0163312Y0087714D01*
X0163464Y0087581D01*
X0163620Y0087451D01*
X0163778Y0087326D01*
X0163939Y0087204D01*
X0164103Y0087086D01*
X0164270Y0086972D01*
X0164440Y0086863D01*
X0164612Y0086757D01*
X0164787Y0086656D01*
X0164964Y0086558D01*
X0165143Y0086466D01*
X0165325Y0086377D01*
X0165509Y0086293D01*
X0165694Y0086213D01*
X0165882Y0086138D01*
X0166071Y0086068D01*
X0166262Y0086002D01*
X0166455Y0085941D01*
X0166649Y0085884D01*
X0166844Y0085832D01*
X0167040Y0085785D01*
X0167238Y0085743D01*
X0167436Y0085705D01*
X0167636Y0085672D01*
X0167836Y0085644D01*
X0168037Y0085621D01*
X0168238Y0085603D01*
X0168439Y0085589D01*
X0168641Y0085581D01*
X0168843Y0085577D01*
X0168843Y0085671D01*
X0168644Y0085675D01*
X0168444Y0085683D01*
X0168245Y0085696D01*
X0168046Y0085715D01*
X0167847Y0085737D01*
X0167650Y0085765D01*
X0167452Y0085798D01*
X0167256Y0085835D01*
X0167061Y0085877D01*
X0166867Y0085923D01*
X0166674Y0085975D01*
X0166482Y0086031D01*
X0166292Y0086091D01*
X0166103Y0086156D01*
X0165916Y0086226D01*
X0165730Y0086300D01*
X0165547Y0086379D01*
X0165365Y0086462D01*
X0165185Y0086550D01*
X0165008Y0086641D01*
X0164833Y0086737D01*
X0164660Y0086838D01*
X0164490Y0086942D01*
X0164322Y0087051D01*
X0164157Y0087163D01*
X0163995Y0087279D01*
X0163836Y0087400D01*
X0163679Y0087524D01*
X0163526Y0087652D01*
X0163375Y0087783D01*
X0163228Y0087919D01*
X0163085Y0088057D01*
X0162944Y0088199D01*
X0162807Y0088345D01*
X0162674Y0088494D01*
X0162544Y0088646D01*
X0162418Y0088801D01*
X0162296Y0088959D01*
X0162178Y0089120D01*
X0162064Y0089283D01*
X0161953Y0089450D01*
X0161847Y0089619D01*
X0161745Y0089790D01*
X0161826Y0089837D01*
X0161927Y0089667D01*
X0162032Y0089500D01*
X0162142Y0089336D01*
X0162255Y0089174D01*
X0162372Y0089015D01*
X0162492Y0088859D01*
X0162617Y0088705D01*
X0162745Y0088555D01*
X0162877Y0088408D01*
X0163012Y0088264D01*
X0163151Y0088124D01*
X0163293Y0087987D01*
X0163438Y0087853D01*
X0163587Y0087723D01*
X0163739Y0087597D01*
X0163893Y0087474D01*
X0164051Y0087355D01*
X0164211Y0087240D01*
X0164374Y0087129D01*
X0164540Y0087022D01*
X0164708Y0086918D01*
X0164879Y0086819D01*
X0165052Y0086724D01*
X0165228Y0086634D01*
X0165405Y0086547D01*
X0165585Y0086465D01*
X0165766Y0086387D01*
X0165949Y0086314D01*
X0166134Y0086245D01*
X0166321Y0086181D01*
X0166509Y0086121D01*
X0166699Y0086065D01*
X0166889Y0086015D01*
X0167081Y0085968D01*
X0167274Y0085927D01*
X0167468Y0085890D01*
X0167663Y0085858D01*
X0167859Y0085831D01*
X0168055Y0085808D01*
X0168252Y0085790D01*
X0168449Y0085777D01*
X0168646Y0085769D01*
X0168843Y0085765D01*
X0168843Y0085859D01*
X0168648Y0085863D01*
X0168453Y0085871D01*
X0168258Y0085884D01*
X0168064Y0085902D01*
X0167870Y0085924D01*
X0167677Y0085951D01*
X0167484Y0085983D01*
X0167293Y0086019D01*
X0167102Y0086060D01*
X0166912Y0086106D01*
X0166724Y0086156D01*
X0166536Y0086211D01*
X0166350Y0086270D01*
X0166166Y0086333D01*
X0165983Y0086402D01*
X0165802Y0086474D01*
X0165623Y0086551D01*
X0165445Y0086632D01*
X0165270Y0086718D01*
X0165096Y0086807D01*
X0164925Y0086901D01*
X0164757Y0086999D01*
X0164590Y0087101D01*
X0164426Y0087207D01*
X0164265Y0087317D01*
X0164107Y0087431D01*
X0163951Y0087548D01*
X0163798Y0087670D01*
X0163648Y0087795D01*
X0163501Y0087923D01*
X0163358Y0088055D01*
X0163217Y0088191D01*
X0163080Y0088330D01*
X0162946Y0088472D01*
X0162816Y0088617D01*
X0162689Y0088765D01*
X0162566Y0088917D01*
X0162447Y0089071D01*
X0162331Y0089228D01*
X0162220Y0089388D01*
X0162112Y0089551D01*
X0162008Y0089716D01*
X0161908Y0089884D01*
X0161989Y0089930D01*
X0162088Y0089765D01*
X0162191Y0089601D01*
X0162298Y0089441D01*
X0162408Y0089283D01*
X0162522Y0089127D01*
X0162640Y0088975D01*
X0162762Y0088825D01*
X0162887Y0088679D01*
X0163016Y0088535D01*
X0163148Y0088395D01*
X0163283Y0088257D01*
X0163422Y0088123D01*
X0163564Y0087993D01*
X0163709Y0087866D01*
X0163857Y0087742D01*
X0164008Y0087623D01*
X0164162Y0087506D01*
X0164319Y0087394D01*
X0164478Y0087285D01*
X0164640Y0087181D01*
X0164805Y0087080D01*
X0164971Y0086983D01*
X0165141Y0086890D01*
X0165312Y0086802D01*
X0165485Y0086717D01*
X0165661Y0086637D01*
X0165838Y0086561D01*
X0166017Y0086489D01*
X0166198Y0086422D01*
X0166380Y0086359D01*
X0166564Y0086301D01*
X0166749Y0086247D01*
X0166935Y0086197D01*
X0167123Y0086152D01*
X0167311Y0086111D01*
X0167500Y0086075D01*
X0167691Y0086044D01*
X0167882Y0086017D01*
X0168073Y0085995D01*
X0168265Y0085978D01*
X0168458Y0085965D01*
X0168650Y0085957D01*
X0168843Y0085953D01*
X0168843Y0086047D01*
X0168653Y0086051D01*
X0168462Y0086059D01*
X0168272Y0086071D01*
X0168082Y0086089D01*
X0167893Y0086111D01*
X0167705Y0086137D01*
X0167517Y0086168D01*
X0167329Y0086204D01*
X0167143Y0086244D01*
X0166958Y0086288D01*
X0166774Y0086337D01*
X0166591Y0086391D01*
X0166409Y0086448D01*
X0166229Y0086511D01*
X0166051Y0086577D01*
X0165874Y0086648D01*
X0165699Y0086723D01*
X0165525Y0086802D01*
X0165354Y0086886D01*
X0165185Y0086973D01*
X0165018Y0087065D01*
X0164853Y0087161D01*
X0164690Y0087260D01*
X0164530Y0087364D01*
X0164373Y0087471D01*
X0164218Y0087582D01*
X0164066Y0087697D01*
X0163917Y0087815D01*
X0163771Y0087937D01*
X0163627Y0088063D01*
X0163487Y0088192D01*
X0163350Y0088324D01*
X0163216Y0088460D01*
X0163085Y0088598D01*
X0162958Y0088740D01*
X0162834Y0088885D01*
X0162714Y0089033D01*
X0162598Y0089184D01*
X0162485Y0089337D01*
X0162376Y0089493D01*
X0162270Y0089652D01*
X0162169Y0089813D01*
X0162071Y0089977D01*
X0162153Y0090024D01*
X0162249Y0089862D01*
X0162349Y0089703D01*
X0162453Y0089546D01*
X0162561Y0089391D01*
X0162673Y0089240D01*
X0162788Y0089091D01*
X0162907Y0088945D01*
X0163029Y0088802D01*
X0163155Y0088662D01*
X0163284Y0088525D01*
X0163416Y0088391D01*
X0163552Y0088260D01*
X0163690Y0088133D01*
X0163832Y0088009D01*
X0163976Y0087888D01*
X0164124Y0087771D01*
X0164274Y0087658D01*
X0164427Y0087548D01*
X0164583Y0087442D01*
X0164741Y0087340D01*
X0164901Y0087241D01*
X0165064Y0087147D01*
X0165229Y0087056D01*
X0165396Y0086970D01*
X0165565Y0086887D01*
X0165736Y0086809D01*
X0165909Y0086735D01*
X0166084Y0086665D01*
X0166261Y0086599D01*
X0166439Y0086538D01*
X0166618Y0086481D01*
X0166799Y0086428D01*
X0166981Y0086379D01*
X0167164Y0086335D01*
X0167348Y0086296D01*
X0167533Y0086261D01*
X0167718Y0086230D01*
X0167905Y0086204D01*
X0168092Y0086182D01*
X0168279Y0086165D01*
X0168467Y0086153D01*
X0168655Y0086145D01*
X0168843Y0086141D01*
X0168843Y0086235D01*
X0168657Y0086239D01*
X0168472Y0086247D01*
X0168286Y0086259D01*
X0168101Y0086276D01*
X0167916Y0086297D01*
X0167732Y0086323D01*
X0167549Y0086353D01*
X0167366Y0086388D01*
X0167184Y0086427D01*
X0167003Y0086471D01*
X0166824Y0086518D01*
X0166645Y0086571D01*
X0166468Y0086627D01*
X0166292Y0086688D01*
X0166118Y0086753D01*
X0165945Y0086822D01*
X0165774Y0086895D01*
X0165605Y0086972D01*
X0165438Y0087054D01*
X0165273Y0087139D01*
X0165110Y0087229D01*
X0164949Y0087322D01*
X0164791Y0087419D01*
X0164635Y0087520D01*
X0164481Y0087625D01*
X0164330Y0087733D01*
X0164181Y0087845D01*
X0164036Y0087961D01*
X0163893Y0088080D01*
X0163753Y0088202D01*
X0163616Y0088328D01*
X0163482Y0088457D01*
X0163352Y0088590D01*
X0163224Y0088725D01*
X0163100Y0088863D01*
X0162979Y0089005D01*
X0162862Y0089149D01*
X0162748Y0089296D01*
X0162638Y0089446D01*
X0162531Y0089598D01*
X0162429Y0089753D01*
X0162330Y0089911D01*
X0162234Y0090070D01*
X0162316Y0090117D01*
X0162410Y0089959D01*
X0162508Y0089804D01*
X0162609Y0089651D01*
X0162715Y0089500D01*
X0162824Y0089352D01*
X0162936Y0089207D01*
X0163052Y0089065D01*
X0163171Y0088925D01*
X0163294Y0088788D01*
X0163420Y0088655D01*
X0163549Y0088524D01*
X0163681Y0088396D01*
X0163816Y0088272D01*
X0163954Y0088151D01*
X0164095Y0088034D01*
X0164239Y0087920D01*
X0164386Y0087809D01*
X0164535Y0087702D01*
X0164687Y0087598D01*
X0164841Y0087499D01*
X0164997Y0087403D01*
X0165156Y0087311D01*
X0165317Y0087222D01*
X0165480Y0087138D01*
X0165645Y0087057D01*
X0165812Y0086981D01*
X0165981Y0086909D01*
X0166152Y0086840D01*
X0166324Y0086776D01*
X0166497Y0086716D01*
X0166672Y0086660D01*
X0166849Y0086609D01*
X0167026Y0086562D01*
X0167205Y0086519D01*
X0167384Y0086480D01*
X0167565Y0086446D01*
X0167746Y0086416D01*
X0167928Y0086391D01*
X0168110Y0086369D01*
X0168293Y0086353D01*
X0168476Y0086340D01*
X0168660Y0086333D01*
X0168843Y0086329D01*
X0168844Y0102382D02*
X0168844Y0101482D01*
X0168844Y0101483D02*
X0168661Y0101479D01*
X0168478Y0101472D01*
X0168295Y0101459D01*
X0168112Y0101442D01*
X0167930Y0101421D01*
X0167749Y0101396D01*
X0167568Y0101366D01*
X0167388Y0101331D01*
X0167209Y0101293D01*
X0167031Y0101250D01*
X0166854Y0101202D01*
X0166679Y0101151D01*
X0166504Y0101095D01*
X0166331Y0101035D01*
X0166160Y0100970D01*
X0165990Y0100902D01*
X0165821Y0100830D01*
X0165655Y0100753D01*
X0165491Y0100672D01*
X0165328Y0100588D01*
X0165168Y0100499D01*
X0165009Y0100407D01*
X0164853Y0100311D01*
X0164700Y0100211D01*
X0164549Y0100107D01*
X0164400Y0100000D01*
X0164254Y0099889D01*
X0164111Y0099775D01*
X0163971Y0099657D01*
X0163834Y0099536D01*
X0163699Y0099412D01*
X0163568Y0099284D01*
X0163439Y0099153D01*
X0163314Y0099019D01*
X0163193Y0098883D01*
X0163074Y0098743D01*
X0162959Y0098600D01*
X0162848Y0098455D01*
X0162740Y0098307D01*
X0162636Y0098156D01*
X0162535Y0098003D01*
X0162438Y0097848D01*
X0162345Y0097690D01*
X0162256Y0097530D01*
X0161462Y0097953D01*
X0161562Y0098133D01*
X0161666Y0098310D01*
X0161774Y0098484D01*
X0161887Y0098656D01*
X0162004Y0098824D01*
X0162125Y0098990D01*
X0162249Y0099153D01*
X0162378Y0099313D01*
X0162511Y0099470D01*
X0162647Y0099623D01*
X0162787Y0099773D01*
X0162931Y0099920D01*
X0163078Y0100063D01*
X0163229Y0100203D01*
X0163383Y0100338D01*
X0163540Y0100470D01*
X0163700Y0100598D01*
X0163864Y0100723D01*
X0164030Y0100843D01*
X0164200Y0100959D01*
X0164372Y0101071D01*
X0164546Y0101179D01*
X0164724Y0101282D01*
X0164903Y0101381D01*
X0165086Y0101476D01*
X0165270Y0101566D01*
X0165456Y0101652D01*
X0165645Y0101733D01*
X0165835Y0101810D01*
X0166028Y0101882D01*
X0166222Y0101949D01*
X0166417Y0102012D01*
X0166614Y0102070D01*
X0166812Y0102123D01*
X0167012Y0102171D01*
X0167213Y0102214D01*
X0167414Y0102252D01*
X0167617Y0102286D01*
X0167820Y0102314D01*
X0168024Y0102338D01*
X0168229Y0102357D01*
X0168433Y0102370D01*
X0168638Y0102379D01*
X0168844Y0102383D01*
X0168844Y0102289D01*
X0168641Y0102285D01*
X0168438Y0102277D01*
X0168235Y0102263D01*
X0168033Y0102245D01*
X0167832Y0102221D01*
X0167631Y0102193D01*
X0167430Y0102160D01*
X0167231Y0102122D01*
X0167033Y0102079D01*
X0166835Y0102031D01*
X0166639Y0101979D01*
X0166444Y0101922D01*
X0166251Y0101860D01*
X0166059Y0101793D01*
X0165869Y0101722D01*
X0165681Y0101647D01*
X0165495Y0101566D01*
X0165310Y0101481D01*
X0165128Y0101392D01*
X0164948Y0101298D01*
X0164770Y0101200D01*
X0164595Y0101098D01*
X0164422Y0100992D01*
X0164252Y0100881D01*
X0164084Y0100766D01*
X0163920Y0100647D01*
X0163758Y0100524D01*
X0163600Y0100398D01*
X0163444Y0100267D01*
X0163292Y0100133D01*
X0163143Y0099995D01*
X0162997Y0099854D01*
X0162855Y0099709D01*
X0162717Y0099560D01*
X0162582Y0099409D01*
X0162451Y0099254D01*
X0162324Y0099096D01*
X0162200Y0098934D01*
X0162081Y0098770D01*
X0161965Y0098603D01*
X0161854Y0098434D01*
X0161746Y0098261D01*
X0161643Y0098086D01*
X0161545Y0097909D01*
X0161628Y0097865D01*
X0161725Y0098040D01*
X0161827Y0098213D01*
X0161933Y0098383D01*
X0162043Y0098551D01*
X0162157Y0098716D01*
X0162276Y0098878D01*
X0162398Y0099038D01*
X0162524Y0099194D01*
X0162653Y0099347D01*
X0162787Y0099497D01*
X0162923Y0099644D01*
X0163064Y0099787D01*
X0163208Y0099927D01*
X0163355Y0100063D01*
X0163506Y0100196D01*
X0163659Y0100325D01*
X0163816Y0100450D01*
X0163976Y0100572D01*
X0164139Y0100689D01*
X0164304Y0100803D01*
X0164472Y0100912D01*
X0164643Y0101018D01*
X0164816Y0101119D01*
X0164992Y0101216D01*
X0165170Y0101308D01*
X0165350Y0101396D01*
X0165533Y0101480D01*
X0165717Y0101560D01*
X0165903Y0101635D01*
X0166091Y0101705D01*
X0166281Y0101771D01*
X0166472Y0101832D01*
X0166664Y0101888D01*
X0166858Y0101940D01*
X0167053Y0101987D01*
X0167249Y0102030D01*
X0167447Y0102067D01*
X0167645Y0102100D01*
X0167843Y0102128D01*
X0168043Y0102151D01*
X0168242Y0102169D01*
X0168443Y0102183D01*
X0168643Y0102191D01*
X0168844Y0102195D01*
X0168844Y0102101D01*
X0168645Y0102097D01*
X0168447Y0102089D01*
X0168249Y0102076D01*
X0168052Y0102057D01*
X0167855Y0102035D01*
X0167658Y0102007D01*
X0167463Y0101975D01*
X0167268Y0101937D01*
X0167074Y0101896D01*
X0166881Y0101849D01*
X0166689Y0101798D01*
X0166499Y0101742D01*
X0166310Y0101682D01*
X0166123Y0101617D01*
X0165937Y0101547D01*
X0165753Y0101473D01*
X0165571Y0101394D01*
X0165391Y0101311D01*
X0165212Y0101224D01*
X0165036Y0101133D01*
X0164863Y0101037D01*
X0164691Y0100937D01*
X0164523Y0100833D01*
X0164356Y0100725D01*
X0164193Y0100612D01*
X0164032Y0100496D01*
X0163874Y0100376D01*
X0163719Y0100252D01*
X0163567Y0100125D01*
X0163418Y0099994D01*
X0163273Y0099859D01*
X0163130Y0099721D01*
X0162992Y0099579D01*
X0162856Y0099434D01*
X0162724Y0099286D01*
X0162596Y0099134D01*
X0162472Y0098980D01*
X0162351Y0098823D01*
X0162234Y0098662D01*
X0162121Y0098499D01*
X0162013Y0098333D01*
X0161908Y0098165D01*
X0161807Y0097994D01*
X0161711Y0097821D01*
X0161793Y0097776D01*
X0161889Y0097948D01*
X0161988Y0098117D01*
X0162092Y0098283D01*
X0162200Y0098447D01*
X0162311Y0098608D01*
X0162427Y0098767D01*
X0162546Y0098922D01*
X0162669Y0099075D01*
X0162796Y0099224D01*
X0162926Y0099371D01*
X0163060Y0099514D01*
X0163197Y0099654D01*
X0163338Y0099791D01*
X0163481Y0099924D01*
X0163628Y0100054D01*
X0163779Y0100180D01*
X0163932Y0100302D01*
X0164088Y0100421D01*
X0164247Y0100536D01*
X0164409Y0100646D01*
X0164573Y0100753D01*
X0164740Y0100856D01*
X0164909Y0100955D01*
X0165081Y0101050D01*
X0165255Y0101140D01*
X0165431Y0101227D01*
X0165609Y0101308D01*
X0165789Y0101386D01*
X0165971Y0101459D01*
X0166154Y0101528D01*
X0166340Y0101592D01*
X0166526Y0101652D01*
X0166714Y0101707D01*
X0166904Y0101758D01*
X0167094Y0101804D01*
X0167286Y0101845D01*
X0167479Y0101882D01*
X0167672Y0101914D01*
X0167866Y0101941D01*
X0168061Y0101964D01*
X0168256Y0101982D01*
X0168452Y0101995D01*
X0168648Y0102003D01*
X0168844Y0102007D01*
X0168844Y0101913D01*
X0168650Y0101909D01*
X0168456Y0101901D01*
X0168263Y0101888D01*
X0168070Y0101870D01*
X0167878Y0101848D01*
X0167686Y0101821D01*
X0167495Y0101789D01*
X0167304Y0101753D01*
X0167115Y0101712D01*
X0166927Y0101667D01*
X0166740Y0101617D01*
X0166554Y0101562D01*
X0166369Y0101503D01*
X0166186Y0101440D01*
X0166005Y0101372D01*
X0165825Y0101299D01*
X0165647Y0101223D01*
X0165471Y0101142D01*
X0165297Y0101056D01*
X0165125Y0100967D01*
X0164955Y0100873D01*
X0164788Y0100776D01*
X0164623Y0100674D01*
X0164461Y0100568D01*
X0164301Y0100459D01*
X0164144Y0100345D01*
X0163990Y0100228D01*
X0163838Y0100107D01*
X0163690Y0099983D01*
X0163545Y0099855D01*
X0163402Y0099723D01*
X0163263Y0099588D01*
X0163128Y0099450D01*
X0162996Y0099308D01*
X0162867Y0099163D01*
X0162742Y0099015D01*
X0162620Y0098864D01*
X0162502Y0098711D01*
X0162388Y0098554D01*
X0162278Y0098395D01*
X0162172Y0098233D01*
X0162069Y0098068D01*
X0161971Y0097901D01*
X0161876Y0097732D01*
X0161959Y0097688D01*
X0162053Y0097855D01*
X0162150Y0098020D01*
X0162251Y0098183D01*
X0162356Y0098343D01*
X0162465Y0098500D01*
X0162578Y0098655D01*
X0162694Y0098807D01*
X0162814Y0098956D01*
X0162938Y0099102D01*
X0163065Y0099245D01*
X0163196Y0099385D01*
X0163330Y0099521D01*
X0163467Y0099655D01*
X0163608Y0099785D01*
X0163751Y0099912D01*
X0163898Y0100035D01*
X0164048Y0100154D01*
X0164200Y0100270D01*
X0164355Y0100382D01*
X0164513Y0100490D01*
X0164674Y0100595D01*
X0164837Y0100695D01*
X0165002Y0100792D01*
X0165169Y0100884D01*
X0165339Y0100972D01*
X0165511Y0101057D01*
X0165685Y0101137D01*
X0165861Y0101212D01*
X0166039Y0101284D01*
X0166218Y0101351D01*
X0166399Y0101414D01*
X0166581Y0101472D01*
X0166765Y0101526D01*
X0166950Y0101576D01*
X0167136Y0101620D01*
X0167323Y0101661D01*
X0167511Y0101697D01*
X0167700Y0101728D01*
X0167889Y0101755D01*
X0168079Y0101777D01*
X0168270Y0101794D01*
X0168461Y0101807D01*
X0168652Y0101815D01*
X0168844Y0101819D01*
X0168844Y0101725D01*
X0168655Y0101721D01*
X0168466Y0101713D01*
X0168277Y0101701D01*
X0168089Y0101683D01*
X0167901Y0101661D01*
X0167714Y0101635D01*
X0167527Y0101604D01*
X0167341Y0101569D01*
X0167156Y0101529D01*
X0166972Y0101484D01*
X0166790Y0101435D01*
X0166608Y0101382D01*
X0166428Y0101325D01*
X0166250Y0101263D01*
X0166072Y0101196D01*
X0165897Y0101126D01*
X0165723Y0101051D01*
X0165551Y0100972D01*
X0165382Y0100888D01*
X0165214Y0100801D01*
X0165048Y0100710D01*
X0164885Y0100614D01*
X0164724Y0100515D01*
X0164565Y0100412D01*
X0164409Y0100305D01*
X0164256Y0100194D01*
X0164105Y0100080D01*
X0163958Y0099962D01*
X0163813Y0099840D01*
X0163671Y0099715D01*
X0163532Y0099587D01*
X0163397Y0099455D01*
X0163264Y0099320D01*
X0163135Y0099182D01*
X0163009Y0099040D01*
X0162887Y0098896D01*
X0162768Y0098749D01*
X0162653Y0098599D01*
X0162542Y0098446D01*
X0162434Y0098290D01*
X0162330Y0098132D01*
X0162230Y0097972D01*
X0162134Y0097809D01*
X0162042Y0097644D01*
X0162125Y0097599D01*
X0162216Y0097763D01*
X0162311Y0097924D01*
X0162410Y0098082D01*
X0162512Y0098238D01*
X0162619Y0098392D01*
X0162729Y0098543D01*
X0162843Y0098691D01*
X0162960Y0098837D01*
X0163081Y0098979D01*
X0163205Y0099119D01*
X0163332Y0099255D01*
X0163463Y0099389D01*
X0163597Y0099519D01*
X0163734Y0099646D01*
X0163874Y0099769D01*
X0164017Y0099889D01*
X0164163Y0100006D01*
X0164312Y0100119D01*
X0164464Y0100228D01*
X0164618Y0100334D01*
X0164774Y0100436D01*
X0164933Y0100534D01*
X0165095Y0100628D01*
X0165258Y0100718D01*
X0165424Y0100805D01*
X0165592Y0100887D01*
X0165761Y0100965D01*
X0165933Y0101039D01*
X0166106Y0101108D01*
X0166281Y0101174D01*
X0166458Y0101235D01*
X0166636Y0101292D01*
X0166815Y0101345D01*
X0166995Y0101393D01*
X0167177Y0101437D01*
X0167360Y0101477D01*
X0167543Y0101512D01*
X0167727Y0101542D01*
X0167912Y0101568D01*
X0168098Y0101590D01*
X0168284Y0101607D01*
X0168470Y0101619D01*
X0168657Y0101627D01*
X0168844Y0101631D01*
X0168844Y0101537D01*
X0168659Y0101533D01*
X0168475Y0101525D01*
X0168291Y0101513D01*
X0168107Y0101496D01*
X0167924Y0101475D01*
X0167741Y0101449D01*
X0167559Y0101419D01*
X0167378Y0101384D01*
X0167198Y0101345D01*
X0167018Y0101302D01*
X0166840Y0101254D01*
X0166663Y0101202D01*
X0166487Y0101146D01*
X0166313Y0101086D01*
X0166140Y0101021D01*
X0165969Y0100952D01*
X0165800Y0100879D01*
X0165632Y0100802D01*
X0165466Y0100721D01*
X0165303Y0100635D01*
X0165141Y0100546D01*
X0164982Y0100453D01*
X0164825Y0100356D01*
X0164670Y0100256D01*
X0164518Y0100151D01*
X0164368Y0100043D01*
X0164221Y0099932D01*
X0164077Y0099817D01*
X0163936Y0099698D01*
X0163797Y0099576D01*
X0163662Y0099451D01*
X0163530Y0099322D01*
X0163400Y0099190D01*
X0163274Y0099056D01*
X0163152Y0098918D01*
X0163033Y0098777D01*
X0162917Y0098633D01*
X0162804Y0098487D01*
X0162696Y0098338D01*
X0162591Y0098186D01*
X0162489Y0098032D01*
X0162392Y0097875D01*
X0162298Y0097716D01*
X0162208Y0097555D01*
X0175353Y0099381D02*
X0174661Y0098804D01*
X0174662Y0098805D02*
X0174543Y0098942D01*
X0174422Y0099076D01*
X0174297Y0099207D01*
X0174169Y0099335D01*
X0174038Y0099459D01*
X0173904Y0099581D01*
X0173767Y0099700D01*
X0173628Y0099815D01*
X0173485Y0099926D01*
X0173340Y0100035D01*
X0173193Y0100140D01*
X0173043Y0100241D01*
X0172891Y0100338D01*
X0172736Y0100432D01*
X0172579Y0100523D01*
X0172420Y0100609D01*
X0172259Y0100692D01*
X0172096Y0100770D01*
X0171931Y0100845D01*
X0171765Y0100916D01*
X0171597Y0100983D01*
X0171427Y0101045D01*
X0171256Y0101104D01*
X0171083Y0101159D01*
X0170910Y0101209D01*
X0170735Y0101255D01*
X0170559Y0101297D01*
X0170382Y0101335D01*
X0170204Y0101368D01*
X0170025Y0101398D01*
X0169846Y0101423D01*
X0169666Y0101443D01*
X0169486Y0101460D01*
X0169306Y0101472D01*
X0169125Y0101479D01*
X0168944Y0101483D01*
X0168943Y0102382D01*
X0168944Y0102383D01*
X0169147Y0102379D01*
X0169349Y0102371D01*
X0169552Y0102357D01*
X0169754Y0102339D01*
X0169955Y0102316D01*
X0170156Y0102288D01*
X0170356Y0102255D01*
X0170556Y0102218D01*
X0170754Y0102176D01*
X0170952Y0102129D01*
X0171148Y0102077D01*
X0171342Y0102020D01*
X0171536Y0101959D01*
X0171728Y0101894D01*
X0171918Y0101823D01*
X0172107Y0101748D01*
X0172293Y0101669D01*
X0172478Y0101585D01*
X0172661Y0101497D01*
X0172841Y0101404D01*
X0173019Y0101308D01*
X0173195Y0101206D01*
X0173368Y0101101D01*
X0173539Y0100992D01*
X0173707Y0100878D01*
X0173873Y0100761D01*
X0174035Y0100639D01*
X0174195Y0100514D01*
X0174351Y0100385D01*
X0174504Y0100252D01*
X0174654Y0100115D01*
X0174801Y0099975D01*
X0174944Y0099832D01*
X0175084Y0099685D01*
X0175221Y0099535D01*
X0175353Y0099381D01*
X0175281Y0099321D01*
X0175150Y0099473D01*
X0175015Y0099621D01*
X0174877Y0099766D01*
X0174735Y0099908D01*
X0174590Y0100047D01*
X0174442Y0100182D01*
X0174290Y0100313D01*
X0174135Y0100441D01*
X0173978Y0100565D01*
X0173817Y0100685D01*
X0173654Y0100801D01*
X0173487Y0100913D01*
X0173319Y0101021D01*
X0173147Y0101126D01*
X0172973Y0101226D01*
X0172797Y0101321D01*
X0172619Y0101413D01*
X0172438Y0101500D01*
X0172255Y0101583D01*
X0172071Y0101662D01*
X0171885Y0101736D01*
X0171696Y0101805D01*
X0171507Y0101870D01*
X0171315Y0101930D01*
X0171123Y0101986D01*
X0170929Y0102037D01*
X0170734Y0102084D01*
X0170538Y0102126D01*
X0170341Y0102163D01*
X0170143Y0102195D01*
X0169944Y0102223D01*
X0169745Y0102246D01*
X0169545Y0102264D01*
X0169345Y0102277D01*
X0169144Y0102285D01*
X0168944Y0102289D01*
X0168944Y0102195D01*
X0169142Y0102191D01*
X0169340Y0102183D01*
X0169538Y0102170D01*
X0169736Y0102152D01*
X0169933Y0102129D01*
X0170129Y0102102D01*
X0170325Y0102070D01*
X0170519Y0102034D01*
X0170713Y0101992D01*
X0170906Y0101946D01*
X0171098Y0101896D01*
X0171288Y0101840D01*
X0171477Y0101781D01*
X0171665Y0101716D01*
X0171851Y0101648D01*
X0172035Y0101575D01*
X0172218Y0101497D01*
X0172398Y0101415D01*
X0172577Y0101329D01*
X0172753Y0101238D01*
X0172927Y0101144D01*
X0173099Y0101045D01*
X0173269Y0100942D01*
X0173436Y0100835D01*
X0173600Y0100724D01*
X0173761Y0100609D01*
X0173920Y0100490D01*
X0174076Y0100368D01*
X0174229Y0100242D01*
X0174379Y0100112D01*
X0174526Y0099978D01*
X0174669Y0099841D01*
X0174809Y0099701D01*
X0174946Y0099558D01*
X0175079Y0099411D01*
X0175209Y0099261D01*
X0175137Y0099201D01*
X0175008Y0099349D01*
X0174877Y0099494D01*
X0174742Y0099636D01*
X0174603Y0099774D01*
X0174461Y0099910D01*
X0174316Y0100042D01*
X0174168Y0100170D01*
X0174017Y0100295D01*
X0173863Y0100416D01*
X0173706Y0100533D01*
X0173546Y0100647D01*
X0173384Y0100756D01*
X0173219Y0100862D01*
X0173051Y0100964D01*
X0172881Y0101062D01*
X0172709Y0101155D01*
X0172535Y0101245D01*
X0172358Y0101330D01*
X0172180Y0101411D01*
X0172000Y0101488D01*
X0171817Y0101560D01*
X0171634Y0101628D01*
X0171448Y0101691D01*
X0171261Y0101750D01*
X0171073Y0101805D01*
X0170884Y0101855D01*
X0170693Y0101900D01*
X0170501Y0101941D01*
X0170309Y0101978D01*
X0170115Y0102009D01*
X0169921Y0102036D01*
X0169726Y0102058D01*
X0169531Y0102076D01*
X0169336Y0102089D01*
X0169140Y0102097D01*
X0168944Y0102101D01*
X0168944Y0102007D01*
X0169138Y0102003D01*
X0169331Y0101995D01*
X0169524Y0101982D01*
X0169717Y0101965D01*
X0169910Y0101943D01*
X0170102Y0101916D01*
X0170293Y0101885D01*
X0170483Y0101849D01*
X0170673Y0101809D01*
X0170861Y0101764D01*
X0171048Y0101714D01*
X0171234Y0101660D01*
X0171419Y0101602D01*
X0171602Y0101539D01*
X0171784Y0101472D01*
X0171964Y0101401D01*
X0172142Y0101325D01*
X0172319Y0101245D01*
X0172493Y0101161D01*
X0172665Y0101072D01*
X0172835Y0100980D01*
X0173003Y0100883D01*
X0173169Y0100782D01*
X0173332Y0100678D01*
X0173492Y0100570D01*
X0173650Y0100457D01*
X0173805Y0100341D01*
X0173958Y0100222D01*
X0174107Y0100098D01*
X0174254Y0099972D01*
X0174397Y0099841D01*
X0174537Y0099708D01*
X0174674Y0099571D01*
X0174807Y0099430D01*
X0174938Y0099287D01*
X0175064Y0099140D01*
X0174992Y0099080D01*
X0174867Y0099225D01*
X0174738Y0099367D01*
X0174606Y0099505D01*
X0174471Y0099641D01*
X0174332Y0099773D01*
X0174191Y0099902D01*
X0174046Y0100027D01*
X0173899Y0100149D01*
X0173748Y0100267D01*
X0173595Y0100382D01*
X0173439Y0100492D01*
X0173280Y0100600D01*
X0173119Y0100703D01*
X0172955Y0100802D01*
X0172789Y0100898D01*
X0172621Y0100989D01*
X0172451Y0101076D01*
X0172279Y0101160D01*
X0172104Y0101239D01*
X0171928Y0101314D01*
X0171750Y0101384D01*
X0171571Y0101451D01*
X0171390Y0101513D01*
X0171207Y0101570D01*
X0171023Y0101624D01*
X0170838Y0101673D01*
X0170652Y0101717D01*
X0170465Y0101757D01*
X0170277Y0101792D01*
X0170088Y0101823D01*
X0169898Y0101850D01*
X0169708Y0101871D01*
X0169518Y0101889D01*
X0169327Y0101901D01*
X0169135Y0101909D01*
X0168944Y0101913D01*
X0168944Y0101819D01*
X0169133Y0101815D01*
X0169322Y0101807D01*
X0169511Y0101795D01*
X0169699Y0101778D01*
X0169887Y0101756D01*
X0170074Y0101730D01*
X0170261Y0101700D01*
X0170447Y0101665D01*
X0170632Y0101625D01*
X0170816Y0101581D01*
X0170998Y0101533D01*
X0171180Y0101480D01*
X0171360Y0101423D01*
X0171539Y0101362D01*
X0171717Y0101296D01*
X0171893Y0101227D01*
X0172067Y0101153D01*
X0172239Y0101075D01*
X0172409Y0100992D01*
X0172577Y0100906D01*
X0172743Y0100816D01*
X0172907Y0100721D01*
X0173069Y0100623D01*
X0173228Y0100521D01*
X0173385Y0100415D01*
X0173539Y0100306D01*
X0173691Y0100192D01*
X0173839Y0100076D01*
X0173985Y0099955D01*
X0174128Y0099832D01*
X0174268Y0099704D01*
X0174405Y0099574D01*
X0174539Y0099440D01*
X0174669Y0099303D01*
X0174796Y0099163D01*
X0174920Y0099020D01*
X0174848Y0098960D01*
X0174725Y0099101D01*
X0174600Y0099239D01*
X0174471Y0099375D01*
X0174339Y0099507D01*
X0174204Y0099636D01*
X0174065Y0099761D01*
X0173924Y0099884D01*
X0173780Y0100003D01*
X0173633Y0100118D01*
X0173484Y0100230D01*
X0173331Y0100338D01*
X0173176Y0100443D01*
X0173019Y0100543D01*
X0172859Y0100640D01*
X0172698Y0100734D01*
X0172533Y0100823D01*
X0172367Y0100908D01*
X0172199Y0100989D01*
X0172029Y0101067D01*
X0171857Y0101140D01*
X0171683Y0101209D01*
X0171508Y0101273D01*
X0171331Y0101334D01*
X0171153Y0101390D01*
X0170974Y0101442D01*
X0170793Y0101490D01*
X0170611Y0101533D01*
X0170429Y0101572D01*
X0170245Y0101607D01*
X0170061Y0101637D01*
X0169876Y0101663D01*
X0169690Y0101684D01*
X0169504Y0101701D01*
X0169317Y0101713D01*
X0169131Y0101721D01*
X0168944Y0101725D01*
X0168944Y0101631D01*
X0169128Y0101627D01*
X0169313Y0101620D01*
X0169497Y0101607D01*
X0169681Y0101591D01*
X0169864Y0101570D01*
X0170047Y0101544D01*
X0170229Y0101514D01*
X0170410Y0101480D01*
X0170591Y0101442D01*
X0170770Y0101399D01*
X0170949Y0101352D01*
X0171126Y0101300D01*
X0171302Y0101245D01*
X0171477Y0101185D01*
X0171650Y0101121D01*
X0171821Y0101053D01*
X0171991Y0100981D01*
X0172159Y0100904D01*
X0172325Y0100824D01*
X0172489Y0100740D01*
X0172652Y0100652D01*
X0172812Y0100560D01*
X0172969Y0100464D01*
X0173125Y0100364D01*
X0173278Y0100261D01*
X0173428Y0100154D01*
X0173576Y0100044D01*
X0173721Y0099930D01*
X0173863Y0099812D01*
X0174003Y0099691D01*
X0174139Y0099567D01*
X0174273Y0099440D01*
X0174403Y0099309D01*
X0174531Y0099176D01*
X0174655Y0099039D01*
X0174775Y0098900D01*
X0174703Y0098839D01*
X0174584Y0098977D01*
X0174461Y0099112D01*
X0174336Y0099244D01*
X0174207Y0099373D01*
X0174075Y0099499D01*
X0173940Y0099621D01*
X0173802Y0099741D01*
X0173662Y0099857D01*
X0173518Y0099969D01*
X0173372Y0100078D01*
X0173224Y0100184D01*
X0173073Y0100286D01*
X0172919Y0100384D01*
X0172764Y0100479D01*
X0172606Y0100570D01*
X0172445Y0100657D01*
X0172283Y0100740D01*
X0172119Y0100819D01*
X0171953Y0100894D01*
X0171785Y0100966D01*
X0171616Y0101033D01*
X0171445Y0101096D01*
X0171273Y0101155D01*
X0171099Y0101210D01*
X0170924Y0101261D01*
X0170748Y0101308D01*
X0170570Y0101350D01*
X0170392Y0101388D01*
X0170213Y0101422D01*
X0170033Y0101451D01*
X0169853Y0101476D01*
X0169672Y0101497D01*
X0169490Y0101514D01*
X0169308Y0101526D01*
X0169126Y0101533D01*
X0168944Y0101537D01*
X0168943Y0085484D02*
X0168943Y0086384D01*
X0168944Y0086383D02*
X0169128Y0086387D01*
X0169313Y0086395D01*
X0169497Y0086407D01*
X0169680Y0086424D01*
X0169864Y0086446D01*
X0170046Y0086471D01*
X0170228Y0086502D01*
X0170409Y0086537D01*
X0170590Y0086576D01*
X0170769Y0086620D01*
X0170947Y0086668D01*
X0171124Y0086720D01*
X0171300Y0086777D01*
X0171474Y0086837D01*
X0171646Y0086903D01*
X0171817Y0086972D01*
X0171987Y0087045D01*
X0172154Y0087123D01*
X0172319Y0087205D01*
X0172483Y0087290D01*
X0172644Y0087380D01*
X0172803Y0087474D01*
X0172960Y0087571D01*
X0173114Y0087672D01*
X0173266Y0087777D01*
X0173415Y0087886D01*
X0173561Y0087998D01*
X0173705Y0088114D01*
X0173845Y0088233D01*
X0173983Y0088356D01*
X0174118Y0088482D01*
X0174250Y0088611D01*
X0174378Y0088744D01*
X0174503Y0088879D01*
X0174625Y0089018D01*
X0175312Y0088437D01*
X0175176Y0088281D01*
X0175035Y0088129D01*
X0174891Y0087980D01*
X0174744Y0087835D01*
X0174593Y0087694D01*
X0174439Y0087557D01*
X0174281Y0087423D01*
X0174120Y0087293D01*
X0173956Y0087167D01*
X0173789Y0087045D01*
X0173619Y0086927D01*
X0173446Y0086814D01*
X0173270Y0086705D01*
X0173092Y0086600D01*
X0172911Y0086499D01*
X0172728Y0086403D01*
X0172543Y0086311D01*
X0172355Y0086224D01*
X0172165Y0086142D01*
X0171974Y0086064D01*
X0171780Y0085991D01*
X0171585Y0085923D01*
X0171388Y0085859D01*
X0171190Y0085801D01*
X0170990Y0085747D01*
X0170789Y0085698D01*
X0170587Y0085654D01*
X0170384Y0085615D01*
X0170180Y0085581D01*
X0169975Y0085552D01*
X0169770Y0085528D01*
X0169564Y0085510D01*
X0169357Y0085496D01*
X0169151Y0085487D01*
X0168944Y0085483D01*
X0168944Y0085577D01*
X0169148Y0085581D01*
X0169353Y0085590D01*
X0169557Y0085603D01*
X0169760Y0085622D01*
X0169963Y0085646D01*
X0170166Y0085674D01*
X0170368Y0085708D01*
X0170568Y0085746D01*
X0170768Y0085790D01*
X0170967Y0085838D01*
X0171164Y0085891D01*
X0171361Y0085949D01*
X0171555Y0086012D01*
X0171748Y0086080D01*
X0171940Y0086152D01*
X0172129Y0086229D01*
X0172317Y0086310D01*
X0172502Y0086396D01*
X0172685Y0086487D01*
X0172867Y0086582D01*
X0173045Y0086681D01*
X0173221Y0086785D01*
X0173395Y0086893D01*
X0173566Y0087005D01*
X0173734Y0087122D01*
X0173899Y0087242D01*
X0174062Y0087367D01*
X0174221Y0087495D01*
X0174377Y0087627D01*
X0174529Y0087763D01*
X0174679Y0087903D01*
X0174824Y0088046D01*
X0174967Y0088193D01*
X0175105Y0088344D01*
X0175240Y0088497D01*
X0175169Y0088558D01*
X0175035Y0088406D01*
X0174898Y0088257D01*
X0174757Y0088112D01*
X0174613Y0087971D01*
X0174466Y0087832D01*
X0174315Y0087698D01*
X0174161Y0087567D01*
X0174003Y0087440D01*
X0173843Y0087317D01*
X0173679Y0087198D01*
X0173513Y0087083D01*
X0173344Y0086972D01*
X0173173Y0086865D01*
X0172998Y0086763D01*
X0172822Y0086664D01*
X0172643Y0086570D01*
X0172461Y0086481D01*
X0172278Y0086396D01*
X0172093Y0086315D01*
X0171905Y0086239D01*
X0171716Y0086168D01*
X0171525Y0086101D01*
X0171333Y0086039D01*
X0171139Y0085982D01*
X0170944Y0085929D01*
X0170747Y0085882D01*
X0170550Y0085839D01*
X0170351Y0085801D01*
X0170152Y0085767D01*
X0169952Y0085739D01*
X0169751Y0085716D01*
X0169550Y0085697D01*
X0169348Y0085683D01*
X0169146Y0085675D01*
X0168944Y0085671D01*
X0168944Y0085765D01*
X0169144Y0085769D01*
X0169343Y0085777D01*
X0169543Y0085791D01*
X0169742Y0085809D01*
X0169940Y0085832D01*
X0170138Y0085860D01*
X0170335Y0085893D01*
X0170531Y0085931D01*
X0170727Y0085973D01*
X0170921Y0086020D01*
X0171114Y0086072D01*
X0171305Y0086129D01*
X0171496Y0086190D01*
X0171684Y0086256D01*
X0171871Y0086327D01*
X0172056Y0086402D01*
X0172240Y0086482D01*
X0172421Y0086566D01*
X0172600Y0086654D01*
X0172777Y0086747D01*
X0172952Y0086844D01*
X0173124Y0086946D01*
X0173293Y0087051D01*
X0173461Y0087161D01*
X0173625Y0087275D01*
X0173786Y0087392D01*
X0173945Y0087514D01*
X0174100Y0087639D01*
X0174253Y0087769D01*
X0174402Y0087902D01*
X0174548Y0088038D01*
X0174690Y0088178D01*
X0174829Y0088322D01*
X0174965Y0088469D01*
X0175097Y0088619D01*
X0175025Y0088679D01*
X0174895Y0088531D01*
X0174761Y0088386D01*
X0174623Y0088244D01*
X0174482Y0088106D01*
X0174338Y0087971D01*
X0174191Y0087839D01*
X0174040Y0087712D01*
X0173886Y0087588D01*
X0173730Y0087467D01*
X0173570Y0087351D01*
X0173408Y0087239D01*
X0173243Y0087130D01*
X0173075Y0087026D01*
X0172905Y0086926D01*
X0172732Y0086830D01*
X0172557Y0086738D01*
X0172380Y0086650D01*
X0172201Y0086567D01*
X0172020Y0086489D01*
X0171837Y0086414D01*
X0171652Y0086345D01*
X0171466Y0086280D01*
X0171278Y0086219D01*
X0171088Y0086163D01*
X0170898Y0086112D01*
X0170706Y0086065D01*
X0170513Y0086023D01*
X0170319Y0085986D01*
X0170124Y0085953D01*
X0169928Y0085926D01*
X0169732Y0085903D01*
X0169536Y0085885D01*
X0169339Y0085871D01*
X0169141Y0085863D01*
X0168944Y0085859D01*
X0168944Y0085953D01*
X0169139Y0085957D01*
X0169334Y0085965D01*
X0169529Y0085978D01*
X0169723Y0085996D01*
X0169917Y0086019D01*
X0170110Y0086046D01*
X0170303Y0086078D01*
X0170494Y0086115D01*
X0170685Y0086157D01*
X0170875Y0086203D01*
X0171063Y0086253D01*
X0171250Y0086309D01*
X0171436Y0086369D01*
X0171620Y0086433D01*
X0171803Y0086502D01*
X0171984Y0086575D01*
X0172163Y0086653D01*
X0172340Y0086735D01*
X0172515Y0086822D01*
X0172687Y0086912D01*
X0172858Y0087007D01*
X0173026Y0087106D01*
X0173192Y0087209D01*
X0173355Y0087316D01*
X0173516Y0087427D01*
X0173673Y0087542D01*
X0173828Y0087661D01*
X0173980Y0087784D01*
X0174129Y0087910D01*
X0174275Y0088040D01*
X0174417Y0088173D01*
X0174556Y0088310D01*
X0174692Y0088450D01*
X0174824Y0088594D01*
X0174953Y0088740D01*
X0174881Y0088801D01*
X0174754Y0088656D01*
X0174623Y0088514D01*
X0174489Y0088376D01*
X0174352Y0088241D01*
X0174211Y0088109D01*
X0174067Y0087981D01*
X0173920Y0087856D01*
X0173770Y0087735D01*
X0173617Y0087618D01*
X0173461Y0087504D01*
X0173302Y0087394D01*
X0173141Y0087288D01*
X0172977Y0087187D01*
X0172811Y0087089D01*
X0172643Y0086995D01*
X0172472Y0086905D01*
X0172299Y0086820D01*
X0172124Y0086739D01*
X0171947Y0086662D01*
X0171769Y0086590D01*
X0171588Y0086521D01*
X0171406Y0086458D01*
X0171223Y0086399D01*
X0171038Y0086344D01*
X0170852Y0086294D01*
X0170664Y0086248D01*
X0170476Y0086207D01*
X0170286Y0086171D01*
X0170096Y0086139D01*
X0169905Y0086112D01*
X0169714Y0086090D01*
X0169522Y0086072D01*
X0169329Y0086059D01*
X0169137Y0086051D01*
X0168944Y0086047D01*
X0168944Y0086141D01*
X0169134Y0086145D01*
X0169325Y0086153D01*
X0169515Y0086166D01*
X0169704Y0086183D01*
X0169894Y0086205D01*
X0170082Y0086232D01*
X0170270Y0086263D01*
X0170457Y0086299D01*
X0170643Y0086340D01*
X0170828Y0086385D01*
X0171012Y0086434D01*
X0171195Y0086489D01*
X0171376Y0086547D01*
X0171556Y0086610D01*
X0171734Y0086677D01*
X0171911Y0086749D01*
X0172086Y0086825D01*
X0172258Y0086905D01*
X0172429Y0086989D01*
X0172598Y0087078D01*
X0172764Y0087170D01*
X0172929Y0087267D01*
X0173090Y0087367D01*
X0173250Y0087472D01*
X0173406Y0087580D01*
X0173560Y0087693D01*
X0173711Y0087809D01*
X0173860Y0087928D01*
X0174005Y0088051D01*
X0174147Y0088178D01*
X0174286Y0088308D01*
X0174422Y0088442D01*
X0174555Y0088578D01*
X0174684Y0088718D01*
X0174810Y0088862D01*
X0174738Y0088922D01*
X0174614Y0088781D01*
X0174486Y0088643D01*
X0174355Y0088508D01*
X0174221Y0088376D01*
X0174084Y0088247D01*
X0173943Y0088122D01*
X0173799Y0088000D01*
X0173653Y0087882D01*
X0173504Y0087768D01*
X0173352Y0087657D01*
X0173197Y0087550D01*
X0173040Y0087447D01*
X0172880Y0087347D01*
X0172718Y0087252D01*
X0172553Y0087160D01*
X0172387Y0087073D01*
X0172218Y0086990D01*
X0172047Y0086910D01*
X0171875Y0086835D01*
X0171700Y0086765D01*
X0171524Y0086698D01*
X0171347Y0086636D01*
X0171167Y0086578D01*
X0170987Y0086525D01*
X0170805Y0086476D01*
X0170623Y0086432D01*
X0170439Y0086392D01*
X0170254Y0086356D01*
X0170068Y0086325D01*
X0169882Y0086299D01*
X0169695Y0086277D01*
X0169508Y0086260D01*
X0169320Y0086247D01*
X0169132Y0086239D01*
X0168944Y0086235D01*
X0168944Y0086329D01*
X0169130Y0086333D01*
X0169315Y0086341D01*
X0169501Y0086353D01*
X0169686Y0086370D01*
X0169870Y0086392D01*
X0170054Y0086418D01*
X0170238Y0086449D01*
X0170420Y0086484D01*
X0170602Y0086523D01*
X0170782Y0086567D01*
X0170962Y0086616D01*
X0171140Y0086668D01*
X0171317Y0086725D01*
X0171492Y0086787D01*
X0171666Y0086852D01*
X0171838Y0086922D01*
X0172009Y0086996D01*
X0172177Y0087074D01*
X0172344Y0087157D01*
X0172508Y0087243D01*
X0172671Y0087333D01*
X0172831Y0087428D01*
X0172989Y0087526D01*
X0173144Y0087628D01*
X0173297Y0087733D01*
X0173447Y0087843D01*
X0173595Y0087956D01*
X0173739Y0088073D01*
X0173881Y0088193D01*
X0174020Y0088316D01*
X0174156Y0088443D01*
X0174288Y0088573D01*
X0174417Y0088707D01*
X0174544Y0088843D01*
X0174666Y0088983D01*
D12*
X0175094Y0088833D02*
X0175094Y0090633D01*
X0175094Y0097033D02*
X0175094Y0099033D01*
M02*
