%
M48
M72
T01C0.02362
T02C0.02756
T03C0.03200
T04C0.03937
T05C0.04000
T06C0.10000
%
T01
X76394Y63933
X96394Y91433
X113894Y96433
X138894Y101433
X111394Y176433
X85213Y127195
X66394Y166433
X61975Y176433
X66394Y226433
X48894Y258907
T02
X61394Y68854
X61394Y59012
T03
X73894Y41433
X83894Y41433
X93894Y41433
X103894Y41433
X113894Y41433
X123894Y41433
X146294Y48633
X146294Y78633
X136394Y93933
X133794Y120733
X123794Y120733
X113794Y120733
X103794Y120733
X93794Y120733
X83794Y120733
X73794Y120733
X63794Y120733
X53794Y120733
X43794Y120733
X33794Y120733
X33794Y150733
X38894Y161433
X43794Y150733
X53794Y150733
X63794Y150733
X71363Y162838
X73794Y150733
X83794Y150733
X93794Y150733
X98994Y159233
X103794Y150733
X113794Y150733
X123794Y150733
X126224Y162638
X133794Y150733
X143794Y150733
X153794Y150733
X158894Y161433
X163794Y150733
X163794Y120733
X153794Y120733
X143794Y120733
X163894Y93933
X173894Y93933
X158894Y191433
X115963Y190828
X98994Y189233
X91394Y213933
X81624Y191028
X61394Y213933
X38894Y191433
X67324Y277338
X57063Y305528
X38894Y311433
X38894Y281433
X61444Y333883
X91444Y333883
X98894Y308933
X98894Y278933
X130663Y277338
X140924Y305528
X158894Y311433
X158894Y281433
X106394Y93933
T04
X98844Y103983
X145395Y109948
X148844Y93933
X158794Y103833
X158794Y203833
X148944Y213983
X158894Y223933
X111193Y223648
X98844Y223933
X86595Y223648
X86595Y203918
X98844Y203983
X111193Y203918
X52393Y109948
X38994Y103933
X48844Y93933
X38994Y203933
X48944Y213983
X38894Y223983
X52393Y317618
X38894Y323983
X48894Y333983
X98844Y323933
X145395Y317618
X148894Y333983
X158894Y323933
T05
X31394Y48933
X31394Y58933
X31394Y68933
X31394Y78933
X83894Y78933
X83894Y68933
X83894Y58933
X98894Y58933
X98894Y68933
X98894Y78933
X113894Y78933
X113894Y68933
X113894Y58933
X132494Y58233
X132494Y69233
X166394Y68933
X166394Y58933
X166394Y48933
X166394Y78933
T06
X171394Y213933
X26394Y213933
M30
