G75*
%MOIN*%
%OFA0B0*%
%FSLAX25Y25*%
%IPPOS*%
%LPD*%
%AMOC8*
5,1,8,0,0,1.08239X$1,22.5*
%
%ADD10R,0.06337X0.06337*%
%ADD11R,0.06337X0.06337*%
%ADD12OC8,0.05600*%
%ADD13C,0.01120*%
%ADD14C,0.06600*%
%ADD15C,0.07400*%
%ADD16C,0.08000*%
%ADD17R,0.06500X0.06500*%
%ADD18C,0.06500*%
%ADD19C,0.05600*%
%ADD20C,0.01000*%
%ADD21C,0.00787*%
%ADD22C,0.01600*%
%ADD23C,0.03200*%
%ADD24C,0.02000*%
%ADD25C,0.04362*%
D10*
X0048844Y0093933D03*
X0038994Y0103933D03*
X0098844Y0103983D03*
X0148844Y0093933D03*
X0158794Y0103833D03*
X0158794Y0203833D03*
X0148944Y0213983D03*
X0158894Y0223933D03*
X0098844Y0223933D03*
X0098844Y0203983D03*
X0048944Y0213983D03*
X0038994Y0203933D03*
X0038894Y0223983D03*
X0038894Y0323983D03*
X0048894Y0333983D03*
X0098844Y0323933D03*
X0148894Y0333983D03*
X0158894Y0323933D03*
D11*
G36*
X0141335Y0315725D02*
X0143502Y0321678D01*
X0149455Y0319511D01*
X0147288Y0313558D01*
X0141335Y0315725D01*
G37*
G36*
X0107133Y0221755D02*
X0109300Y0227708D01*
X0115253Y0225541D01*
X0113086Y0219588D01*
X0107133Y0221755D01*
G37*
G36*
X0109300Y0199858D02*
X0107133Y0205811D01*
X0113086Y0207978D01*
X0115253Y0202025D01*
X0109300Y0199858D01*
G37*
G36*
X0082535Y0202025D02*
X0084702Y0207978D01*
X0090655Y0205811D01*
X0088488Y0199858D01*
X0082535Y0202025D01*
G37*
G36*
X0084702Y0219588D02*
X0082535Y0225541D01*
X0088488Y0227708D01*
X0090655Y0221755D01*
X0084702Y0219588D01*
G37*
G36*
X0050500Y0313558D02*
X0048333Y0319511D01*
X0054286Y0321678D01*
X0056453Y0315725D01*
X0050500Y0313558D01*
G37*
G36*
X0048333Y0108055D02*
X0050500Y0114008D01*
X0056453Y0111841D01*
X0054286Y0105888D01*
X0048333Y0108055D01*
G37*
G36*
X0143502Y0105888D02*
X0141335Y0111841D01*
X0147288Y0114008D01*
X0149455Y0108055D01*
X0143502Y0105888D01*
G37*
D12*
X0136394Y0093933D03*
X0146294Y0078633D03*
X0146294Y0048633D03*
X0106394Y0093933D03*
X0098994Y0159233D03*
X0098994Y0189233D03*
X0091394Y0213933D03*
X0061394Y0213933D03*
X0038894Y0191433D03*
X0038894Y0161433D03*
X0098894Y0278933D03*
X0098894Y0308933D03*
X0091444Y0333883D03*
X0061444Y0333883D03*
X0038894Y0311433D03*
X0038894Y0281433D03*
X0158894Y0281433D03*
X0158894Y0311433D03*
X0158894Y0191433D03*
X0158894Y0161433D03*
D13*
X0125768Y0164499D02*
X0126328Y0165059D01*
X0128011Y0164275D01*
X0128645Y0162534D01*
X0127861Y0160851D01*
X0126120Y0160217D01*
X0124437Y0161001D01*
X0123803Y0162742D01*
X0124587Y0164425D01*
X0126328Y0165059D01*
X0126289Y0164151D01*
X0127341Y0163660D01*
X0127737Y0162573D01*
X0127246Y0161521D01*
X0126159Y0161125D01*
X0125107Y0161616D01*
X0124711Y0162703D01*
X0125202Y0163755D01*
X0126289Y0164151D01*
X0126249Y0163243D01*
X0126671Y0163046D01*
X0126829Y0162613D01*
X0126632Y0162191D01*
X0126199Y0162033D01*
X0125777Y0162230D01*
X0125619Y0162663D01*
X0125816Y0163085D01*
X0126249Y0163243D01*
X0115507Y0192689D02*
X0116067Y0193249D01*
X0117750Y0192465D01*
X0118384Y0190724D01*
X0117600Y0189041D01*
X0115859Y0188407D01*
X0114176Y0189191D01*
X0113542Y0190932D01*
X0114326Y0192615D01*
X0116067Y0193249D01*
X0116028Y0192341D01*
X0117080Y0191850D01*
X0117476Y0190763D01*
X0116985Y0189711D01*
X0115898Y0189315D01*
X0114846Y0189806D01*
X0114450Y0190893D01*
X0114941Y0191945D01*
X0116028Y0192341D01*
X0115988Y0191433D01*
X0116410Y0191236D01*
X0116568Y0190803D01*
X0116371Y0190381D01*
X0115938Y0190223D01*
X0115516Y0190420D01*
X0115358Y0190853D01*
X0115555Y0191275D01*
X0115988Y0191433D01*
X0082701Y0192255D02*
X0083261Y0192815D01*
X0084045Y0191132D01*
X0083411Y0189391D01*
X0081728Y0188607D01*
X0079987Y0189241D01*
X0079203Y0190924D01*
X0079837Y0192665D01*
X0081520Y0193449D01*
X0083261Y0192815D01*
X0082646Y0192145D01*
X0083137Y0191093D01*
X0082741Y0190006D01*
X0081689Y0189515D01*
X0080602Y0189911D01*
X0080111Y0190963D01*
X0080507Y0192050D01*
X0081559Y0192541D01*
X0082646Y0192145D01*
X0082032Y0191475D01*
X0082229Y0191053D01*
X0082071Y0190620D01*
X0081649Y0190423D01*
X0081216Y0190581D01*
X0081019Y0191003D01*
X0081177Y0191436D01*
X0081599Y0191633D01*
X0082032Y0191475D01*
X0072440Y0164065D02*
X0073000Y0164625D01*
X0073784Y0162942D01*
X0073150Y0161201D01*
X0071467Y0160417D01*
X0069726Y0161051D01*
X0068942Y0162734D01*
X0069576Y0164475D01*
X0071259Y0165259D01*
X0073000Y0164625D01*
X0072385Y0163955D01*
X0072876Y0162903D01*
X0072480Y0161816D01*
X0071428Y0161325D01*
X0070341Y0161721D01*
X0069850Y0162773D01*
X0070246Y0163860D01*
X0071298Y0164351D01*
X0072385Y0163955D01*
X0071771Y0163285D01*
X0071968Y0162863D01*
X0071810Y0162430D01*
X0071388Y0162233D01*
X0070955Y0162391D01*
X0070758Y0162813D01*
X0070916Y0163246D01*
X0071338Y0163443D01*
X0071771Y0163285D01*
X0066868Y0279199D02*
X0067428Y0279759D01*
X0069111Y0278975D01*
X0069745Y0277234D01*
X0068961Y0275551D01*
X0067220Y0274917D01*
X0065537Y0275701D01*
X0064903Y0277442D01*
X0065687Y0279125D01*
X0067428Y0279759D01*
X0067389Y0278851D01*
X0068441Y0278360D01*
X0068837Y0277273D01*
X0068346Y0276221D01*
X0067259Y0275825D01*
X0066207Y0276316D01*
X0065811Y0277403D01*
X0066302Y0278455D01*
X0067389Y0278851D01*
X0067349Y0277943D01*
X0067771Y0277746D01*
X0067929Y0277313D01*
X0067732Y0276891D01*
X0067299Y0276733D01*
X0066877Y0276930D01*
X0066719Y0277363D01*
X0066916Y0277785D01*
X0067349Y0277943D01*
X0056607Y0307389D02*
X0057167Y0307949D01*
X0058850Y0307165D01*
X0059484Y0305424D01*
X0058700Y0303741D01*
X0056959Y0303107D01*
X0055276Y0303891D01*
X0054642Y0305632D01*
X0055426Y0307315D01*
X0057167Y0307949D01*
X0057128Y0307041D01*
X0058180Y0306550D01*
X0058576Y0305463D01*
X0058085Y0304411D01*
X0056998Y0304015D01*
X0055946Y0304506D01*
X0055550Y0305593D01*
X0056041Y0306645D01*
X0057128Y0307041D01*
X0057088Y0306133D01*
X0057510Y0305936D01*
X0057668Y0305503D01*
X0057471Y0305081D01*
X0057038Y0304923D01*
X0056616Y0305120D01*
X0056458Y0305553D01*
X0056655Y0305975D01*
X0057088Y0306133D01*
X0131740Y0278565D02*
X0132300Y0279125D01*
X0133084Y0277442D01*
X0132450Y0275701D01*
X0130767Y0274917D01*
X0129026Y0275551D01*
X0128242Y0277234D01*
X0128876Y0278975D01*
X0130559Y0279759D01*
X0132300Y0279125D01*
X0131685Y0278455D01*
X0132176Y0277403D01*
X0131780Y0276316D01*
X0130728Y0275825D01*
X0129641Y0276221D01*
X0129150Y0277273D01*
X0129546Y0278360D01*
X0130598Y0278851D01*
X0131685Y0278455D01*
X0131071Y0277785D01*
X0131268Y0277363D01*
X0131110Y0276930D01*
X0130688Y0276733D01*
X0130255Y0276891D01*
X0130058Y0277313D01*
X0130216Y0277746D01*
X0130638Y0277943D01*
X0131071Y0277785D01*
X0142001Y0306755D02*
X0142561Y0307315D01*
X0143345Y0305632D01*
X0142711Y0303891D01*
X0141028Y0303107D01*
X0139287Y0303741D01*
X0138503Y0305424D01*
X0139137Y0307165D01*
X0140820Y0307949D01*
X0142561Y0307315D01*
X0141946Y0306645D01*
X0142437Y0305593D01*
X0142041Y0304506D01*
X0140989Y0304015D01*
X0139902Y0304411D01*
X0139411Y0305463D01*
X0139807Y0306550D01*
X0140859Y0307041D01*
X0141946Y0306645D01*
X0141332Y0305975D01*
X0141529Y0305553D01*
X0141371Y0305120D01*
X0140949Y0304923D01*
X0140516Y0305081D01*
X0140319Y0305503D01*
X0140477Y0305936D01*
X0140899Y0306133D01*
X0141332Y0305975D01*
D14*
X0143794Y0150733D03*
X0153794Y0150733D03*
X0163794Y0150733D03*
X0163794Y0120733D03*
X0153794Y0120733D03*
X0143794Y0120733D03*
X0133794Y0120733D03*
X0123794Y0120733D03*
X0113794Y0120733D03*
X0103794Y0120733D03*
X0093794Y0120733D03*
X0083794Y0120733D03*
X0073794Y0120733D03*
X0063794Y0120733D03*
X0053794Y0120733D03*
X0043794Y0120733D03*
X0033794Y0120733D03*
X0033794Y0150733D03*
X0043794Y0150733D03*
X0053794Y0150733D03*
X0063794Y0150733D03*
X0073794Y0150733D03*
X0083794Y0150733D03*
X0093794Y0150733D03*
X0103794Y0150733D03*
X0113794Y0150733D03*
X0123794Y0150733D03*
X0133794Y0150733D03*
D15*
X0163894Y0093933D03*
X0166394Y0078933D03*
X0166394Y0068933D03*
X0166394Y0058933D03*
X0166394Y0048933D03*
X0173894Y0093933D03*
X0113894Y0078933D03*
X0113894Y0068933D03*
X0113894Y0058933D03*
X0098894Y0058933D03*
X0098894Y0068933D03*
X0098894Y0078933D03*
X0083894Y0078933D03*
X0083894Y0068933D03*
X0083894Y0058933D03*
X0031394Y0058933D03*
X0031394Y0068933D03*
X0031394Y0078933D03*
X0031394Y0048933D03*
D16*
X0132494Y0058233D03*
X0132494Y0069233D03*
D17*
X0061394Y0059012D03*
D18*
X0061394Y0068854D03*
D19*
X0073894Y0044233D02*
X0073894Y0038633D01*
X0083894Y0038633D02*
X0083894Y0044233D01*
X0093894Y0044233D02*
X0093894Y0038633D01*
X0103894Y0038633D02*
X0103894Y0044233D01*
X0113894Y0044233D02*
X0113894Y0038633D01*
X0123894Y0038633D02*
X0123894Y0044233D01*
D20*
X0121394Y0048933D02*
X0121394Y0098933D01*
X0108894Y0111433D01*
X0108894Y0122338D01*
X0133794Y0147238D01*
X0133794Y0150733D01*
X0128794Y0147311D02*
X0123716Y0142233D01*
X0090571Y0142233D01*
X0083794Y0149011D01*
X0083794Y0150733D01*
X0074594Y0150733D02*
X0088894Y0136433D01*
X0088894Y0103940D01*
X0098901Y0093933D01*
X0106394Y0093933D01*
X0113894Y0091433D02*
X0106394Y0083933D01*
X0106394Y0076433D01*
X0098894Y0068933D01*
X0098894Y0058933D02*
X0093894Y0053933D01*
X0093894Y0041433D01*
X0103894Y0041433D02*
X0113894Y0051433D01*
X0113894Y0058933D01*
X0121394Y0048933D02*
X0113894Y0041433D01*
X0083894Y0068933D02*
X0091394Y0076433D01*
X0091394Y0086433D01*
X0096394Y0091433D01*
X0113894Y0091433D02*
X0113894Y0096433D01*
X0136394Y0093933D02*
X0148844Y0093933D01*
X0161594Y0093933D02*
X0146294Y0078633D01*
X0161594Y0093933D02*
X0163894Y0093933D01*
X0179094Y0101509D02*
X0166669Y0113933D01*
X0151394Y0113933D01*
X0144594Y0120733D01*
X0143794Y0120733D01*
X0138694Y0125633D02*
X0138694Y0101633D01*
X0138894Y0101433D01*
X0138694Y0125633D02*
X0163794Y0150733D01*
X0158894Y0161433D02*
X0133894Y0161433D01*
X0128794Y0156333D01*
X0128794Y0147311D01*
X0116394Y0176433D02*
X0111394Y0176433D01*
X0116394Y0176433D02*
X0130663Y0190703D01*
X0130663Y0277338D01*
X0132694Y0255233D02*
X0158894Y0281433D01*
X0158894Y0311433D02*
X0158894Y0323933D01*
X0145395Y0317618D02*
X0140924Y0305528D01*
X0132694Y0255233D02*
X0132694Y0189633D01*
X0108994Y0165933D01*
X0108994Y0148111D01*
X0106116Y0145233D01*
X0098071Y0145233D01*
X0093794Y0149511D01*
X0093794Y0150733D01*
X0103794Y0150733D02*
X0105294Y0152233D01*
X0105294Y0235033D01*
X0091444Y0248883D01*
X0091444Y0333883D01*
X0098844Y0323933D02*
X0098894Y0308933D01*
X0067324Y0277338D02*
X0048894Y0258907D01*
X0066394Y0226433D02*
X0066394Y0166433D01*
X0071363Y0162838D02*
X0068694Y0160168D01*
X0068694Y0146433D01*
X0068694Y0145633D01*
X0043794Y0120733D01*
X0053794Y0120733D02*
X0060255Y0127195D01*
X0085213Y0127195D01*
X0083794Y0120733D02*
X0083623Y0120733D01*
X0078894Y0116004D01*
X0078894Y0066433D01*
X0076394Y0063933D01*
X0083894Y0058933D02*
X0083894Y0041433D01*
X0074594Y0150733D02*
X0073794Y0150733D01*
X0063794Y0150733D02*
X0063794Y0154033D01*
X0056394Y0161433D01*
X0038894Y0161433D01*
X0033794Y0164066D02*
X0033794Y0150733D01*
X0033794Y0164066D02*
X0046161Y0176433D01*
X0061975Y0176433D01*
X0081624Y0191028D02*
X0086595Y0203918D01*
X0098844Y0203983D02*
X0098994Y0189233D01*
X0115963Y0190828D02*
X0111193Y0203918D01*
X0158794Y0203833D02*
X0158894Y0191433D01*
X0179094Y0101509D02*
X0179094Y0081633D01*
X0166394Y0068933D01*
X0061394Y0213933D02*
X0048944Y0213983D01*
X0038994Y0203933D02*
X0038894Y0191433D01*
X0057063Y0305528D02*
X0052393Y0317618D01*
X0038894Y0311433D02*
X0038894Y0323983D01*
X0048994Y0333883D02*
X0048894Y0333983D01*
X0048994Y0333883D02*
X0061444Y0333883D01*
D21*
X0072023Y0035085D02*
X0022213Y0035085D01*
X0022999Y0034299D02*
X0077925Y0034299D01*
X0077139Y0035085D02*
X0075764Y0035085D01*
X0076156Y0035247D02*
X0076566Y0035658D01*
X0079200Y0033024D01*
X0080485Y0031739D01*
X0129802Y0031739D01*
X0131087Y0033024D01*
X0133402Y0035339D01*
X0134687Y0036624D01*
X0134687Y0053520D01*
X0135436Y0053830D01*
X0136897Y0055291D01*
X0137289Y0056239D01*
X0156268Y0056239D01*
X0161822Y0050685D01*
X0161500Y0049906D01*
X0161500Y0047960D01*
X0162245Y0046161D01*
X0163622Y0044784D01*
X0165420Y0044039D01*
X0167367Y0044039D01*
X0169166Y0044784D01*
X0170542Y0046161D01*
X0171287Y0047960D01*
X0171287Y0049906D01*
X0170542Y0051705D01*
X0169166Y0053082D01*
X0167367Y0053827D01*
X0165420Y0053827D01*
X0164642Y0053504D01*
X0157920Y0060227D01*
X0137289Y0060227D01*
X0136897Y0061175D01*
X0135436Y0062636D01*
X0133527Y0063427D01*
X0131461Y0063427D01*
X0130512Y0063034D01*
X0126112Y0067434D01*
X0126112Y0102484D01*
X0124945Y0103652D01*
X0115787Y0112809D01*
X0115787Y0116695D01*
X0116339Y0116923D01*
X0117603Y0118188D01*
X0118287Y0119839D01*
X0118287Y0121627D01*
X0117603Y0123279D01*
X0116339Y0124543D01*
X0114688Y0125227D01*
X0114177Y0125227D01*
X0135487Y0146537D01*
X0135487Y0146571D01*
X0136339Y0146923D01*
X0137603Y0148188D01*
X0138287Y0149839D01*
X0138287Y0151627D01*
X0137603Y0153279D01*
X0136339Y0154543D01*
X0134688Y0155227D01*
X0132900Y0155227D01*
X0131248Y0154543D01*
X0130487Y0153782D01*
X0130487Y0155632D01*
X0134595Y0159739D01*
X0154939Y0159739D01*
X0157239Y0157439D01*
X0160548Y0157439D01*
X0162887Y0159779D01*
X0162887Y0163087D01*
X0160548Y0165427D01*
X0157239Y0165427D01*
X0154939Y0163127D01*
X0133192Y0163127D01*
X0132200Y0162135D01*
X0132200Y0162135D01*
X0128092Y0158027D01*
X0127100Y0157035D01*
X0127100Y0153782D01*
X0126339Y0154543D01*
X0124688Y0155227D01*
X0122900Y0155227D01*
X0121248Y0154543D01*
X0119984Y0153279D01*
X0119300Y0151627D01*
X0119300Y0149839D01*
X0119984Y0148188D01*
X0121248Y0146923D01*
X0122900Y0146239D01*
X0124688Y0146239D01*
X0125780Y0146692D01*
X0123015Y0143927D01*
X0107205Y0143927D01*
X0107810Y0144532D01*
X0109695Y0146417D01*
X0110687Y0147409D01*
X0110687Y0147484D01*
X0111248Y0146923D01*
X0112900Y0146239D01*
X0114688Y0146239D01*
X0116339Y0146923D01*
X0117603Y0148188D01*
X0118287Y0149839D01*
X0118287Y0151627D01*
X0117603Y0153279D01*
X0116339Y0154543D01*
X0114688Y0155227D01*
X0112900Y0155227D01*
X0111248Y0154543D01*
X0110687Y0153982D01*
X0110687Y0165232D01*
X0134387Y0188932D01*
X0134387Y0254532D01*
X0157295Y0277439D01*
X0160548Y0277439D01*
X0162887Y0279779D01*
X0162887Y0283087D01*
X0160548Y0285427D01*
X0157239Y0285427D01*
X0154900Y0283087D01*
X0154900Y0279835D01*
X0132357Y0257292D01*
X0132357Y0273721D01*
X0133850Y0274417D01*
X0134982Y0277526D01*
X0133584Y0280525D01*
X0130475Y0281656D01*
X0127476Y0280258D01*
X0126345Y0277149D01*
X0127743Y0274151D01*
X0128970Y0273704D01*
X0128970Y0191404D01*
X0115692Y0178127D01*
X0114345Y0178127D01*
X0114255Y0178345D01*
X0113305Y0179294D01*
X0112065Y0179808D01*
X0110722Y0179808D01*
X0109482Y0179294D01*
X0108533Y0178345D01*
X0108019Y0177104D01*
X0108019Y0175762D01*
X0108533Y0174521D01*
X0109482Y0173572D01*
X0110722Y0173058D01*
X0112065Y0173058D01*
X0113305Y0173572D01*
X0114255Y0174521D01*
X0114345Y0174739D01*
X0115405Y0174739D01*
X0107300Y0166635D01*
X0107300Y0153582D01*
X0106987Y0153894D01*
X0106987Y0202717D01*
X0108346Y0198984D01*
X0109243Y0198566D01*
X0111095Y0199240D01*
X0113018Y0193963D01*
X0111645Y0191017D01*
X0112776Y0187908D01*
X0115775Y0186510D01*
X0118884Y0187641D01*
X0120282Y0190640D01*
X0119150Y0193749D01*
X0116200Y0195125D01*
X0114278Y0200398D01*
X0116127Y0201071D01*
X0116545Y0201968D01*
X0114039Y0208852D01*
X0113143Y0209270D01*
X0106987Y0207029D01*
X0106987Y0220324D01*
X0109262Y0219496D01*
X0110688Y0223413D01*
X0111428Y0223144D01*
X0111697Y0223884D01*
X0110957Y0224153D01*
X0110688Y0223413D01*
X0106987Y0224760D01*
X0106987Y0235735D01*
X0105995Y0236727D01*
X0093137Y0249585D01*
X0093137Y0329929D01*
X0095437Y0332229D01*
X0095437Y0335537D01*
X0093098Y0337877D01*
X0089789Y0337877D01*
X0087450Y0335537D01*
X0087450Y0332229D01*
X0089750Y0329929D01*
X0089750Y0248182D01*
X0103600Y0234332D01*
X0103600Y0155227D01*
X0102900Y0155227D01*
X0101248Y0154543D01*
X0099984Y0153279D01*
X0099300Y0151627D01*
X0099300Y0149839D01*
X0099984Y0148188D01*
X0101245Y0146927D01*
X0098773Y0146927D01*
X0097558Y0148142D01*
X0097603Y0148188D01*
X0098287Y0149839D01*
X0098287Y0151627D01*
X0097603Y0153279D01*
X0096339Y0154543D01*
X0094688Y0155227D01*
X0092900Y0155227D01*
X0091248Y0154543D01*
X0089984Y0153279D01*
X0089300Y0151627D01*
X0089300Y0149839D01*
X0089984Y0148188D01*
X0091248Y0146923D01*
X0092900Y0146239D01*
X0094670Y0146239D01*
X0096377Y0144532D01*
X0096377Y0144532D01*
X0096982Y0143927D01*
X0091273Y0143927D01*
X0087308Y0147892D01*
X0087603Y0148188D01*
X0088287Y0149839D01*
X0088287Y0151627D01*
X0087603Y0153279D01*
X0086339Y0154543D01*
X0084688Y0155227D01*
X0082900Y0155227D01*
X0081248Y0154543D01*
X0079984Y0153279D01*
X0079300Y0151627D01*
X0079300Y0149839D01*
X0079984Y0148188D01*
X0081248Y0146923D01*
X0082900Y0146239D01*
X0084170Y0146239D01*
X0088877Y0141532D01*
X0089870Y0140539D01*
X0124418Y0140539D01*
X0130487Y0146609D01*
X0130487Y0147684D01*
X0131166Y0147006D01*
X0107521Y0123361D01*
X0106339Y0124543D01*
X0104688Y0125227D01*
X0102900Y0125227D01*
X0101248Y0124543D01*
X0099984Y0123279D01*
X0099300Y0121627D01*
X0099300Y0119839D01*
X0099984Y0118188D01*
X0101248Y0116923D01*
X0102900Y0116239D01*
X0104688Y0116239D01*
X0106339Y0116923D01*
X0107200Y0117784D01*
X0107200Y0110732D01*
X0119700Y0098232D01*
X0119700Y0049635D01*
X0116920Y0046855D01*
X0116156Y0047619D01*
X0114688Y0048227D01*
X0113099Y0048227D01*
X0113071Y0048215D01*
X0114595Y0049739D01*
X0115587Y0050732D01*
X0115587Y0054338D01*
X0116666Y0054784D01*
X0118042Y0056161D01*
X0118787Y0057960D01*
X0118787Y0059906D01*
X0118042Y0061705D01*
X0116666Y0063082D01*
X0114867Y0063827D01*
X0112920Y0063827D01*
X0111122Y0063082D01*
X0109745Y0061705D01*
X0109000Y0059906D01*
X0109000Y0057960D01*
X0109745Y0056161D01*
X0111122Y0054784D01*
X0112200Y0054338D01*
X0112200Y0052135D01*
X0106920Y0046855D01*
X0106156Y0047619D01*
X0104688Y0048227D01*
X0103099Y0048227D01*
X0101631Y0047619D01*
X0100508Y0046495D01*
X0099900Y0045027D01*
X0099900Y0037839D01*
X0100508Y0036371D01*
X0100752Y0036127D01*
X0097035Y0036127D01*
X0097279Y0036371D01*
X0097887Y0037839D01*
X0097887Y0045027D01*
X0097279Y0046495D01*
X0096156Y0047619D01*
X0095587Y0047854D01*
X0095587Y0053232D01*
X0096842Y0054486D01*
X0097920Y0054039D01*
X0099867Y0054039D01*
X0101666Y0054784D01*
X0103042Y0056161D01*
X0103787Y0057960D01*
X0103787Y0059906D01*
X0103042Y0061705D01*
X0101666Y0063082D01*
X0099867Y0063827D01*
X0097920Y0063827D01*
X0096122Y0063082D01*
X0094745Y0061705D01*
X0094000Y0059906D01*
X0094000Y0057960D01*
X0094447Y0056881D01*
X0093192Y0055627D01*
X0092200Y0054635D01*
X0092200Y0047854D01*
X0091631Y0047619D01*
X0090508Y0046495D01*
X0089900Y0045027D01*
X0089900Y0037839D01*
X0090508Y0036371D01*
X0090752Y0036127D01*
X0087035Y0036127D01*
X0087279Y0036371D01*
X0087887Y0037839D01*
X0087887Y0045027D01*
X0087279Y0046495D01*
X0086156Y0047619D01*
X0085587Y0047854D01*
X0085587Y0054338D01*
X0086666Y0054784D01*
X0088042Y0056161D01*
X0088787Y0057960D01*
X0088787Y0059906D01*
X0088042Y0061705D01*
X0086666Y0063082D01*
X0084867Y0063827D01*
X0082920Y0063827D01*
X0081122Y0063082D01*
X0079745Y0061705D01*
X0079000Y0059906D01*
X0079000Y0057960D01*
X0079745Y0056161D01*
X0081122Y0054784D01*
X0082200Y0054338D01*
X0082200Y0047854D01*
X0081631Y0047619D01*
X0080508Y0046495D01*
X0079900Y0045027D01*
X0079900Y0038529D01*
X0077887Y0040542D01*
X0077887Y0045027D01*
X0077279Y0046495D01*
X0076618Y0047157D01*
X0076262Y0048016D01*
X0075476Y0048801D01*
X0068894Y0055384D01*
X0068838Y0055518D01*
X0068805Y0055551D01*
X0068786Y0055593D01*
X0068413Y0055943D01*
X0065837Y0058519D01*
X0065837Y0062756D01*
X0065138Y0063455D01*
X0057649Y0063455D01*
X0056950Y0062756D01*
X0056950Y0058519D01*
X0050158Y0051727D01*
X0035521Y0051727D01*
X0034166Y0053082D01*
X0032367Y0053827D01*
X0030420Y0053827D01*
X0028622Y0053082D01*
X0027245Y0051705D01*
X0026500Y0049906D01*
X0026500Y0047960D01*
X0027245Y0046161D01*
X0028622Y0044784D01*
X0030420Y0044039D01*
X0032367Y0044039D01*
X0034166Y0044784D01*
X0035521Y0046139D01*
X0051871Y0046139D01*
X0052897Y0046565D01*
X0053683Y0047351D01*
X0060901Y0054568D01*
X0061887Y0054568D01*
X0064048Y0052406D01*
X0064104Y0052272D01*
X0064137Y0052239D01*
X0064156Y0052197D01*
X0064529Y0051847D01*
X0070324Y0046052D01*
X0069900Y0045027D01*
X0069900Y0037839D01*
X0070508Y0036371D01*
X0071631Y0035247D01*
X0073099Y0034639D01*
X0074688Y0034639D01*
X0076156Y0035247D01*
X0078711Y0033513D02*
X0023785Y0033513D01*
X0024570Y0032727D02*
X0079497Y0032727D01*
X0080283Y0031941D02*
X0025356Y0031941D01*
X0026142Y0031155D02*
X0171645Y0031155D01*
X0170859Y0030370D02*
X0026928Y0030370D01*
X0026971Y0030327D02*
X0017787Y0039510D01*
X0017787Y0338356D01*
X0026971Y0347539D01*
X0170816Y0347539D01*
X0180000Y0338356D01*
X0180000Y0102997D01*
X0179795Y0103202D01*
X0167371Y0115627D01*
X0152095Y0115627D01*
X0148169Y0119553D01*
X0148287Y0119839D01*
X0148287Y0121627D01*
X0147603Y0123279D01*
X0146339Y0124543D01*
X0144688Y0125227D01*
X0142900Y0125227D01*
X0141248Y0124543D01*
X0140387Y0123682D01*
X0140387Y0124932D01*
X0162048Y0146592D01*
X0162900Y0146239D01*
X0164688Y0146239D01*
X0166339Y0146923D01*
X0167603Y0148188D01*
X0168287Y0149839D01*
X0168287Y0151627D01*
X0167603Y0153279D01*
X0166339Y0154543D01*
X0164688Y0155227D01*
X0162900Y0155227D01*
X0161248Y0154543D01*
X0159984Y0153279D01*
X0159300Y0151627D01*
X0159300Y0149839D01*
X0159653Y0148987D01*
X0137992Y0127327D01*
X0137000Y0126335D01*
X0137000Y0123882D01*
X0136339Y0124543D01*
X0134688Y0125227D01*
X0132900Y0125227D01*
X0131248Y0124543D01*
X0129984Y0123279D01*
X0129300Y0121627D01*
X0129300Y0119839D01*
X0129984Y0118188D01*
X0131248Y0116923D01*
X0132900Y0116239D01*
X0134688Y0116239D01*
X0136339Y0116923D01*
X0137000Y0117584D01*
X0137000Y0104302D01*
X0136982Y0104294D01*
X0136033Y0103345D01*
X0135519Y0102104D01*
X0135519Y0100762D01*
X0136033Y0099521D01*
X0136982Y0098572D01*
X0138222Y0098058D01*
X0139565Y0098058D01*
X0140805Y0098572D01*
X0141755Y0099521D01*
X0142268Y0100762D01*
X0142268Y0102104D01*
X0141755Y0103345D01*
X0140805Y0104294D01*
X0140387Y0104467D01*
X0140387Y0110367D01*
X0140973Y0108758D01*
X0144890Y0110184D01*
X0143464Y0114101D01*
X0140684Y0113089D01*
X0140387Y0112881D01*
X0140387Y0117784D01*
X0141248Y0116923D01*
X0142900Y0116239D01*
X0144688Y0116239D01*
X0146105Y0116827D01*
X0147554Y0115378D01*
X0147350Y0115414D01*
X0146984Y0115382D01*
X0144204Y0114370D01*
X0145630Y0110453D01*
X0149547Y0111879D01*
X0148685Y0114246D01*
X0149700Y0113232D01*
X0150692Y0112239D01*
X0165968Y0112239D01*
X0177400Y0100807D01*
X0177400Y0097630D01*
X0177212Y0097818D01*
X0176563Y0098290D01*
X0175849Y0098654D01*
X0175086Y0098901D01*
X0174295Y0099027D01*
X0174287Y0099027D01*
X0174287Y0094327D01*
X0173500Y0094327D01*
X0173500Y0099027D01*
X0173493Y0099027D01*
X0172701Y0098901D01*
X0171938Y0098654D01*
X0171224Y0098290D01*
X0170575Y0097818D01*
X0170008Y0097251D01*
X0169537Y0096603D01*
X0169173Y0095888D01*
X0168925Y0095126D01*
X0168800Y0094334D01*
X0168800Y0094327D01*
X0173500Y0094327D01*
X0173500Y0093539D01*
X0174287Y0093539D01*
X0174287Y0088839D01*
X0174295Y0088839D01*
X0175086Y0088965D01*
X0175849Y0089213D01*
X0176563Y0089577D01*
X0177212Y0090048D01*
X0177400Y0090236D01*
X0177400Y0082335D01*
X0168445Y0073380D01*
X0167367Y0073827D01*
X0165420Y0073827D01*
X0163622Y0073082D01*
X0162245Y0071705D01*
X0161500Y0069906D01*
X0161500Y0067960D01*
X0162245Y0066161D01*
X0163622Y0064784D01*
X0165420Y0064039D01*
X0167367Y0064039D01*
X0169166Y0064784D01*
X0170542Y0066161D01*
X0171287Y0067960D01*
X0171287Y0069906D01*
X0170841Y0070985D01*
X0179795Y0079939D01*
X0180000Y0080144D01*
X0180000Y0039510D01*
X0170816Y0030327D01*
X0026971Y0030327D01*
X0021427Y0035871D02*
X0071008Y0035871D01*
X0070389Y0036657D02*
X0020641Y0036657D01*
X0019855Y0037443D02*
X0070064Y0037443D01*
X0069900Y0038229D02*
X0019069Y0038229D01*
X0018283Y0039015D02*
X0069900Y0039015D01*
X0069900Y0039801D02*
X0017787Y0039801D01*
X0017787Y0040586D02*
X0069900Y0040586D01*
X0069900Y0041372D02*
X0017787Y0041372D01*
X0017787Y0042158D02*
X0069900Y0042158D01*
X0069900Y0042944D02*
X0017787Y0042944D01*
X0017787Y0043730D02*
X0069900Y0043730D01*
X0069900Y0044516D02*
X0033518Y0044516D01*
X0034683Y0045302D02*
X0070014Y0045302D01*
X0070288Y0046088D02*
X0035469Y0046088D01*
X0034872Y0052375D02*
X0050806Y0052375D01*
X0051592Y0053161D02*
X0033974Y0053161D01*
X0034041Y0054733D02*
X0053164Y0054733D01*
X0053950Y0055519D02*
X0034900Y0055519D01*
X0035542Y0056161D02*
X0036287Y0057960D01*
X0036287Y0059906D01*
X0035542Y0061705D01*
X0034166Y0063082D01*
X0032367Y0063827D01*
X0030420Y0063827D01*
X0028622Y0063082D01*
X0027245Y0061705D01*
X0026500Y0059906D01*
X0026500Y0057960D01*
X0027245Y0056161D01*
X0028622Y0054784D01*
X0030420Y0054039D01*
X0032367Y0054039D01*
X0034166Y0054784D01*
X0035542Y0056161D01*
X0035602Y0056305D02*
X0054736Y0056305D01*
X0055522Y0057091D02*
X0035927Y0057091D01*
X0036253Y0057877D02*
X0056308Y0057877D01*
X0056950Y0058662D02*
X0036287Y0058662D01*
X0036287Y0059448D02*
X0056950Y0059448D01*
X0056950Y0060234D02*
X0036152Y0060234D01*
X0035826Y0061020D02*
X0056950Y0061020D01*
X0056950Y0061806D02*
X0035441Y0061806D01*
X0034655Y0062592D02*
X0056950Y0062592D01*
X0057572Y0063378D02*
X0033451Y0063378D01*
X0032668Y0064164D02*
X0073019Y0064164D01*
X0073019Y0064604D02*
X0073019Y0063262D01*
X0073533Y0062021D01*
X0074482Y0061072D01*
X0075722Y0060558D01*
X0077065Y0060558D01*
X0078305Y0061072D01*
X0079255Y0062021D01*
X0079768Y0063262D01*
X0079768Y0064604D01*
X0079678Y0064822D01*
X0080381Y0065525D01*
X0081122Y0064784D01*
X0082920Y0064039D01*
X0084867Y0064039D01*
X0086666Y0064784D01*
X0088042Y0066161D01*
X0088787Y0067960D01*
X0088787Y0069906D01*
X0088341Y0070985D01*
X0092095Y0074739D01*
X0093087Y0075732D01*
X0093087Y0085732D01*
X0095504Y0088149D01*
X0095722Y0088058D01*
X0097065Y0088058D01*
X0098305Y0088572D01*
X0099255Y0089521D01*
X0099768Y0090762D01*
X0099768Y0092104D01*
X0099713Y0092239D01*
X0102439Y0092239D01*
X0104739Y0089939D01*
X0108048Y0089939D01*
X0110387Y0092279D01*
X0110387Y0095587D01*
X0108048Y0097927D01*
X0104739Y0097927D01*
X0102439Y0095627D01*
X0099603Y0095627D01*
X0095808Y0099421D01*
X0098450Y0099421D01*
X0098450Y0103589D01*
X0099237Y0103589D01*
X0099237Y0099421D01*
X0102196Y0099421D01*
X0102550Y0099516D01*
X0102868Y0099699D01*
X0103127Y0099959D01*
X0103311Y0100277D01*
X0103406Y0100631D01*
X0103406Y0103589D01*
X0099237Y0103589D01*
X0099237Y0104377D01*
X0098450Y0104377D01*
X0098450Y0108545D01*
X0095492Y0108545D01*
X0095137Y0108450D01*
X0094819Y0108267D01*
X0094560Y0108007D01*
X0094376Y0107690D01*
X0094281Y0107335D01*
X0094281Y0104377D01*
X0098450Y0104377D01*
X0098450Y0103589D01*
X0094281Y0103589D01*
X0094281Y0100948D01*
X0090587Y0104642D01*
X0090587Y0117584D01*
X0091248Y0116923D01*
X0092900Y0116239D01*
X0094688Y0116239D01*
X0096339Y0116923D01*
X0097603Y0118188D01*
X0098287Y0119839D01*
X0098287Y0121627D01*
X0097603Y0123279D01*
X0096339Y0124543D01*
X0094688Y0125227D01*
X0092900Y0125227D01*
X0091248Y0124543D01*
X0090587Y0123882D01*
X0090587Y0137135D01*
X0078169Y0149553D01*
X0078287Y0149839D01*
X0078287Y0151627D01*
X0077603Y0153279D01*
X0076339Y0154543D01*
X0074688Y0155227D01*
X0072900Y0155227D01*
X0071248Y0154543D01*
X0070387Y0153682D01*
X0070387Y0158943D01*
X0071552Y0158519D01*
X0074550Y0159917D01*
X0075682Y0163026D01*
X0074284Y0166025D01*
X0071175Y0167156D01*
X0069768Y0166500D01*
X0069768Y0167104D01*
X0069255Y0168345D01*
X0068305Y0169294D01*
X0068087Y0169384D01*
X0068087Y0223482D01*
X0068305Y0223572D01*
X0069255Y0224521D01*
X0069768Y0225762D01*
X0069768Y0227104D01*
X0069255Y0228345D01*
X0068305Y0229294D01*
X0067065Y0229808D01*
X0065722Y0229808D01*
X0064482Y0229294D01*
X0063533Y0228345D01*
X0063019Y0227104D01*
X0063019Y0225762D01*
X0063533Y0224521D01*
X0064482Y0223572D01*
X0064700Y0223482D01*
X0064700Y0216275D01*
X0063048Y0217927D01*
X0059739Y0217927D01*
X0057455Y0215643D01*
X0053306Y0215659D01*
X0053306Y0217646D01*
X0052607Y0218345D01*
X0045281Y0218345D01*
X0044581Y0217646D01*
X0044581Y0210320D01*
X0045281Y0209621D01*
X0052607Y0209621D01*
X0053306Y0210320D01*
X0053306Y0212272D01*
X0057424Y0212255D01*
X0059739Y0209939D01*
X0063048Y0209939D01*
X0064700Y0211591D01*
X0064700Y0178481D01*
X0063886Y0179294D01*
X0062646Y0179808D01*
X0061304Y0179808D01*
X0060063Y0179294D01*
X0059114Y0178345D01*
X0059023Y0178127D01*
X0045460Y0178127D01*
X0032100Y0164767D01*
X0032100Y0154895D01*
X0031248Y0154543D01*
X0029984Y0153279D01*
X0029300Y0151627D01*
X0029300Y0149839D01*
X0029984Y0148188D01*
X0031248Y0146923D01*
X0032900Y0146239D01*
X0034688Y0146239D01*
X0036339Y0146923D01*
X0037603Y0148188D01*
X0038287Y0149839D01*
X0038287Y0151627D01*
X0037603Y0153279D01*
X0036339Y0154543D01*
X0035487Y0154895D01*
X0035487Y0159191D01*
X0037239Y0157439D01*
X0040548Y0157439D01*
X0042848Y0159739D01*
X0055692Y0159739D01*
X0061069Y0154363D01*
X0059984Y0153279D01*
X0059300Y0151627D01*
X0059300Y0149839D01*
X0059984Y0148188D01*
X0061248Y0146923D01*
X0062900Y0146239D01*
X0064688Y0146239D01*
X0066339Y0146923D01*
X0067000Y0147584D01*
X0067000Y0146335D01*
X0045539Y0124874D01*
X0044688Y0125227D01*
X0042900Y0125227D01*
X0041248Y0124543D01*
X0039984Y0123279D01*
X0039300Y0121627D01*
X0039300Y0119839D01*
X0039984Y0118188D01*
X0041248Y0116923D01*
X0042900Y0116239D01*
X0044688Y0116239D01*
X0046339Y0116923D01*
X0047603Y0118188D01*
X0048287Y0119839D01*
X0048287Y0121627D01*
X0047935Y0122479D01*
X0069395Y0143939D01*
X0070387Y0144932D01*
X0070387Y0147784D01*
X0071248Y0146923D01*
X0072900Y0146239D01*
X0074688Y0146239D01*
X0076105Y0146827D01*
X0087200Y0135732D01*
X0087200Y0129980D01*
X0087124Y0130056D01*
X0085884Y0130569D01*
X0084541Y0130569D01*
X0083301Y0130056D01*
X0082352Y0129106D01*
X0082261Y0128888D01*
X0059554Y0128888D01*
X0055539Y0124874D01*
X0054688Y0125227D01*
X0052900Y0125227D01*
X0051248Y0124543D01*
X0049984Y0123279D01*
X0049300Y0121627D01*
X0049300Y0119839D01*
X0049984Y0118188D01*
X0051248Y0116923D01*
X0052900Y0116239D01*
X0054688Y0116239D01*
X0056339Y0116923D01*
X0057603Y0118188D01*
X0058287Y0119839D01*
X0058287Y0121627D01*
X0057935Y0122479D01*
X0060957Y0125501D01*
X0082261Y0125501D01*
X0082352Y0125283D01*
X0082552Y0125083D01*
X0081248Y0124543D01*
X0079984Y0123279D01*
X0079300Y0121627D01*
X0079300Y0119839D01*
X0079603Y0119108D01*
X0078192Y0117698D01*
X0077200Y0116706D01*
X0077200Y0067252D01*
X0077065Y0067308D01*
X0075722Y0067308D01*
X0074482Y0066794D01*
X0073533Y0065845D01*
X0073019Y0064604D01*
X0073162Y0064950D02*
X0063920Y0064950D01*
X0063828Y0064883D02*
X0064419Y0065312D01*
X0064936Y0065829D01*
X0065365Y0066420D01*
X0065697Y0067072D01*
X0065923Y0067767D01*
X0066037Y0068489D01*
X0066037Y0068559D01*
X0061689Y0068559D01*
X0061689Y0064211D01*
X0061759Y0064211D01*
X0062481Y0064325D01*
X0063176Y0064551D01*
X0063828Y0064883D01*
X0064842Y0065736D02*
X0073488Y0065736D01*
X0074210Y0066522D02*
X0065417Y0066522D01*
X0065774Y0067307D02*
X0075722Y0067307D01*
X0077066Y0067307D02*
X0077200Y0067307D01*
X0077200Y0068093D02*
X0065975Y0068093D01*
X0066037Y0069150D02*
X0066037Y0069220D01*
X0065923Y0069942D01*
X0065697Y0070637D01*
X0065365Y0071288D01*
X0064936Y0071879D01*
X0064419Y0072396D01*
X0063828Y0072826D01*
X0063176Y0073158D01*
X0062481Y0073384D01*
X0061759Y0073498D01*
X0061689Y0073498D01*
X0061689Y0069150D01*
X0061098Y0069150D01*
X0061098Y0068559D01*
X0056750Y0068559D01*
X0056750Y0068489D01*
X0056864Y0067767D01*
X0057090Y0067072D01*
X0057422Y0066420D01*
X0057852Y0065829D01*
X0058369Y0065312D01*
X0058960Y0064883D01*
X0059611Y0064551D01*
X0060306Y0064325D01*
X0061028Y0064211D01*
X0061098Y0064211D01*
X0061098Y0068559D01*
X0061689Y0068559D01*
X0061689Y0069150D01*
X0066037Y0069150D01*
X0065967Y0069665D02*
X0077200Y0069665D01*
X0077200Y0068879D02*
X0061689Y0068879D01*
X0061098Y0068879D02*
X0036287Y0068879D01*
X0036287Y0068093D02*
X0056813Y0068093D01*
X0057014Y0067307D02*
X0036017Y0067307D01*
X0036287Y0067960D02*
X0035542Y0066161D01*
X0034166Y0064784D01*
X0032367Y0064039D01*
X0030420Y0064039D01*
X0028622Y0064784D01*
X0027245Y0066161D01*
X0026500Y0067960D01*
X0026500Y0069906D01*
X0027245Y0071705D01*
X0028622Y0073082D01*
X0030420Y0073827D01*
X0032367Y0073827D01*
X0034166Y0073082D01*
X0035542Y0071705D01*
X0036287Y0069906D01*
X0036287Y0067960D01*
X0035692Y0066522D02*
X0057371Y0066522D01*
X0057945Y0065736D02*
X0035117Y0065736D01*
X0034331Y0064950D02*
X0058868Y0064950D01*
X0061098Y0064950D02*
X0061689Y0064950D01*
X0061689Y0065736D02*
X0061098Y0065736D01*
X0061098Y0066522D02*
X0061689Y0066522D01*
X0061689Y0067307D02*
X0061098Y0067307D01*
X0061098Y0068093D02*
X0061689Y0068093D01*
X0061098Y0069150D02*
X0056750Y0069150D01*
X0056750Y0069220D01*
X0056864Y0069942D01*
X0057090Y0070637D01*
X0057422Y0071288D01*
X0057852Y0071879D01*
X0058369Y0072396D01*
X0058960Y0072826D01*
X0059611Y0073158D01*
X0060306Y0073384D01*
X0061028Y0073498D01*
X0061098Y0073498D01*
X0061098Y0069150D01*
X0061098Y0069665D02*
X0061689Y0069665D01*
X0061689Y0070451D02*
X0061098Y0070451D01*
X0061098Y0071237D02*
X0061689Y0071237D01*
X0061689Y0072023D02*
X0061098Y0072023D01*
X0061098Y0072809D02*
X0061689Y0072809D01*
X0063851Y0072809D02*
X0077200Y0072809D01*
X0077200Y0073595D02*
X0032927Y0073595D01*
X0032586Y0073965D02*
X0033349Y0074213D01*
X0034063Y0074577D01*
X0034712Y0075048D01*
X0035279Y0075615D01*
X0035750Y0076263D01*
X0036114Y0076978D01*
X0036362Y0077740D01*
X0036487Y0078532D01*
X0036487Y0078539D01*
X0031787Y0078539D01*
X0031787Y0073839D01*
X0031795Y0073839D01*
X0032586Y0073965D01*
X0031787Y0074381D02*
X0031000Y0074381D01*
X0031000Y0073839D02*
X0031000Y0078539D01*
X0031787Y0078539D01*
X0031787Y0079327D01*
X0031000Y0079327D01*
X0031000Y0084027D01*
X0030993Y0084027D01*
X0030201Y0083901D01*
X0029438Y0083654D01*
X0028724Y0083290D01*
X0028075Y0082818D01*
X0027508Y0082251D01*
X0027037Y0081603D01*
X0026673Y0080888D01*
X0026425Y0080126D01*
X0026300Y0079334D01*
X0026300Y0079327D01*
X0031000Y0079327D01*
X0031000Y0078539D01*
X0026300Y0078539D01*
X0026300Y0078532D01*
X0026425Y0077740D01*
X0026673Y0076978D01*
X0027037Y0076263D01*
X0027508Y0075615D01*
X0028075Y0075048D01*
X0028724Y0074577D01*
X0029438Y0074213D01*
X0030201Y0073965D01*
X0030993Y0073839D01*
X0031000Y0073839D01*
X0029860Y0073595D02*
X0017787Y0073595D01*
X0017787Y0074381D02*
X0029108Y0074381D01*
X0027957Y0075167D02*
X0017787Y0075167D01*
X0017787Y0075953D02*
X0027263Y0075953D01*
X0026795Y0076738D02*
X0017787Y0076738D01*
X0017787Y0077524D02*
X0026496Y0077524D01*
X0026335Y0078310D02*
X0017787Y0078310D01*
X0017787Y0079096D02*
X0031000Y0079096D01*
X0031000Y0078310D02*
X0031787Y0078310D01*
X0031787Y0077524D02*
X0031000Y0077524D01*
X0031000Y0076738D02*
X0031787Y0076738D01*
X0031787Y0075953D02*
X0031000Y0075953D01*
X0031000Y0075167D02*
X0031787Y0075167D01*
X0033679Y0074381D02*
X0077200Y0074381D01*
X0077200Y0075167D02*
X0034831Y0075167D01*
X0035524Y0075953D02*
X0077200Y0075953D01*
X0077200Y0076738D02*
X0035992Y0076738D01*
X0036292Y0077524D02*
X0077200Y0077524D01*
X0077200Y0078310D02*
X0036452Y0078310D01*
X0036487Y0079327D02*
X0036487Y0079334D01*
X0036362Y0080126D01*
X0036114Y0080888D01*
X0035750Y0081603D01*
X0035279Y0082251D01*
X0034712Y0082818D01*
X0034063Y0083290D01*
X0033349Y0083654D01*
X0032586Y0083901D01*
X0031795Y0084027D01*
X0031787Y0084027D01*
X0031787Y0079327D01*
X0036487Y0079327D01*
X0036401Y0079882D02*
X0077200Y0079882D01*
X0077200Y0079096D02*
X0031787Y0079096D01*
X0031787Y0079882D02*
X0031000Y0079882D01*
X0031000Y0080668D02*
X0031787Y0080668D01*
X0031787Y0081454D02*
X0031000Y0081454D01*
X0031000Y0082240D02*
X0031787Y0082240D01*
X0031787Y0083026D02*
X0031000Y0083026D01*
X0031000Y0083812D02*
X0031787Y0083812D01*
X0032862Y0083812D02*
X0077200Y0083812D01*
X0077200Y0084598D02*
X0017787Y0084598D01*
X0017787Y0085383D02*
X0077200Y0085383D01*
X0077200Y0086169D02*
X0017787Y0086169D01*
X0017787Y0086955D02*
X0077200Y0086955D01*
X0077200Y0087741D02*
X0017787Y0087741D01*
X0017787Y0088527D02*
X0077200Y0088527D01*
X0077200Y0089313D02*
X0017787Y0089313D01*
X0017787Y0090099D02*
X0044450Y0090099D01*
X0044376Y0090227D02*
X0044560Y0089909D01*
X0044819Y0089649D01*
X0045137Y0089466D01*
X0045492Y0089371D01*
X0048450Y0089371D01*
X0048450Y0093539D01*
X0049237Y0093539D01*
X0049237Y0089371D01*
X0052196Y0089371D01*
X0052550Y0089466D01*
X0052868Y0089649D01*
X0053127Y0089909D01*
X0053311Y0090227D01*
X0053406Y0090581D01*
X0053406Y0093539D01*
X0049237Y0093539D01*
X0049237Y0094327D01*
X0048450Y0094327D01*
X0048450Y0098495D01*
X0045492Y0098495D01*
X0045137Y0098400D01*
X0044819Y0098217D01*
X0044560Y0097957D01*
X0044376Y0097640D01*
X0044281Y0097285D01*
X0044281Y0094327D01*
X0048450Y0094327D01*
X0048450Y0093539D01*
X0044281Y0093539D01*
X0044281Y0090581D01*
X0044376Y0090227D01*
X0044281Y0090885D02*
X0017787Y0090885D01*
X0017787Y0091671D02*
X0044281Y0091671D01*
X0044281Y0092457D02*
X0017787Y0092457D01*
X0017787Y0093243D02*
X0044281Y0093243D01*
X0044281Y0094814D02*
X0017787Y0094814D01*
X0017787Y0094029D02*
X0048450Y0094029D01*
X0048450Y0094814D02*
X0049237Y0094814D01*
X0049237Y0094327D02*
X0049237Y0098495D01*
X0052196Y0098495D01*
X0052550Y0098400D01*
X0052868Y0098217D01*
X0053127Y0097957D01*
X0053311Y0097640D01*
X0053406Y0097285D01*
X0053406Y0094327D01*
X0049237Y0094327D01*
X0049237Y0094029D02*
X0077200Y0094029D01*
X0077200Y0094814D02*
X0053406Y0094814D01*
X0053406Y0095600D02*
X0077200Y0095600D01*
X0077200Y0096386D02*
X0053406Y0096386D01*
X0053406Y0097172D02*
X0077200Y0097172D01*
X0077200Y0097958D02*
X0053127Y0097958D01*
X0053406Y0093243D02*
X0077200Y0093243D01*
X0077200Y0092457D02*
X0053406Y0092457D01*
X0053406Y0091671D02*
X0077200Y0091671D01*
X0077200Y0090885D02*
X0053406Y0090885D01*
X0053237Y0090099D02*
X0077200Y0090099D01*
X0080587Y0090099D02*
X0092664Y0090099D01*
X0093109Y0090544D02*
X0090692Y0088127D01*
X0089700Y0087135D01*
X0089700Y0077135D01*
X0085945Y0073380D01*
X0084867Y0073827D01*
X0082920Y0073827D01*
X0081122Y0073082D01*
X0080587Y0072547D01*
X0080587Y0075039D01*
X0081224Y0074577D01*
X0081938Y0074213D01*
X0082701Y0073965D01*
X0083493Y0073839D01*
X0083500Y0073839D01*
X0083500Y0078539D01*
X0084287Y0078539D01*
X0084287Y0073839D01*
X0084295Y0073839D01*
X0085086Y0073965D01*
X0085849Y0074213D01*
X0086563Y0074577D01*
X0087212Y0075048D01*
X0087779Y0075615D01*
X0088250Y0076263D01*
X0088614Y0076978D01*
X0088862Y0077740D01*
X0088987Y0078532D01*
X0088987Y0078539D01*
X0084287Y0078539D01*
X0084287Y0079327D01*
X0083500Y0079327D01*
X0083500Y0084027D01*
X0083493Y0084027D01*
X0082701Y0083901D01*
X0081938Y0083654D01*
X0081224Y0083290D01*
X0080587Y0082827D01*
X0080587Y0115303D01*
X0081927Y0116642D01*
X0082900Y0116239D01*
X0084688Y0116239D01*
X0086339Y0116923D01*
X0087200Y0117784D01*
X0087200Y0103239D01*
X0095658Y0094781D01*
X0094482Y0094294D01*
X0093533Y0093345D01*
X0093019Y0092104D01*
X0093019Y0090762D01*
X0093109Y0090544D01*
X0093019Y0090885D02*
X0080587Y0090885D01*
X0080587Y0091671D02*
X0093019Y0091671D01*
X0093165Y0092457D02*
X0080587Y0092457D01*
X0080587Y0093243D02*
X0093490Y0093243D01*
X0094216Y0094029D02*
X0080587Y0094029D01*
X0080587Y0094814D02*
X0095624Y0094814D01*
X0094839Y0095600D02*
X0080587Y0095600D01*
X0080587Y0096386D02*
X0094053Y0096386D01*
X0093267Y0097172D02*
X0080587Y0097172D01*
X0080587Y0097958D02*
X0092481Y0097958D01*
X0091695Y0098744D02*
X0080587Y0098744D01*
X0080587Y0099530D02*
X0090909Y0099530D01*
X0090123Y0100316D02*
X0080587Y0100316D01*
X0080587Y0101102D02*
X0089337Y0101102D01*
X0088551Y0101888D02*
X0080587Y0101888D01*
X0080587Y0102674D02*
X0087765Y0102674D01*
X0087200Y0103459D02*
X0080587Y0103459D01*
X0080587Y0104245D02*
X0087200Y0104245D01*
X0087200Y0105031D02*
X0080587Y0105031D01*
X0080587Y0105817D02*
X0087200Y0105817D01*
X0087200Y0106603D02*
X0080587Y0106603D01*
X0080587Y0107389D02*
X0087200Y0107389D01*
X0087200Y0108175D02*
X0080587Y0108175D01*
X0080587Y0108961D02*
X0087200Y0108961D01*
X0087200Y0109747D02*
X0080587Y0109747D01*
X0080587Y0110533D02*
X0087200Y0110533D01*
X0087200Y0111319D02*
X0080587Y0111319D01*
X0080587Y0112105D02*
X0087200Y0112105D01*
X0087200Y0112890D02*
X0080587Y0112890D01*
X0080587Y0113676D02*
X0087200Y0113676D01*
X0087200Y0114462D02*
X0080587Y0114462D01*
X0080587Y0115248D02*
X0087200Y0115248D01*
X0087200Y0116034D02*
X0081319Y0116034D01*
X0078886Y0118392D02*
X0077688Y0118392D01*
X0077603Y0118188D02*
X0078287Y0119839D01*
X0078287Y0121627D01*
X0077603Y0123279D01*
X0076339Y0124543D01*
X0074688Y0125227D01*
X0072900Y0125227D01*
X0071248Y0124543D01*
X0069984Y0123279D01*
X0069300Y0121627D01*
X0069300Y0119839D01*
X0069984Y0118188D01*
X0071248Y0116923D01*
X0072900Y0116239D01*
X0074688Y0116239D01*
X0076339Y0116923D01*
X0077603Y0118188D01*
X0078100Y0117606D02*
X0077022Y0117606D01*
X0077314Y0116820D02*
X0076089Y0116820D01*
X0077200Y0116034D02*
X0017787Y0116034D01*
X0017787Y0115248D02*
X0049857Y0115248D01*
X0049744Y0115195D02*
X0049463Y0114959D01*
X0049252Y0114659D01*
X0048240Y0111879D01*
X0052157Y0110453D01*
X0051888Y0109713D01*
X0052628Y0109444D01*
X0052897Y0110184D01*
X0052157Y0110453D01*
X0053583Y0114370D01*
X0050803Y0115382D01*
X0050438Y0115414D01*
X0050076Y0115350D01*
X0049744Y0115195D01*
X0049181Y0114462D02*
X0017787Y0114462D01*
X0017787Y0113676D02*
X0048895Y0113676D01*
X0048609Y0112890D02*
X0017787Y0112890D01*
X0017787Y0112105D02*
X0048322Y0112105D01*
X0047971Y0111139D02*
X0046959Y0108359D01*
X0046927Y0107993D01*
X0046991Y0107632D01*
X0047146Y0107299D01*
X0047382Y0107018D01*
X0047682Y0106808D01*
X0050462Y0105796D01*
X0051888Y0109713D01*
X0047971Y0111139D01*
X0047750Y0110533D02*
X0017787Y0110533D01*
X0017787Y0111319D02*
X0049779Y0111319D01*
X0049636Y0110533D02*
X0051938Y0110533D01*
X0052186Y0110533D02*
X0053024Y0110533D01*
X0052897Y0110184D02*
X0054323Y0114101D01*
X0057103Y0113089D01*
X0057403Y0112879D01*
X0057639Y0112597D01*
X0057794Y0112265D01*
X0057858Y0111903D01*
X0057826Y0111538D01*
X0056814Y0108758D01*
X0052897Y0110184D01*
X0052738Y0109747D02*
X0054098Y0109747D01*
X0053955Y0108961D02*
X0056257Y0108961D01*
X0056888Y0108961D02*
X0077200Y0108961D01*
X0077200Y0109747D02*
X0057174Y0109747D01*
X0057460Y0110533D02*
X0077200Y0110533D01*
X0077200Y0111319D02*
X0057746Y0111319D01*
X0057823Y0112105D02*
X0077200Y0112105D01*
X0077200Y0112890D02*
X0057387Y0112890D01*
X0055489Y0113676D02*
X0077200Y0113676D01*
X0077200Y0114462D02*
X0053330Y0114462D01*
X0053331Y0113676D02*
X0054168Y0113676D01*
X0053882Y0112890D02*
X0053045Y0112890D01*
X0052758Y0112105D02*
X0053596Y0112105D01*
X0053310Y0111319D02*
X0052472Y0111319D01*
X0051900Y0109747D02*
X0051796Y0109747D01*
X0051614Y0108961D02*
X0052452Y0108961D01*
X0052628Y0109444D02*
X0051202Y0105527D01*
X0053982Y0104515D01*
X0054348Y0104483D01*
X0054709Y0104547D01*
X0055042Y0104702D01*
X0055323Y0104938D01*
X0055533Y0105238D01*
X0056545Y0108018D01*
X0052628Y0109444D01*
X0052166Y0108175D02*
X0051328Y0108175D01*
X0051042Y0107389D02*
X0051880Y0107389D01*
X0051594Y0106603D02*
X0050756Y0106603D01*
X0050470Y0105817D02*
X0051308Y0105817D01*
X0050404Y0105817D02*
X0043556Y0105817D01*
X0043556Y0105031D02*
X0052563Y0105031D01*
X0055388Y0105031D02*
X0077200Y0105031D01*
X0077200Y0104245D02*
X0039387Y0104245D01*
X0039387Y0104327D02*
X0043556Y0104327D01*
X0043556Y0107285D01*
X0043461Y0107640D01*
X0043277Y0107957D01*
X0043018Y0108217D01*
X0042700Y0108400D01*
X0042346Y0108495D01*
X0039387Y0108495D01*
X0039387Y0104327D01*
X0038600Y0104327D01*
X0038600Y0108495D01*
X0035642Y0108495D01*
X0035287Y0108400D01*
X0034969Y0108217D01*
X0034710Y0107957D01*
X0034526Y0107640D01*
X0034431Y0107285D01*
X0034431Y0104327D01*
X0038600Y0104327D01*
X0038600Y0103539D01*
X0039387Y0103539D01*
X0039387Y0099371D01*
X0042346Y0099371D01*
X0042700Y0099466D01*
X0043018Y0099649D01*
X0043277Y0099909D01*
X0043461Y0100227D01*
X0043556Y0100581D01*
X0043556Y0103539D01*
X0039387Y0103539D01*
X0039387Y0104327D01*
X0039387Y0105031D02*
X0038600Y0105031D01*
X0038600Y0104245D02*
X0017787Y0104245D01*
X0017787Y0103459D02*
X0034431Y0103459D01*
X0034431Y0103539D02*
X0034431Y0100581D01*
X0034526Y0100227D01*
X0034710Y0099909D01*
X0034969Y0099649D01*
X0035287Y0099466D01*
X0035642Y0099371D01*
X0038600Y0099371D01*
X0038600Y0103539D01*
X0034431Y0103539D01*
X0034431Y0102674D02*
X0017787Y0102674D01*
X0017787Y0101888D02*
X0034431Y0101888D01*
X0034431Y0101102D02*
X0017787Y0101102D01*
X0017787Y0100316D02*
X0034503Y0100316D01*
X0035176Y0099530D02*
X0017787Y0099530D01*
X0017787Y0098744D02*
X0077200Y0098744D01*
X0077200Y0099530D02*
X0042811Y0099530D01*
X0043485Y0100316D02*
X0077200Y0100316D01*
X0077200Y0101102D02*
X0043556Y0101102D01*
X0043556Y0101888D02*
X0077200Y0101888D01*
X0077200Y0102674D02*
X0043556Y0102674D01*
X0043556Y0103459D02*
X0077200Y0103459D01*
X0077200Y0105817D02*
X0055744Y0105817D01*
X0056030Y0106603D02*
X0077200Y0106603D01*
X0077200Y0107389D02*
X0056316Y0107389D01*
X0056114Y0108175D02*
X0077200Y0108175D01*
X0077200Y0115248D02*
X0051171Y0115248D01*
X0051498Y0116820D02*
X0046089Y0116820D01*
X0047022Y0117606D02*
X0050566Y0117606D01*
X0049900Y0118392D02*
X0047688Y0118392D01*
X0048013Y0119178D02*
X0049574Y0119178D01*
X0049300Y0119964D02*
X0048287Y0119964D01*
X0048287Y0120750D02*
X0049300Y0120750D01*
X0049300Y0121535D02*
X0048287Y0121535D01*
X0048000Y0122321D02*
X0049588Y0122321D01*
X0049913Y0123107D02*
X0048563Y0123107D01*
X0049349Y0123893D02*
X0050599Y0123893D01*
X0050135Y0124679D02*
X0051578Y0124679D01*
X0050921Y0125465D02*
X0056130Y0125465D01*
X0056916Y0126251D02*
X0051707Y0126251D01*
X0052493Y0127037D02*
X0057702Y0127037D01*
X0058488Y0127823D02*
X0053279Y0127823D01*
X0054065Y0128609D02*
X0059274Y0128609D01*
X0060921Y0125465D02*
X0082276Y0125465D01*
X0081578Y0124679D02*
X0076010Y0124679D01*
X0076989Y0123893D02*
X0080599Y0123893D01*
X0079913Y0123107D02*
X0077674Y0123107D01*
X0078000Y0122321D02*
X0079588Y0122321D01*
X0079300Y0121535D02*
X0078287Y0121535D01*
X0078287Y0120750D02*
X0079300Y0120750D01*
X0079300Y0119964D02*
X0078287Y0119964D01*
X0078013Y0119178D02*
X0079574Y0119178D01*
X0078192Y0117698D02*
X0078192Y0117698D01*
X0071498Y0116820D02*
X0066089Y0116820D01*
X0066339Y0116923D02*
X0067603Y0118188D01*
X0068287Y0119839D01*
X0068287Y0121627D01*
X0067603Y0123279D01*
X0066339Y0124543D01*
X0064688Y0125227D01*
X0062900Y0125227D01*
X0061248Y0124543D01*
X0059984Y0123279D01*
X0059300Y0121627D01*
X0059300Y0119839D01*
X0059984Y0118188D01*
X0061248Y0116923D01*
X0062900Y0116239D01*
X0064688Y0116239D01*
X0066339Y0116923D01*
X0067022Y0117606D02*
X0070566Y0117606D01*
X0069900Y0118392D02*
X0067688Y0118392D01*
X0068013Y0119178D02*
X0069574Y0119178D01*
X0069300Y0119964D02*
X0068287Y0119964D01*
X0068287Y0120750D02*
X0069300Y0120750D01*
X0069300Y0121535D02*
X0068287Y0121535D01*
X0068000Y0122321D02*
X0069588Y0122321D01*
X0069913Y0123107D02*
X0067674Y0123107D01*
X0066989Y0123893D02*
X0070599Y0123893D01*
X0071578Y0124679D02*
X0066010Y0124679D01*
X0061578Y0124679D02*
X0060135Y0124679D01*
X0060599Y0123893D02*
X0059349Y0123893D01*
X0059913Y0123107D02*
X0058563Y0123107D01*
X0058000Y0122321D02*
X0059588Y0122321D01*
X0059300Y0121535D02*
X0058287Y0121535D01*
X0058287Y0120750D02*
X0059300Y0120750D01*
X0059300Y0119964D02*
X0058287Y0119964D01*
X0058013Y0119178D02*
X0059574Y0119178D01*
X0059900Y0118392D02*
X0057688Y0118392D01*
X0057022Y0117606D02*
X0060566Y0117606D01*
X0061498Y0116820D02*
X0056089Y0116820D01*
X0048245Y0106603D02*
X0043556Y0106603D01*
X0043528Y0107389D02*
X0047104Y0107389D01*
X0046943Y0108175D02*
X0043060Y0108175D01*
X0039387Y0108175D02*
X0038600Y0108175D01*
X0038600Y0107389D02*
X0039387Y0107389D01*
X0039387Y0106603D02*
X0038600Y0106603D01*
X0038600Y0105817D02*
X0039387Y0105817D01*
X0039387Y0103459D02*
X0038600Y0103459D01*
X0038600Y0102674D02*
X0039387Y0102674D01*
X0039387Y0101888D02*
X0038600Y0101888D01*
X0038600Y0101102D02*
X0039387Y0101102D01*
X0039387Y0100316D02*
X0038600Y0100316D01*
X0038600Y0099530D02*
X0039387Y0099530D01*
X0044561Y0097958D02*
X0017787Y0097958D01*
X0017787Y0097172D02*
X0044281Y0097172D01*
X0044281Y0096386D02*
X0017787Y0096386D01*
X0017787Y0095600D02*
X0044281Y0095600D01*
X0048450Y0095600D02*
X0049237Y0095600D01*
X0049237Y0096386D02*
X0048450Y0096386D01*
X0048450Y0097172D02*
X0049237Y0097172D01*
X0049237Y0097958D02*
X0048450Y0097958D01*
X0048450Y0093243D02*
X0049237Y0093243D01*
X0049237Y0092457D02*
X0048450Y0092457D01*
X0048450Y0091671D02*
X0049237Y0091671D01*
X0049237Y0090885D02*
X0048450Y0090885D01*
X0048450Y0090099D02*
X0049237Y0090099D01*
X0047178Y0108961D02*
X0017787Y0108961D01*
X0017787Y0109747D02*
X0047464Y0109747D01*
X0041498Y0116820D02*
X0036089Y0116820D01*
X0036339Y0116923D02*
X0034688Y0116239D01*
X0032900Y0116239D01*
X0031248Y0116923D01*
X0029984Y0118188D01*
X0029300Y0119839D01*
X0029300Y0121627D01*
X0029984Y0123279D01*
X0031248Y0124543D01*
X0032900Y0125227D01*
X0034688Y0125227D01*
X0036339Y0124543D01*
X0037603Y0123279D01*
X0038287Y0121627D01*
X0038287Y0119839D01*
X0037603Y0118188D01*
X0036339Y0116923D01*
X0037022Y0117606D02*
X0040566Y0117606D01*
X0039900Y0118392D02*
X0037688Y0118392D01*
X0038013Y0119178D02*
X0039574Y0119178D01*
X0039300Y0119964D02*
X0038287Y0119964D01*
X0038287Y0120750D02*
X0039300Y0120750D01*
X0039300Y0121535D02*
X0038287Y0121535D01*
X0038000Y0122321D02*
X0039588Y0122321D01*
X0039913Y0123107D02*
X0037674Y0123107D01*
X0036989Y0123893D02*
X0040599Y0123893D01*
X0041578Y0124679D02*
X0036010Y0124679D01*
X0031578Y0124679D02*
X0017787Y0124679D01*
X0017787Y0123893D02*
X0030599Y0123893D01*
X0029913Y0123107D02*
X0017787Y0123107D01*
X0017787Y0122321D02*
X0029588Y0122321D01*
X0029300Y0121535D02*
X0017787Y0121535D01*
X0017787Y0120750D02*
X0029300Y0120750D01*
X0029300Y0119964D02*
X0017787Y0119964D01*
X0017787Y0119178D02*
X0029574Y0119178D01*
X0029900Y0118392D02*
X0017787Y0118392D01*
X0017787Y0117606D02*
X0030566Y0117606D01*
X0031498Y0116820D02*
X0017787Y0116820D01*
X0017787Y0108175D02*
X0034928Y0108175D01*
X0034459Y0107389D02*
X0017787Y0107389D01*
X0017787Y0106603D02*
X0034431Y0106603D01*
X0034431Y0105817D02*
X0017787Y0105817D01*
X0017787Y0105031D02*
X0034431Y0105031D01*
X0029925Y0083812D02*
X0017787Y0083812D01*
X0017787Y0083026D02*
X0028361Y0083026D01*
X0027500Y0082240D02*
X0017787Y0082240D01*
X0017787Y0081454D02*
X0026961Y0081454D01*
X0026602Y0080668D02*
X0017787Y0080668D01*
X0017787Y0079882D02*
X0026387Y0079882D01*
X0028349Y0072809D02*
X0017787Y0072809D01*
X0017787Y0072023D02*
X0027563Y0072023D01*
X0027051Y0071237D02*
X0017787Y0071237D01*
X0017787Y0070451D02*
X0026726Y0070451D01*
X0026500Y0069665D02*
X0017787Y0069665D01*
X0017787Y0068879D02*
X0026500Y0068879D01*
X0026500Y0068093D02*
X0017787Y0068093D01*
X0017787Y0067307D02*
X0026770Y0067307D01*
X0027096Y0066522D02*
X0017787Y0066522D01*
X0017787Y0065736D02*
X0027670Y0065736D01*
X0028456Y0064950D02*
X0017787Y0064950D01*
X0017787Y0064164D02*
X0030120Y0064164D01*
X0029337Y0063378D02*
X0017787Y0063378D01*
X0017787Y0062592D02*
X0028132Y0062592D01*
X0027346Y0061806D02*
X0017787Y0061806D01*
X0017787Y0061020D02*
X0026961Y0061020D01*
X0026636Y0060234D02*
X0017787Y0060234D01*
X0017787Y0059448D02*
X0026500Y0059448D01*
X0026500Y0058662D02*
X0017787Y0058662D01*
X0017787Y0057877D02*
X0026534Y0057877D01*
X0026860Y0057091D02*
X0017787Y0057091D01*
X0017787Y0056305D02*
X0027185Y0056305D01*
X0027887Y0055519D02*
X0017787Y0055519D01*
X0017787Y0054733D02*
X0028746Y0054733D01*
X0028813Y0053161D02*
X0017787Y0053161D01*
X0017787Y0052375D02*
X0027915Y0052375D01*
X0027197Y0051589D02*
X0017787Y0051589D01*
X0017787Y0050803D02*
X0026871Y0050803D01*
X0026546Y0050017D02*
X0017787Y0050017D01*
X0017787Y0049231D02*
X0026500Y0049231D01*
X0026500Y0048446D02*
X0017787Y0048446D01*
X0017787Y0047660D02*
X0026624Y0047660D01*
X0026950Y0046874D02*
X0017787Y0046874D01*
X0017787Y0046088D02*
X0027318Y0046088D01*
X0028104Y0045302D02*
X0017787Y0045302D01*
X0017787Y0044516D02*
X0029270Y0044516D01*
X0017787Y0053947D02*
X0052378Y0053947D01*
X0053992Y0047660D02*
X0068716Y0047660D01*
X0067930Y0048446D02*
X0054778Y0048446D01*
X0055564Y0049231D02*
X0067144Y0049231D01*
X0066358Y0050017D02*
X0056350Y0050017D01*
X0057136Y0050803D02*
X0065573Y0050803D01*
X0064787Y0051589D02*
X0057922Y0051589D01*
X0058708Y0052375D02*
X0064061Y0052375D01*
X0063294Y0053161D02*
X0059494Y0053161D01*
X0060280Y0053947D02*
X0062508Y0053947D01*
X0066480Y0057877D02*
X0079034Y0057877D01*
X0079000Y0058662D02*
X0065837Y0058662D01*
X0065837Y0059448D02*
X0079000Y0059448D01*
X0079136Y0060234D02*
X0065837Y0060234D01*
X0065837Y0061020D02*
X0074607Y0061020D01*
X0073748Y0061806D02*
X0065837Y0061806D01*
X0065837Y0062592D02*
X0073296Y0062592D01*
X0073019Y0063378D02*
X0065216Y0063378D01*
X0067266Y0057091D02*
X0079360Y0057091D01*
X0079685Y0056305D02*
X0068052Y0056305D01*
X0068838Y0055519D02*
X0080387Y0055519D01*
X0081246Y0054733D02*
X0069545Y0054733D01*
X0070331Y0053947D02*
X0082200Y0053947D01*
X0082200Y0053161D02*
X0071117Y0053161D01*
X0071902Y0052375D02*
X0082200Y0052375D01*
X0082200Y0051589D02*
X0072688Y0051589D01*
X0073474Y0050803D02*
X0082200Y0050803D01*
X0082200Y0050017D02*
X0074260Y0050017D01*
X0075046Y0049231D02*
X0082200Y0049231D01*
X0082200Y0048446D02*
X0075832Y0048446D01*
X0075476Y0048801D02*
X0075476Y0048801D01*
X0076409Y0047660D02*
X0081730Y0047660D01*
X0080886Y0046874D02*
X0076901Y0046874D01*
X0077448Y0046088D02*
X0080339Y0046088D01*
X0080014Y0045302D02*
X0077774Y0045302D01*
X0077887Y0044516D02*
X0079900Y0044516D01*
X0079900Y0043730D02*
X0077887Y0043730D01*
X0077887Y0042944D02*
X0079900Y0042944D01*
X0079900Y0042158D02*
X0077887Y0042158D01*
X0077887Y0041372D02*
X0079900Y0041372D01*
X0079900Y0040586D02*
X0077887Y0040586D01*
X0078629Y0039801D02*
X0079900Y0039801D01*
X0079900Y0039015D02*
X0079414Y0039015D01*
X0086057Y0047660D02*
X0091730Y0047660D01*
X0092200Y0048446D02*
X0085587Y0048446D01*
X0085587Y0049231D02*
X0092200Y0049231D01*
X0092200Y0050017D02*
X0085587Y0050017D01*
X0085587Y0050803D02*
X0092200Y0050803D01*
X0092200Y0051589D02*
X0085587Y0051589D01*
X0085587Y0052375D02*
X0092200Y0052375D01*
X0092200Y0053161D02*
X0085587Y0053161D01*
X0085587Y0053947D02*
X0092200Y0053947D01*
X0092298Y0054733D02*
X0086541Y0054733D01*
X0087400Y0055519D02*
X0093084Y0055519D01*
X0093870Y0056305D02*
X0088102Y0056305D01*
X0088427Y0057091D02*
X0094360Y0057091D01*
X0094034Y0057877D02*
X0088753Y0057877D01*
X0088787Y0058662D02*
X0094000Y0058662D01*
X0094000Y0059448D02*
X0088787Y0059448D01*
X0088652Y0060234D02*
X0094136Y0060234D01*
X0094461Y0061020D02*
X0088326Y0061020D01*
X0087941Y0061806D02*
X0094846Y0061806D01*
X0095632Y0062592D02*
X0087155Y0062592D01*
X0085951Y0063378D02*
X0096837Y0063378D01*
X0097620Y0064164D02*
X0085168Y0064164D01*
X0086831Y0064950D02*
X0095956Y0064950D01*
X0096122Y0064784D02*
X0097920Y0064039D01*
X0099867Y0064039D01*
X0101666Y0064784D01*
X0103042Y0066161D01*
X0103787Y0067960D01*
X0103787Y0069906D01*
X0103341Y0070985D01*
X0107095Y0074739D01*
X0108087Y0075732D01*
X0108087Y0083232D01*
X0114595Y0089739D01*
X0115587Y0090732D01*
X0115587Y0093482D01*
X0115805Y0093572D01*
X0116755Y0094521D01*
X0117268Y0095762D01*
X0117268Y0097104D01*
X0116755Y0098345D01*
X0115805Y0099294D01*
X0114565Y0099808D01*
X0113222Y0099808D01*
X0111982Y0099294D01*
X0111033Y0098345D01*
X0110519Y0097104D01*
X0110519Y0095762D01*
X0111033Y0094521D01*
X0111982Y0093572D01*
X0112200Y0093482D01*
X0112200Y0092135D01*
X0104700Y0084635D01*
X0104700Y0077135D01*
X0100945Y0073380D01*
X0099867Y0073827D01*
X0097920Y0073827D01*
X0096122Y0073082D01*
X0094745Y0071705D01*
X0094000Y0069906D01*
X0094000Y0067960D01*
X0094745Y0066161D01*
X0096122Y0064784D01*
X0095170Y0065736D02*
X0087617Y0065736D01*
X0088192Y0066522D02*
X0094596Y0066522D01*
X0094270Y0067307D02*
X0088517Y0067307D01*
X0088787Y0068093D02*
X0094000Y0068093D01*
X0094000Y0068879D02*
X0088787Y0068879D01*
X0088787Y0069665D02*
X0094000Y0069665D01*
X0094226Y0070451D02*
X0088562Y0070451D01*
X0088593Y0071237D02*
X0094551Y0071237D01*
X0095063Y0072023D02*
X0089379Y0072023D01*
X0090165Y0072809D02*
X0095849Y0072809D01*
X0097360Y0073595D02*
X0090951Y0073595D01*
X0091737Y0074381D02*
X0096608Y0074381D01*
X0096938Y0074213D02*
X0097701Y0073965D01*
X0098493Y0073839D01*
X0098500Y0073839D01*
X0098500Y0078539D01*
X0099287Y0078539D01*
X0099287Y0073839D01*
X0099295Y0073839D01*
X0100086Y0073965D01*
X0100849Y0074213D01*
X0101563Y0074577D01*
X0102212Y0075048D01*
X0102779Y0075615D01*
X0103250Y0076263D01*
X0103614Y0076978D01*
X0103862Y0077740D01*
X0103987Y0078532D01*
X0103987Y0078539D01*
X0099287Y0078539D01*
X0099287Y0079327D01*
X0098500Y0079327D01*
X0098500Y0084027D01*
X0098493Y0084027D01*
X0097701Y0083901D01*
X0096938Y0083654D01*
X0096224Y0083290D01*
X0095575Y0082818D01*
X0095008Y0082251D01*
X0094537Y0081603D01*
X0094173Y0080888D01*
X0093925Y0080126D01*
X0093800Y0079334D01*
X0093800Y0079327D01*
X0098500Y0079327D01*
X0098500Y0078539D01*
X0093800Y0078539D01*
X0093800Y0078532D01*
X0093925Y0077740D01*
X0094173Y0076978D01*
X0094537Y0076263D01*
X0095008Y0075615D01*
X0095575Y0075048D01*
X0096224Y0074577D01*
X0096938Y0074213D01*
X0098500Y0074381D02*
X0099287Y0074381D01*
X0099287Y0075167D02*
X0098500Y0075167D01*
X0098500Y0075953D02*
X0099287Y0075953D01*
X0099287Y0076738D02*
X0098500Y0076738D01*
X0098500Y0077524D02*
X0099287Y0077524D01*
X0099287Y0078310D02*
X0098500Y0078310D01*
X0098500Y0079096D02*
X0093087Y0079096D01*
X0093087Y0078310D02*
X0093835Y0078310D01*
X0093996Y0077524D02*
X0093087Y0077524D01*
X0093087Y0076738D02*
X0094295Y0076738D01*
X0094763Y0075953D02*
X0093087Y0075953D01*
X0092523Y0075167D02*
X0095457Y0075167D01*
X0093887Y0079882D02*
X0093087Y0079882D01*
X0093087Y0080668D02*
X0094102Y0080668D01*
X0094461Y0081454D02*
X0093087Y0081454D01*
X0093087Y0082240D02*
X0095000Y0082240D01*
X0095861Y0083026D02*
X0093087Y0083026D01*
X0093087Y0083812D02*
X0097425Y0083812D01*
X0098500Y0083812D02*
X0099287Y0083812D01*
X0099287Y0084027D02*
X0099287Y0079327D01*
X0103987Y0079327D01*
X0103987Y0079334D01*
X0103862Y0080126D01*
X0103614Y0080888D01*
X0103250Y0081603D01*
X0102779Y0082251D01*
X0102212Y0082818D01*
X0101563Y0083290D01*
X0100849Y0083654D01*
X0100086Y0083901D01*
X0099295Y0084027D01*
X0099287Y0084027D01*
X0099287Y0083026D02*
X0098500Y0083026D01*
X0098500Y0082240D02*
X0099287Y0082240D01*
X0099287Y0081454D02*
X0098500Y0081454D01*
X0098500Y0080668D02*
X0099287Y0080668D01*
X0099287Y0079882D02*
X0098500Y0079882D01*
X0099287Y0079096D02*
X0104700Y0079096D01*
X0104700Y0078310D02*
X0103952Y0078310D01*
X0103792Y0077524D02*
X0104700Y0077524D01*
X0104304Y0076738D02*
X0103492Y0076738D01*
X0103518Y0075953D02*
X0103024Y0075953D01*
X0102732Y0075167D02*
X0102331Y0075167D01*
X0101946Y0074381D02*
X0101179Y0074381D01*
X0101160Y0073595D02*
X0100427Y0073595D01*
X0103593Y0071237D02*
X0109551Y0071237D01*
X0109745Y0071705D02*
X0109000Y0069906D01*
X0109000Y0067960D01*
X0109745Y0066161D01*
X0111122Y0064784D01*
X0112920Y0064039D01*
X0114867Y0064039D01*
X0116666Y0064784D01*
X0118042Y0066161D01*
X0118787Y0067960D01*
X0118787Y0069906D01*
X0118042Y0071705D01*
X0116666Y0073082D01*
X0114867Y0073827D01*
X0112920Y0073827D01*
X0111122Y0073082D01*
X0109745Y0071705D01*
X0110063Y0072023D02*
X0104379Y0072023D01*
X0105165Y0072809D02*
X0110849Y0072809D01*
X0112360Y0073595D02*
X0105951Y0073595D01*
X0106737Y0074381D02*
X0111608Y0074381D01*
X0111938Y0074213D02*
X0111224Y0074577D01*
X0110575Y0075048D01*
X0110008Y0075615D01*
X0109537Y0076263D01*
X0109173Y0076978D01*
X0108925Y0077740D01*
X0108800Y0078532D01*
X0108800Y0078539D01*
X0113500Y0078539D01*
X0114287Y0078539D01*
X0114287Y0073839D01*
X0114295Y0073839D01*
X0115086Y0073965D01*
X0115849Y0074213D01*
X0116563Y0074577D01*
X0117212Y0075048D01*
X0117779Y0075615D01*
X0118250Y0076263D01*
X0118614Y0076978D01*
X0118862Y0077740D01*
X0118987Y0078532D01*
X0118987Y0078539D01*
X0114287Y0078539D01*
X0114287Y0079327D01*
X0113500Y0079327D01*
X0113500Y0084027D01*
X0113493Y0084027D01*
X0112701Y0083901D01*
X0111938Y0083654D01*
X0111224Y0083290D01*
X0110575Y0082818D01*
X0110008Y0082251D01*
X0109537Y0081603D01*
X0109173Y0080888D01*
X0108925Y0080126D01*
X0108800Y0079334D01*
X0108800Y0079327D01*
X0113500Y0079327D01*
X0113500Y0078539D01*
X0113500Y0073839D01*
X0113493Y0073839D01*
X0112701Y0073965D01*
X0111938Y0074213D01*
X0113500Y0074381D02*
X0114287Y0074381D01*
X0114287Y0075167D02*
X0113500Y0075167D01*
X0113500Y0075953D02*
X0114287Y0075953D01*
X0114287Y0076738D02*
X0113500Y0076738D01*
X0113500Y0077524D02*
X0114287Y0077524D01*
X0114287Y0078310D02*
X0113500Y0078310D01*
X0113500Y0079096D02*
X0108087Y0079096D01*
X0108087Y0078310D02*
X0108835Y0078310D01*
X0108996Y0077524D02*
X0108087Y0077524D01*
X0108087Y0076738D02*
X0109295Y0076738D01*
X0109763Y0075953D02*
X0108087Y0075953D01*
X0107523Y0075167D02*
X0110457Y0075167D01*
X0109226Y0070451D02*
X0103562Y0070451D01*
X0103787Y0069665D02*
X0109000Y0069665D01*
X0109000Y0068879D02*
X0103787Y0068879D01*
X0103787Y0068093D02*
X0109000Y0068093D01*
X0109270Y0067307D02*
X0103517Y0067307D01*
X0103192Y0066522D02*
X0109596Y0066522D01*
X0110170Y0065736D02*
X0102617Y0065736D01*
X0101831Y0064950D02*
X0110956Y0064950D01*
X0111837Y0063378D02*
X0100951Y0063378D01*
X0100168Y0064164D02*
X0112620Y0064164D01*
X0110632Y0062592D02*
X0102155Y0062592D01*
X0102941Y0061806D02*
X0109846Y0061806D01*
X0109461Y0061020D02*
X0103326Y0061020D01*
X0103652Y0060234D02*
X0109136Y0060234D01*
X0109000Y0059448D02*
X0103787Y0059448D01*
X0103787Y0058662D02*
X0109000Y0058662D01*
X0109034Y0057877D02*
X0103753Y0057877D01*
X0103427Y0057091D02*
X0109360Y0057091D01*
X0109685Y0056305D02*
X0103102Y0056305D01*
X0102400Y0055519D02*
X0110387Y0055519D01*
X0111246Y0054733D02*
X0101541Y0054733D01*
X0101730Y0047660D02*
X0096057Y0047660D01*
X0095587Y0048446D02*
X0108511Y0048446D01*
X0109297Y0049231D02*
X0095587Y0049231D01*
X0095587Y0050017D02*
X0110083Y0050017D01*
X0110869Y0050803D02*
X0095587Y0050803D01*
X0095587Y0051589D02*
X0111655Y0051589D01*
X0112200Y0052375D02*
X0095587Y0052375D01*
X0095587Y0053161D02*
X0112200Y0053161D01*
X0112200Y0053947D02*
X0096303Y0053947D01*
X0096901Y0046874D02*
X0100886Y0046874D01*
X0100339Y0046088D02*
X0097448Y0046088D01*
X0097774Y0045302D02*
X0100014Y0045302D01*
X0099900Y0044516D02*
X0097887Y0044516D01*
X0097887Y0043730D02*
X0099900Y0043730D01*
X0099900Y0042944D02*
X0097887Y0042944D01*
X0097887Y0042158D02*
X0099900Y0042158D01*
X0099900Y0041372D02*
X0097887Y0041372D01*
X0097887Y0040586D02*
X0099900Y0040586D01*
X0099900Y0039801D02*
X0097887Y0039801D01*
X0097887Y0039015D02*
X0099900Y0039015D01*
X0099900Y0038229D02*
X0097887Y0038229D01*
X0097723Y0037443D02*
X0100064Y0037443D01*
X0100389Y0036657D02*
X0097398Y0036657D01*
X0090389Y0036657D02*
X0087398Y0036657D01*
X0087723Y0037443D02*
X0090064Y0037443D01*
X0089900Y0038229D02*
X0087887Y0038229D01*
X0087887Y0039015D02*
X0089900Y0039015D01*
X0089900Y0039801D02*
X0087887Y0039801D01*
X0087887Y0040586D02*
X0089900Y0040586D01*
X0089900Y0041372D02*
X0087887Y0041372D01*
X0087887Y0042158D02*
X0089900Y0042158D01*
X0089900Y0042944D02*
X0087887Y0042944D01*
X0087887Y0043730D02*
X0089900Y0043730D01*
X0089900Y0044516D02*
X0087887Y0044516D01*
X0087774Y0045302D02*
X0090014Y0045302D01*
X0090339Y0046088D02*
X0087448Y0046088D01*
X0086901Y0046874D02*
X0090886Y0046874D01*
X0079846Y0061806D02*
X0079039Y0061806D01*
X0079461Y0061020D02*
X0078180Y0061020D01*
X0079491Y0062592D02*
X0080632Y0062592D01*
X0079768Y0063378D02*
X0081837Y0063378D01*
X0082620Y0064164D02*
X0079768Y0064164D01*
X0079806Y0064950D02*
X0080956Y0064950D01*
X0077200Y0070451D02*
X0065758Y0070451D01*
X0065391Y0071237D02*
X0077200Y0071237D01*
X0077200Y0072023D02*
X0064792Y0072023D01*
X0058936Y0072809D02*
X0034439Y0072809D01*
X0035225Y0072023D02*
X0057995Y0072023D01*
X0057396Y0071237D02*
X0035736Y0071237D01*
X0036062Y0070451D02*
X0057030Y0070451D01*
X0056821Y0069665D02*
X0036287Y0069665D01*
X0036186Y0080668D02*
X0077200Y0080668D01*
X0077200Y0081454D02*
X0035826Y0081454D01*
X0035287Y0082240D02*
X0077200Y0082240D01*
X0077200Y0083026D02*
X0034427Y0083026D01*
X0053207Y0046874D02*
X0069502Y0046874D01*
X0080587Y0072809D02*
X0080849Y0072809D01*
X0080587Y0073595D02*
X0082360Y0073595D01*
X0081608Y0074381D02*
X0080587Y0074381D01*
X0083500Y0074381D02*
X0084287Y0074381D01*
X0084287Y0075167D02*
X0083500Y0075167D01*
X0083500Y0075953D02*
X0084287Y0075953D01*
X0084287Y0076738D02*
X0083500Y0076738D01*
X0083500Y0077524D02*
X0084287Y0077524D01*
X0084287Y0078310D02*
X0083500Y0078310D01*
X0084287Y0079096D02*
X0089700Y0079096D01*
X0088987Y0079327D02*
X0088987Y0079334D01*
X0088862Y0080126D01*
X0088614Y0080888D01*
X0088250Y0081603D01*
X0087779Y0082251D01*
X0087212Y0082818D01*
X0086563Y0083290D01*
X0085849Y0083654D01*
X0085086Y0083901D01*
X0084295Y0084027D01*
X0084287Y0084027D01*
X0084287Y0079327D01*
X0088987Y0079327D01*
X0088901Y0079882D02*
X0089700Y0079882D01*
X0089700Y0080668D02*
X0088686Y0080668D01*
X0088326Y0081454D02*
X0089700Y0081454D01*
X0089700Y0082240D02*
X0087787Y0082240D01*
X0086927Y0083026D02*
X0089700Y0083026D01*
X0089700Y0083812D02*
X0085362Y0083812D01*
X0084287Y0083812D02*
X0083500Y0083812D01*
X0083500Y0083026D02*
X0084287Y0083026D01*
X0084287Y0082240D02*
X0083500Y0082240D01*
X0083500Y0081454D02*
X0084287Y0081454D01*
X0084287Y0080668D02*
X0083500Y0080668D01*
X0083500Y0079882D02*
X0084287Y0079882D01*
X0082425Y0083812D02*
X0080587Y0083812D01*
X0080587Y0084598D02*
X0089700Y0084598D01*
X0089700Y0085383D02*
X0080587Y0085383D01*
X0080587Y0086169D02*
X0089700Y0086169D01*
X0089700Y0086955D02*
X0080587Y0086955D01*
X0080587Y0087741D02*
X0090307Y0087741D01*
X0091093Y0088527D02*
X0080587Y0088527D01*
X0080587Y0089313D02*
X0091878Y0089313D01*
X0094311Y0086955D02*
X0107021Y0086955D01*
X0106235Y0086169D02*
X0093525Y0086169D01*
X0093087Y0085383D02*
X0105449Y0085383D01*
X0104700Y0084598D02*
X0093087Y0084598D01*
X0095097Y0087741D02*
X0107807Y0087741D01*
X0108593Y0088527D02*
X0098197Y0088527D01*
X0099046Y0089313D02*
X0109378Y0089313D01*
X0110164Y0090099D02*
X0108208Y0090099D01*
X0108993Y0090885D02*
X0110950Y0090885D01*
X0111736Y0091671D02*
X0109779Y0091671D01*
X0110387Y0092457D02*
X0112200Y0092457D01*
X0112200Y0093243D02*
X0110387Y0093243D01*
X0110387Y0094029D02*
X0111526Y0094029D01*
X0110911Y0094814D02*
X0110387Y0094814D01*
X0110374Y0095600D02*
X0110586Y0095600D01*
X0110519Y0096386D02*
X0109588Y0096386D01*
X0108803Y0097172D02*
X0110547Y0097172D01*
X0110873Y0097958D02*
X0097271Y0097958D01*
X0096485Y0098744D02*
X0111432Y0098744D01*
X0112551Y0099530D02*
X0102575Y0099530D01*
X0103321Y0100316D02*
X0117616Y0100316D01*
X0118402Y0099530D02*
X0115236Y0099530D01*
X0116355Y0098744D02*
X0119187Y0098744D01*
X0119700Y0097958D02*
X0116915Y0097958D01*
X0117240Y0097172D02*
X0119700Y0097172D01*
X0119700Y0096386D02*
X0117268Y0096386D01*
X0117202Y0095600D02*
X0119700Y0095600D01*
X0119700Y0094814D02*
X0116876Y0094814D01*
X0116262Y0094029D02*
X0119700Y0094029D01*
X0119700Y0093243D02*
X0115587Y0093243D01*
X0115587Y0092457D02*
X0119700Y0092457D01*
X0119700Y0091671D02*
X0115587Y0091671D01*
X0115587Y0090885D02*
X0119700Y0090885D01*
X0119700Y0090099D02*
X0114955Y0090099D01*
X0114169Y0089313D02*
X0119700Y0089313D01*
X0119700Y0088527D02*
X0113383Y0088527D01*
X0112597Y0087741D02*
X0119700Y0087741D01*
X0119700Y0086955D02*
X0111811Y0086955D01*
X0111025Y0086169D02*
X0119700Y0086169D01*
X0119700Y0085383D02*
X0110239Y0085383D01*
X0109453Y0084598D02*
X0119700Y0084598D01*
X0119700Y0083812D02*
X0115362Y0083812D01*
X0115086Y0083901D02*
X0114295Y0084027D01*
X0114287Y0084027D01*
X0114287Y0079327D01*
X0118987Y0079327D01*
X0118987Y0079334D01*
X0118862Y0080126D01*
X0118614Y0080888D01*
X0118250Y0081603D01*
X0117779Y0082251D01*
X0117212Y0082818D01*
X0116563Y0083290D01*
X0115849Y0083654D01*
X0115086Y0083901D01*
X0114287Y0083812D02*
X0113500Y0083812D01*
X0113500Y0083026D02*
X0114287Y0083026D01*
X0114287Y0082240D02*
X0113500Y0082240D01*
X0113500Y0081454D02*
X0114287Y0081454D01*
X0114287Y0080668D02*
X0113500Y0080668D01*
X0113500Y0079882D02*
X0114287Y0079882D01*
X0114287Y0079096D02*
X0119700Y0079096D01*
X0119700Y0078310D02*
X0118952Y0078310D01*
X0118792Y0077524D02*
X0119700Y0077524D01*
X0119700Y0076738D02*
X0118492Y0076738D01*
X0118024Y0075953D02*
X0119700Y0075953D01*
X0119700Y0075167D02*
X0117331Y0075167D01*
X0116179Y0074381D02*
X0119700Y0074381D01*
X0119700Y0073595D02*
X0115427Y0073595D01*
X0116939Y0072809D02*
X0119700Y0072809D01*
X0119700Y0072023D02*
X0117725Y0072023D01*
X0118236Y0071237D02*
X0119700Y0071237D01*
X0119700Y0070451D02*
X0118562Y0070451D01*
X0118787Y0069665D02*
X0119700Y0069665D01*
X0119700Y0068879D02*
X0118787Y0068879D01*
X0118787Y0068093D02*
X0119700Y0068093D01*
X0119700Y0067307D02*
X0118517Y0067307D01*
X0118192Y0066522D02*
X0119700Y0066522D01*
X0119700Y0065736D02*
X0117617Y0065736D01*
X0116831Y0064950D02*
X0119700Y0064950D01*
X0119700Y0064164D02*
X0115168Y0064164D01*
X0115951Y0063378D02*
X0119700Y0063378D01*
X0119700Y0062592D02*
X0117155Y0062592D01*
X0117941Y0061806D02*
X0119700Y0061806D01*
X0119700Y0061020D02*
X0118326Y0061020D01*
X0118652Y0060234D02*
X0119700Y0060234D01*
X0119700Y0059448D02*
X0118787Y0059448D01*
X0118787Y0058662D02*
X0119700Y0058662D01*
X0119700Y0057877D02*
X0118753Y0057877D01*
X0118427Y0057091D02*
X0119700Y0057091D01*
X0119700Y0056305D02*
X0118102Y0056305D01*
X0117400Y0055519D02*
X0119700Y0055519D01*
X0119700Y0054733D02*
X0116541Y0054733D01*
X0115587Y0053947D02*
X0119700Y0053947D01*
X0119700Y0053161D02*
X0115587Y0053161D01*
X0115587Y0052375D02*
X0119700Y0052375D01*
X0119700Y0051589D02*
X0115587Y0051589D01*
X0115587Y0050803D02*
X0119700Y0050803D01*
X0119700Y0050017D02*
X0114873Y0050017D01*
X0114087Y0049231D02*
X0119297Y0049231D01*
X0118511Y0048446D02*
X0113301Y0048446D01*
X0116057Y0047660D02*
X0117725Y0047660D01*
X0116939Y0046874D02*
X0116901Y0046874D01*
X0107725Y0047660D02*
X0106057Y0047660D01*
X0106901Y0046874D02*
X0106939Y0046874D01*
X0086946Y0074381D02*
X0086179Y0074381D01*
X0086160Y0073595D02*
X0085427Y0073595D01*
X0087331Y0075167D02*
X0087732Y0075167D01*
X0088024Y0075953D02*
X0088518Y0075953D01*
X0088492Y0076738D02*
X0089304Y0076738D01*
X0089700Y0077524D02*
X0088792Y0077524D01*
X0088952Y0078310D02*
X0089700Y0078310D01*
X0080861Y0083026D02*
X0080587Y0083026D01*
X0093342Y0101888D02*
X0094281Y0101888D01*
X0094281Y0102674D02*
X0092556Y0102674D01*
X0091770Y0103459D02*
X0094281Y0103459D01*
X0094281Y0105031D02*
X0090587Y0105031D01*
X0090587Y0105817D02*
X0094281Y0105817D01*
X0094281Y0106603D02*
X0090587Y0106603D01*
X0090587Y0107389D02*
X0094296Y0107389D01*
X0094728Y0108175D02*
X0090587Y0108175D01*
X0090587Y0108961D02*
X0108971Y0108961D01*
X0109757Y0108175D02*
X0102960Y0108175D01*
X0102868Y0108267D02*
X0102550Y0108450D01*
X0102196Y0108545D01*
X0099237Y0108545D01*
X0099237Y0104377D01*
X0103406Y0104377D01*
X0103406Y0107335D01*
X0103311Y0107690D01*
X0103127Y0108007D01*
X0102868Y0108267D01*
X0103391Y0107389D02*
X0110542Y0107389D01*
X0111328Y0106603D02*
X0103406Y0106603D01*
X0103406Y0105817D02*
X0112114Y0105817D01*
X0112900Y0105031D02*
X0103406Y0105031D01*
X0103406Y0103459D02*
X0114472Y0103459D01*
X0115258Y0102674D02*
X0103406Y0102674D01*
X0103406Y0101888D02*
X0116044Y0101888D01*
X0116830Y0101102D02*
X0103406Y0101102D01*
X0103985Y0097172D02*
X0098057Y0097172D01*
X0098843Y0096386D02*
X0103199Y0096386D01*
X0103008Y0091671D02*
X0099768Y0091671D01*
X0099768Y0090885D02*
X0103794Y0090885D01*
X0104580Y0090099D02*
X0099494Y0090099D01*
X0100362Y0083812D02*
X0104700Y0083812D01*
X0104700Y0083026D02*
X0101927Y0083026D01*
X0102787Y0082240D02*
X0104700Y0082240D01*
X0104700Y0081454D02*
X0103326Y0081454D01*
X0103686Y0080668D02*
X0104700Y0080668D01*
X0104700Y0079882D02*
X0103901Y0079882D01*
X0108087Y0079882D02*
X0108887Y0079882D01*
X0109102Y0080668D02*
X0108087Y0080668D01*
X0108087Y0081454D02*
X0109461Y0081454D01*
X0110000Y0082240D02*
X0108087Y0082240D01*
X0108087Y0083026D02*
X0110861Y0083026D01*
X0112425Y0083812D02*
X0108668Y0083812D01*
X0116927Y0083026D02*
X0119700Y0083026D01*
X0119700Y0082240D02*
X0117787Y0082240D01*
X0118326Y0081454D02*
X0119700Y0081454D01*
X0119700Y0080668D02*
X0118686Y0080668D01*
X0118901Y0079882D02*
X0119700Y0079882D01*
X0126112Y0079882D02*
X0142300Y0079882D01*
X0142300Y0080287D02*
X0142300Y0076979D01*
X0144639Y0074639D01*
X0147948Y0074639D01*
X0150287Y0076979D01*
X0150287Y0080232D01*
X0160481Y0090425D01*
X0161122Y0089784D01*
X0162920Y0089039D01*
X0164867Y0089039D01*
X0166666Y0089784D01*
X0168042Y0091161D01*
X0168787Y0092960D01*
X0168787Y0094906D01*
X0168042Y0096705D01*
X0166666Y0098082D01*
X0164867Y0098827D01*
X0162920Y0098827D01*
X0161122Y0098082D01*
X0159745Y0096705D01*
X0159000Y0094906D01*
X0159000Y0093735D01*
X0147892Y0082627D01*
X0144639Y0082627D01*
X0142300Y0080287D01*
X0142681Y0080668D02*
X0126112Y0080668D01*
X0126112Y0081454D02*
X0143467Y0081454D01*
X0144253Y0082240D02*
X0126112Y0082240D01*
X0126112Y0083026D02*
X0148291Y0083026D01*
X0149077Y0083812D02*
X0126112Y0083812D01*
X0126112Y0084598D02*
X0149863Y0084598D01*
X0150649Y0085383D02*
X0126112Y0085383D01*
X0126112Y0086169D02*
X0151435Y0086169D01*
X0152221Y0086955D02*
X0126112Y0086955D01*
X0126112Y0087741D02*
X0153007Y0087741D01*
X0153793Y0088527D02*
X0126112Y0088527D01*
X0126112Y0089313D02*
X0154578Y0089313D01*
X0155364Y0090099D02*
X0153035Y0090099D01*
X0153206Y0090270D02*
X0153206Y0097596D01*
X0152507Y0098295D01*
X0145181Y0098295D01*
X0144481Y0097596D01*
X0144481Y0095627D01*
X0140348Y0095627D01*
X0138048Y0097927D01*
X0134739Y0097927D01*
X0132400Y0095587D01*
X0132400Y0092279D01*
X0134739Y0089939D01*
X0138048Y0089939D01*
X0140348Y0092239D01*
X0144481Y0092239D01*
X0144481Y0090270D01*
X0145181Y0089571D01*
X0152507Y0089571D01*
X0153206Y0090270D01*
X0153206Y0090885D02*
X0156150Y0090885D01*
X0156936Y0091671D02*
X0153206Y0091671D01*
X0153206Y0092457D02*
X0157722Y0092457D01*
X0158508Y0093243D02*
X0153206Y0093243D01*
X0153206Y0094029D02*
X0159000Y0094029D01*
X0159000Y0094814D02*
X0153206Y0094814D01*
X0153206Y0095600D02*
X0159287Y0095600D01*
X0159613Y0096386D02*
X0153206Y0096386D01*
X0153206Y0097172D02*
X0160212Y0097172D01*
X0160998Y0097958D02*
X0152844Y0097958D01*
X0154510Y0099809D02*
X0154769Y0099549D01*
X0155087Y0099366D01*
X0155442Y0099271D01*
X0158400Y0099271D01*
X0158400Y0103439D01*
X0159187Y0103439D01*
X0159187Y0099271D01*
X0162146Y0099271D01*
X0162500Y0099366D01*
X0162818Y0099549D01*
X0163077Y0099809D01*
X0163261Y0100127D01*
X0163356Y0100481D01*
X0163356Y0103439D01*
X0159187Y0103439D01*
X0159187Y0104227D01*
X0158400Y0104227D01*
X0158400Y0108395D01*
X0155442Y0108395D01*
X0155087Y0108300D01*
X0154769Y0108117D01*
X0154510Y0107857D01*
X0154326Y0107540D01*
X0154231Y0107185D01*
X0154231Y0104227D01*
X0158400Y0104227D01*
X0158400Y0103439D01*
X0154231Y0103439D01*
X0154231Y0100481D01*
X0154326Y0100127D01*
X0154510Y0099809D01*
X0154803Y0099530D02*
X0141758Y0099530D01*
X0142084Y0100316D02*
X0154276Y0100316D01*
X0154231Y0101102D02*
X0142268Y0101102D01*
X0142268Y0101888D02*
X0154231Y0101888D01*
X0154231Y0102674D02*
X0142033Y0102674D01*
X0141640Y0103459D02*
X0158400Y0103459D01*
X0158400Y0102674D02*
X0159187Y0102674D01*
X0159187Y0103459D02*
X0174748Y0103459D01*
X0175533Y0102674D02*
X0163356Y0102674D01*
X0163356Y0101888D02*
X0176319Y0101888D01*
X0177105Y0101102D02*
X0163356Y0101102D01*
X0163312Y0100316D02*
X0177400Y0100316D01*
X0177400Y0099530D02*
X0162784Y0099530D01*
X0162720Y0098744D02*
X0140977Y0098744D01*
X0138803Y0097172D02*
X0144481Y0097172D01*
X0144481Y0096386D02*
X0139588Y0096386D01*
X0136810Y0098744D02*
X0126112Y0098744D01*
X0126112Y0097958D02*
X0144844Y0097958D01*
X0144481Y0091671D02*
X0139779Y0091671D01*
X0138993Y0090885D02*
X0144481Y0090885D01*
X0144653Y0090099D02*
X0138208Y0090099D01*
X0134580Y0090099D02*
X0126112Y0090099D01*
X0126112Y0090885D02*
X0133794Y0090885D01*
X0133008Y0091671D02*
X0126112Y0091671D01*
X0126112Y0092457D02*
X0132400Y0092457D01*
X0132400Y0093243D02*
X0126112Y0093243D01*
X0126112Y0094029D02*
X0132400Y0094029D01*
X0132400Y0094814D02*
X0126112Y0094814D01*
X0126112Y0095600D02*
X0132413Y0095600D01*
X0133199Y0096386D02*
X0126112Y0096386D01*
X0126112Y0097172D02*
X0133985Y0097172D01*
X0136029Y0099530D02*
X0126112Y0099530D01*
X0126112Y0100316D02*
X0135704Y0100316D01*
X0135519Y0101102D02*
X0126112Y0101102D01*
X0126112Y0101888D02*
X0135519Y0101888D01*
X0135755Y0102674D02*
X0125923Y0102674D01*
X0125137Y0103459D02*
X0136147Y0103459D01*
X0136933Y0104245D02*
X0124351Y0104245D01*
X0123565Y0105031D02*
X0137000Y0105031D01*
X0137000Y0105817D02*
X0122779Y0105817D01*
X0121993Y0106603D02*
X0137000Y0106603D01*
X0137000Y0107389D02*
X0121207Y0107389D01*
X0120421Y0108175D02*
X0137000Y0108175D01*
X0137000Y0108961D02*
X0119635Y0108961D01*
X0118849Y0109747D02*
X0137000Y0109747D01*
X0137000Y0110533D02*
X0118064Y0110533D01*
X0117278Y0111319D02*
X0137000Y0111319D01*
X0137000Y0112105D02*
X0116492Y0112105D01*
X0115787Y0112890D02*
X0137000Y0112890D01*
X0137000Y0113676D02*
X0115787Y0113676D01*
X0115787Y0114462D02*
X0137000Y0114462D01*
X0137000Y0115248D02*
X0115787Y0115248D01*
X0115787Y0116034D02*
X0137000Y0116034D01*
X0137000Y0116820D02*
X0136089Y0116820D01*
X0140387Y0116820D02*
X0141498Y0116820D01*
X0140566Y0117606D02*
X0140387Y0117606D01*
X0140387Y0116034D02*
X0146897Y0116034D01*
X0146617Y0115248D02*
X0140387Y0115248D01*
X0140387Y0114462D02*
X0144457Y0114462D01*
X0144457Y0113676D02*
X0143619Y0113676D01*
X0143905Y0112890D02*
X0144743Y0112890D01*
X0145029Y0112105D02*
X0144191Y0112105D01*
X0144477Y0111319D02*
X0145315Y0111319D01*
X0145601Y0110533D02*
X0144763Y0110533D01*
X0144890Y0110184D02*
X0145630Y0110453D01*
X0145899Y0109713D01*
X0147325Y0105796D01*
X0150105Y0106808D01*
X0150405Y0107018D01*
X0150641Y0107299D01*
X0150796Y0107632D01*
X0150860Y0107993D01*
X0150828Y0108359D01*
X0149816Y0111139D01*
X0145899Y0109713D01*
X0145159Y0109444D01*
X0141242Y0108018D01*
X0142254Y0105238D01*
X0142465Y0104938D01*
X0142746Y0104702D01*
X0143078Y0104547D01*
X0143440Y0104483D01*
X0143805Y0104515D01*
X0146585Y0105527D01*
X0145159Y0109444D01*
X0144890Y0110184D01*
X0145049Y0109747D02*
X0143690Y0109747D01*
X0143832Y0108961D02*
X0141530Y0108961D01*
X0140899Y0108961D02*
X0140387Y0108961D01*
X0140387Y0109747D02*
X0140613Y0109747D01*
X0140387Y0108175D02*
X0141673Y0108175D01*
X0141471Y0107389D02*
X0140387Y0107389D01*
X0140387Y0106603D02*
X0141757Y0106603D01*
X0142043Y0105817D02*
X0140387Y0105817D01*
X0140387Y0105031D02*
X0142399Y0105031D01*
X0140854Y0104245D02*
X0154231Y0104245D01*
X0154231Y0105031D02*
X0145224Y0105031D01*
X0146479Y0105817D02*
X0147317Y0105817D01*
X0147383Y0105817D02*
X0154231Y0105817D01*
X0154231Y0106603D02*
X0149543Y0106603D01*
X0150683Y0107389D02*
X0154286Y0107389D01*
X0154870Y0108175D02*
X0150844Y0108175D01*
X0150609Y0108961D02*
X0169246Y0108961D01*
X0168460Y0109747D02*
X0150323Y0109747D01*
X0150037Y0110533D02*
X0167674Y0110533D01*
X0166888Y0111319D02*
X0148008Y0111319D01*
X0148151Y0110533D02*
X0145849Y0110533D01*
X0145887Y0109747D02*
X0145992Y0109747D01*
X0146173Y0108961D02*
X0145335Y0108961D01*
X0145621Y0108175D02*
X0146459Y0108175D01*
X0146745Y0107389D02*
X0145907Y0107389D01*
X0146193Y0106603D02*
X0147031Y0106603D01*
X0149465Y0112105D02*
X0166102Y0112105D01*
X0168535Y0114462D02*
X0180000Y0114462D01*
X0180000Y0113676D02*
X0169321Y0113676D01*
X0170107Y0112890D02*
X0180000Y0112890D01*
X0180000Y0112105D02*
X0170893Y0112105D01*
X0171679Y0111319D02*
X0180000Y0111319D01*
X0180000Y0110533D02*
X0172465Y0110533D01*
X0173251Y0109747D02*
X0180000Y0109747D01*
X0180000Y0108961D02*
X0174037Y0108961D01*
X0174823Y0108175D02*
X0180000Y0108175D01*
X0180000Y0107389D02*
X0175608Y0107389D01*
X0176394Y0106603D02*
X0180000Y0106603D01*
X0180000Y0105817D02*
X0177180Y0105817D01*
X0177966Y0105031D02*
X0180000Y0105031D01*
X0180000Y0104245D02*
X0178752Y0104245D01*
X0179538Y0103459D02*
X0180000Y0103459D01*
X0177400Y0098744D02*
X0175571Y0098744D01*
X0174287Y0098744D02*
X0173500Y0098744D01*
X0173500Y0097958D02*
X0174287Y0097958D01*
X0174287Y0097172D02*
X0173500Y0097172D01*
X0173500Y0096386D02*
X0174287Y0096386D01*
X0174287Y0095600D02*
X0173500Y0095600D01*
X0173500Y0094814D02*
X0174287Y0094814D01*
X0173500Y0094029D02*
X0168787Y0094029D01*
X0168800Y0093539D02*
X0168800Y0093532D01*
X0168925Y0092740D01*
X0169173Y0091978D01*
X0169537Y0091263D01*
X0170008Y0090615D01*
X0170575Y0090048D01*
X0171224Y0089577D01*
X0171938Y0089213D01*
X0172701Y0088965D01*
X0173493Y0088839D01*
X0173500Y0088839D01*
X0173500Y0093539D01*
X0168800Y0093539D01*
X0168787Y0093243D02*
X0168846Y0093243D01*
X0169018Y0092457D02*
X0168579Y0092457D01*
X0168254Y0091671D02*
X0169330Y0091671D01*
X0169812Y0090885D02*
X0167766Y0090885D01*
X0166980Y0090099D02*
X0170524Y0090099D01*
X0171741Y0089313D02*
X0165528Y0089313D01*
X0162260Y0089313D02*
X0159369Y0089313D01*
X0160155Y0090099D02*
X0160807Y0090099D01*
X0158583Y0088527D02*
X0177400Y0088527D01*
X0177400Y0087741D02*
X0157797Y0087741D01*
X0157011Y0086955D02*
X0177400Y0086955D01*
X0177400Y0086169D02*
X0156225Y0086169D01*
X0155439Y0085383D02*
X0177400Y0085383D01*
X0177400Y0084598D02*
X0154653Y0084598D01*
X0153868Y0083812D02*
X0164925Y0083812D01*
X0165201Y0083901D02*
X0164438Y0083654D01*
X0163724Y0083290D01*
X0163075Y0082818D01*
X0162508Y0082251D01*
X0162037Y0081603D01*
X0161673Y0080888D01*
X0161425Y0080126D01*
X0161300Y0079334D01*
X0161300Y0079327D01*
X0166000Y0079327D01*
X0166000Y0084027D01*
X0165993Y0084027D01*
X0165201Y0083901D01*
X0166000Y0083812D02*
X0166787Y0083812D01*
X0166787Y0084027D02*
X0166787Y0079327D01*
X0166000Y0079327D01*
X0166000Y0078539D01*
X0166787Y0078539D01*
X0166787Y0073839D01*
X0166795Y0073839D01*
X0167586Y0073965D01*
X0168349Y0074213D01*
X0169063Y0074577D01*
X0169712Y0075048D01*
X0170279Y0075615D01*
X0170750Y0076263D01*
X0171114Y0076978D01*
X0171362Y0077740D01*
X0171487Y0078532D01*
X0171487Y0078539D01*
X0166787Y0078539D01*
X0166787Y0079327D01*
X0171487Y0079327D01*
X0171487Y0079334D01*
X0171362Y0080126D01*
X0171114Y0080888D01*
X0170750Y0081603D01*
X0170279Y0082251D01*
X0169712Y0082818D01*
X0169063Y0083290D01*
X0168349Y0083654D01*
X0167586Y0083901D01*
X0166795Y0084027D01*
X0166787Y0084027D01*
X0166787Y0083026D02*
X0166000Y0083026D01*
X0166000Y0082240D02*
X0166787Y0082240D01*
X0166787Y0081454D02*
X0166000Y0081454D01*
X0166000Y0080668D02*
X0166787Y0080668D01*
X0166787Y0079882D02*
X0166000Y0079882D01*
X0166000Y0079096D02*
X0150287Y0079096D01*
X0150287Y0078310D02*
X0161335Y0078310D01*
X0161300Y0078532D02*
X0161425Y0077740D01*
X0161673Y0076978D01*
X0162037Y0076263D01*
X0162508Y0075615D01*
X0163075Y0075048D01*
X0163724Y0074577D01*
X0164438Y0074213D01*
X0165201Y0073965D01*
X0165993Y0073839D01*
X0166000Y0073839D01*
X0166000Y0078539D01*
X0161300Y0078539D01*
X0161300Y0078532D01*
X0161496Y0077524D02*
X0150287Y0077524D01*
X0150047Y0076738D02*
X0161795Y0076738D01*
X0162263Y0075953D02*
X0149261Y0075953D01*
X0148475Y0075167D02*
X0162957Y0075167D01*
X0164108Y0074381D02*
X0134105Y0074381D01*
X0133757Y0074494D02*
X0132918Y0074627D01*
X0132887Y0074627D01*
X0132887Y0069627D01*
X0132100Y0069627D01*
X0132100Y0074627D01*
X0132069Y0074627D01*
X0131231Y0074494D01*
X0130423Y0074232D01*
X0129667Y0073846D01*
X0128980Y0073347D01*
X0128380Y0072747D01*
X0127881Y0072060D01*
X0127495Y0071304D01*
X0127233Y0070496D01*
X0127100Y0069658D01*
X0127100Y0069627D01*
X0132100Y0069627D01*
X0132100Y0068839D01*
X0132887Y0068839D01*
X0132887Y0063839D01*
X0132918Y0063839D01*
X0133757Y0063972D01*
X0134564Y0064235D01*
X0135321Y0064620D01*
X0136007Y0065119D01*
X0136608Y0065719D01*
X0137107Y0066406D01*
X0137492Y0067163D01*
X0137755Y0067970D01*
X0137887Y0068809D01*
X0137887Y0068839D01*
X0132887Y0068839D01*
X0132887Y0069627D01*
X0137887Y0069627D01*
X0137887Y0069658D01*
X0137755Y0070496D01*
X0137492Y0071304D01*
X0137107Y0072060D01*
X0136608Y0072747D01*
X0136007Y0073347D01*
X0135321Y0073846D01*
X0134564Y0074232D01*
X0133757Y0074494D01*
X0132887Y0074381D02*
X0132100Y0074381D01*
X0132100Y0073595D02*
X0132887Y0073595D01*
X0132887Y0072809D02*
X0132100Y0072809D01*
X0132100Y0072023D02*
X0132887Y0072023D01*
X0132887Y0071237D02*
X0132100Y0071237D01*
X0132100Y0070451D02*
X0132887Y0070451D01*
X0132887Y0069665D02*
X0132100Y0069665D01*
X0132100Y0068879D02*
X0126112Y0068879D01*
X0126112Y0068093D02*
X0127213Y0068093D01*
X0127233Y0067970D02*
X0127495Y0067163D01*
X0127881Y0066406D01*
X0128380Y0065719D01*
X0128980Y0065119D01*
X0129667Y0064620D01*
X0130423Y0064235D01*
X0131231Y0063972D01*
X0132069Y0063839D01*
X0132100Y0063839D01*
X0132100Y0068839D01*
X0127100Y0068839D01*
X0127100Y0068809D01*
X0127233Y0067970D01*
X0127448Y0067307D02*
X0126239Y0067307D01*
X0127025Y0066522D02*
X0127822Y0066522D01*
X0127811Y0065736D02*
X0128368Y0065736D01*
X0128597Y0064950D02*
X0129213Y0064950D01*
X0129382Y0064164D02*
X0130641Y0064164D01*
X0130168Y0063378D02*
X0131343Y0063378D01*
X0132100Y0064164D02*
X0132887Y0064164D01*
X0132887Y0064950D02*
X0132100Y0064950D01*
X0132100Y0065736D02*
X0132887Y0065736D01*
X0132887Y0066522D02*
X0132100Y0066522D01*
X0132100Y0067307D02*
X0132887Y0067307D01*
X0132887Y0068093D02*
X0132100Y0068093D01*
X0132887Y0068879D02*
X0161500Y0068879D01*
X0161500Y0068093D02*
X0137774Y0068093D01*
X0137539Y0067307D02*
X0161770Y0067307D01*
X0162096Y0066522D02*
X0137166Y0066522D01*
X0136620Y0065736D02*
X0162670Y0065736D01*
X0163456Y0064950D02*
X0135775Y0064950D01*
X0134347Y0064164D02*
X0165120Y0064164D01*
X0165420Y0063827D02*
X0163622Y0063082D01*
X0162245Y0061705D01*
X0161500Y0059906D01*
X0161500Y0057960D01*
X0162245Y0056161D01*
X0163622Y0054784D01*
X0165420Y0054039D01*
X0167367Y0054039D01*
X0169166Y0054784D01*
X0170542Y0056161D01*
X0171287Y0057960D01*
X0171287Y0059906D01*
X0170542Y0061705D01*
X0169166Y0063082D01*
X0167367Y0063827D01*
X0165420Y0063827D01*
X0164337Y0063378D02*
X0133645Y0063378D01*
X0135480Y0062592D02*
X0163132Y0062592D01*
X0162346Y0061806D02*
X0136266Y0061806D01*
X0136961Y0061020D02*
X0161961Y0061020D01*
X0161636Y0060234D02*
X0137286Y0060234D01*
X0136991Y0055519D02*
X0156988Y0055519D01*
X0157774Y0054733D02*
X0136339Y0054733D01*
X0135553Y0053947D02*
X0158560Y0053947D01*
X0159346Y0053161D02*
X0134687Y0053161D01*
X0134687Y0052375D02*
X0144388Y0052375D01*
X0144639Y0052627D02*
X0142300Y0050287D01*
X0142300Y0046979D01*
X0144639Y0044639D01*
X0147948Y0044639D01*
X0150287Y0046979D01*
X0150287Y0050287D01*
X0147948Y0052627D01*
X0144639Y0052627D01*
X0143602Y0051589D02*
X0134687Y0051589D01*
X0134687Y0050803D02*
X0142816Y0050803D01*
X0142300Y0050017D02*
X0134687Y0050017D01*
X0134687Y0049231D02*
X0142300Y0049231D01*
X0142300Y0048446D02*
X0134687Y0048446D01*
X0134687Y0047660D02*
X0142300Y0047660D01*
X0142405Y0046874D02*
X0134687Y0046874D01*
X0134687Y0046088D02*
X0143191Y0046088D01*
X0143977Y0045302D02*
X0134687Y0045302D01*
X0134687Y0044516D02*
X0164270Y0044516D01*
X0163104Y0045302D02*
X0148610Y0045302D01*
X0149396Y0046088D02*
X0162318Y0046088D01*
X0161950Y0046874D02*
X0150182Y0046874D01*
X0150287Y0047660D02*
X0161624Y0047660D01*
X0161500Y0048446D02*
X0150287Y0048446D01*
X0150287Y0049231D02*
X0161500Y0049231D01*
X0161546Y0050017D02*
X0150287Y0050017D01*
X0149771Y0050803D02*
X0161704Y0050803D01*
X0160918Y0051589D02*
X0148985Y0051589D01*
X0148200Y0052375D02*
X0160132Y0052375D01*
X0162627Y0055519D02*
X0162887Y0055519D01*
X0163413Y0054733D02*
X0163746Y0054733D01*
X0164199Y0053947D02*
X0180000Y0053947D01*
X0180000Y0054733D02*
X0169041Y0054733D01*
X0169900Y0055519D02*
X0180000Y0055519D01*
X0180000Y0056305D02*
X0170602Y0056305D01*
X0170927Y0057091D02*
X0180000Y0057091D01*
X0180000Y0057877D02*
X0171253Y0057877D01*
X0171287Y0058662D02*
X0180000Y0058662D01*
X0180000Y0059448D02*
X0171287Y0059448D01*
X0171152Y0060234D02*
X0180000Y0060234D01*
X0180000Y0061020D02*
X0170826Y0061020D01*
X0170441Y0061806D02*
X0180000Y0061806D01*
X0180000Y0062592D02*
X0169655Y0062592D01*
X0168451Y0063378D02*
X0180000Y0063378D01*
X0180000Y0064164D02*
X0167668Y0064164D01*
X0169331Y0064950D02*
X0180000Y0064950D01*
X0180000Y0065736D02*
X0170117Y0065736D01*
X0170692Y0066522D02*
X0180000Y0066522D01*
X0180000Y0067307D02*
X0171017Y0067307D01*
X0171287Y0068093D02*
X0180000Y0068093D01*
X0180000Y0068879D02*
X0171287Y0068879D01*
X0171287Y0069665D02*
X0180000Y0069665D01*
X0180000Y0070451D02*
X0171062Y0070451D01*
X0171093Y0071237D02*
X0180000Y0071237D01*
X0180000Y0072023D02*
X0171879Y0072023D01*
X0172665Y0072809D02*
X0180000Y0072809D01*
X0180000Y0073595D02*
X0173451Y0073595D01*
X0174237Y0074381D02*
X0180000Y0074381D01*
X0180000Y0075167D02*
X0175022Y0075167D01*
X0175808Y0075953D02*
X0180000Y0075953D01*
X0180000Y0076738D02*
X0176594Y0076738D01*
X0177380Y0077524D02*
X0180000Y0077524D01*
X0180000Y0078310D02*
X0178166Y0078310D01*
X0178952Y0079096D02*
X0180000Y0079096D01*
X0180000Y0079882D02*
X0179738Y0079882D01*
X0177305Y0082240D02*
X0170287Y0082240D01*
X0170826Y0081454D02*
X0176519Y0081454D01*
X0175733Y0080668D02*
X0171186Y0080668D01*
X0171401Y0079882D02*
X0174947Y0079882D01*
X0174162Y0079096D02*
X0166787Y0079096D01*
X0166787Y0078310D02*
X0166000Y0078310D01*
X0166000Y0077524D02*
X0166787Y0077524D01*
X0166787Y0076738D02*
X0166000Y0076738D01*
X0166000Y0075953D02*
X0166787Y0075953D01*
X0166787Y0075167D02*
X0166000Y0075167D01*
X0166000Y0074381D02*
X0166787Y0074381D01*
X0167927Y0073595D02*
X0168660Y0073595D01*
X0168679Y0074381D02*
X0169446Y0074381D01*
X0169831Y0075167D02*
X0170232Y0075167D01*
X0170524Y0075953D02*
X0171018Y0075953D01*
X0170992Y0076738D02*
X0171804Y0076738D01*
X0171292Y0077524D02*
X0172590Y0077524D01*
X0173376Y0078310D02*
X0171452Y0078310D01*
X0169427Y0083026D02*
X0177400Y0083026D01*
X0177400Y0083812D02*
X0167862Y0083812D01*
X0163361Y0083026D02*
X0153082Y0083026D01*
X0152296Y0082240D02*
X0162500Y0082240D01*
X0161961Y0081454D02*
X0151510Y0081454D01*
X0150724Y0080668D02*
X0161602Y0080668D01*
X0161387Y0079882D02*
X0150287Y0079882D01*
X0144112Y0075167D02*
X0126112Y0075167D01*
X0126112Y0075953D02*
X0143326Y0075953D01*
X0142540Y0076738D02*
X0126112Y0076738D01*
X0126112Y0077524D02*
X0142300Y0077524D01*
X0142300Y0078310D02*
X0126112Y0078310D01*
X0126112Y0079096D02*
X0142300Y0079096D01*
X0137126Y0072023D02*
X0162563Y0072023D01*
X0162051Y0071237D02*
X0137514Y0071237D01*
X0137762Y0070451D02*
X0161726Y0070451D01*
X0161500Y0069665D02*
X0137886Y0069665D01*
X0136546Y0072809D02*
X0163349Y0072809D01*
X0164860Y0073595D02*
X0135667Y0073595D01*
X0130882Y0074381D02*
X0126112Y0074381D01*
X0126112Y0073595D02*
X0129321Y0073595D01*
X0128442Y0072809D02*
X0126112Y0072809D01*
X0126112Y0072023D02*
X0127862Y0072023D01*
X0127474Y0071237D02*
X0126112Y0071237D01*
X0126112Y0070451D02*
X0127226Y0070451D01*
X0127101Y0069665D02*
X0126112Y0069665D01*
X0134687Y0043730D02*
X0180000Y0043730D01*
X0180000Y0042944D02*
X0134687Y0042944D01*
X0134687Y0042158D02*
X0180000Y0042158D01*
X0180000Y0041372D02*
X0134687Y0041372D01*
X0134687Y0040586D02*
X0180000Y0040586D01*
X0180000Y0039801D02*
X0134687Y0039801D01*
X0134687Y0039015D02*
X0179504Y0039015D01*
X0178718Y0038229D02*
X0134687Y0038229D01*
X0134687Y0037443D02*
X0177932Y0037443D01*
X0177147Y0036657D02*
X0134687Y0036657D01*
X0133934Y0035871D02*
X0176361Y0035871D01*
X0175575Y0035085D02*
X0133148Y0035085D01*
X0132362Y0034299D02*
X0174789Y0034299D01*
X0174003Y0033513D02*
X0131576Y0033513D01*
X0130790Y0032727D02*
X0173217Y0032727D01*
X0172431Y0031941D02*
X0130004Y0031941D01*
X0158698Y0059448D02*
X0161500Y0059448D01*
X0161500Y0058662D02*
X0159484Y0058662D01*
X0160270Y0057877D02*
X0161534Y0057877D01*
X0161860Y0057091D02*
X0161056Y0057091D01*
X0161842Y0056305D02*
X0162185Y0056305D01*
X0168974Y0053161D02*
X0180000Y0053161D01*
X0180000Y0052375D02*
X0169872Y0052375D01*
X0170590Y0051589D02*
X0180000Y0051589D01*
X0180000Y0050803D02*
X0170916Y0050803D01*
X0171241Y0050017D02*
X0180000Y0050017D01*
X0180000Y0049231D02*
X0171287Y0049231D01*
X0171287Y0048446D02*
X0180000Y0048446D01*
X0180000Y0047660D02*
X0171163Y0047660D01*
X0170838Y0046874D02*
X0180000Y0046874D01*
X0180000Y0046088D02*
X0170469Y0046088D01*
X0169683Y0045302D02*
X0180000Y0045302D01*
X0180000Y0044516D02*
X0168518Y0044516D01*
X0173500Y0089313D02*
X0174287Y0089313D01*
X0174287Y0090099D02*
X0173500Y0090099D01*
X0173500Y0090885D02*
X0174287Y0090885D01*
X0174287Y0091671D02*
X0173500Y0091671D01*
X0173500Y0092457D02*
X0174287Y0092457D01*
X0174287Y0093243D02*
X0173500Y0093243D01*
X0176046Y0089313D02*
X0177400Y0089313D01*
X0177400Y0090099D02*
X0177263Y0090099D01*
X0177400Y0097958D02*
X0177020Y0097958D01*
X0172217Y0098744D02*
X0165067Y0098744D01*
X0166789Y0097958D02*
X0170768Y0097958D01*
X0169951Y0097172D02*
X0167575Y0097172D01*
X0168174Y0096386D02*
X0169427Y0096386D01*
X0169080Y0095600D02*
X0168500Y0095600D01*
X0168787Y0094814D02*
X0168876Y0094814D01*
X0173962Y0104245D02*
X0163356Y0104245D01*
X0163356Y0104227D02*
X0163356Y0107185D01*
X0163261Y0107540D01*
X0163077Y0107857D01*
X0162818Y0108117D01*
X0162500Y0108300D01*
X0162146Y0108395D01*
X0159187Y0108395D01*
X0159187Y0104227D01*
X0163356Y0104227D01*
X0163356Y0105031D02*
X0173176Y0105031D01*
X0172390Y0105817D02*
X0163356Y0105817D01*
X0163356Y0106603D02*
X0171604Y0106603D01*
X0170818Y0107389D02*
X0163301Y0107389D01*
X0162717Y0108175D02*
X0170032Y0108175D01*
X0167749Y0115248D02*
X0180000Y0115248D01*
X0180000Y0116034D02*
X0151688Y0116034D01*
X0151498Y0116820D02*
X0150902Y0116820D01*
X0151248Y0116923D02*
X0149984Y0118188D01*
X0149300Y0119839D01*
X0149300Y0121627D01*
X0149984Y0123279D01*
X0151248Y0124543D01*
X0152900Y0125227D01*
X0154688Y0125227D01*
X0156339Y0124543D01*
X0157603Y0123279D01*
X0158287Y0121627D01*
X0158287Y0119839D01*
X0157603Y0118188D01*
X0156339Y0116923D01*
X0154688Y0116239D01*
X0152900Y0116239D01*
X0151248Y0116923D01*
X0150566Y0117606D02*
X0150116Y0117606D01*
X0149900Y0118392D02*
X0149330Y0118392D01*
X0149574Y0119178D02*
X0148544Y0119178D01*
X0148287Y0119964D02*
X0149300Y0119964D01*
X0149300Y0120750D02*
X0148287Y0120750D01*
X0148287Y0121535D02*
X0149300Y0121535D01*
X0149588Y0122321D02*
X0148000Y0122321D01*
X0147674Y0123107D02*
X0149913Y0123107D01*
X0150599Y0123893D02*
X0146989Y0123893D01*
X0146010Y0124679D02*
X0151578Y0124679D01*
X0156010Y0124679D02*
X0161578Y0124679D01*
X0161248Y0124543D02*
X0159984Y0123279D01*
X0159300Y0121627D01*
X0159300Y0119839D01*
X0159984Y0118188D01*
X0161248Y0116923D01*
X0162900Y0116239D01*
X0164688Y0116239D01*
X0166339Y0116923D01*
X0167603Y0118188D01*
X0168287Y0119839D01*
X0168287Y0121627D01*
X0167603Y0123279D01*
X0166339Y0124543D01*
X0164688Y0125227D01*
X0162900Y0125227D01*
X0161248Y0124543D01*
X0160599Y0123893D02*
X0156989Y0123893D01*
X0157674Y0123107D02*
X0159913Y0123107D01*
X0159588Y0122321D02*
X0158000Y0122321D01*
X0158287Y0121535D02*
X0159300Y0121535D01*
X0159300Y0120750D02*
X0158287Y0120750D01*
X0158287Y0119964D02*
X0159300Y0119964D01*
X0159574Y0119178D02*
X0158013Y0119178D01*
X0157688Y0118392D02*
X0159900Y0118392D01*
X0160566Y0117606D02*
X0157022Y0117606D01*
X0156089Y0116820D02*
X0161498Y0116820D01*
X0166089Y0116820D02*
X0180000Y0116820D01*
X0180000Y0117606D02*
X0167022Y0117606D01*
X0167688Y0118392D02*
X0180000Y0118392D01*
X0180000Y0119178D02*
X0168013Y0119178D01*
X0168287Y0119964D02*
X0180000Y0119964D01*
X0180000Y0120750D02*
X0168287Y0120750D01*
X0168287Y0121535D02*
X0180000Y0121535D01*
X0180000Y0122321D02*
X0168000Y0122321D01*
X0167674Y0123107D02*
X0180000Y0123107D01*
X0180000Y0123893D02*
X0166989Y0123893D01*
X0166010Y0124679D02*
X0180000Y0124679D01*
X0180000Y0125465D02*
X0140921Y0125465D01*
X0140387Y0124679D02*
X0141578Y0124679D01*
X0140599Y0123893D02*
X0140387Y0123893D01*
X0141707Y0126251D02*
X0180000Y0126251D01*
X0180000Y0127037D02*
X0142493Y0127037D01*
X0143279Y0127823D02*
X0180000Y0127823D01*
X0180000Y0128609D02*
X0144065Y0128609D01*
X0144850Y0129395D02*
X0180000Y0129395D01*
X0180000Y0130181D02*
X0145636Y0130181D01*
X0146422Y0130966D02*
X0180000Y0130966D01*
X0180000Y0131752D02*
X0147208Y0131752D01*
X0147994Y0132538D02*
X0180000Y0132538D01*
X0180000Y0133324D02*
X0148780Y0133324D01*
X0149566Y0134110D02*
X0180000Y0134110D01*
X0180000Y0134896D02*
X0150352Y0134896D01*
X0151138Y0135682D02*
X0180000Y0135682D01*
X0180000Y0136468D02*
X0151924Y0136468D01*
X0152710Y0137254D02*
X0180000Y0137254D01*
X0180000Y0138040D02*
X0153496Y0138040D01*
X0154281Y0138826D02*
X0180000Y0138826D01*
X0180000Y0139611D02*
X0155067Y0139611D01*
X0155853Y0140397D02*
X0180000Y0140397D01*
X0180000Y0141183D02*
X0156639Y0141183D01*
X0157425Y0141969D02*
X0180000Y0141969D01*
X0180000Y0142755D02*
X0158211Y0142755D01*
X0158997Y0143541D02*
X0180000Y0143541D01*
X0180000Y0144327D02*
X0159783Y0144327D01*
X0160569Y0145113D02*
X0180000Y0145113D01*
X0180000Y0145899D02*
X0161355Y0145899D01*
X0158922Y0148257D02*
X0157632Y0148257D01*
X0157603Y0148188D02*
X0158287Y0149839D01*
X0158287Y0151627D01*
X0157603Y0153279D01*
X0156339Y0154543D01*
X0154688Y0155227D01*
X0152900Y0155227D01*
X0151248Y0154543D01*
X0149984Y0153279D01*
X0149300Y0151627D01*
X0149300Y0149839D01*
X0149984Y0148188D01*
X0151248Y0146923D01*
X0152900Y0146239D01*
X0154688Y0146239D01*
X0156339Y0146923D01*
X0157603Y0148188D01*
X0158136Y0147471D02*
X0156886Y0147471D01*
X0157350Y0146685D02*
X0155763Y0146685D01*
X0156564Y0145899D02*
X0134849Y0145899D01*
X0134063Y0145113D02*
X0155778Y0145113D01*
X0154992Y0144327D02*
X0133277Y0144327D01*
X0132492Y0143541D02*
X0154206Y0143541D01*
X0153421Y0142755D02*
X0131706Y0142755D01*
X0130920Y0141969D02*
X0152635Y0141969D01*
X0151849Y0141183D02*
X0130134Y0141183D01*
X0129348Y0140397D02*
X0151063Y0140397D01*
X0150277Y0139611D02*
X0128562Y0139611D01*
X0127776Y0138826D02*
X0149491Y0138826D01*
X0148705Y0138040D02*
X0126990Y0138040D01*
X0126204Y0137254D02*
X0147919Y0137254D01*
X0147133Y0136468D02*
X0125418Y0136468D01*
X0124632Y0135682D02*
X0146347Y0135682D01*
X0145561Y0134896D02*
X0123846Y0134896D01*
X0123061Y0134110D02*
X0144775Y0134110D01*
X0143990Y0133324D02*
X0122275Y0133324D01*
X0121489Y0132538D02*
X0143204Y0132538D01*
X0142418Y0131752D02*
X0120703Y0131752D01*
X0119917Y0130966D02*
X0141632Y0130966D01*
X0140846Y0130181D02*
X0119131Y0130181D01*
X0118345Y0129395D02*
X0140060Y0129395D01*
X0139274Y0128609D02*
X0117559Y0128609D01*
X0116773Y0127823D02*
X0138488Y0127823D01*
X0137702Y0127037D02*
X0115987Y0127037D01*
X0115201Y0126251D02*
X0137000Y0126251D01*
X0137000Y0125465D02*
X0114416Y0125465D01*
X0116010Y0124679D02*
X0121240Y0124679D01*
X0121334Y0124747D02*
X0120736Y0124313D01*
X0120214Y0123791D01*
X0119779Y0123193D01*
X0119444Y0122535D01*
X0119216Y0121832D01*
X0119104Y0121127D01*
X0123400Y0121127D01*
X0123400Y0125423D01*
X0122695Y0125311D01*
X0121992Y0125083D01*
X0121334Y0124747D01*
X0120316Y0123893D02*
X0116989Y0123893D01*
X0117674Y0123107D02*
X0119736Y0123107D01*
X0119375Y0122321D02*
X0118000Y0122321D01*
X0118287Y0121535D02*
X0119169Y0121535D01*
X0118287Y0120750D02*
X0123400Y0120750D01*
X0123400Y0121127D02*
X0123400Y0120339D01*
X0124187Y0120339D01*
X0124187Y0116043D01*
X0124893Y0116155D01*
X0125595Y0116383D01*
X0126254Y0116719D01*
X0126851Y0117153D01*
X0127374Y0117675D01*
X0127808Y0118273D01*
X0128144Y0118931D01*
X0128372Y0119634D01*
X0128484Y0120339D01*
X0124187Y0120339D01*
X0124187Y0121127D01*
X0123400Y0121127D01*
X0123400Y0121535D02*
X0124187Y0121535D01*
X0124187Y0121127D02*
X0124187Y0125423D01*
X0124893Y0125311D01*
X0125595Y0125083D01*
X0126254Y0124747D01*
X0126851Y0124313D01*
X0127374Y0123791D01*
X0127808Y0123193D01*
X0128144Y0122535D01*
X0128372Y0121832D01*
X0128484Y0121127D01*
X0124187Y0121127D01*
X0124187Y0120750D02*
X0129300Y0120750D01*
X0129300Y0121535D02*
X0128419Y0121535D01*
X0128213Y0122321D02*
X0129588Y0122321D01*
X0129913Y0123107D02*
X0127852Y0123107D01*
X0127271Y0123893D02*
X0130599Y0123893D01*
X0131578Y0124679D02*
X0126348Y0124679D01*
X0124187Y0124679D02*
X0123400Y0124679D01*
X0123400Y0123893D02*
X0124187Y0123893D01*
X0124187Y0123107D02*
X0123400Y0123107D01*
X0123400Y0122321D02*
X0124187Y0122321D01*
X0123400Y0120339D02*
X0119104Y0120339D01*
X0119216Y0119634D01*
X0119444Y0118931D01*
X0119779Y0118273D01*
X0120214Y0117675D01*
X0120736Y0117153D01*
X0121334Y0116719D01*
X0121992Y0116383D01*
X0122695Y0116155D01*
X0123400Y0116043D01*
X0123400Y0120339D01*
X0123400Y0119964D02*
X0124187Y0119964D01*
X0124187Y0119178D02*
X0123400Y0119178D01*
X0123400Y0118392D02*
X0124187Y0118392D01*
X0124187Y0117606D02*
X0123400Y0117606D01*
X0123400Y0116820D02*
X0124187Y0116820D01*
X0126393Y0116820D02*
X0131498Y0116820D01*
X0130566Y0117606D02*
X0127304Y0117606D01*
X0127869Y0118392D02*
X0129900Y0118392D01*
X0129574Y0119178D02*
X0128224Y0119178D01*
X0128424Y0119964D02*
X0129300Y0119964D01*
X0136010Y0124679D02*
X0137000Y0124679D01*
X0136989Y0123893D02*
X0137000Y0123893D01*
X0140387Y0113676D02*
X0142298Y0113676D01*
X0140401Y0112890D02*
X0140387Y0112890D01*
X0146089Y0116820D02*
X0146112Y0116820D01*
X0148893Y0113676D02*
X0149255Y0113676D01*
X0149179Y0112890D02*
X0150041Y0112890D01*
X0158400Y0108175D02*
X0159187Y0108175D01*
X0159187Y0107389D02*
X0158400Y0107389D01*
X0158400Y0106603D02*
X0159187Y0106603D01*
X0159187Y0105817D02*
X0158400Y0105817D01*
X0158400Y0105031D02*
X0159187Y0105031D01*
X0159187Y0104245D02*
X0158400Y0104245D01*
X0158400Y0101888D02*
X0159187Y0101888D01*
X0159187Y0101102D02*
X0158400Y0101102D01*
X0158400Y0100316D02*
X0159187Y0100316D01*
X0159187Y0099530D02*
X0158400Y0099530D01*
X0130059Y0145899D02*
X0129777Y0145899D01*
X0129273Y0145113D02*
X0128991Y0145113D01*
X0128487Y0144327D02*
X0128205Y0144327D01*
X0127701Y0143541D02*
X0127419Y0143541D01*
X0126915Y0142755D02*
X0126634Y0142755D01*
X0126129Y0141969D02*
X0125848Y0141969D01*
X0125343Y0141183D02*
X0125062Y0141183D01*
X0124557Y0140397D02*
X0087325Y0140397D01*
X0088111Y0139611D02*
X0123771Y0139611D01*
X0122986Y0138826D02*
X0088896Y0138826D01*
X0089682Y0138040D02*
X0122200Y0138040D01*
X0121414Y0137254D02*
X0090468Y0137254D01*
X0090587Y0136468D02*
X0120628Y0136468D01*
X0119842Y0135682D02*
X0090587Y0135682D01*
X0090587Y0134896D02*
X0119056Y0134896D01*
X0118270Y0134110D02*
X0090587Y0134110D01*
X0090587Y0133324D02*
X0117484Y0133324D01*
X0116698Y0132538D02*
X0090587Y0132538D01*
X0090587Y0131752D02*
X0115912Y0131752D01*
X0115126Y0130966D02*
X0090587Y0130966D01*
X0090587Y0130181D02*
X0114341Y0130181D01*
X0113555Y0129395D02*
X0090587Y0129395D01*
X0090587Y0128609D02*
X0112769Y0128609D01*
X0111983Y0127823D02*
X0090587Y0127823D01*
X0090587Y0127037D02*
X0111197Y0127037D01*
X0110411Y0126251D02*
X0090587Y0126251D01*
X0090587Y0125465D02*
X0109625Y0125465D01*
X0108839Y0124679D02*
X0106010Y0124679D01*
X0106989Y0123893D02*
X0108053Y0123893D01*
X0107200Y0117606D02*
X0107022Y0117606D01*
X0107200Y0116820D02*
X0106089Y0116820D01*
X0107200Y0116034D02*
X0090587Y0116034D01*
X0090587Y0115248D02*
X0107200Y0115248D01*
X0107200Y0114462D02*
X0090587Y0114462D01*
X0090587Y0113676D02*
X0107200Y0113676D01*
X0107200Y0112890D02*
X0090587Y0112890D01*
X0090587Y0112105D02*
X0107200Y0112105D01*
X0107200Y0111319D02*
X0090587Y0111319D01*
X0090587Y0110533D02*
X0107399Y0110533D01*
X0108185Y0109747D02*
X0090587Y0109747D01*
X0090587Y0116820D02*
X0091498Y0116820D01*
X0087200Y0116820D02*
X0086089Y0116820D01*
X0087022Y0117606D02*
X0087200Y0117606D01*
X0090587Y0123893D02*
X0090599Y0123893D01*
X0090587Y0124679D02*
X0091578Y0124679D01*
X0096010Y0124679D02*
X0101578Y0124679D01*
X0100599Y0123893D02*
X0096989Y0123893D01*
X0097674Y0123107D02*
X0099913Y0123107D01*
X0099588Y0122321D02*
X0098000Y0122321D01*
X0098287Y0121535D02*
X0099300Y0121535D01*
X0099300Y0120750D02*
X0098287Y0120750D01*
X0098287Y0119964D02*
X0099300Y0119964D01*
X0099574Y0119178D02*
X0098013Y0119178D01*
X0097688Y0118392D02*
X0099900Y0118392D01*
X0100566Y0117606D02*
X0097022Y0117606D01*
X0096089Y0116820D02*
X0101498Y0116820D01*
X0099237Y0108175D02*
X0098450Y0108175D01*
X0098450Y0107389D02*
X0099237Y0107389D01*
X0099237Y0106603D02*
X0098450Y0106603D01*
X0098450Y0105817D02*
X0099237Y0105817D01*
X0099237Y0105031D02*
X0098450Y0105031D01*
X0098450Y0104245D02*
X0090984Y0104245D01*
X0094128Y0101102D02*
X0094281Y0101102D01*
X0098450Y0101102D02*
X0099237Y0101102D01*
X0099237Y0101888D02*
X0098450Y0101888D01*
X0098450Y0102674D02*
X0099237Y0102674D01*
X0099237Y0103459D02*
X0098450Y0103459D01*
X0099237Y0104245D02*
X0113686Y0104245D01*
X0116089Y0116820D02*
X0121194Y0116820D01*
X0120283Y0117606D02*
X0117022Y0117606D01*
X0117688Y0118392D02*
X0119719Y0118392D01*
X0119364Y0119178D02*
X0118013Y0119178D01*
X0118287Y0119964D02*
X0119163Y0119964D01*
X0123415Y0144327D02*
X0107605Y0144327D01*
X0108391Y0145113D02*
X0124201Y0145113D01*
X0124987Y0145899D02*
X0109177Y0145899D01*
X0109963Y0146685D02*
X0111825Y0146685D01*
X0110701Y0147471D02*
X0110687Y0147471D01*
X0115763Y0146685D02*
X0121825Y0146685D01*
X0120701Y0147471D02*
X0116886Y0147471D01*
X0117632Y0148257D02*
X0119956Y0148257D01*
X0119630Y0149042D02*
X0117957Y0149042D01*
X0118283Y0149828D02*
X0119304Y0149828D01*
X0119300Y0150614D02*
X0118287Y0150614D01*
X0118287Y0151400D02*
X0119300Y0151400D01*
X0119532Y0152186D02*
X0118056Y0152186D01*
X0117730Y0152972D02*
X0119857Y0152972D01*
X0120463Y0153758D02*
X0117124Y0153758D01*
X0116336Y0154544D02*
X0121251Y0154544D01*
X0124019Y0159259D02*
X0110687Y0159259D01*
X0110687Y0158473D02*
X0125704Y0158473D01*
X0126035Y0158319D02*
X0129144Y0159451D01*
X0130543Y0162449D01*
X0129411Y0165558D01*
X0126413Y0166956D01*
X0123304Y0165825D01*
X0121905Y0162826D01*
X0123037Y0159717D01*
X0126035Y0158319D01*
X0126459Y0158473D02*
X0128539Y0158473D01*
X0128619Y0159259D02*
X0129325Y0159259D01*
X0129422Y0160045D02*
X0130111Y0160045D01*
X0129788Y0160831D02*
X0130897Y0160831D01*
X0130155Y0161617D02*
X0131682Y0161617D01*
X0132468Y0162403D02*
X0130521Y0162403D01*
X0130273Y0163189D02*
X0155002Y0163189D01*
X0155787Y0163975D02*
X0129987Y0163975D01*
X0129701Y0164761D02*
X0156573Y0164761D01*
X0161214Y0164761D02*
X0180000Y0164761D01*
X0180000Y0165547D02*
X0129415Y0165547D01*
X0127750Y0166333D02*
X0180000Y0166333D01*
X0180000Y0167118D02*
X0112574Y0167118D01*
X0111788Y0166333D02*
X0124699Y0166333D01*
X0123174Y0165547D02*
X0111002Y0165547D01*
X0110687Y0164761D02*
X0122807Y0164761D01*
X0122441Y0163975D02*
X0110687Y0163975D01*
X0110687Y0163189D02*
X0122074Y0163189D01*
X0122059Y0162403D02*
X0110687Y0162403D01*
X0110687Y0161617D02*
X0122345Y0161617D01*
X0122632Y0160831D02*
X0110687Y0160831D01*
X0110687Y0160045D02*
X0122918Y0160045D01*
X0127100Y0156902D02*
X0110687Y0156902D01*
X0110687Y0157687D02*
X0127753Y0157687D01*
X0127100Y0156116D02*
X0110687Y0156116D01*
X0110687Y0155330D02*
X0127100Y0155330D01*
X0127100Y0154544D02*
X0126336Y0154544D01*
X0130487Y0154544D02*
X0131251Y0154544D01*
X0130487Y0155330D02*
X0180000Y0155330D01*
X0180000Y0156116D02*
X0130972Y0156116D01*
X0131757Y0156902D02*
X0180000Y0156902D01*
X0180000Y0157687D02*
X0160796Y0157687D01*
X0161582Y0158473D02*
X0180000Y0158473D01*
X0180000Y0159259D02*
X0162368Y0159259D01*
X0162887Y0160045D02*
X0180000Y0160045D01*
X0180000Y0160831D02*
X0162887Y0160831D01*
X0162887Y0161617D02*
X0180000Y0161617D01*
X0180000Y0162403D02*
X0162887Y0162403D01*
X0162786Y0163189D02*
X0180000Y0163189D01*
X0180000Y0163975D02*
X0162000Y0163975D01*
X0161251Y0154544D02*
X0156336Y0154544D01*
X0157124Y0153758D02*
X0160463Y0153758D01*
X0159857Y0152972D02*
X0157730Y0152972D01*
X0158056Y0152186D02*
X0159532Y0152186D01*
X0159300Y0151400D02*
X0158287Y0151400D01*
X0158287Y0150614D02*
X0159300Y0150614D01*
X0159304Y0149828D02*
X0158283Y0149828D01*
X0157957Y0149042D02*
X0159630Y0149042D01*
X0165763Y0146685D02*
X0180000Y0146685D01*
X0180000Y0147471D02*
X0166886Y0147471D01*
X0167632Y0148257D02*
X0180000Y0148257D01*
X0180000Y0149042D02*
X0167957Y0149042D01*
X0168283Y0149828D02*
X0180000Y0149828D01*
X0180000Y0150614D02*
X0168287Y0150614D01*
X0168287Y0151400D02*
X0180000Y0151400D01*
X0180000Y0152186D02*
X0168056Y0152186D01*
X0167730Y0152972D02*
X0180000Y0152972D01*
X0180000Y0153758D02*
X0167124Y0153758D01*
X0166336Y0154544D02*
X0180000Y0154544D01*
X0180000Y0167904D02*
X0113360Y0167904D01*
X0114146Y0168690D02*
X0180000Y0168690D01*
X0180000Y0169476D02*
X0114932Y0169476D01*
X0115718Y0170262D02*
X0180000Y0170262D01*
X0180000Y0171048D02*
X0116504Y0171048D01*
X0117290Y0171834D02*
X0180000Y0171834D01*
X0180000Y0172620D02*
X0118076Y0172620D01*
X0118862Y0173406D02*
X0180000Y0173406D01*
X0180000Y0174192D02*
X0119648Y0174192D01*
X0120433Y0174978D02*
X0180000Y0174978D01*
X0180000Y0175763D02*
X0121219Y0175763D01*
X0122005Y0176549D02*
X0180000Y0176549D01*
X0180000Y0177335D02*
X0122791Y0177335D01*
X0123577Y0178121D02*
X0180000Y0178121D01*
X0180000Y0178907D02*
X0124363Y0178907D01*
X0125149Y0179693D02*
X0180000Y0179693D01*
X0180000Y0180479D02*
X0125935Y0180479D01*
X0126721Y0181265D02*
X0180000Y0181265D01*
X0180000Y0182051D02*
X0127507Y0182051D01*
X0128293Y0182837D02*
X0180000Y0182837D01*
X0180000Y0183623D02*
X0129078Y0183623D01*
X0129864Y0184409D02*
X0180000Y0184409D01*
X0180000Y0185194D02*
X0130650Y0185194D01*
X0131436Y0185980D02*
X0180000Y0185980D01*
X0180000Y0186766D02*
X0132222Y0186766D01*
X0133008Y0187552D02*
X0157127Y0187552D01*
X0157239Y0187439D02*
X0154900Y0189779D01*
X0154900Y0193087D01*
X0157168Y0195356D01*
X0157135Y0199471D01*
X0155131Y0199471D01*
X0154431Y0200170D01*
X0154431Y0207496D01*
X0155131Y0208195D01*
X0162457Y0208195D01*
X0163156Y0207496D01*
X0163156Y0200170D01*
X0162457Y0199471D01*
X0160523Y0199471D01*
X0160555Y0195419D01*
X0162887Y0193087D01*
X0162887Y0189779D01*
X0160548Y0187439D01*
X0157239Y0187439D01*
X0156341Y0188338D02*
X0133794Y0188338D01*
X0134387Y0189124D02*
X0155555Y0189124D01*
X0154900Y0189910D02*
X0134387Y0189910D01*
X0134387Y0190696D02*
X0154900Y0190696D01*
X0154900Y0191482D02*
X0134387Y0191482D01*
X0134387Y0192268D02*
X0154900Y0192268D01*
X0154900Y0193054D02*
X0134387Y0193054D01*
X0134387Y0193839D02*
X0155652Y0193839D01*
X0156438Y0194625D02*
X0134387Y0194625D01*
X0134387Y0195411D02*
X0157168Y0195411D01*
X0157162Y0196197D02*
X0134387Y0196197D01*
X0134387Y0196983D02*
X0157155Y0196983D01*
X0157149Y0197769D02*
X0134387Y0197769D01*
X0134387Y0198555D02*
X0157143Y0198555D01*
X0157136Y0199341D02*
X0134387Y0199341D01*
X0134387Y0200127D02*
X0154475Y0200127D01*
X0154431Y0200913D02*
X0134387Y0200913D01*
X0134387Y0201699D02*
X0154431Y0201699D01*
X0154431Y0202485D02*
X0134387Y0202485D01*
X0134387Y0203270D02*
X0154431Y0203270D01*
X0154431Y0204056D02*
X0134387Y0204056D01*
X0134387Y0204842D02*
X0154431Y0204842D01*
X0154431Y0205628D02*
X0134387Y0205628D01*
X0134387Y0206414D02*
X0154431Y0206414D01*
X0154431Y0207200D02*
X0134387Y0207200D01*
X0134387Y0207986D02*
X0154921Y0207986D01*
X0152968Y0209699D02*
X0153227Y0209959D01*
X0153411Y0210277D01*
X0153506Y0210631D01*
X0153506Y0213589D01*
X0149337Y0213589D01*
X0149337Y0209421D01*
X0152296Y0209421D01*
X0152650Y0209516D01*
X0152968Y0209699D01*
X0152723Y0209558D02*
X0166727Y0209558D01*
X0165973Y0210311D02*
X0167772Y0208513D01*
X0170122Y0207539D01*
X0172665Y0207539D01*
X0175015Y0208513D01*
X0176814Y0210311D01*
X0177787Y0212661D01*
X0177787Y0215205D01*
X0176814Y0217555D01*
X0175015Y0219353D01*
X0172665Y0220327D01*
X0170122Y0220327D01*
X0167772Y0219353D01*
X0165973Y0217555D01*
X0165000Y0215205D01*
X0165000Y0212661D01*
X0165973Y0210311D01*
X0165960Y0210344D02*
X0153429Y0210344D01*
X0153506Y0211130D02*
X0165634Y0211130D01*
X0165309Y0211915D02*
X0153506Y0211915D01*
X0153506Y0212701D02*
X0165000Y0212701D01*
X0165000Y0213487D02*
X0153506Y0213487D01*
X0153506Y0214377D02*
X0153506Y0217335D01*
X0153411Y0217690D01*
X0153227Y0218007D01*
X0152968Y0218267D01*
X0152650Y0218450D01*
X0152296Y0218545D01*
X0149337Y0218545D01*
X0149337Y0214377D01*
X0148550Y0214377D01*
X0148550Y0218545D01*
X0145592Y0218545D01*
X0145237Y0218450D01*
X0144919Y0218267D01*
X0144660Y0218007D01*
X0144476Y0217690D01*
X0144381Y0217335D01*
X0144381Y0214377D01*
X0148550Y0214377D01*
X0148550Y0213589D01*
X0149337Y0213589D01*
X0149337Y0214377D01*
X0153506Y0214377D01*
X0153506Y0215059D02*
X0165000Y0215059D01*
X0165000Y0214273D02*
X0149337Y0214273D01*
X0149337Y0213487D02*
X0148550Y0213487D01*
X0148550Y0213589D02*
X0148550Y0209421D01*
X0145592Y0209421D01*
X0145237Y0209516D01*
X0144919Y0209699D01*
X0144660Y0209959D01*
X0144476Y0210277D01*
X0144381Y0210631D01*
X0144381Y0213589D01*
X0148550Y0213589D01*
X0148550Y0214273D02*
X0134387Y0214273D01*
X0134387Y0213487D02*
X0144381Y0213487D01*
X0144381Y0212701D02*
X0134387Y0212701D01*
X0134387Y0211915D02*
X0144381Y0211915D01*
X0144381Y0211130D02*
X0134387Y0211130D01*
X0134387Y0210344D02*
X0144459Y0210344D01*
X0145165Y0209558D02*
X0134387Y0209558D01*
X0134387Y0208772D02*
X0167513Y0208772D01*
X0169044Y0207986D02*
X0162666Y0207986D01*
X0163156Y0207200D02*
X0180000Y0207200D01*
X0180000Y0207986D02*
X0173744Y0207986D01*
X0175275Y0208772D02*
X0180000Y0208772D01*
X0180000Y0209558D02*
X0176060Y0209558D01*
X0176827Y0210344D02*
X0180000Y0210344D01*
X0180000Y0211130D02*
X0177153Y0211130D01*
X0177478Y0211915D02*
X0180000Y0211915D01*
X0180000Y0212701D02*
X0177787Y0212701D01*
X0177787Y0213487D02*
X0180000Y0213487D01*
X0180000Y0214273D02*
X0177787Y0214273D01*
X0177787Y0215059D02*
X0180000Y0215059D01*
X0180000Y0215845D02*
X0177522Y0215845D01*
X0177197Y0216631D02*
X0180000Y0216631D01*
X0180000Y0217417D02*
X0176871Y0217417D01*
X0176166Y0218203D02*
X0180000Y0218203D01*
X0180000Y0218989D02*
X0175380Y0218989D01*
X0173999Y0219775D02*
X0180000Y0219775D01*
X0180000Y0220561D02*
X0163450Y0220561D01*
X0163456Y0220581D02*
X0163456Y0223539D01*
X0159287Y0223539D01*
X0159287Y0219371D01*
X0162246Y0219371D01*
X0162600Y0219466D01*
X0162918Y0219649D01*
X0163177Y0219909D01*
X0163361Y0220227D01*
X0163456Y0220581D01*
X0163456Y0221346D02*
X0180000Y0221346D01*
X0180000Y0222132D02*
X0163456Y0222132D01*
X0163456Y0222918D02*
X0180000Y0222918D01*
X0180000Y0223704D02*
X0159287Y0223704D01*
X0159287Y0223539D02*
X0159287Y0224327D01*
X0158500Y0224327D01*
X0158500Y0228495D01*
X0155542Y0228495D01*
X0155187Y0228400D01*
X0154869Y0228217D01*
X0154610Y0227957D01*
X0154426Y0227640D01*
X0154331Y0227285D01*
X0154331Y0224327D01*
X0158500Y0224327D01*
X0158500Y0223539D01*
X0159287Y0223539D01*
X0159287Y0222918D02*
X0158500Y0222918D01*
X0158500Y0223539D02*
X0158500Y0219371D01*
X0155542Y0219371D01*
X0155187Y0219466D01*
X0154869Y0219649D01*
X0154610Y0219909D01*
X0154426Y0220227D01*
X0154331Y0220581D01*
X0154331Y0223539D01*
X0158500Y0223539D01*
X0158500Y0223704D02*
X0134387Y0223704D01*
X0134387Y0222918D02*
X0154331Y0222918D01*
X0154331Y0222132D02*
X0134387Y0222132D01*
X0134387Y0221346D02*
X0154331Y0221346D01*
X0154337Y0220561D02*
X0134387Y0220561D01*
X0134387Y0219775D02*
X0154744Y0219775D01*
X0153032Y0218203D02*
X0166621Y0218203D01*
X0165916Y0217417D02*
X0153484Y0217417D01*
X0153506Y0216631D02*
X0165591Y0216631D01*
X0165265Y0215845D02*
X0153506Y0215845D01*
X0149337Y0215845D02*
X0148550Y0215845D01*
X0148550Y0215059D02*
X0149337Y0215059D01*
X0149337Y0216631D02*
X0148550Y0216631D01*
X0148550Y0217417D02*
X0149337Y0217417D01*
X0149337Y0218203D02*
X0148550Y0218203D01*
X0148550Y0212701D02*
X0149337Y0212701D01*
X0149337Y0211915D02*
X0148550Y0211915D01*
X0148550Y0211130D02*
X0149337Y0211130D01*
X0149337Y0210344D02*
X0148550Y0210344D01*
X0148550Y0209558D02*
X0149337Y0209558D01*
X0144381Y0215059D02*
X0134387Y0215059D01*
X0134387Y0215845D02*
X0144381Y0215845D01*
X0144381Y0216631D02*
X0134387Y0216631D01*
X0134387Y0217417D02*
X0144403Y0217417D01*
X0144855Y0218203D02*
X0134387Y0218203D01*
X0134387Y0218989D02*
X0167407Y0218989D01*
X0168789Y0219775D02*
X0163043Y0219775D01*
X0163456Y0224327D02*
X0163456Y0227285D01*
X0163361Y0227640D01*
X0163177Y0227957D01*
X0162918Y0228217D01*
X0162600Y0228400D01*
X0162246Y0228495D01*
X0159287Y0228495D01*
X0159287Y0224327D01*
X0163456Y0224327D01*
X0163456Y0224490D02*
X0180000Y0224490D01*
X0180000Y0225276D02*
X0163456Y0225276D01*
X0163456Y0226062D02*
X0180000Y0226062D01*
X0180000Y0226848D02*
X0163456Y0226848D01*
X0163362Y0227634D02*
X0180000Y0227634D01*
X0180000Y0228420D02*
X0162528Y0228420D01*
X0159287Y0228420D02*
X0158500Y0228420D01*
X0158500Y0227634D02*
X0159287Y0227634D01*
X0159287Y0226848D02*
X0158500Y0226848D01*
X0158500Y0226062D02*
X0159287Y0226062D01*
X0159287Y0225276D02*
X0158500Y0225276D01*
X0158500Y0224490D02*
X0159287Y0224490D01*
X0159287Y0222132D02*
X0158500Y0222132D01*
X0158500Y0221346D02*
X0159287Y0221346D01*
X0159287Y0220561D02*
X0158500Y0220561D01*
X0158500Y0219775D02*
X0159287Y0219775D01*
X0154331Y0224490D02*
X0134387Y0224490D01*
X0134387Y0225276D02*
X0154331Y0225276D01*
X0154331Y0226062D02*
X0134387Y0226062D01*
X0134387Y0226848D02*
X0154331Y0226848D01*
X0154425Y0227634D02*
X0134387Y0227634D01*
X0134387Y0228420D02*
X0155259Y0228420D01*
X0163156Y0206414D02*
X0180000Y0206414D01*
X0180000Y0205628D02*
X0163156Y0205628D01*
X0163156Y0204842D02*
X0180000Y0204842D01*
X0180000Y0204056D02*
X0163156Y0204056D01*
X0163156Y0203270D02*
X0180000Y0203270D01*
X0180000Y0202485D02*
X0163156Y0202485D01*
X0163156Y0201699D02*
X0180000Y0201699D01*
X0180000Y0200913D02*
X0163156Y0200913D01*
X0163113Y0200127D02*
X0180000Y0200127D01*
X0180000Y0199341D02*
X0160524Y0199341D01*
X0160530Y0198555D02*
X0180000Y0198555D01*
X0180000Y0197769D02*
X0160536Y0197769D01*
X0160543Y0196983D02*
X0180000Y0196983D01*
X0180000Y0196197D02*
X0160549Y0196197D01*
X0160563Y0195411D02*
X0180000Y0195411D01*
X0180000Y0194625D02*
X0161349Y0194625D01*
X0162135Y0193839D02*
X0180000Y0193839D01*
X0180000Y0193054D02*
X0162887Y0193054D01*
X0162887Y0192268D02*
X0180000Y0192268D01*
X0180000Y0191482D02*
X0162887Y0191482D01*
X0162887Y0190696D02*
X0180000Y0190696D01*
X0180000Y0189910D02*
X0162887Y0189910D01*
X0162233Y0189124D02*
X0180000Y0189124D01*
X0180000Y0188338D02*
X0161447Y0188338D01*
X0160661Y0187552D02*
X0180000Y0187552D01*
X0155420Y0159259D02*
X0134115Y0159259D01*
X0133329Y0158473D02*
X0156205Y0158473D01*
X0156991Y0157687D02*
X0132543Y0157687D01*
X0136336Y0154544D02*
X0141251Y0154544D01*
X0141248Y0154543D02*
X0139984Y0153279D01*
X0139300Y0151627D01*
X0139300Y0149839D01*
X0139984Y0148188D01*
X0141248Y0146923D01*
X0142900Y0146239D01*
X0144688Y0146239D01*
X0146339Y0146923D01*
X0147603Y0148188D01*
X0148287Y0149839D01*
X0148287Y0151627D01*
X0147603Y0153279D01*
X0146339Y0154543D01*
X0144688Y0155227D01*
X0142900Y0155227D01*
X0141248Y0154543D01*
X0140463Y0153758D02*
X0137124Y0153758D01*
X0137730Y0152972D02*
X0139857Y0152972D01*
X0139532Y0152186D02*
X0138056Y0152186D01*
X0138287Y0151400D02*
X0139300Y0151400D01*
X0139300Y0150614D02*
X0138287Y0150614D01*
X0138283Y0149828D02*
X0139304Y0149828D01*
X0139630Y0149042D02*
X0137957Y0149042D01*
X0137632Y0148257D02*
X0139956Y0148257D01*
X0140701Y0147471D02*
X0136886Y0147471D01*
X0135763Y0146685D02*
X0141825Y0146685D01*
X0145763Y0146685D02*
X0151825Y0146685D01*
X0150701Y0147471D02*
X0146886Y0147471D01*
X0147632Y0148257D02*
X0149956Y0148257D01*
X0149630Y0149042D02*
X0147957Y0149042D01*
X0148283Y0149828D02*
X0149304Y0149828D01*
X0149300Y0150614D02*
X0148287Y0150614D01*
X0148287Y0151400D02*
X0149300Y0151400D01*
X0149532Y0152186D02*
X0148056Y0152186D01*
X0147730Y0152972D02*
X0149857Y0152972D01*
X0150463Y0153758D02*
X0147124Y0153758D01*
X0146336Y0154544D02*
X0151251Y0154544D01*
X0130701Y0147471D02*
X0130487Y0147471D01*
X0130487Y0146685D02*
X0130845Y0146685D01*
X0125773Y0146685D02*
X0125763Y0146685D01*
X0111713Y0171048D02*
X0106987Y0171048D01*
X0106987Y0170262D02*
X0110927Y0170262D01*
X0110142Y0169476D02*
X0106987Y0169476D01*
X0106987Y0168690D02*
X0109356Y0168690D01*
X0108570Y0167904D02*
X0106987Y0167904D01*
X0106987Y0167118D02*
X0107784Y0167118D01*
X0107300Y0166333D02*
X0106987Y0166333D01*
X0106987Y0165547D02*
X0107300Y0165547D01*
X0107300Y0164761D02*
X0106987Y0164761D01*
X0106987Y0163975D02*
X0107300Y0163975D01*
X0107300Y0163189D02*
X0106987Y0163189D01*
X0106987Y0162403D02*
X0107300Y0162403D01*
X0107300Y0161617D02*
X0106987Y0161617D01*
X0106987Y0160831D02*
X0107300Y0160831D01*
X0107300Y0160045D02*
X0106987Y0160045D01*
X0106987Y0159259D02*
X0107300Y0159259D01*
X0107300Y0158473D02*
X0106987Y0158473D01*
X0106987Y0157687D02*
X0107300Y0157687D01*
X0107300Y0156902D02*
X0106987Y0156902D01*
X0106987Y0156116D02*
X0107300Y0156116D01*
X0107300Y0155330D02*
X0106987Y0155330D01*
X0106987Y0154544D02*
X0107300Y0154544D01*
X0107300Y0153758D02*
X0107124Y0153758D01*
X0110687Y0154544D02*
X0111251Y0154544D01*
X0103600Y0155330D02*
X0100738Y0155330D01*
X0100648Y0155239D02*
X0102987Y0157579D01*
X0102987Y0160887D01*
X0100648Y0163227D01*
X0097339Y0163227D01*
X0095000Y0160887D01*
X0095000Y0157579D01*
X0097339Y0155239D01*
X0100648Y0155239D01*
X0101251Y0154544D02*
X0096336Y0154544D01*
X0097124Y0153758D02*
X0100463Y0153758D01*
X0099857Y0152972D02*
X0097730Y0152972D01*
X0098056Y0152186D02*
X0099532Y0152186D01*
X0099300Y0151400D02*
X0098287Y0151400D01*
X0098287Y0150614D02*
X0099300Y0150614D01*
X0099304Y0149828D02*
X0098283Y0149828D01*
X0097957Y0149042D02*
X0099630Y0149042D01*
X0099956Y0148257D02*
X0097632Y0148257D01*
X0098229Y0147471D02*
X0100701Y0147471D01*
X0096582Y0144327D02*
X0090872Y0144327D01*
X0090087Y0145113D02*
X0095796Y0145113D01*
X0095010Y0145899D02*
X0089301Y0145899D01*
X0088515Y0146685D02*
X0091825Y0146685D01*
X0090701Y0147471D02*
X0087729Y0147471D01*
X0087632Y0148257D02*
X0089956Y0148257D01*
X0089630Y0149042D02*
X0087957Y0149042D01*
X0088283Y0149828D02*
X0089304Y0149828D01*
X0089300Y0150614D02*
X0088287Y0150614D01*
X0088287Y0151400D02*
X0089300Y0151400D01*
X0089532Y0152186D02*
X0088056Y0152186D01*
X0087730Y0152972D02*
X0089857Y0152972D01*
X0090463Y0153758D02*
X0087124Y0153758D01*
X0086336Y0154544D02*
X0091251Y0154544D01*
X0095000Y0157687D02*
X0070387Y0157687D01*
X0070387Y0156902D02*
X0095677Y0156902D01*
X0096463Y0156116D02*
X0070387Y0156116D01*
X0070387Y0155330D02*
X0097249Y0155330D01*
X0095000Y0158473D02*
X0070387Y0158473D01*
X0070387Y0154544D02*
X0071251Y0154544D01*
X0070464Y0153758D02*
X0070387Y0153758D01*
X0073139Y0159259D02*
X0095000Y0159259D01*
X0095000Y0160045D02*
X0074597Y0160045D01*
X0074883Y0160831D02*
X0095000Y0160831D01*
X0095730Y0161617D02*
X0075169Y0161617D01*
X0075455Y0162403D02*
X0096516Y0162403D01*
X0097302Y0163189D02*
X0075606Y0163189D01*
X0075240Y0163975D02*
X0103600Y0163975D01*
X0103600Y0164761D02*
X0074873Y0164761D01*
X0074507Y0165547D02*
X0103600Y0165547D01*
X0103600Y0166333D02*
X0073438Y0166333D01*
X0071279Y0167118D02*
X0103600Y0167118D01*
X0103600Y0167904D02*
X0069437Y0167904D01*
X0069763Y0167118D02*
X0071094Y0167118D01*
X0068909Y0168690D02*
X0103600Y0168690D01*
X0103600Y0169476D02*
X0068087Y0169476D01*
X0068087Y0170262D02*
X0103600Y0170262D01*
X0103600Y0171048D02*
X0068087Y0171048D01*
X0068087Y0171834D02*
X0103600Y0171834D01*
X0103600Y0172620D02*
X0068087Y0172620D01*
X0068087Y0173406D02*
X0103600Y0173406D01*
X0103600Y0174192D02*
X0068087Y0174192D01*
X0068087Y0174978D02*
X0103600Y0174978D01*
X0103600Y0175763D02*
X0068087Y0175763D01*
X0068087Y0176549D02*
X0103600Y0176549D01*
X0103600Y0177335D02*
X0068087Y0177335D01*
X0068087Y0178121D02*
X0103600Y0178121D01*
X0103600Y0178907D02*
X0068087Y0178907D01*
X0068087Y0179693D02*
X0103600Y0179693D01*
X0103600Y0180479D02*
X0068087Y0180479D01*
X0068087Y0181265D02*
X0103600Y0181265D01*
X0103600Y0182051D02*
X0068087Y0182051D01*
X0068087Y0182837D02*
X0103600Y0182837D01*
X0103600Y0183623D02*
X0068087Y0183623D01*
X0068087Y0184409D02*
X0103600Y0184409D01*
X0103600Y0185194D02*
X0068087Y0185194D01*
X0068087Y0185980D02*
X0096598Y0185980D01*
X0097339Y0185239D02*
X0100648Y0185239D01*
X0102987Y0187579D01*
X0102987Y0190887D01*
X0100648Y0193227D01*
X0100647Y0193227D01*
X0100582Y0199621D01*
X0102507Y0199621D01*
X0103206Y0200320D01*
X0103206Y0207646D01*
X0102507Y0208345D01*
X0095181Y0208345D01*
X0094481Y0207646D01*
X0094481Y0200320D01*
X0095181Y0199621D01*
X0097194Y0199621D01*
X0097260Y0193147D01*
X0095000Y0190887D01*
X0095000Y0187579D01*
X0097339Y0185239D01*
X0095813Y0186766D02*
X0081934Y0186766D01*
X0081813Y0186710D02*
X0084811Y0188108D01*
X0085943Y0191217D01*
X0084612Y0194070D01*
X0086617Y0199268D01*
X0088545Y0198566D01*
X0089441Y0198984D01*
X0091947Y0205868D01*
X0091529Y0206764D01*
X0084645Y0209270D01*
X0083748Y0208852D01*
X0081243Y0201968D01*
X0081661Y0201071D01*
X0083433Y0200426D01*
X0081469Y0195335D01*
X0081435Y0195347D01*
X0078437Y0193949D01*
X0077305Y0190840D01*
X0078704Y0187841D01*
X0081813Y0186710D01*
X0081658Y0186766D02*
X0068087Y0186766D01*
X0068087Y0187552D02*
X0079498Y0187552D01*
X0078472Y0188338D02*
X0068087Y0188338D01*
X0068087Y0189124D02*
X0078105Y0189124D01*
X0077739Y0189910D02*
X0068087Y0189910D01*
X0068087Y0190696D02*
X0077373Y0190696D01*
X0077539Y0191482D02*
X0068087Y0191482D01*
X0068087Y0192268D02*
X0077825Y0192268D01*
X0078111Y0193054D02*
X0068087Y0193054D01*
X0068087Y0193839D02*
X0078397Y0193839D01*
X0079888Y0194625D02*
X0068087Y0194625D01*
X0068087Y0195411D02*
X0081499Y0195411D01*
X0081802Y0196197D02*
X0068087Y0196197D01*
X0068087Y0196983D02*
X0082105Y0196983D01*
X0082408Y0197769D02*
X0068087Y0197769D01*
X0068087Y0198555D02*
X0082711Y0198555D01*
X0083014Y0199341D02*
X0068087Y0199341D01*
X0068087Y0200127D02*
X0083317Y0200127D01*
X0082097Y0200913D02*
X0068087Y0200913D01*
X0068087Y0201699D02*
X0081368Y0201699D01*
X0081431Y0202485D02*
X0068087Y0202485D01*
X0068087Y0203270D02*
X0081717Y0203270D01*
X0082003Y0204056D02*
X0068087Y0204056D01*
X0068087Y0204842D02*
X0082289Y0204842D01*
X0082575Y0205628D02*
X0068087Y0205628D01*
X0068087Y0206414D02*
X0082861Y0206414D01*
X0083147Y0207200D02*
X0068087Y0207200D01*
X0068087Y0207986D02*
X0083433Y0207986D01*
X0083719Y0208772D02*
X0068087Y0208772D01*
X0068087Y0209558D02*
X0103600Y0209558D01*
X0103600Y0210344D02*
X0093452Y0210344D01*
X0093048Y0209939D02*
X0095387Y0212279D01*
X0095387Y0215587D01*
X0093048Y0217927D01*
X0089739Y0217927D01*
X0087400Y0215587D01*
X0087400Y0212279D01*
X0089739Y0209939D01*
X0093048Y0209939D01*
X0094238Y0211130D02*
X0103600Y0211130D01*
X0103600Y0211915D02*
X0095024Y0211915D01*
X0095387Y0212701D02*
X0103600Y0212701D01*
X0103600Y0213487D02*
X0095387Y0213487D01*
X0095387Y0214273D02*
X0103600Y0214273D01*
X0103600Y0215059D02*
X0095387Y0215059D01*
X0095130Y0215845D02*
X0103600Y0215845D01*
X0103600Y0216631D02*
X0094344Y0216631D01*
X0093558Y0217417D02*
X0103600Y0217417D01*
X0103600Y0218203D02*
X0084866Y0218203D01*
X0085005Y0218215D02*
X0087785Y0219227D01*
X0086359Y0223144D01*
X0082442Y0221718D01*
X0083454Y0218938D01*
X0083665Y0218638D01*
X0083946Y0218402D01*
X0084278Y0218247D01*
X0084640Y0218183D01*
X0085005Y0218215D01*
X0084527Y0218203D02*
X0068087Y0218203D01*
X0068087Y0218989D02*
X0083436Y0218989D01*
X0083150Y0219775D02*
X0068087Y0219775D01*
X0068087Y0220561D02*
X0082864Y0220561D01*
X0082578Y0221346D02*
X0068087Y0221346D01*
X0068087Y0222132D02*
X0083580Y0222132D01*
X0083437Y0222918D02*
X0085740Y0222918D01*
X0086359Y0223144D02*
X0086090Y0223884D01*
X0084664Y0227801D01*
X0081884Y0226789D01*
X0081584Y0226579D01*
X0081348Y0226297D01*
X0081193Y0225965D01*
X0081129Y0225603D01*
X0081161Y0225238D01*
X0082173Y0222458D01*
X0086090Y0223884D01*
X0086830Y0224153D01*
X0090747Y0225579D01*
X0089735Y0228359D01*
X0089525Y0228659D01*
X0089244Y0228895D01*
X0088911Y0229050D01*
X0088550Y0229114D01*
X0088184Y0229082D01*
X0085404Y0228070D01*
X0086830Y0224153D01*
X0087099Y0223413D01*
X0088525Y0219496D01*
X0091305Y0220508D01*
X0091605Y0220718D01*
X0091841Y0220999D01*
X0091996Y0221332D01*
X0092060Y0221693D01*
X0092028Y0222059D01*
X0091016Y0224839D01*
X0087099Y0223413D01*
X0086359Y0223144D01*
X0086442Y0222918D02*
X0087279Y0222918D01*
X0087565Y0222132D02*
X0086728Y0222132D01*
X0087014Y0221346D02*
X0087851Y0221346D01*
X0088138Y0220561D02*
X0087300Y0220561D01*
X0087586Y0219775D02*
X0088424Y0219775D01*
X0089290Y0219775D02*
X0094694Y0219775D01*
X0094819Y0219649D02*
X0095137Y0219466D01*
X0095492Y0219371D01*
X0098450Y0219371D01*
X0098450Y0223539D01*
X0099237Y0223539D01*
X0099237Y0219371D01*
X0102196Y0219371D01*
X0102550Y0219466D01*
X0102868Y0219649D01*
X0103127Y0219909D01*
X0103311Y0220227D01*
X0103406Y0220581D01*
X0103406Y0223539D01*
X0099237Y0223539D01*
X0099237Y0224327D01*
X0098450Y0224327D01*
X0098450Y0228495D01*
X0095492Y0228495D01*
X0095137Y0228400D01*
X0094819Y0228217D01*
X0094560Y0227957D01*
X0094376Y0227640D01*
X0094281Y0227285D01*
X0094281Y0224327D01*
X0098450Y0224327D01*
X0098450Y0223539D01*
X0094281Y0223539D01*
X0094281Y0220581D01*
X0094376Y0220227D01*
X0094560Y0219909D01*
X0094819Y0219649D01*
X0094287Y0220561D02*
X0091380Y0220561D01*
X0091999Y0221346D02*
X0094281Y0221346D01*
X0094281Y0222132D02*
X0092002Y0222132D01*
X0091715Y0222918D02*
X0094281Y0222918D01*
X0094281Y0224490D02*
X0091143Y0224490D01*
X0091429Y0223704D02*
X0098450Y0223704D01*
X0098450Y0222918D02*
X0099237Y0222918D01*
X0099237Y0222132D02*
X0098450Y0222132D01*
X0098450Y0221346D02*
X0099237Y0221346D01*
X0099237Y0220561D02*
X0098450Y0220561D01*
X0098450Y0219775D02*
X0099237Y0219775D01*
X0099237Y0223704D02*
X0103600Y0223704D01*
X0103406Y0224327D02*
X0103406Y0227285D01*
X0103311Y0227640D01*
X0103127Y0227957D01*
X0102868Y0228217D01*
X0102550Y0228400D01*
X0102196Y0228495D01*
X0099237Y0228495D01*
X0099237Y0224327D01*
X0103406Y0224327D01*
X0103406Y0224490D02*
X0103600Y0224490D01*
X0103600Y0225276D02*
X0103406Y0225276D01*
X0103406Y0226062D02*
X0103600Y0226062D01*
X0103600Y0226848D02*
X0103406Y0226848D01*
X0103312Y0227634D02*
X0103600Y0227634D01*
X0103600Y0228420D02*
X0102478Y0228420D01*
X0103600Y0229206D02*
X0068394Y0229206D01*
X0069180Y0228420D02*
X0086364Y0228420D01*
X0085563Y0227634D02*
X0084725Y0227634D01*
X0084205Y0227634D02*
X0069549Y0227634D01*
X0069768Y0226848D02*
X0082046Y0226848D01*
X0081238Y0226062D02*
X0069768Y0226062D01*
X0069567Y0225276D02*
X0081158Y0225276D01*
X0081433Y0224490D02*
X0069223Y0224490D01*
X0068437Y0223704D02*
X0081719Y0223704D01*
X0082005Y0222918D02*
X0068087Y0222918D01*
X0064700Y0222918D02*
X0043456Y0222918D01*
X0043456Y0223589D02*
X0043456Y0220631D01*
X0043361Y0220277D01*
X0043177Y0219959D01*
X0042918Y0219699D01*
X0042600Y0219516D01*
X0042246Y0219421D01*
X0039287Y0219421D01*
X0039287Y0223589D01*
X0038500Y0223589D01*
X0038500Y0219421D01*
X0035542Y0219421D01*
X0035187Y0219516D01*
X0034869Y0219699D01*
X0034610Y0219959D01*
X0034426Y0220277D01*
X0034331Y0220631D01*
X0034331Y0223589D01*
X0038500Y0223589D01*
X0038500Y0224377D01*
X0038500Y0228545D01*
X0035542Y0228545D01*
X0035187Y0228450D01*
X0034869Y0228267D01*
X0034610Y0228007D01*
X0034426Y0227690D01*
X0034331Y0227335D01*
X0034331Y0224377D01*
X0038500Y0224377D01*
X0039287Y0224377D01*
X0039287Y0228545D01*
X0042246Y0228545D01*
X0042600Y0228450D01*
X0042918Y0228267D01*
X0043177Y0228007D01*
X0043361Y0227690D01*
X0043456Y0227335D01*
X0043456Y0224377D01*
X0039287Y0224377D01*
X0039287Y0223589D01*
X0043456Y0223589D01*
X0043456Y0224490D02*
X0063564Y0224490D01*
X0063220Y0225276D02*
X0043456Y0225276D01*
X0043456Y0226062D02*
X0063019Y0226062D01*
X0063019Y0226848D02*
X0043456Y0226848D01*
X0043376Y0227634D02*
X0063238Y0227634D01*
X0063608Y0228420D02*
X0042653Y0228420D01*
X0039287Y0228420D02*
X0038500Y0228420D01*
X0038500Y0227634D02*
X0039287Y0227634D01*
X0039287Y0226848D02*
X0038500Y0226848D01*
X0038500Y0226062D02*
X0039287Y0226062D01*
X0039287Y0225276D02*
X0038500Y0225276D01*
X0038500Y0224490D02*
X0039287Y0224490D01*
X0039287Y0223704D02*
X0064350Y0223704D01*
X0064700Y0222132D02*
X0043456Y0222132D01*
X0043456Y0221346D02*
X0064700Y0221346D01*
X0064700Y0220561D02*
X0043437Y0220561D01*
X0042993Y0219775D02*
X0064700Y0219775D01*
X0064700Y0218989D02*
X0030380Y0218989D01*
X0030015Y0219353D02*
X0031814Y0217555D01*
X0032787Y0215205D01*
X0032787Y0212661D01*
X0031814Y0210311D01*
X0030015Y0208513D01*
X0027665Y0207539D01*
X0025122Y0207539D01*
X0022772Y0208513D01*
X0020973Y0210311D01*
X0020000Y0212661D01*
X0020000Y0215205D01*
X0020973Y0217555D01*
X0022772Y0219353D01*
X0025122Y0220327D01*
X0027665Y0220327D01*
X0030015Y0219353D01*
X0028999Y0219775D02*
X0034794Y0219775D01*
X0034350Y0220561D02*
X0017787Y0220561D01*
X0017787Y0221346D02*
X0034331Y0221346D01*
X0034331Y0222132D02*
X0017787Y0222132D01*
X0017787Y0222918D02*
X0034331Y0222918D01*
X0034331Y0224490D02*
X0017787Y0224490D01*
X0017787Y0223704D02*
X0038500Y0223704D01*
X0038500Y0222918D02*
X0039287Y0222918D01*
X0039287Y0222132D02*
X0038500Y0222132D01*
X0038500Y0221346D02*
X0039287Y0221346D01*
X0039287Y0220561D02*
X0038500Y0220561D01*
X0038500Y0219775D02*
X0039287Y0219775D01*
X0044581Y0217417D02*
X0031871Y0217417D01*
X0032197Y0216631D02*
X0044581Y0216631D01*
X0044581Y0215845D02*
X0032522Y0215845D01*
X0032787Y0215059D02*
X0044581Y0215059D01*
X0044581Y0214273D02*
X0032787Y0214273D01*
X0032787Y0213487D02*
X0044581Y0213487D01*
X0044581Y0212701D02*
X0032787Y0212701D01*
X0032478Y0211915D02*
X0044581Y0211915D01*
X0044581Y0211130D02*
X0032153Y0211130D01*
X0031827Y0210344D02*
X0044581Y0210344D01*
X0042657Y0208295D02*
X0043356Y0207596D01*
X0043356Y0200270D01*
X0042657Y0199571D01*
X0040653Y0199571D01*
X0040619Y0195356D01*
X0042887Y0193087D01*
X0042887Y0189779D01*
X0040548Y0187439D01*
X0037239Y0187439D01*
X0034900Y0189779D01*
X0034900Y0193087D01*
X0037232Y0195419D01*
X0037265Y0199571D01*
X0035331Y0199571D01*
X0034631Y0200270D01*
X0034631Y0207596D01*
X0035331Y0208295D01*
X0042657Y0208295D01*
X0042966Y0207986D02*
X0064700Y0207986D01*
X0064700Y0208772D02*
X0030275Y0208772D01*
X0031060Y0209558D02*
X0064700Y0209558D01*
X0064700Y0210344D02*
X0063452Y0210344D01*
X0064238Y0211130D02*
X0064700Y0211130D01*
X0068087Y0211130D02*
X0088549Y0211130D01*
X0087763Y0211915D02*
X0068087Y0211915D01*
X0068087Y0212701D02*
X0087400Y0212701D01*
X0087400Y0213487D02*
X0068087Y0213487D01*
X0068087Y0214273D02*
X0087400Y0214273D01*
X0087400Y0215059D02*
X0068087Y0215059D01*
X0068087Y0215845D02*
X0087658Y0215845D01*
X0088444Y0216631D02*
X0068087Y0216631D01*
X0068087Y0217417D02*
X0089230Y0217417D01*
X0087131Y0218989D02*
X0103600Y0218989D01*
X0103600Y0219775D02*
X0102993Y0219775D01*
X0103400Y0220561D02*
X0103600Y0220561D01*
X0103600Y0221346D02*
X0103406Y0221346D01*
X0103406Y0222132D02*
X0103600Y0222132D01*
X0103600Y0222918D02*
X0103406Y0222918D01*
X0106987Y0225276D02*
X0107872Y0225276D01*
X0107729Y0224490D02*
X0110031Y0224490D01*
X0109889Y0223704D02*
X0110794Y0223704D01*
X0110957Y0224153D02*
X0107040Y0225579D01*
X0108052Y0228359D01*
X0108263Y0228659D01*
X0108544Y0228895D01*
X0108876Y0229050D01*
X0109238Y0229114D01*
X0109603Y0229082D01*
X0112383Y0228070D01*
X0110957Y0224153D01*
X0111080Y0224490D02*
X0111918Y0224490D01*
X0111697Y0223884D02*
X0113123Y0227801D01*
X0115903Y0226789D01*
X0116203Y0226579D01*
X0116439Y0226297D01*
X0116594Y0225965D01*
X0116658Y0225603D01*
X0116626Y0225238D01*
X0115614Y0222458D01*
X0111697Y0223884D01*
X0111632Y0223704D02*
X0112191Y0223704D01*
X0112048Y0222918D02*
X0114350Y0222918D01*
X0114207Y0222132D02*
X0128970Y0222132D01*
X0128970Y0221346D02*
X0115210Y0221346D01*
X0115345Y0221718D02*
X0111428Y0223144D01*
X0110002Y0219227D01*
X0112782Y0218215D01*
X0113148Y0218183D01*
X0113509Y0218247D01*
X0113842Y0218402D01*
X0114123Y0218638D01*
X0114333Y0218938D01*
X0115345Y0221718D01*
X0114924Y0220561D02*
X0128970Y0220561D01*
X0128970Y0219775D02*
X0114638Y0219775D01*
X0114352Y0218989D02*
X0128970Y0218989D01*
X0128970Y0218203D02*
X0113260Y0218203D01*
X0112921Y0218203D02*
X0106987Y0218203D01*
X0106987Y0218989D02*
X0110656Y0218989D01*
X0110202Y0219775D02*
X0109364Y0219775D01*
X0109650Y0220561D02*
X0110488Y0220561D01*
X0110774Y0221346D02*
X0109936Y0221346D01*
X0110222Y0222132D02*
X0111060Y0222132D01*
X0111346Y0222918D02*
X0110508Y0222918D01*
X0111366Y0225276D02*
X0112204Y0225276D01*
X0112490Y0226062D02*
X0111652Y0226062D01*
X0111938Y0226848D02*
X0112776Y0226848D01*
X0113062Y0227634D02*
X0112224Y0227634D01*
X0111423Y0228420D02*
X0128970Y0228420D01*
X0128970Y0229206D02*
X0106987Y0229206D01*
X0106987Y0229991D02*
X0128970Y0229991D01*
X0128970Y0230777D02*
X0106987Y0230777D01*
X0106987Y0231563D02*
X0128970Y0231563D01*
X0128970Y0232349D02*
X0106987Y0232349D01*
X0106987Y0233135D02*
X0128970Y0233135D01*
X0128970Y0233921D02*
X0106987Y0233921D01*
X0106987Y0234707D02*
X0128970Y0234707D01*
X0128970Y0235493D02*
X0106987Y0235493D01*
X0106443Y0236279D02*
X0128970Y0236279D01*
X0128970Y0237065D02*
X0105657Y0237065D01*
X0104871Y0237851D02*
X0128970Y0237851D01*
X0128970Y0238637D02*
X0104086Y0238637D01*
X0103300Y0239422D02*
X0128970Y0239422D01*
X0128970Y0240208D02*
X0102514Y0240208D01*
X0101728Y0240994D02*
X0128970Y0240994D01*
X0128970Y0241780D02*
X0100942Y0241780D01*
X0100156Y0242566D02*
X0128970Y0242566D01*
X0128970Y0243352D02*
X0099370Y0243352D01*
X0098584Y0244138D02*
X0128970Y0244138D01*
X0128970Y0244924D02*
X0097798Y0244924D01*
X0097012Y0245710D02*
X0128970Y0245710D01*
X0128970Y0246496D02*
X0096226Y0246496D01*
X0095440Y0247282D02*
X0128970Y0247282D01*
X0128970Y0248067D02*
X0094655Y0248067D01*
X0093869Y0248853D02*
X0128970Y0248853D01*
X0128970Y0249639D02*
X0093137Y0249639D01*
X0093137Y0250425D02*
X0128970Y0250425D01*
X0128970Y0251211D02*
X0093137Y0251211D01*
X0093137Y0251997D02*
X0128970Y0251997D01*
X0128970Y0252783D02*
X0093137Y0252783D01*
X0093137Y0253569D02*
X0128970Y0253569D01*
X0128970Y0254355D02*
X0093137Y0254355D01*
X0093137Y0255141D02*
X0128970Y0255141D01*
X0128970Y0255927D02*
X0093137Y0255927D01*
X0093137Y0256712D02*
X0128970Y0256712D01*
X0128970Y0257498D02*
X0093137Y0257498D01*
X0093137Y0258284D02*
X0128970Y0258284D01*
X0128970Y0259070D02*
X0093137Y0259070D01*
X0093137Y0259856D02*
X0128970Y0259856D01*
X0128970Y0260642D02*
X0093137Y0260642D01*
X0093137Y0261428D02*
X0128970Y0261428D01*
X0128970Y0262214D02*
X0093137Y0262214D01*
X0093137Y0263000D02*
X0128970Y0263000D01*
X0128970Y0263786D02*
X0093137Y0263786D01*
X0093137Y0264572D02*
X0128970Y0264572D01*
X0128970Y0265358D02*
X0093137Y0265358D01*
X0093137Y0266143D02*
X0128970Y0266143D01*
X0128970Y0266929D02*
X0093137Y0266929D01*
X0093137Y0267715D02*
X0128970Y0267715D01*
X0128970Y0268501D02*
X0093137Y0268501D01*
X0093137Y0269287D02*
X0128970Y0269287D01*
X0128970Y0270073D02*
X0093137Y0270073D01*
X0093137Y0270859D02*
X0128970Y0270859D01*
X0128970Y0271645D02*
X0093137Y0271645D01*
X0093137Y0272431D02*
X0128970Y0272431D01*
X0128970Y0273217D02*
X0093137Y0273217D01*
X0093137Y0274003D02*
X0128150Y0274003D01*
X0127446Y0274788D02*
X0093137Y0274788D01*
X0093137Y0275574D02*
X0096604Y0275574D01*
X0097239Y0274939D02*
X0100548Y0274939D01*
X0102887Y0277279D01*
X0102887Y0280587D01*
X0100548Y0282927D01*
X0097239Y0282927D01*
X0094900Y0280587D01*
X0094900Y0277279D01*
X0097239Y0274939D01*
X0095819Y0276360D02*
X0093137Y0276360D01*
X0093137Y0277146D02*
X0095033Y0277146D01*
X0094900Y0277932D02*
X0093137Y0277932D01*
X0093137Y0278718D02*
X0094900Y0278718D01*
X0094900Y0279504D02*
X0093137Y0279504D01*
X0093137Y0280290D02*
X0094900Y0280290D01*
X0095388Y0281076D02*
X0093137Y0281076D01*
X0093137Y0281862D02*
X0096174Y0281862D01*
X0096960Y0282648D02*
X0093137Y0282648D01*
X0093137Y0283434D02*
X0155246Y0283434D01*
X0154900Y0282648D02*
X0100827Y0282648D01*
X0101613Y0281862D02*
X0154900Y0281862D01*
X0154900Y0281076D02*
X0132070Y0281076D01*
X0133693Y0280290D02*
X0154900Y0280290D01*
X0154569Y0279504D02*
X0134060Y0279504D01*
X0134426Y0278718D02*
X0153783Y0278718D01*
X0152998Y0277932D02*
X0134793Y0277932D01*
X0134844Y0277146D02*
X0152212Y0277146D01*
X0151426Y0276360D02*
X0134558Y0276360D01*
X0134272Y0275574D02*
X0150640Y0275574D01*
X0149854Y0274788D02*
X0133986Y0274788D01*
X0132961Y0274003D02*
X0149068Y0274003D01*
X0148282Y0273217D02*
X0132357Y0273217D01*
X0132357Y0272431D02*
X0147496Y0272431D01*
X0146710Y0271645D02*
X0132357Y0271645D01*
X0132357Y0270859D02*
X0145924Y0270859D01*
X0145138Y0270073D02*
X0132357Y0270073D01*
X0132357Y0269287D02*
X0144352Y0269287D01*
X0143567Y0268501D02*
X0132357Y0268501D01*
X0132357Y0267715D02*
X0142781Y0267715D01*
X0141995Y0266929D02*
X0132357Y0266929D01*
X0132357Y0266143D02*
X0141209Y0266143D01*
X0140423Y0265358D02*
X0132357Y0265358D01*
X0132357Y0264572D02*
X0139637Y0264572D01*
X0138851Y0263786D02*
X0132357Y0263786D01*
X0132357Y0263000D02*
X0138065Y0263000D01*
X0137279Y0262214D02*
X0132357Y0262214D01*
X0132357Y0261428D02*
X0136493Y0261428D01*
X0135707Y0260642D02*
X0132357Y0260642D01*
X0132357Y0259856D02*
X0134922Y0259856D01*
X0134136Y0259070D02*
X0132357Y0259070D01*
X0132357Y0258284D02*
X0133350Y0258284D01*
X0132564Y0257498D02*
X0132357Y0257498D01*
X0134997Y0255141D02*
X0180000Y0255141D01*
X0180000Y0255927D02*
X0135782Y0255927D01*
X0136568Y0256712D02*
X0180000Y0256712D01*
X0180000Y0257498D02*
X0137354Y0257498D01*
X0138140Y0258284D02*
X0180000Y0258284D01*
X0180000Y0259070D02*
X0138926Y0259070D01*
X0139712Y0259856D02*
X0180000Y0259856D01*
X0180000Y0260642D02*
X0140498Y0260642D01*
X0141284Y0261428D02*
X0180000Y0261428D01*
X0180000Y0262214D02*
X0142070Y0262214D01*
X0142856Y0263000D02*
X0180000Y0263000D01*
X0180000Y0263786D02*
X0143642Y0263786D01*
X0144427Y0264572D02*
X0180000Y0264572D01*
X0180000Y0265358D02*
X0145213Y0265358D01*
X0145999Y0266143D02*
X0180000Y0266143D01*
X0180000Y0266929D02*
X0146785Y0266929D01*
X0147571Y0267715D02*
X0180000Y0267715D01*
X0180000Y0268501D02*
X0148357Y0268501D01*
X0149143Y0269287D02*
X0180000Y0269287D01*
X0180000Y0270073D02*
X0149929Y0270073D01*
X0150715Y0270859D02*
X0180000Y0270859D01*
X0180000Y0271645D02*
X0151501Y0271645D01*
X0152287Y0272431D02*
X0180000Y0272431D01*
X0180000Y0273217D02*
X0153073Y0273217D01*
X0153858Y0274003D02*
X0180000Y0274003D01*
X0180000Y0274788D02*
X0154644Y0274788D01*
X0155430Y0275574D02*
X0180000Y0275574D01*
X0180000Y0276360D02*
X0156216Y0276360D01*
X0157002Y0277146D02*
X0180000Y0277146D01*
X0180000Y0277932D02*
X0161041Y0277932D01*
X0161827Y0278718D02*
X0180000Y0278718D01*
X0180000Y0279504D02*
X0162613Y0279504D01*
X0162887Y0280290D02*
X0180000Y0280290D01*
X0180000Y0281076D02*
X0162887Y0281076D01*
X0162887Y0281862D02*
X0180000Y0281862D01*
X0180000Y0282648D02*
X0162887Y0282648D01*
X0162541Y0283434D02*
X0180000Y0283434D01*
X0180000Y0284219D02*
X0161755Y0284219D01*
X0160969Y0285005D02*
X0180000Y0285005D01*
X0180000Y0285791D02*
X0093137Y0285791D01*
X0093137Y0285005D02*
X0156818Y0285005D01*
X0156032Y0284219D02*
X0093137Y0284219D01*
X0093137Y0286577D02*
X0180000Y0286577D01*
X0180000Y0287363D02*
X0093137Y0287363D01*
X0093137Y0288149D02*
X0180000Y0288149D01*
X0180000Y0288935D02*
X0093137Y0288935D01*
X0093137Y0289721D02*
X0180000Y0289721D01*
X0180000Y0290507D02*
X0093137Y0290507D01*
X0093137Y0291293D02*
X0180000Y0291293D01*
X0180000Y0292079D02*
X0093137Y0292079D01*
X0093137Y0292864D02*
X0180000Y0292864D01*
X0180000Y0293650D02*
X0093137Y0293650D01*
X0093137Y0294436D02*
X0180000Y0294436D01*
X0180000Y0295222D02*
X0093137Y0295222D01*
X0093137Y0296008D02*
X0180000Y0296008D01*
X0180000Y0296794D02*
X0093137Y0296794D01*
X0093137Y0297580D02*
X0180000Y0297580D01*
X0180000Y0298366D02*
X0093137Y0298366D01*
X0093137Y0299152D02*
X0180000Y0299152D01*
X0180000Y0299938D02*
X0093137Y0299938D01*
X0093137Y0300724D02*
X0180000Y0300724D01*
X0180000Y0301510D02*
X0141755Y0301510D01*
X0141113Y0301210D02*
X0144111Y0302608D01*
X0145243Y0305717D01*
X0143880Y0308639D01*
X0145473Y0312947D01*
X0147345Y0312266D01*
X0148241Y0312684D01*
X0150747Y0319568D01*
X0150329Y0320464D01*
X0143445Y0322970D01*
X0142548Y0322552D01*
X0140043Y0315668D01*
X0140461Y0314771D01*
X0142290Y0314106D01*
X0140711Y0309836D01*
X0137737Y0308449D01*
X0136605Y0305340D01*
X0138004Y0302341D01*
X0141113Y0301210D01*
X0140289Y0301510D02*
X0093137Y0301510D01*
X0093137Y0302295D02*
X0138130Y0302295D01*
X0137659Y0303081D02*
X0093137Y0303081D01*
X0093137Y0303867D02*
X0137292Y0303867D01*
X0136926Y0304653D02*
X0093137Y0304653D01*
X0093137Y0305439D02*
X0096740Y0305439D01*
X0097239Y0304939D02*
X0100548Y0304939D01*
X0102887Y0307279D01*
X0102887Y0310587D01*
X0100574Y0312901D01*
X0100552Y0319571D01*
X0102507Y0319571D01*
X0103206Y0320270D01*
X0103206Y0327596D01*
X0102507Y0328295D01*
X0095181Y0328295D01*
X0094481Y0327596D01*
X0094481Y0320270D01*
X0095181Y0319571D01*
X0097165Y0319571D01*
X0097187Y0312874D01*
X0094900Y0310587D01*
X0094900Y0307279D01*
X0097239Y0304939D01*
X0095954Y0306225D02*
X0093137Y0306225D01*
X0093137Y0307011D02*
X0095168Y0307011D01*
X0094900Y0307797D02*
X0093137Y0307797D01*
X0093137Y0308583D02*
X0094900Y0308583D01*
X0094900Y0309369D02*
X0093137Y0309369D01*
X0093137Y0310155D02*
X0094900Y0310155D01*
X0095253Y0310940D02*
X0093137Y0310940D01*
X0093137Y0311726D02*
X0096039Y0311726D01*
X0096825Y0312512D02*
X0093137Y0312512D01*
X0093137Y0313298D02*
X0097185Y0313298D01*
X0097183Y0314084D02*
X0093137Y0314084D01*
X0093137Y0314870D02*
X0097180Y0314870D01*
X0097178Y0315656D02*
X0093137Y0315656D01*
X0093137Y0316442D02*
X0097175Y0316442D01*
X0097172Y0317228D02*
X0093137Y0317228D01*
X0093137Y0318014D02*
X0097170Y0318014D01*
X0097167Y0318800D02*
X0093137Y0318800D01*
X0093137Y0319586D02*
X0095166Y0319586D01*
X0094481Y0320371D02*
X0093137Y0320371D01*
X0093137Y0321157D02*
X0094481Y0321157D01*
X0094481Y0321943D02*
X0093137Y0321943D01*
X0093137Y0322729D02*
X0094481Y0322729D01*
X0094481Y0323515D02*
X0093137Y0323515D01*
X0093137Y0324301D02*
X0094481Y0324301D01*
X0094481Y0325087D02*
X0093137Y0325087D01*
X0093137Y0325873D02*
X0094481Y0325873D01*
X0094481Y0326659D02*
X0093137Y0326659D01*
X0093137Y0327445D02*
X0094481Y0327445D01*
X0095116Y0328231D02*
X0093137Y0328231D01*
X0093137Y0329016D02*
X0180000Y0329016D01*
X0180000Y0328231D02*
X0162621Y0328231D01*
X0162557Y0328295D02*
X0155231Y0328295D01*
X0154531Y0327596D01*
X0154531Y0320270D01*
X0155231Y0319571D01*
X0157200Y0319571D01*
X0157200Y0315387D01*
X0154900Y0313087D01*
X0154900Y0309779D01*
X0157239Y0307439D01*
X0160548Y0307439D01*
X0162887Y0309779D01*
X0162887Y0313087D01*
X0160587Y0315387D01*
X0160587Y0319571D01*
X0162557Y0319571D01*
X0163256Y0320270D01*
X0163256Y0327596D01*
X0162557Y0328295D01*
X0163256Y0327445D02*
X0180000Y0327445D01*
X0180000Y0326659D02*
X0163256Y0326659D01*
X0163256Y0325873D02*
X0180000Y0325873D01*
X0180000Y0325087D02*
X0163256Y0325087D01*
X0163256Y0324301D02*
X0180000Y0324301D01*
X0180000Y0323515D02*
X0163256Y0323515D01*
X0163256Y0322729D02*
X0180000Y0322729D01*
X0180000Y0321943D02*
X0163256Y0321943D01*
X0163256Y0321157D02*
X0180000Y0321157D01*
X0180000Y0320371D02*
X0163256Y0320371D01*
X0162571Y0319586D02*
X0180000Y0319586D01*
X0180000Y0318800D02*
X0160587Y0318800D01*
X0160587Y0318014D02*
X0180000Y0318014D01*
X0180000Y0317228D02*
X0160587Y0317228D01*
X0160587Y0316442D02*
X0180000Y0316442D01*
X0180000Y0315656D02*
X0160587Y0315656D01*
X0161105Y0314870D02*
X0180000Y0314870D01*
X0180000Y0314084D02*
X0161891Y0314084D01*
X0162676Y0313298D02*
X0180000Y0313298D01*
X0180000Y0312512D02*
X0162887Y0312512D01*
X0162887Y0311726D02*
X0180000Y0311726D01*
X0180000Y0310940D02*
X0162887Y0310940D01*
X0162887Y0310155D02*
X0180000Y0310155D01*
X0180000Y0309369D02*
X0162477Y0309369D01*
X0161691Y0308583D02*
X0180000Y0308583D01*
X0180000Y0307797D02*
X0160905Y0307797D01*
X0156882Y0307797D02*
X0144273Y0307797D01*
X0143906Y0308583D02*
X0156096Y0308583D01*
X0155310Y0309369D02*
X0144150Y0309369D01*
X0144441Y0310155D02*
X0154900Y0310155D01*
X0154900Y0310940D02*
X0144731Y0310940D01*
X0145022Y0311726D02*
X0154900Y0311726D01*
X0154900Y0312512D02*
X0147874Y0312512D01*
X0148465Y0313298D02*
X0155111Y0313298D01*
X0155897Y0314084D02*
X0148751Y0314084D01*
X0149037Y0314870D02*
X0156683Y0314870D01*
X0157200Y0315656D02*
X0149323Y0315656D01*
X0149609Y0316442D02*
X0157200Y0316442D01*
X0157200Y0317228D02*
X0149895Y0317228D01*
X0150181Y0318014D02*
X0157200Y0318014D01*
X0157200Y0318800D02*
X0150467Y0318800D01*
X0150738Y0319586D02*
X0155216Y0319586D01*
X0154531Y0320371D02*
X0150372Y0320371D01*
X0148424Y0321157D02*
X0154531Y0321157D01*
X0154531Y0321943D02*
X0146264Y0321943D01*
X0144105Y0322729D02*
X0154531Y0322729D01*
X0154531Y0323515D02*
X0103206Y0323515D01*
X0103206Y0322729D02*
X0142929Y0322729D01*
X0142327Y0321943D02*
X0103206Y0321943D01*
X0103206Y0321157D02*
X0142041Y0321157D01*
X0141755Y0320371D02*
X0103206Y0320371D01*
X0102521Y0319586D02*
X0141469Y0319586D01*
X0141183Y0318800D02*
X0100555Y0318800D01*
X0100557Y0318014D02*
X0140897Y0318014D01*
X0140611Y0317228D02*
X0100560Y0317228D01*
X0100562Y0316442D02*
X0140325Y0316442D01*
X0140048Y0315656D02*
X0100565Y0315656D01*
X0100568Y0314870D02*
X0140415Y0314870D01*
X0142282Y0314084D02*
X0100570Y0314084D01*
X0100573Y0313298D02*
X0141992Y0313298D01*
X0141701Y0312512D02*
X0100962Y0312512D01*
X0101748Y0311726D02*
X0141410Y0311726D01*
X0141120Y0310940D02*
X0102534Y0310940D01*
X0102887Y0310155D02*
X0140829Y0310155D01*
X0139709Y0309369D02*
X0102887Y0309369D01*
X0102887Y0308583D02*
X0138024Y0308583D01*
X0137500Y0307797D02*
X0102887Y0307797D01*
X0102619Y0307011D02*
X0137214Y0307011D01*
X0136928Y0306225D02*
X0101834Y0306225D01*
X0101048Y0305439D02*
X0136641Y0305439D01*
X0143441Y0302295D02*
X0180000Y0302295D01*
X0180000Y0303081D02*
X0144283Y0303081D01*
X0144569Y0303867D02*
X0180000Y0303867D01*
X0180000Y0304653D02*
X0144855Y0304653D01*
X0145141Y0305439D02*
X0180000Y0305439D01*
X0180000Y0306225D02*
X0145006Y0306225D01*
X0144639Y0307011D02*
X0180000Y0307011D01*
X0180000Y0329802D02*
X0153021Y0329802D01*
X0152918Y0329699D02*
X0153177Y0329959D01*
X0153361Y0330277D01*
X0153456Y0330631D01*
X0153456Y0333589D01*
X0149287Y0333589D01*
X0149287Y0329421D01*
X0152246Y0329421D01*
X0152600Y0329516D01*
X0152918Y0329699D01*
X0153444Y0330588D02*
X0180000Y0330588D01*
X0180000Y0331374D02*
X0153456Y0331374D01*
X0153456Y0332160D02*
X0180000Y0332160D01*
X0180000Y0332946D02*
X0153456Y0332946D01*
X0153456Y0334377D02*
X0153456Y0337335D01*
X0153361Y0337690D01*
X0153177Y0338007D01*
X0152918Y0338267D01*
X0152600Y0338450D01*
X0152246Y0338545D01*
X0149287Y0338545D01*
X0149287Y0334377D01*
X0148500Y0334377D01*
X0148500Y0338545D01*
X0145542Y0338545D01*
X0145187Y0338450D01*
X0144869Y0338267D01*
X0144610Y0338007D01*
X0144426Y0337690D01*
X0144331Y0337335D01*
X0144331Y0334377D01*
X0148500Y0334377D01*
X0148500Y0333589D01*
X0149287Y0333589D01*
X0149287Y0334377D01*
X0153456Y0334377D01*
X0153456Y0334518D02*
X0180000Y0334518D01*
X0180000Y0335304D02*
X0153456Y0335304D01*
X0153456Y0336090D02*
X0180000Y0336090D01*
X0180000Y0336876D02*
X0153456Y0336876D01*
X0153368Y0337662D02*
X0180000Y0337662D01*
X0179908Y0338447D02*
X0152605Y0338447D01*
X0149287Y0338447D02*
X0148500Y0338447D01*
X0148500Y0337662D02*
X0149287Y0337662D01*
X0149287Y0336876D02*
X0148500Y0336876D01*
X0148500Y0336090D02*
X0149287Y0336090D01*
X0149287Y0335304D02*
X0148500Y0335304D01*
X0148500Y0334518D02*
X0149287Y0334518D01*
X0149287Y0333732D02*
X0180000Y0333732D01*
X0179122Y0339233D02*
X0018665Y0339233D01*
X0017879Y0338447D02*
X0145182Y0338447D01*
X0144419Y0337662D02*
X0093313Y0337662D01*
X0094099Y0336876D02*
X0144331Y0336876D01*
X0144331Y0336090D02*
X0094885Y0336090D01*
X0095437Y0335304D02*
X0144331Y0335304D01*
X0144331Y0334518D02*
X0095437Y0334518D01*
X0095437Y0333732D02*
X0148500Y0333732D01*
X0148500Y0333589D02*
X0144331Y0333589D01*
X0144331Y0330631D01*
X0144426Y0330277D01*
X0144610Y0329959D01*
X0144869Y0329699D01*
X0145187Y0329516D01*
X0145542Y0329421D01*
X0148500Y0329421D01*
X0148500Y0333589D01*
X0148500Y0332946D02*
X0149287Y0332946D01*
X0149287Y0332160D02*
X0148500Y0332160D01*
X0148500Y0331374D02*
X0149287Y0331374D01*
X0149287Y0330588D02*
X0148500Y0330588D01*
X0148500Y0329802D02*
X0149287Y0329802D01*
X0144766Y0329802D02*
X0093137Y0329802D01*
X0093797Y0330588D02*
X0144343Y0330588D01*
X0144331Y0331374D02*
X0094583Y0331374D01*
X0095369Y0332160D02*
X0144331Y0332160D01*
X0144331Y0332946D02*
X0095437Y0332946D01*
X0089750Y0329802D02*
X0052738Y0329802D01*
X0052557Y0329621D02*
X0053256Y0330320D01*
X0053256Y0332189D01*
X0057489Y0332189D01*
X0059789Y0329889D01*
X0063098Y0329889D01*
X0065437Y0332229D01*
X0065437Y0335537D01*
X0063098Y0337877D01*
X0059789Y0337877D01*
X0057489Y0335577D01*
X0053256Y0335577D01*
X0053256Y0337646D01*
X0052557Y0338345D01*
X0045231Y0338345D01*
X0044531Y0337646D01*
X0044531Y0330320D01*
X0045231Y0329621D01*
X0052557Y0329621D01*
X0053256Y0330588D02*
X0059091Y0330588D01*
X0058305Y0331374D02*
X0053256Y0331374D01*
X0053256Y0332160D02*
X0057519Y0332160D01*
X0058002Y0336090D02*
X0053256Y0336090D01*
X0053256Y0336876D02*
X0058788Y0336876D01*
X0059574Y0337662D02*
X0053240Y0337662D01*
X0044547Y0337662D02*
X0017787Y0337662D01*
X0017787Y0336876D02*
X0044531Y0336876D01*
X0044531Y0336090D02*
X0017787Y0336090D01*
X0017787Y0335304D02*
X0044531Y0335304D01*
X0044531Y0334518D02*
X0017787Y0334518D01*
X0017787Y0333732D02*
X0044531Y0333732D01*
X0044531Y0332946D02*
X0017787Y0332946D01*
X0017787Y0332160D02*
X0044531Y0332160D01*
X0044531Y0331374D02*
X0017787Y0331374D01*
X0017787Y0330588D02*
X0044531Y0330588D01*
X0045049Y0329802D02*
X0017787Y0329802D01*
X0017787Y0329016D02*
X0089750Y0329016D01*
X0089750Y0328231D02*
X0042671Y0328231D01*
X0042557Y0328345D02*
X0035231Y0328345D01*
X0034531Y0327646D01*
X0034531Y0320320D01*
X0035231Y0319621D01*
X0037200Y0319621D01*
X0037200Y0315387D01*
X0034900Y0313087D01*
X0034900Y0309779D01*
X0037239Y0307439D01*
X0040548Y0307439D01*
X0042887Y0309779D01*
X0042887Y0313087D01*
X0040587Y0315387D01*
X0040587Y0319621D01*
X0042557Y0319621D01*
X0043256Y0320320D01*
X0043256Y0327646D01*
X0042557Y0328345D01*
X0043256Y0327445D02*
X0089750Y0327445D01*
X0089750Y0326659D02*
X0043256Y0326659D01*
X0043256Y0325873D02*
X0089750Y0325873D01*
X0089750Y0325087D02*
X0043256Y0325087D01*
X0043256Y0324301D02*
X0089750Y0324301D01*
X0089750Y0323515D02*
X0043256Y0323515D01*
X0043256Y0322729D02*
X0053682Y0322729D01*
X0054343Y0322970D02*
X0047459Y0320464D01*
X0047041Y0319568D01*
X0049546Y0312684D01*
X0050443Y0312266D01*
X0052373Y0312968D01*
X0054074Y0308567D01*
X0052745Y0305717D01*
X0053876Y0302608D01*
X0056875Y0301210D01*
X0059984Y0302341D01*
X0061382Y0305340D01*
X0060250Y0308449D01*
X0057252Y0309847D01*
X0057216Y0309834D01*
X0055557Y0314127D01*
X0057327Y0314771D01*
X0057745Y0315668D01*
X0055239Y0322552D01*
X0054343Y0322970D01*
X0054858Y0322729D02*
X0089750Y0322729D01*
X0089750Y0321943D02*
X0055460Y0321943D01*
X0055747Y0321157D02*
X0089750Y0321157D01*
X0089750Y0320371D02*
X0056033Y0320371D01*
X0056319Y0319586D02*
X0089750Y0319586D01*
X0089750Y0318800D02*
X0056605Y0318800D01*
X0056891Y0318014D02*
X0089750Y0318014D01*
X0089750Y0317228D02*
X0057177Y0317228D01*
X0057463Y0316442D02*
X0089750Y0316442D01*
X0089750Y0315656D02*
X0057739Y0315656D01*
X0057373Y0314870D02*
X0089750Y0314870D01*
X0089750Y0314084D02*
X0055574Y0314084D01*
X0055877Y0313298D02*
X0089750Y0313298D01*
X0089750Y0312512D02*
X0056181Y0312512D01*
X0056484Y0311726D02*
X0089750Y0311726D01*
X0089750Y0310940D02*
X0056788Y0310940D01*
X0057092Y0310155D02*
X0089750Y0310155D01*
X0089750Y0309369D02*
X0058278Y0309369D01*
X0059963Y0308583D02*
X0089750Y0308583D01*
X0089750Y0307797D02*
X0060488Y0307797D01*
X0060774Y0307011D02*
X0089750Y0307011D01*
X0089750Y0306225D02*
X0061060Y0306225D01*
X0061346Y0305439D02*
X0089750Y0305439D01*
X0089750Y0304653D02*
X0061062Y0304653D01*
X0060695Y0303867D02*
X0089750Y0303867D01*
X0089750Y0303081D02*
X0060329Y0303081D01*
X0059858Y0302295D02*
X0089750Y0302295D01*
X0089750Y0301510D02*
X0057698Y0301510D01*
X0056232Y0301510D02*
X0017787Y0301510D01*
X0017787Y0302295D02*
X0054547Y0302295D01*
X0053704Y0303081D02*
X0017787Y0303081D01*
X0017787Y0303867D02*
X0053418Y0303867D01*
X0053132Y0304653D02*
X0017787Y0304653D01*
X0017787Y0305439D02*
X0052846Y0305439D01*
X0052982Y0306225D02*
X0017787Y0306225D01*
X0017787Y0307011D02*
X0053348Y0307011D01*
X0053715Y0307797D02*
X0040905Y0307797D01*
X0041691Y0308583D02*
X0054068Y0308583D01*
X0053764Y0309369D02*
X0042477Y0309369D01*
X0042887Y0310155D02*
X0053460Y0310155D01*
X0053157Y0310940D02*
X0042887Y0310940D01*
X0042887Y0311726D02*
X0052853Y0311726D01*
X0052549Y0312512D02*
X0051120Y0312512D01*
X0049914Y0312512D02*
X0042887Y0312512D01*
X0042676Y0313298D02*
X0049323Y0313298D01*
X0049037Y0314084D02*
X0041891Y0314084D01*
X0041105Y0314870D02*
X0048751Y0314870D01*
X0048465Y0315656D02*
X0040587Y0315656D01*
X0040587Y0316442D02*
X0048178Y0316442D01*
X0047892Y0317228D02*
X0040587Y0317228D01*
X0040587Y0318014D02*
X0047606Y0318014D01*
X0047320Y0318800D02*
X0040587Y0318800D01*
X0040587Y0319586D02*
X0047049Y0319586D01*
X0047416Y0320371D02*
X0043256Y0320371D01*
X0043256Y0321157D02*
X0049364Y0321157D01*
X0051523Y0321943D02*
X0043256Y0321943D01*
X0037200Y0319586D02*
X0017787Y0319586D01*
X0017787Y0320371D02*
X0034531Y0320371D01*
X0034531Y0321157D02*
X0017787Y0321157D01*
X0017787Y0321943D02*
X0034531Y0321943D01*
X0034531Y0322729D02*
X0017787Y0322729D01*
X0017787Y0323515D02*
X0034531Y0323515D01*
X0034531Y0324301D02*
X0017787Y0324301D01*
X0017787Y0325087D02*
X0034531Y0325087D01*
X0034531Y0325873D02*
X0017787Y0325873D01*
X0017787Y0326659D02*
X0034531Y0326659D01*
X0034531Y0327445D02*
X0017787Y0327445D01*
X0017787Y0328231D02*
X0035116Y0328231D01*
X0037200Y0318800D02*
X0017787Y0318800D01*
X0017787Y0318014D02*
X0037200Y0318014D01*
X0037200Y0317228D02*
X0017787Y0317228D01*
X0017787Y0316442D02*
X0037200Y0316442D01*
X0037200Y0315656D02*
X0017787Y0315656D01*
X0017787Y0314870D02*
X0036683Y0314870D01*
X0035897Y0314084D02*
X0017787Y0314084D01*
X0017787Y0313298D02*
X0035111Y0313298D01*
X0034900Y0312512D02*
X0017787Y0312512D01*
X0017787Y0311726D02*
X0034900Y0311726D01*
X0034900Y0310940D02*
X0017787Y0310940D01*
X0017787Y0310155D02*
X0034900Y0310155D01*
X0035310Y0309369D02*
X0017787Y0309369D01*
X0017787Y0308583D02*
X0036096Y0308583D01*
X0036882Y0307797D02*
X0017787Y0307797D01*
X0017787Y0300724D02*
X0089750Y0300724D01*
X0089750Y0299938D02*
X0017787Y0299938D01*
X0017787Y0299152D02*
X0089750Y0299152D01*
X0089750Y0298366D02*
X0017787Y0298366D01*
X0017787Y0297580D02*
X0089750Y0297580D01*
X0089750Y0296794D02*
X0017787Y0296794D01*
X0017787Y0296008D02*
X0089750Y0296008D01*
X0089750Y0295222D02*
X0017787Y0295222D01*
X0017787Y0294436D02*
X0089750Y0294436D01*
X0089750Y0293650D02*
X0017787Y0293650D01*
X0017787Y0292864D02*
X0089750Y0292864D01*
X0089750Y0292079D02*
X0017787Y0292079D01*
X0017787Y0291293D02*
X0089750Y0291293D01*
X0089750Y0290507D02*
X0017787Y0290507D01*
X0017787Y0289721D02*
X0089750Y0289721D01*
X0089750Y0288935D02*
X0017787Y0288935D01*
X0017787Y0288149D02*
X0089750Y0288149D01*
X0089750Y0287363D02*
X0017787Y0287363D01*
X0017787Y0286577D02*
X0089750Y0286577D01*
X0089750Y0285791D02*
X0017787Y0285791D01*
X0017787Y0285005D02*
X0036818Y0285005D01*
X0037239Y0285427D02*
X0034900Y0283087D01*
X0034900Y0279779D01*
X0037239Y0277439D01*
X0040548Y0277439D01*
X0042887Y0279779D01*
X0042887Y0283087D01*
X0040548Y0285427D01*
X0037239Y0285427D01*
X0036032Y0284219D02*
X0017787Y0284219D01*
X0017787Y0283434D02*
X0035246Y0283434D01*
X0034900Y0282648D02*
X0017787Y0282648D01*
X0017787Y0281862D02*
X0034900Y0281862D01*
X0034900Y0281076D02*
X0017787Y0281076D01*
X0017787Y0280290D02*
X0034900Y0280290D01*
X0035175Y0279504D02*
X0017787Y0279504D01*
X0017787Y0278718D02*
X0035961Y0278718D01*
X0036747Y0277932D02*
X0017787Y0277932D01*
X0017787Y0277146D02*
X0063144Y0277146D01*
X0063005Y0277526D02*
X0063569Y0275978D01*
X0049783Y0262192D01*
X0049565Y0262282D01*
X0048222Y0262282D01*
X0046982Y0261768D01*
X0046033Y0260819D01*
X0045519Y0259579D01*
X0045519Y0258236D01*
X0046033Y0256996D01*
X0046982Y0256046D01*
X0048222Y0255533D01*
X0049565Y0255533D01*
X0050805Y0256046D01*
X0051755Y0256996D01*
X0052268Y0258236D01*
X0052268Y0259579D01*
X0052178Y0259797D01*
X0065952Y0273571D01*
X0067135Y0273019D01*
X0070244Y0274151D01*
X0071643Y0277149D01*
X0070511Y0280258D01*
X0067513Y0281656D01*
X0064404Y0280525D01*
X0063005Y0277526D01*
X0063195Y0277932D02*
X0041041Y0277932D01*
X0041827Y0278718D02*
X0063561Y0278718D01*
X0063928Y0279504D02*
X0042613Y0279504D01*
X0042887Y0280290D02*
X0064294Y0280290D01*
X0065918Y0281076D02*
X0042887Y0281076D01*
X0042887Y0281862D02*
X0089750Y0281862D01*
X0089750Y0282648D02*
X0042887Y0282648D01*
X0042541Y0283434D02*
X0089750Y0283434D01*
X0089750Y0284219D02*
X0041755Y0284219D01*
X0040969Y0285005D02*
X0089750Y0285005D01*
X0089750Y0281076D02*
X0068757Y0281076D01*
X0070443Y0280290D02*
X0089750Y0280290D01*
X0089750Y0279504D02*
X0070786Y0279504D01*
X0071072Y0278718D02*
X0089750Y0278718D01*
X0089750Y0277932D02*
X0071358Y0277932D01*
X0071641Y0277146D02*
X0089750Y0277146D01*
X0089750Y0276360D02*
X0071275Y0276360D01*
X0070908Y0275574D02*
X0089750Y0275574D01*
X0089750Y0274788D02*
X0070542Y0274788D01*
X0069838Y0274003D02*
X0089750Y0274003D01*
X0089750Y0273217D02*
X0067678Y0273217D01*
X0066712Y0273217D02*
X0065598Y0273217D01*
X0064812Y0272431D02*
X0089750Y0272431D01*
X0089750Y0271645D02*
X0064026Y0271645D01*
X0063240Y0270859D02*
X0089750Y0270859D01*
X0089750Y0270073D02*
X0062455Y0270073D01*
X0061669Y0269287D02*
X0089750Y0269287D01*
X0089750Y0268501D02*
X0060883Y0268501D01*
X0060097Y0267715D02*
X0089750Y0267715D01*
X0089750Y0266929D02*
X0059311Y0266929D01*
X0058525Y0266143D02*
X0089750Y0266143D01*
X0089750Y0265358D02*
X0057739Y0265358D01*
X0056953Y0264572D02*
X0089750Y0264572D01*
X0089750Y0263786D02*
X0056167Y0263786D01*
X0055381Y0263000D02*
X0089750Y0263000D01*
X0089750Y0262214D02*
X0054595Y0262214D01*
X0053810Y0261428D02*
X0089750Y0261428D01*
X0089750Y0260642D02*
X0053024Y0260642D01*
X0052238Y0259856D02*
X0089750Y0259856D01*
X0089750Y0259070D02*
X0052268Y0259070D01*
X0052268Y0258284D02*
X0089750Y0258284D01*
X0089750Y0257498D02*
X0051963Y0257498D01*
X0051472Y0256712D02*
X0089750Y0256712D01*
X0089750Y0255927D02*
X0050516Y0255927D01*
X0049805Y0262214D02*
X0049730Y0262214D01*
X0050591Y0263000D02*
X0017787Y0263000D01*
X0017787Y0263786D02*
X0051377Y0263786D01*
X0052163Y0264572D02*
X0017787Y0264572D01*
X0017787Y0265358D02*
X0052949Y0265358D01*
X0053735Y0266143D02*
X0017787Y0266143D01*
X0017787Y0266929D02*
X0054520Y0266929D01*
X0055306Y0267715D02*
X0017787Y0267715D01*
X0017787Y0268501D02*
X0056092Y0268501D01*
X0056878Y0269287D02*
X0017787Y0269287D01*
X0017787Y0270073D02*
X0057664Y0270073D01*
X0058450Y0270859D02*
X0017787Y0270859D01*
X0017787Y0271645D02*
X0059236Y0271645D01*
X0060022Y0272431D02*
X0017787Y0272431D01*
X0017787Y0273217D02*
X0060808Y0273217D01*
X0061594Y0274003D02*
X0017787Y0274003D01*
X0017787Y0274788D02*
X0062380Y0274788D01*
X0063165Y0275574D02*
X0017787Y0275574D01*
X0017787Y0276360D02*
X0063430Y0276360D01*
X0048058Y0262214D02*
X0017787Y0262214D01*
X0017787Y0261428D02*
X0046642Y0261428D01*
X0045959Y0260642D02*
X0017787Y0260642D01*
X0017787Y0259856D02*
X0045634Y0259856D01*
X0045519Y0259070D02*
X0017787Y0259070D01*
X0017787Y0258284D02*
X0045519Y0258284D01*
X0045824Y0257498D02*
X0017787Y0257498D01*
X0017787Y0256712D02*
X0046316Y0256712D01*
X0047271Y0255927D02*
X0017787Y0255927D01*
X0017787Y0255141D02*
X0089750Y0255141D01*
X0089750Y0254355D02*
X0017787Y0254355D01*
X0017787Y0253569D02*
X0089750Y0253569D01*
X0089750Y0252783D02*
X0017787Y0252783D01*
X0017787Y0251997D02*
X0089750Y0251997D01*
X0089750Y0251211D02*
X0017787Y0251211D01*
X0017787Y0250425D02*
X0089750Y0250425D01*
X0089750Y0249639D02*
X0017787Y0249639D01*
X0017787Y0248853D02*
X0089750Y0248853D01*
X0089864Y0248067D02*
X0017787Y0248067D01*
X0017787Y0247282D02*
X0090650Y0247282D01*
X0091436Y0246496D02*
X0017787Y0246496D01*
X0017787Y0245710D02*
X0092222Y0245710D01*
X0093008Y0244924D02*
X0017787Y0244924D01*
X0017787Y0244138D02*
X0093794Y0244138D01*
X0094580Y0243352D02*
X0017787Y0243352D01*
X0017787Y0242566D02*
X0095365Y0242566D01*
X0096151Y0241780D02*
X0017787Y0241780D01*
X0017787Y0240994D02*
X0096937Y0240994D01*
X0097723Y0240208D02*
X0017787Y0240208D01*
X0017787Y0239422D02*
X0098509Y0239422D01*
X0099295Y0238637D02*
X0017787Y0238637D01*
X0017787Y0237851D02*
X0100081Y0237851D01*
X0100867Y0237065D02*
X0017787Y0237065D01*
X0017787Y0236279D02*
X0101653Y0236279D01*
X0102439Y0235493D02*
X0017787Y0235493D01*
X0017787Y0234707D02*
X0103225Y0234707D01*
X0103600Y0233921D02*
X0017787Y0233921D01*
X0017787Y0233135D02*
X0103600Y0233135D01*
X0103600Y0232349D02*
X0017787Y0232349D01*
X0017787Y0231563D02*
X0103600Y0231563D01*
X0103600Y0230777D02*
X0017787Y0230777D01*
X0017787Y0229991D02*
X0103600Y0229991D01*
X0106987Y0228420D02*
X0108095Y0228420D01*
X0107788Y0227634D02*
X0106987Y0227634D01*
X0106987Y0226848D02*
X0107502Y0226848D01*
X0107216Y0226062D02*
X0106987Y0226062D01*
X0106987Y0219775D02*
X0108497Y0219775D01*
X0106987Y0217417D02*
X0128970Y0217417D01*
X0128970Y0216631D02*
X0106987Y0216631D01*
X0106987Y0215845D02*
X0128970Y0215845D01*
X0128970Y0215059D02*
X0106987Y0215059D01*
X0106987Y0214273D02*
X0128970Y0214273D01*
X0128970Y0213487D02*
X0106987Y0213487D01*
X0106987Y0212701D02*
X0128970Y0212701D01*
X0128970Y0211915D02*
X0106987Y0211915D01*
X0106987Y0211130D02*
X0128970Y0211130D01*
X0128970Y0210344D02*
X0106987Y0210344D01*
X0106987Y0209558D02*
X0128970Y0209558D01*
X0128970Y0208772D02*
X0114068Y0208772D01*
X0114354Y0207986D02*
X0128970Y0207986D01*
X0128970Y0207200D02*
X0114640Y0207200D01*
X0114926Y0206414D02*
X0128970Y0206414D01*
X0128970Y0205628D02*
X0115212Y0205628D01*
X0115498Y0204842D02*
X0128970Y0204842D01*
X0128970Y0204056D02*
X0115784Y0204056D01*
X0116070Y0203270D02*
X0128970Y0203270D01*
X0128970Y0202485D02*
X0116356Y0202485D01*
X0116419Y0201699D02*
X0128970Y0201699D01*
X0128970Y0200913D02*
X0115691Y0200913D01*
X0114377Y0200127D02*
X0128970Y0200127D01*
X0128970Y0199341D02*
X0114664Y0199341D01*
X0114950Y0198555D02*
X0128970Y0198555D01*
X0128970Y0197769D02*
X0115236Y0197769D01*
X0115523Y0196983D02*
X0128970Y0196983D01*
X0128970Y0196197D02*
X0115809Y0196197D01*
X0116096Y0195411D02*
X0128970Y0195411D01*
X0128970Y0194625D02*
X0117271Y0194625D01*
X0118956Y0193839D02*
X0128970Y0193839D01*
X0128970Y0193054D02*
X0119404Y0193054D01*
X0119690Y0192268D02*
X0128970Y0192268D01*
X0128970Y0191482D02*
X0119976Y0191482D01*
X0120262Y0190696D02*
X0128261Y0190696D01*
X0127475Y0189910D02*
X0119942Y0189910D01*
X0119575Y0189124D02*
X0126689Y0189124D01*
X0125903Y0188338D02*
X0119209Y0188338D01*
X0118639Y0187552D02*
X0125118Y0187552D01*
X0124332Y0186766D02*
X0116479Y0186766D01*
X0115225Y0186766D02*
X0106987Y0186766D01*
X0106987Y0185980D02*
X0123546Y0185980D01*
X0122760Y0185194D02*
X0106987Y0185194D01*
X0106987Y0184409D02*
X0121974Y0184409D01*
X0121188Y0183623D02*
X0106987Y0183623D01*
X0106987Y0182837D02*
X0120402Y0182837D01*
X0119616Y0182051D02*
X0106987Y0182051D01*
X0106987Y0181265D02*
X0118830Y0181265D01*
X0118044Y0180479D02*
X0106987Y0180479D01*
X0106987Y0179693D02*
X0110445Y0179693D01*
X0109095Y0178907D02*
X0106987Y0178907D01*
X0106987Y0178121D02*
X0108440Y0178121D01*
X0108115Y0177335D02*
X0106987Y0177335D01*
X0106987Y0176549D02*
X0108019Y0176549D01*
X0108019Y0175763D02*
X0106987Y0175763D01*
X0106987Y0174978D02*
X0108344Y0174978D01*
X0108862Y0174192D02*
X0106987Y0174192D01*
X0106987Y0173406D02*
X0109884Y0173406D01*
X0106987Y0172620D02*
X0113285Y0172620D01*
X0112904Y0173406D02*
X0114071Y0173406D01*
X0113925Y0174192D02*
X0114857Y0174192D01*
X0112499Y0171834D02*
X0106987Y0171834D01*
X0103600Y0163189D02*
X0100686Y0163189D01*
X0101472Y0162403D02*
X0103600Y0162403D01*
X0103600Y0161617D02*
X0102258Y0161617D01*
X0102987Y0160831D02*
X0103600Y0160831D01*
X0103600Y0160045D02*
X0102987Y0160045D01*
X0102987Y0159259D02*
X0103600Y0159259D01*
X0103600Y0158473D02*
X0102987Y0158473D01*
X0102987Y0157687D02*
X0103600Y0157687D01*
X0103600Y0156902D02*
X0102310Y0156902D01*
X0101524Y0156116D02*
X0103600Y0156116D01*
X0089226Y0141183D02*
X0086539Y0141183D01*
X0085753Y0141969D02*
X0088440Y0141969D01*
X0087654Y0142755D02*
X0084967Y0142755D01*
X0084181Y0143541D02*
X0086868Y0143541D01*
X0086082Y0144327D02*
X0083395Y0144327D01*
X0082609Y0145113D02*
X0085296Y0145113D01*
X0084510Y0145899D02*
X0081823Y0145899D01*
X0081825Y0146685D02*
X0081037Y0146685D01*
X0080701Y0147471D02*
X0080251Y0147471D01*
X0079956Y0148257D02*
X0079465Y0148257D01*
X0079630Y0149042D02*
X0078680Y0149042D01*
X0078283Y0149828D02*
X0079304Y0149828D01*
X0079300Y0150614D02*
X0078287Y0150614D01*
X0078287Y0151400D02*
X0079300Y0151400D01*
X0079532Y0152186D02*
X0078056Y0152186D01*
X0077730Y0152972D02*
X0079857Y0152972D01*
X0080463Y0153758D02*
X0077124Y0153758D01*
X0076336Y0154544D02*
X0081251Y0154544D01*
X0076247Y0146685D02*
X0075763Y0146685D01*
X0077033Y0145899D02*
X0070387Y0145899D01*
X0070387Y0146685D02*
X0071825Y0146685D01*
X0070701Y0147471D02*
X0070387Y0147471D01*
X0070387Y0145113D02*
X0077819Y0145113D01*
X0078605Y0144327D02*
X0069783Y0144327D01*
X0068997Y0143541D02*
X0079390Y0143541D01*
X0080176Y0142755D02*
X0068211Y0142755D01*
X0067425Y0141969D02*
X0080962Y0141969D01*
X0081748Y0141183D02*
X0066639Y0141183D01*
X0065853Y0140397D02*
X0082534Y0140397D01*
X0083320Y0139611D02*
X0065067Y0139611D01*
X0064281Y0138826D02*
X0084106Y0138826D01*
X0084892Y0138040D02*
X0063496Y0138040D01*
X0062710Y0137254D02*
X0085678Y0137254D01*
X0086464Y0136468D02*
X0061924Y0136468D01*
X0061138Y0135682D02*
X0087200Y0135682D01*
X0087200Y0134896D02*
X0060352Y0134896D01*
X0059566Y0134110D02*
X0087200Y0134110D01*
X0087200Y0133324D02*
X0058780Y0133324D01*
X0057994Y0132538D02*
X0087200Y0132538D01*
X0087200Y0131752D02*
X0057208Y0131752D01*
X0056422Y0130966D02*
X0087200Y0130966D01*
X0087200Y0130181D02*
X0086823Y0130181D01*
X0083602Y0130181D02*
X0055636Y0130181D01*
X0054850Y0129395D02*
X0082640Y0129395D01*
X0066564Y0145899D02*
X0017787Y0145899D01*
X0017787Y0146685D02*
X0031825Y0146685D01*
X0030701Y0147471D02*
X0017787Y0147471D01*
X0017787Y0148257D02*
X0029956Y0148257D01*
X0029630Y0149042D02*
X0017787Y0149042D01*
X0017787Y0149828D02*
X0029304Y0149828D01*
X0029300Y0150614D02*
X0017787Y0150614D01*
X0017787Y0151400D02*
X0029300Y0151400D01*
X0029532Y0152186D02*
X0017787Y0152186D01*
X0017787Y0152972D02*
X0029857Y0152972D01*
X0030463Y0153758D02*
X0017787Y0153758D01*
X0017787Y0154544D02*
X0031251Y0154544D01*
X0032100Y0155330D02*
X0017787Y0155330D01*
X0017787Y0156116D02*
X0032100Y0156116D01*
X0032100Y0156902D02*
X0017787Y0156902D01*
X0017787Y0157687D02*
X0032100Y0157687D01*
X0032100Y0158473D02*
X0017787Y0158473D01*
X0017787Y0159259D02*
X0032100Y0159259D01*
X0032100Y0160045D02*
X0017787Y0160045D01*
X0017787Y0160831D02*
X0032100Y0160831D01*
X0032100Y0161617D02*
X0017787Y0161617D01*
X0017787Y0162403D02*
X0032100Y0162403D01*
X0032100Y0163189D02*
X0017787Y0163189D01*
X0017787Y0163975D02*
X0032100Y0163975D01*
X0032100Y0164761D02*
X0017787Y0164761D01*
X0017787Y0165547D02*
X0032879Y0165547D01*
X0033665Y0166333D02*
X0017787Y0166333D01*
X0017787Y0167118D02*
X0034451Y0167118D01*
X0035237Y0167904D02*
X0017787Y0167904D01*
X0017787Y0168690D02*
X0036023Y0168690D01*
X0036809Y0169476D02*
X0017787Y0169476D01*
X0017787Y0170262D02*
X0037595Y0170262D01*
X0038381Y0171048D02*
X0017787Y0171048D01*
X0017787Y0171834D02*
X0039167Y0171834D01*
X0039953Y0172620D02*
X0017787Y0172620D01*
X0017787Y0173406D02*
X0040739Y0173406D01*
X0041524Y0174192D02*
X0017787Y0174192D01*
X0017787Y0174978D02*
X0042310Y0174978D01*
X0043096Y0175763D02*
X0017787Y0175763D01*
X0017787Y0176549D02*
X0043882Y0176549D01*
X0044668Y0177335D02*
X0017787Y0177335D01*
X0017787Y0178121D02*
X0045454Y0178121D01*
X0040661Y0187552D02*
X0064700Y0187552D01*
X0064700Y0186766D02*
X0017787Y0186766D01*
X0017787Y0185980D02*
X0064700Y0185980D01*
X0064700Y0185194D02*
X0017787Y0185194D01*
X0017787Y0184409D02*
X0064700Y0184409D01*
X0064700Y0183623D02*
X0017787Y0183623D01*
X0017787Y0182837D02*
X0064700Y0182837D01*
X0064700Y0182051D02*
X0017787Y0182051D01*
X0017787Y0181265D02*
X0064700Y0181265D01*
X0064700Y0180479D02*
X0017787Y0180479D01*
X0017787Y0179693D02*
X0061026Y0179693D01*
X0059676Y0178907D02*
X0017787Y0178907D01*
X0017787Y0187552D02*
X0037127Y0187552D01*
X0036341Y0188338D02*
X0017787Y0188338D01*
X0017787Y0189124D02*
X0035555Y0189124D01*
X0034900Y0189910D02*
X0017787Y0189910D01*
X0017787Y0190696D02*
X0034900Y0190696D01*
X0034900Y0191482D02*
X0017787Y0191482D01*
X0017787Y0192268D02*
X0034900Y0192268D01*
X0034900Y0193054D02*
X0017787Y0193054D01*
X0017787Y0193839D02*
X0035652Y0193839D01*
X0036438Y0194625D02*
X0017787Y0194625D01*
X0017787Y0195411D02*
X0037224Y0195411D01*
X0037238Y0196197D02*
X0017787Y0196197D01*
X0017787Y0196983D02*
X0037244Y0196983D01*
X0037251Y0197769D02*
X0017787Y0197769D01*
X0017787Y0198555D02*
X0037257Y0198555D01*
X0037263Y0199341D02*
X0017787Y0199341D01*
X0017787Y0200127D02*
X0034775Y0200127D01*
X0034631Y0200913D02*
X0017787Y0200913D01*
X0017787Y0201699D02*
X0034631Y0201699D01*
X0034631Y0202485D02*
X0017787Y0202485D01*
X0017787Y0203270D02*
X0034631Y0203270D01*
X0034631Y0204056D02*
X0017787Y0204056D01*
X0017787Y0204842D02*
X0034631Y0204842D01*
X0034631Y0205628D02*
X0017787Y0205628D01*
X0017787Y0206414D02*
X0034631Y0206414D01*
X0034631Y0207200D02*
X0017787Y0207200D01*
X0017787Y0207986D02*
X0024044Y0207986D01*
X0022513Y0208772D02*
X0017787Y0208772D01*
X0017787Y0209558D02*
X0021727Y0209558D01*
X0020960Y0210344D02*
X0017787Y0210344D01*
X0017787Y0211130D02*
X0020634Y0211130D01*
X0020309Y0211915D02*
X0017787Y0211915D01*
X0017787Y0212701D02*
X0020000Y0212701D01*
X0020000Y0213487D02*
X0017787Y0213487D01*
X0017787Y0214273D02*
X0020000Y0214273D01*
X0020000Y0215059D02*
X0017787Y0215059D01*
X0017787Y0215845D02*
X0020265Y0215845D01*
X0020591Y0216631D02*
X0017787Y0216631D01*
X0017787Y0217417D02*
X0020916Y0217417D01*
X0021621Y0218203D02*
X0017787Y0218203D01*
X0017787Y0218989D02*
X0022407Y0218989D01*
X0023789Y0219775D02*
X0017787Y0219775D01*
X0017787Y0225276D02*
X0034331Y0225276D01*
X0034331Y0226062D02*
X0017787Y0226062D01*
X0017787Y0226848D02*
X0034331Y0226848D01*
X0034412Y0227634D02*
X0017787Y0227634D01*
X0017787Y0228420D02*
X0035134Y0228420D01*
X0031166Y0218203D02*
X0045138Y0218203D01*
X0043356Y0207200D02*
X0064700Y0207200D01*
X0064700Y0206414D02*
X0043356Y0206414D01*
X0043356Y0205628D02*
X0064700Y0205628D01*
X0064700Y0204842D02*
X0043356Y0204842D01*
X0043356Y0204056D02*
X0064700Y0204056D01*
X0064700Y0203270D02*
X0043356Y0203270D01*
X0043356Y0202485D02*
X0064700Y0202485D01*
X0064700Y0201699D02*
X0043356Y0201699D01*
X0043356Y0200913D02*
X0064700Y0200913D01*
X0064700Y0200127D02*
X0043213Y0200127D01*
X0040651Y0199341D02*
X0064700Y0199341D01*
X0064700Y0198555D02*
X0040644Y0198555D01*
X0040638Y0197769D02*
X0064700Y0197769D01*
X0064700Y0196983D02*
X0040632Y0196983D01*
X0040626Y0196197D02*
X0064700Y0196197D01*
X0064700Y0195411D02*
X0040619Y0195411D01*
X0041349Y0194625D02*
X0064700Y0194625D01*
X0064700Y0193839D02*
X0042135Y0193839D01*
X0042887Y0193054D02*
X0064700Y0193054D01*
X0064700Y0192268D02*
X0042887Y0192268D01*
X0042887Y0191482D02*
X0064700Y0191482D01*
X0064700Y0190696D02*
X0042887Y0190696D01*
X0042887Y0189910D02*
X0064700Y0189910D01*
X0064700Y0189124D02*
X0042233Y0189124D01*
X0041447Y0188338D02*
X0064700Y0188338D01*
X0064700Y0179693D02*
X0062923Y0179693D01*
X0064273Y0178907D02*
X0064700Y0178907D01*
X0056172Y0159259D02*
X0042368Y0159259D01*
X0041582Y0158473D02*
X0056958Y0158473D01*
X0057744Y0157687D02*
X0040796Y0157687D01*
X0041251Y0154544D02*
X0036336Y0154544D01*
X0037124Y0153758D02*
X0040463Y0153758D01*
X0039984Y0153279D02*
X0039300Y0151627D01*
X0039300Y0149839D01*
X0039984Y0148188D01*
X0041248Y0146923D01*
X0042900Y0146239D01*
X0044688Y0146239D01*
X0046339Y0146923D01*
X0047603Y0148188D01*
X0048287Y0149839D01*
X0048287Y0151627D01*
X0047603Y0153279D01*
X0046339Y0154543D01*
X0044688Y0155227D01*
X0042900Y0155227D01*
X0041248Y0154543D01*
X0039984Y0153279D01*
X0039857Y0152972D02*
X0037730Y0152972D01*
X0038056Y0152186D02*
X0039532Y0152186D01*
X0039300Y0151400D02*
X0038287Y0151400D01*
X0038287Y0150614D02*
X0039300Y0150614D01*
X0039304Y0149828D02*
X0038283Y0149828D01*
X0037957Y0149042D02*
X0039630Y0149042D01*
X0039956Y0148257D02*
X0037632Y0148257D01*
X0036886Y0147471D02*
X0040701Y0147471D01*
X0041825Y0146685D02*
X0035763Y0146685D01*
X0035487Y0155330D02*
X0060102Y0155330D01*
X0059316Y0156116D02*
X0035487Y0156116D01*
X0035487Y0156902D02*
X0058530Y0156902D01*
X0056339Y0154543D02*
X0057603Y0153279D01*
X0058287Y0151627D01*
X0058287Y0149839D01*
X0057603Y0148188D01*
X0056339Y0146923D01*
X0054688Y0146239D01*
X0052900Y0146239D01*
X0051248Y0146923D01*
X0049984Y0148188D01*
X0049300Y0149839D01*
X0049300Y0151627D01*
X0049984Y0153279D01*
X0051248Y0154543D01*
X0052900Y0155227D01*
X0054688Y0155227D01*
X0056339Y0154543D01*
X0056336Y0154544D02*
X0060888Y0154544D01*
X0060463Y0153758D02*
X0057124Y0153758D01*
X0057730Y0152972D02*
X0059857Y0152972D01*
X0059532Y0152186D02*
X0058056Y0152186D01*
X0058287Y0151400D02*
X0059300Y0151400D01*
X0059300Y0150614D02*
X0058287Y0150614D01*
X0058283Y0149828D02*
X0059304Y0149828D01*
X0059630Y0149042D02*
X0057957Y0149042D01*
X0057632Y0148257D02*
X0059956Y0148257D01*
X0060701Y0147471D02*
X0056886Y0147471D01*
X0055763Y0146685D02*
X0061825Y0146685D01*
X0065763Y0146685D02*
X0067000Y0146685D01*
X0067000Y0147471D02*
X0066886Y0147471D01*
X0065778Y0145113D02*
X0017787Y0145113D01*
X0017787Y0144327D02*
X0064992Y0144327D01*
X0064206Y0143541D02*
X0017787Y0143541D01*
X0017787Y0142755D02*
X0063421Y0142755D01*
X0062635Y0141969D02*
X0017787Y0141969D01*
X0017787Y0141183D02*
X0061849Y0141183D01*
X0061063Y0140397D02*
X0017787Y0140397D01*
X0017787Y0139611D02*
X0060277Y0139611D01*
X0059491Y0138826D02*
X0017787Y0138826D01*
X0017787Y0138040D02*
X0058705Y0138040D01*
X0057919Y0137254D02*
X0017787Y0137254D01*
X0017787Y0136468D02*
X0057133Y0136468D01*
X0056347Y0135682D02*
X0017787Y0135682D01*
X0017787Y0134896D02*
X0055561Y0134896D01*
X0054775Y0134110D02*
X0017787Y0134110D01*
X0017787Y0133324D02*
X0053990Y0133324D01*
X0053204Y0132538D02*
X0017787Y0132538D01*
X0017787Y0131752D02*
X0052418Y0131752D01*
X0051632Y0130966D02*
X0017787Y0130966D01*
X0017787Y0130181D02*
X0050846Y0130181D01*
X0050060Y0129395D02*
X0017787Y0129395D01*
X0017787Y0128609D02*
X0049274Y0128609D01*
X0048488Y0127823D02*
X0017787Y0127823D01*
X0017787Y0127037D02*
X0047702Y0127037D01*
X0046916Y0126251D02*
X0017787Y0126251D01*
X0017787Y0125465D02*
X0046130Y0125465D01*
X0045763Y0146685D02*
X0051825Y0146685D01*
X0050701Y0147471D02*
X0046886Y0147471D01*
X0047632Y0148257D02*
X0049956Y0148257D01*
X0049630Y0149042D02*
X0047957Y0149042D01*
X0048283Y0149828D02*
X0049304Y0149828D01*
X0049300Y0150614D02*
X0048287Y0150614D01*
X0048287Y0151400D02*
X0049300Y0151400D01*
X0049532Y0152186D02*
X0048056Y0152186D01*
X0047730Y0152972D02*
X0049857Y0152972D01*
X0050463Y0153758D02*
X0047124Y0153758D01*
X0046336Y0154544D02*
X0051251Y0154544D01*
X0036991Y0157687D02*
X0035487Y0157687D01*
X0035487Y0158473D02*
X0036205Y0158473D01*
X0035021Y0207986D02*
X0028744Y0207986D01*
X0017787Y0229206D02*
X0064393Y0229206D01*
X0064700Y0218203D02*
X0052749Y0218203D01*
X0053306Y0217417D02*
X0059230Y0217417D01*
X0058444Y0216631D02*
X0053306Y0216631D01*
X0053306Y0215845D02*
X0057658Y0215845D01*
X0057763Y0211915D02*
X0053306Y0211915D01*
X0053306Y0211130D02*
X0058549Y0211130D01*
X0059335Y0210344D02*
X0053306Y0210344D01*
X0063558Y0217417D02*
X0064700Y0217417D01*
X0064700Y0216631D02*
X0064344Y0216631D01*
X0068087Y0210344D02*
X0089335Y0210344D01*
X0088172Y0207986D02*
X0094821Y0207986D01*
X0094481Y0207200D02*
X0090331Y0207200D01*
X0091692Y0206414D02*
X0094481Y0206414D01*
X0094481Y0205628D02*
X0091859Y0205628D01*
X0091573Y0204842D02*
X0094481Y0204842D01*
X0094481Y0204056D02*
X0091287Y0204056D01*
X0091001Y0203270D02*
X0094481Y0203270D01*
X0094481Y0202485D02*
X0090715Y0202485D01*
X0090429Y0201699D02*
X0094481Y0201699D01*
X0094481Y0200913D02*
X0090143Y0200913D01*
X0089857Y0200127D02*
X0094675Y0200127D01*
X0097197Y0199341D02*
X0089571Y0199341D01*
X0086342Y0198555D02*
X0097205Y0198555D01*
X0097213Y0197769D02*
X0086039Y0197769D01*
X0085736Y0196983D02*
X0097221Y0196983D01*
X0097229Y0196197D02*
X0085433Y0196197D01*
X0085129Y0195411D02*
X0097237Y0195411D01*
X0097245Y0194625D02*
X0084826Y0194625D01*
X0084720Y0193839D02*
X0097253Y0193839D01*
X0097166Y0193054D02*
X0085086Y0193054D01*
X0085453Y0192268D02*
X0096380Y0192268D01*
X0095594Y0191482D02*
X0085819Y0191482D01*
X0085753Y0190696D02*
X0095000Y0190696D01*
X0095000Y0189910D02*
X0085467Y0189910D01*
X0085181Y0189124D02*
X0095000Y0189124D01*
X0095000Y0188338D02*
X0084895Y0188338D01*
X0083619Y0187552D02*
X0095027Y0187552D01*
X0101389Y0185980D02*
X0103600Y0185980D01*
X0103600Y0186766D02*
X0102175Y0186766D01*
X0102961Y0187552D02*
X0103600Y0187552D01*
X0103600Y0188338D02*
X0102987Y0188338D01*
X0102987Y0189124D02*
X0103600Y0189124D01*
X0103600Y0189910D02*
X0102987Y0189910D01*
X0102987Y0190696D02*
X0103600Y0190696D01*
X0103600Y0191482D02*
X0102393Y0191482D01*
X0101607Y0192268D02*
X0103600Y0192268D01*
X0103600Y0193054D02*
X0100821Y0193054D01*
X0100641Y0193839D02*
X0103600Y0193839D01*
X0103600Y0194625D02*
X0100633Y0194625D01*
X0100625Y0195411D02*
X0103600Y0195411D01*
X0103600Y0196197D02*
X0100617Y0196197D01*
X0100609Y0196983D02*
X0103600Y0196983D01*
X0103600Y0197769D02*
X0100601Y0197769D01*
X0100593Y0198555D02*
X0103600Y0198555D01*
X0103600Y0199341D02*
X0100585Y0199341D01*
X0103013Y0200127D02*
X0103600Y0200127D01*
X0103600Y0200913D02*
X0103206Y0200913D01*
X0103206Y0201699D02*
X0103600Y0201699D01*
X0103600Y0202485D02*
X0103206Y0202485D01*
X0103206Y0203270D02*
X0103600Y0203270D01*
X0103600Y0204056D02*
X0103206Y0204056D01*
X0103206Y0204842D02*
X0103600Y0204842D01*
X0103600Y0205628D02*
X0103206Y0205628D01*
X0103206Y0206414D02*
X0103600Y0206414D01*
X0103600Y0207200D02*
X0103206Y0207200D01*
X0102866Y0207986D02*
X0103600Y0207986D01*
X0103600Y0208772D02*
X0086012Y0208772D01*
X0086155Y0223704D02*
X0085597Y0223704D01*
X0085869Y0224490D02*
X0086707Y0224490D01*
X0086421Y0225276D02*
X0085583Y0225276D01*
X0085297Y0226062D02*
X0086135Y0226062D01*
X0085849Y0226848D02*
X0085011Y0226848D01*
X0087756Y0224490D02*
X0090058Y0224490D01*
X0089915Y0225276D02*
X0094281Y0225276D01*
X0094281Y0226062D02*
X0090571Y0226062D01*
X0090285Y0226848D02*
X0094281Y0226848D01*
X0094375Y0227634D02*
X0089999Y0227634D01*
X0089693Y0228420D02*
X0095209Y0228420D01*
X0098450Y0228420D02*
X0099237Y0228420D01*
X0099237Y0227634D02*
X0098450Y0227634D01*
X0098450Y0226848D02*
X0099237Y0226848D01*
X0099237Y0226062D02*
X0098450Y0226062D01*
X0098450Y0225276D02*
X0099237Y0225276D01*
X0099237Y0224490D02*
X0098450Y0224490D01*
X0106987Y0208772D02*
X0111775Y0208772D01*
X0109616Y0207986D02*
X0106987Y0207986D01*
X0106987Y0207200D02*
X0107457Y0207200D01*
X0107072Y0202485D02*
X0106987Y0202485D01*
X0106987Y0201699D02*
X0107358Y0201699D01*
X0107644Y0200913D02*
X0106987Y0200913D01*
X0106987Y0200127D02*
X0107930Y0200127D01*
X0108216Y0199341D02*
X0106987Y0199341D01*
X0106987Y0198555D02*
X0111345Y0198555D01*
X0111631Y0197769D02*
X0106987Y0197769D01*
X0106987Y0196983D02*
X0111917Y0196983D01*
X0112204Y0196197D02*
X0106987Y0196197D01*
X0106987Y0195411D02*
X0112490Y0195411D01*
X0112777Y0194625D02*
X0106987Y0194625D01*
X0106987Y0193839D02*
X0112961Y0193839D01*
X0112594Y0193054D02*
X0106987Y0193054D01*
X0106987Y0192268D02*
X0112228Y0192268D01*
X0111861Y0191482D02*
X0106987Y0191482D01*
X0106987Y0190696D02*
X0111762Y0190696D01*
X0112048Y0189910D02*
X0106987Y0189910D01*
X0106987Y0189124D02*
X0112334Y0189124D01*
X0112620Y0188338D02*
X0106987Y0188338D01*
X0106987Y0187552D02*
X0113540Y0187552D01*
X0112342Y0179693D02*
X0117258Y0179693D01*
X0116473Y0178907D02*
X0113692Y0178907D01*
X0115782Y0222918D02*
X0128970Y0222918D01*
X0128970Y0223704D02*
X0116068Y0223704D01*
X0116354Y0224490D02*
X0128970Y0224490D01*
X0128970Y0225276D02*
X0116630Y0225276D01*
X0116549Y0226062D02*
X0128970Y0226062D01*
X0128970Y0226848D02*
X0115741Y0226848D01*
X0113582Y0227634D02*
X0128970Y0227634D01*
X0134387Y0229206D02*
X0180000Y0229206D01*
X0180000Y0229991D02*
X0134387Y0229991D01*
X0134387Y0230777D02*
X0180000Y0230777D01*
X0180000Y0231563D02*
X0134387Y0231563D01*
X0134387Y0232349D02*
X0180000Y0232349D01*
X0180000Y0233135D02*
X0134387Y0233135D01*
X0134387Y0233921D02*
X0180000Y0233921D01*
X0180000Y0234707D02*
X0134387Y0234707D01*
X0134387Y0235493D02*
X0180000Y0235493D01*
X0180000Y0236279D02*
X0134387Y0236279D01*
X0134387Y0237065D02*
X0180000Y0237065D01*
X0180000Y0237851D02*
X0134387Y0237851D01*
X0134387Y0238637D02*
X0180000Y0238637D01*
X0180000Y0239422D02*
X0134387Y0239422D01*
X0134387Y0240208D02*
X0180000Y0240208D01*
X0180000Y0240994D02*
X0134387Y0240994D01*
X0134387Y0241780D02*
X0180000Y0241780D01*
X0180000Y0242566D02*
X0134387Y0242566D01*
X0134387Y0243352D02*
X0180000Y0243352D01*
X0180000Y0244138D02*
X0134387Y0244138D01*
X0134387Y0244924D02*
X0180000Y0244924D01*
X0180000Y0245710D02*
X0134387Y0245710D01*
X0134387Y0246496D02*
X0180000Y0246496D01*
X0180000Y0247282D02*
X0134387Y0247282D01*
X0134387Y0248067D02*
X0180000Y0248067D01*
X0180000Y0248853D02*
X0134387Y0248853D01*
X0134387Y0249639D02*
X0180000Y0249639D01*
X0180000Y0250425D02*
X0134387Y0250425D01*
X0134387Y0251211D02*
X0180000Y0251211D01*
X0180000Y0251997D02*
X0134387Y0251997D01*
X0134387Y0252783D02*
X0180000Y0252783D01*
X0180000Y0253569D02*
X0134387Y0253569D01*
X0134387Y0254355D02*
X0180000Y0254355D01*
X0146667Y0312512D02*
X0145312Y0312512D01*
X0154531Y0324301D02*
X0103206Y0324301D01*
X0103206Y0325087D02*
X0154531Y0325087D01*
X0154531Y0325873D02*
X0103206Y0325873D01*
X0103206Y0326659D02*
X0154531Y0326659D01*
X0154531Y0327445D02*
X0103206Y0327445D01*
X0102571Y0328231D02*
X0155166Y0328231D01*
X0172835Y0345521D02*
X0024952Y0345521D01*
X0025738Y0346307D02*
X0172049Y0346307D01*
X0171263Y0347092D02*
X0026524Y0347092D01*
X0024166Y0344735D02*
X0173621Y0344735D01*
X0174407Y0343949D02*
X0023380Y0343949D01*
X0022595Y0343163D02*
X0175193Y0343163D01*
X0175979Y0342377D02*
X0021809Y0342377D01*
X0021023Y0341591D02*
X0176765Y0341591D01*
X0177551Y0340805D02*
X0020237Y0340805D01*
X0019451Y0340019D02*
X0178337Y0340019D01*
X0129230Y0281076D02*
X0102399Y0281076D01*
X0102887Y0280290D02*
X0127545Y0280290D01*
X0127202Y0279504D02*
X0102887Y0279504D01*
X0102887Y0278718D02*
X0126916Y0278718D01*
X0126630Y0277932D02*
X0102887Y0277932D01*
X0102755Y0277146D02*
X0126346Y0277146D01*
X0126713Y0276360D02*
X0101969Y0276360D01*
X0101183Y0275574D02*
X0127079Y0275574D01*
X0089091Y0330588D02*
X0063797Y0330588D01*
X0064583Y0331374D02*
X0088305Y0331374D01*
X0087519Y0332160D02*
X0065369Y0332160D01*
X0065437Y0332946D02*
X0087450Y0332946D01*
X0087450Y0333732D02*
X0065437Y0333732D01*
X0065437Y0334518D02*
X0087450Y0334518D01*
X0087450Y0335304D02*
X0065437Y0335304D01*
X0064885Y0336090D02*
X0088002Y0336090D01*
X0088788Y0336876D02*
X0064099Y0336876D01*
X0063313Y0337662D02*
X0089574Y0337662D01*
X0087899Y0223704D02*
X0086993Y0223704D01*
X0098450Y0100316D02*
X0099237Y0100316D01*
X0099237Y0099530D02*
X0098450Y0099530D01*
D22*
X0113794Y0111983D02*
X0113794Y0120733D01*
X0113794Y0111983D02*
X0124119Y0101658D01*
X0124119Y0066608D01*
X0132494Y0058233D01*
X0157094Y0058233D01*
X0166394Y0048933D01*
D23*
X0073894Y0046433D02*
X0073894Y0041433D01*
X0073894Y0046433D02*
X0066472Y0053854D01*
X0066470Y0053936D01*
X0061394Y0059012D01*
X0051315Y0048933D01*
X0031394Y0048933D01*
D24*
X0073894Y0041433D02*
X0081394Y0033933D01*
X0128894Y0033933D01*
X0132494Y0037533D01*
X0132494Y0058233D01*
D25*
X0113894Y0096433D03*
X0096394Y0091433D03*
X0076394Y0063933D03*
X0085213Y0127195D03*
X0066394Y0166433D03*
X0061975Y0176433D03*
X0066394Y0226433D03*
X0048894Y0258907D03*
X0111394Y0176433D03*
X0138894Y0101433D03*
M02*
